<?xml version="1.0" encoding="utf-8"?>
<!-- Generator: Adobe Illustrator 21.0.0, SVG Export Plug-In . SVG Version: 6.00 Build 0)  -->
<!DOCTYPE svg PUBLIC "-//W3C//DTD SVG 1.1//EN" "http://www.w3.org/Graphics/SVG/1.1/DTD/svg11.dtd">
<svg version="1.1" id="Layer_1" xmlns="http://www.w3.org/2000/svg" xmlns:xlink="http://www.w3.org/1999/xlink" x="0px" y="0px"
	 viewBox="0 0 824 248" style="enable-background:new 0 0 824 248;" xml:space="preserve">
<style type="text/css">
	.st0{fill:#112B49;}
	.st1{fill:none;}
</style>
<symbol  id="logo_apollo_midnight" viewBox="-486.3 -165.8 972.7 331.6">
	<g>
		<polygon class="st0" points="-284.7,51.4 -309,51.4 -344.1,-39.7 -322.2,-39.7 -316.4,-24.3 -283.3,-24.3 -289.3,-7.2 
			-311.1,-7.2 -296.9,32 -271.6,-39.7 -249.6,-39.7 		"/>
		<path class="st0" d="M84.6-39.7v91.1h19.5v-74h38.5v-17.1H84.6z"/>
		<path class="st0" d="M197.1-39.7v91.1h19.5v-74h38.5v-17.1H197.1z"/>
		<path class="st0" d="M-23.6,35.1c16.2,0,29.3-13.1,29.3-29.3c0-16.2-13.1-29.3-29.3-29.3c-16.2,0-29.3,13.1-29.3,29.3
			C-52.9,21.9-39.8,35.1-23.6,35.1 M-23.6,52.9c-26,0-47.1-21.1-47.1-47.1s21.1-47.1,47.1-47.1S23.5-20.2,23.5,5.8
			S2.4,52.9-23.6,52.9L-23.6,52.9z"/>
		<path class="st0" d="M345,35.1c16.2,0,29.3-13.1,29.3-29.3c0-16.2-13.1-29.3-29.3-29.3s-29.3,13.1-29.3,29.3
			C315.7,21.9,328.8,35.1,345,35.1 M345,52.9c-26,0-47.1-21.1-47.1-47.1s21.1-47.1,47.1-47.1c26,0,47.1,21.1,47.1,47.1
			S371,52.9,345,52.9L345,52.9z"/>
		<path class="st0" d="M-150.3,51.4h-23.1h-3.3h-16.1v-91.1h19.4v31.4h23.1c16.2,0,29.3,13.7,29.3,29.9
			C-121,37.7-134.1,51.4-150.3,51.4z M-150.3,9.5h-23.1v24.1h23.1c6.3,0,11.5-5.7,11.5-12S-144,9.5-150.3,9.5z"/>
		<g>
			<path class="st0" d="M-209.6-67.3c-1.7,0-3.2-0.8-4.1-2.1c0,0-4.4-5-6.7-7.4c-10-10-21.6-17.8-34.5-23.3
				c-13.4-5.7-27.6-8.5-42.3-8.5c-14.7,0-28.9,2.9-42.3,8.5c-12.9,5.5-24.6,13.3-34.5,23.3c-10,10-17.8,21.6-23.3,34.5
				c-5.7,13.4-8.5,27.6-8.5,42.3s2.9,28.9,8.5,42.3c5.5,12.9,13.3,24.6,23.3,34.5c10,10,21.6,17.8,34.5,23.3
				c13.4,5.7,27.6,8.5,42.3,8.5c14.7,0,28.9-2.9,42.3-8.5c9.4-4,18.1-9.2,26-15.6c-0.4-1.2-0.7-2.6-0.7-4c0-6.8,5.5-12.3,12.3-12.3
				c6.8,0,12.3,5.5,12.3,12.3c0,6.8-5.5,12.3-12.3,12.3c-1.7,0-3.3-0.3-4.7-1c-20.5,16.8-46.6,26.9-75.2,26.9
				c-65.5,0-118.7-53.1-118.7-118.7s53.1-118.7,118.7-118.7c36.7,0,69.4,16.6,91.2,42.8c0.9,0.9,1.5,2.2,1.5,3.5
				C-204.5-69.6-206.8-67.3-209.6-67.3z"/>
		</g>
	</g>
	<polygon class="st1" points="486.3,-165.8 -486.3,-165.8 -486.3,165.8 486.3,165.8 	"/>
</symbol>
<g id="Layer_2">
	
		<use xlink:href="#logo_apollo_midnight"  width="972.7" height="331.6" id="XMLID_1_" x="-486.3" y="-165.8" transform="matrix(1 0 0 -1 422.5215 123.5513)" style="overflow:visible;"/>
</g>
</svg>
