<?xml version="1.0" encoding="utf-8"?>
<!-- Generator: Adobe Illustrator 21.0.0, SVG Export Plug-In . SVG Version: 6.00 Build 0)  -->
<!DOCTYPE svg PUBLIC "-//W3C//DTD SVG 1.1//EN" "http://www.w3.org/Graphics/SVG/1.1/DTD/svg11.dtd">
<svg version="1.1" id="Layer_1" xmlns="http://www.w3.org/2000/svg" xmlns:xlink="http://www.w3.org/1999/xlink" x="0px" y="0px"
	 viewBox="0 0 3606.4 1863.2" enable-background="new 0 0 3606.4 1863.2" xml:space="preserve">
<g>
	<g id="XMLID_397_">
		<path id="XMLID_479_" fill="#2A3E48" d="M173.3,1780.5c23.2,0,36.6-1.5,66-7.7l7.2,49.5c-22.7,6.2-47.9,9.3-73.2,9.3
			c-112.9,0-145.4-70.6-145.4-153.1c1-80.4,49.5-148.5,144.9-148.5c25.3,0,46.9,3.1,73.2,9.8l-9.8,49c-27.8-6.2-44.3-7.2-61.9-7.2
			c-59.8,1-89.2,45.4-90.2,96.9C84.1,1729.5,103.1,1780.5,173.3,1780.5z"/>
		<path id="XMLID_476_" fill="#2A3E48" d="M404.2,1530c92.8,0.5,134,69.6,134,150.5c0,78.9-35.6,149.5-134.6,150
			c-96.9-1-134-71.2-134-150C269.7,1599.6,311.4,1531,404.2,1530z M404.2,1781c59.3-0.5,78.4-48.5,78.4-100.5
			c-0.5-47.4-20.6-101-78.9-101c-56.7,0.5-78.9,53.1-78.9,101C324.8,1734.6,348.5,1781,404.2,1781z"/>
		<path id="XMLID_474_" fill="#2A3E48" d="M922.4,1825.4v-185.6c0-46.9-17.5-59.8-46.9-59.8c-20.1,0-42.8,11.3-63.4,28.3
			c1,6.2,1.5,18.6,1.5,22.2v194.9h-57.7v-187.7c0-46.9-13.9-58.3-43.3-58.3c-18.6,0-44.3,12.4-66.5,28.9v217h-57.2v-290.3H646v24.7
			c17.5-13.9,45.4-29.9,75.8-30.4c40.2-0.5,63.4,13.4,76.3,35.1c23.7-22.2,58.8-34.5,85.6-35.1c94.3-1.5,95.9,74.2,95.9,106.2v189.7
			H922.4z"/>
		<path id="XMLID_472_" fill="#2A3E48" d="M1376,1825.4v-185.6c0-46.9-17.5-59.8-46.9-59.8c-20.1,0-42.8,11.3-63.4,28.3
			c1,6.2,1.5,18.6,1.5,22.2v194.9h-57.7v-187.7c0-46.9-13.9-58.3-43.3-58.3c-18.6,0-44.3,12.4-66.5,28.9v217h-57.2v-290.3h57.2v24.7
			c17.5-13.9,45.4-29.9,75.8-30.4c40.2-0.5,63.4,13.4,76.3,35.1c23.7-22.2,58.8-34.5,85.6-35.1c94.3-1.5,95.9,74.2,95.9,106.2v189.7
			H1376z"/>
		<path id="XMLID_464_" fill="#2A3E48" d="M1700.3,1772.3l8.8,46.9c-25.8,8.8-61.3,12.9-89.2,12.9c-114.5,0-142.3-76.8-142.3-153.6
			c0-76.8,34-148,129.9-148c59.3,0,108.8,36.6,109.3,129.9l-0.5,30.4h-182.5c1,56.7,31.4,91.3,88.7,91.3
			C1645.1,1782.1,1668.8,1779.5,1700.3,1772.3z M1536.3,1646.5h127.3c-2.1-58.8-31.5-70.6-58.8-70.6
			C1561.6,1575.3,1541.5,1604.7,1536.3,1646.5z"/>
		<path id="XMLID_462_" fill="#2A3E48" d="M1927.1,1588.2c-15-3.6-27.8-4.1-37.1-4.1c-35.6-0.5-54.1,17-67.5,30.9v210.3h-57.2
			v-290.3h57.2v25.8c15-15.5,37.6-28.9,67-29.4c11.9-0.5,31.4,1.5,47.9,7.7L1927.1,1588.2z"/>
		<path id="XMLID_460_" fill="#2A3E48" d="M2094.7,1780.5c23.2,0,36.6-1.5,66-7.7l7.2,49.5c-22.7,6.2-47.9,9.3-73.2,9.3
			c-112.9,0-145.4-70.6-145.4-153.1c1-80.4,49.5-148.5,144.9-148.5c25.3,0,46.9,3.1,73.2,9.8l-9.8,49c-27.8-6.2-44.3-7.2-61.9-7.2
			c-59.8,1-89.2,45.4-90.2,96.9C2005.5,1729.5,2024.6,1780.5,2094.7,1780.5z"/>
		<path id="XMLID_457_" fill="#2A3E48" d="M2413.8,1772.3l8.8,46.9c-25.8,8.8-61.3,12.9-89.2,12.9c-114.5,0-142.3-76.8-142.3-153.6
			c0-76.8,34-148,129.9-148c59.3,0,108.8,36.6,109.3,129.9l-0.5,30.4h-182.5c1,56.7,31.4,91.3,88.7,91.3
			C2358.6,1782.1,2382.4,1779.5,2413.8,1772.3z M2249.8,1646.5h127.3c-2.1-58.8-31.4-70.6-58.8-70.6
			C2275.1,1575.3,2255,1604.7,2249.8,1646.5z"/>
		<path id="XMLID_454_" fill="#2A3E48" d="M2624.1,1582.5h-78.9v140.7c0,29.4,3.6,50,33.5,54.1c16.5,1.5,33.5,0,50-2.1l3.6,49.5
			c-17,3.1-41.3,3.6-51,3.6c-67.5-2.6-92.8-37.1-92.8-91.3v-154.7h-41.8v-39.7l41.8-4.6v-67.5h56.7v64.4h78.9V1582.5z"/>
		<path id="XMLID_442_" fill="#2A3E48" d="M2790.7,1530c92.8,0.5,134,69.6,134,150.5c0,78.9-35.6,149.5-134.6,150
			c-96.9-1-134-71.2-134-150C2656.1,1599.6,2697.9,1531,2790.7,1530z M2790.7,1781c59.3-0.5,78.4-48.5,78.4-100.5
			c-0.5-47.4-20.6-101-78.9-101c-56.7,0.5-78.9,53.1-78.9,101C2711.3,1734.6,2735,1781,2790.7,1781z"/>
		<path id="XMLID_402_" fill="#2A3E48" d="M3098.9,1530c92.8,0.5,134,69.6,134,150.5c0,78.9-35.6,149.5-134.6,150
			c-96.9-1-134-71.2-134-150C2964.4,1599.6,3006.1,1531,3098.9,1530z M3098.9,1781c59.3-0.5,78.4-48.5,78.4-100.5
			c-0.5-47.4-20.6-101-78.9-101c-56.7,0.5-78.9,53.1-78.9,101C3019.5,1734.6,3043.3,1781,3098.9,1781z"/>
		<path id="XMLID_400_" fill="#2A3E48" d="M3278.3,1825.4v-393.9h55.2v393.9H3278.3z"/>
		<path id="XMLID_398_" fill="#2A3E48" d="M3391.8,1769.2c32.5,8.2,62.9,12.4,82,12.4c22.7,0,45.9-4.6,47.4-32
			c1.5-28.9-28.3-37.6-62.4-52.1c-38.7-16-80.4-37.6-79.4-91.3c1-26.8,17-79.4,102.6-76.8c25.8,0.5,56.7,4.6,82.5,11.3l-9.8,47.4
			c-30.4-7.2-53.1-10.3-75.3-10.8c-24.7,0-43.8,7.7-44.9,30.9c-0.5,19.6,14.9,29.9,53.1,45.4c38.7,16,93.3,36.6,90.7,97.4
			c-1.5,38.7-26.8,80.9-104.7,79.9c-24.7-0.5-64.4-3.6-93.8-13.9L3391.8,1769.2z"/>
	</g>
	<g id="XMLID_1_">
		<path id="XMLID_75_" fill="#F27923" d="M1289.9,959.1c-8.9,4.1-14.7,13.1-14.7,23c0,9.9,5.7,18.8,14.6,23l491.5,230.1
			c6.6,3.1,13.7,4.7,20.8,4.7V726.3c-7.3,0-14.6,1.6-21.4,4.7L1289.9,959.1z"/>
		<path id="XMLID_74_" fill="#F5A730" d="M1802.1,726.3V1240c7.6,0.1,15.2-1.5,22.3-4.7l490.1-229.4c8.9-4.2,14.6-13.1,14.6-23
			c0-9.8-5.7-18.8-14.6-23L1823.5,731C1816.7,727.9,1809.4,726.3,1802.1,726.3z"/>
		<path id="XMLID_73_" fill="#20AD92" d="M1275.2,287c0,10,5.7,18.8,14.6,23l491.5,230.1c6.6,3.1,13.7,4.7,20.8,4.8
			c6.2,0.1,12.5-1,18.4-3.2c4.7-2.2,3.8-1.8,13.8-6.4c50.7-23.6,17.1-7.9,480.2-224.6c8.9-4.2,14.6-13.1,14.6-23
			c0-9.8-5.7-18.8-14.6-23L1823.5,35.9c-13.6-6.3-29.2-6.3-42.8,0L1289.9,264C1280.9,268.1,1275.2,277.1,1275.2,287z"/>
		<path id="XMLID_72_" fill="#D0D1D1" d="M1802.1,573.7v152.5c-7.3,0-14.6,1.6-21.4,4.7l-490.8,228.1c-8.9,4.1-14.7,13.1-14.7,23
			l0-678c0,0,0-19.5,0-17.2c0,9.9,5.7,18.8,14.6,23l491.6,230.1c6.6,3.1,13.7,4.7,20.8,4.8c6.2,0.1,12.5-1,18.4-3.2l-0.8,0.4
			C1804.4,549.2,1802.1,556.2,1802.1,573.7z"/>
	</g>
</g>
</svg>
