<?xml version="1.0" encoding="utf-8"?>
<!-- Generator: Adobe Illustrator 21.0.0, SVG Export Plug-In . SVG Version: 6.00 Build 0)  -->
<!DOCTYPE svg PUBLIC "-//W3C//DTD SVG 1.1//EN" "http://www.w3.org/Graphics/SVG/1.1/DTD/svg11.dtd">
<svg version="1.1" id="Layer_1" xmlns="http://www.w3.org/2000/svg" xmlns:xlink="http://www.w3.org/1999/xlink" x="0px" y="0px"
	 viewBox="0 0 274.5 274.1" style="enable-background:new 0 0 274.5 274.1;" xml:space="preserve">
<style type="text/css">
	.st0{fill:#3C5A99;}
	.st1{fill:#FFFFFF;}
</style>
<g>
	<path id="Blue_1_" class="st0" d="M256,270.5c8.1,0,14.7-6.6,14.7-14.7V18.3c0-8.1-6.6-14.7-14.7-14.7H18.5
		c-8.1,0-14.7,6.6-14.7,14.7v237.4c0,8.1,6.6,14.7,14.7,14.7H256z"/>
	<path id="f" class="st1" d="M188,270.5V167.1h34.7l5.2-40.3H188v-25.7c0-11.7,3.2-19.6,20-19.6l21.3,0v-36
		c-3.7-0.5-16.4-1.6-31.1-1.6c-30.8,0-51.8,18.8-51.8,53.2v29.7h-34.8v40.3h34.8v103.4H188z"/>
</g>
</svg>
