<?xml version="1.0" encoding="utf-8"?>
<!-- Generator: Adobe Illustrator 21.0.0, SVG Export Plug-In . SVG Version: 6.00 Build 0)  -->
<!DOCTYPE svg PUBLIC "-//W3C//DTD SVG 1.1//EN" "http://www.w3.org/Graphics/SVG/1.1/DTD/svg11.dtd">
<svg version="1.1" id="Ebene_1" xmlns="http://www.w3.org/2000/svg" xmlns:xlink="http://www.w3.org/1999/xlink" x="0px" y="0px"
	 viewBox="0 0 269 58" style="enable-background:new 0 0 269 58;" xml:space="preserve">
<style type="text/css">
	.st0{fill:#27AE60;}
	.st1{opacity:0.5;}
	.st2{fill:#2BC54C;}
</style>
<g id="XMLID_78_">
	<path id="XMLID_19_" class="st0" d="M46.5,19.3c-2.8-1.6-6.3,0.5-6.8,0.8l-12,6.8c-1.8-1.4-4.3-1.3-6,0.1s-2.1,4-0.9,5.9
		c1.2,2,3.5,2.8,5.6,2c2.1-0.8,3.4-3,3-5.2L41.3,23l0.1,0c0.8-0.5,2.6-1.2,3.5-0.8c0.6,0.3,1,1.5,1,3.2h0v15.1c0,1.4-0.8,2.7-2,3.4
		l-17.2,10c-1.2,0.7-2.7,0.7-3.9,0l-17.1-10c-1.2-0.7-2-2-2-3.4v-20c0-1.4,0.8-2.7,2-3.4l15.5-9c1.5,1.7,4,2.1,5.9,1s2.8-3.5,2-5.7
		c-0.8-2.1-2.9-3.4-5.1-3C21.7,0.8,20.1,2.7,20,5L4,14.3c-2.2,1.3-3.6,3.7-3.6,6.3v19.9c0,2.6,1.4,5,3.6,6.3l17.2,10
		c2.2,1.3,5,1.3,7.2,0l17.2-10c2.2-1.3,3.6-3.7,3.6-6.3V26h0C49.2,22.6,48.3,20.4,46.5,19.3z"/>
	<g id="XMLID_14_" class="st1">
		<path id="XMLID_20_" class="st2" d="M87.4,31.2h7.6v10.4c-1.2,0.4-2.4,0.7-3.6,0.9c-1.1,0.2-2.4,0.3-3.7,0.3
			c-3.1,0-5.6-0.9-7.3-2.8C78.8,38,78,35.4,78,32.1c0-3.3,1-5.9,2.9-7.8c1.9-1.9,4.6-2.8,7.9-2.8c2.2,0,4.2,0.4,6.2,1.2l-1.2,2.8
			c-1.7-0.8-3.4-1.2-5-1.2c-2.2,0-4,0.7-5.2,2.1c-1.3,1.4-1.9,3.3-1.9,5.7c0,2.5,0.6,4.5,1.7,5.8c1.2,1.3,2.8,2,5,2
			c1.1,0,2.3-0.1,3.5-0.4v-5.3h-4.3V31.2z"/>
		<path id="XMLID_22_" class="st2" d="M104.5,34.1v8.3h-3.4V21.7h5.8c2.7,0,4.6,0.5,5.9,1.5c1.3,1,1.9,2.5,1.9,4.5
			c0,2.6-1.3,4.4-4,5.5l5.8,9.2h-3.8l-5-8.3H104.5z M104.5,31.3h2.3c1.6,0,2.7-0.3,3.4-0.9c0.7-0.6,1.1-1.5,1.1-2.6
			c0-1.2-0.4-2-1.1-2.5c-0.8-0.5-1.9-0.8-3.5-0.8h-2.2C104.5,24.5,104.5,31.3,104.5,31.3z"/>
		<path id="XMLID_33_" class="st2" d="M133.5,42.4l-2.1-5.7h-7.9l-2,5.7H118l7.7-20.8h3.7l7.7,20.8H133.5z M130.6,33.7l-1.9-5.6
			c-0.1-0.4-0.3-1-0.6-1.8c-0.2-0.8-0.4-1.4-0.5-1.8c-0.3,1.2-0.6,2.4-1.1,3.8l-1.9,5.4L130.6,33.7L130.6,33.7z"/>
		<path id="XMLID_36_" class="st2" d="M154.7,28c0,2.2-0.7,3.8-2.1,5c-1.4,1.1-3.4,1.7-6,1.7h-2.1v7.7H141V21.7h5.9
			c2.6,0,4.5,0.5,5.8,1.6C154,24.4,154.7,25.9,154.7,28z M144.3,31.8h1.8c1.7,0,3-0.3,3.8-0.9c0.8-0.6,1.2-1.6,1.2-2.8
			c0-1.2-0.4-2.1-1.1-2.7c-0.7-0.6-1.9-0.9-3.4-0.9h-2.3L144.3,31.8L144.3,31.8z"/>
		<path id="XMLID_39_" class="st2" d="M176.2,42.4h-3.4v-9.3h-9.5v9.3h-3.4V21.7h3.4v8.5h9.5v-8.5h3.4V42.4z"/>
		<path id="XMLID_41_" class="st2" d="M191.5,24.3c-1.9,0-3.5,0.7-4.6,2.1c-1.1,1.4-1.7,3.3-1.7,5.7c0,2.5,0.5,4.5,1.6,5.8
			c1.1,1.3,2.6,2,4.7,2c0.9,0,1.7-0.1,2.6-0.3c0.8-0.2,1.7-0.4,2.6-0.7v2.9c-1.6,0.6-3.5,0.9-5.5,0.9c-3,0-5.4-0.9-7-2.8
			c-1.6-1.8-2.4-4.5-2.4-7.9c0-2.1,0.4-4,1.2-5.6s1.9-2.8,3.4-3.7c1.5-0.9,3.2-1.3,5.3-1.3c2.1,0,4.1,0.4,5.9,1.3l-1.2,2.8
			c-0.7-0.3-1.4-0.6-2.2-0.9C193.2,24.4,192.4,24.3,191.5,24.3z"/>
		<path id="XMLID_43_" class="st2" d="M219.9,32c0,3.4-0.8,6-2.5,7.9c-1.7,1.9-4.1,2.8-7.2,2.8c-3.1,0-5.5-0.9-7.2-2.8
			c-1.7-1.9-2.5-4.5-2.5-7.9c0-3.4,0.8-6,2.5-7.9c1.7-1.8,4.1-2.7,7.2-2.7c3.1,0,5.5,0.9,7.1,2.8C219.1,26,219.9,28.6,219.9,32z
			 M204.1,32c0,2.6,0.5,4.5,1.5,5.8c1,1.3,2.6,2,4.6,2s3.5-0.7,4.6-2s1.5-3.2,1.5-5.8c0-2.5-0.5-4.5-1.5-5.8c-1-1.3-2.5-2-4.5-2
			c-2,0-3.6,0.7-4.6,2C204.7,27.6,204.1,29.5,204.1,32z"/>
		<path id="XMLID_46_" class="st2" d="M243.8,32c0,3.4-0.8,6-2.5,7.9c-1.7,1.9-4.1,2.8-7.2,2.8c-3.1,0-5.5-0.9-7.2-2.8
			c-1.7-1.9-2.5-4.5-2.5-7.9c0-3.4,0.8-6,2.5-7.9c1.7-1.8,4.1-2.7,7.2-2.7c3.1,0,5.5,0.9,7.1,2.8C243,26,243.8,28.6,243.8,32z
			 M228,32c0,2.6,0.5,4.5,1.5,5.8c1,1.3,2.6,2,4.6,2s3.5-0.7,4.6-2s1.5-3.2,1.5-5.8c0-2.5-0.5-4.5-1.5-5.8c-1-1.3-2.5-2-4.5-2
			c-2,0-3.6,0.7-4.6,2C228.6,27.6,228,29.5,228,32z"/>
		<path id="XMLID_49_" class="st2" d="M249.4,42.4V21.7h3.4v17.8h8.8v2.9H249.4z"/>
	</g>
</g>
</svg>
