<?xml version="1.0" encoding="utf-8"?>
<!-- Generator: Adobe Illustrator 21.0.0, SVG Export Plug-In . SVG Version: 6.00 Build 0)  -->
<!DOCTYPE svg PUBLIC "-//W3C//DTD SVG 1.1//EN" "http://www.w3.org/Graphics/SVG/1.1/DTD/svg11.dtd">
<svg version="1.1" id="Layer_1" xmlns="http://www.w3.org/2000/svg" xmlns:xlink="http://www.w3.org/1999/xlink" x="0px" y="0px"
	 viewBox="0 0 269 58" style="enable-background:new 0 0 269 58;" xml:space="preserve">
<style type="text/css">
	.st0{filter:url(#Adobe_OpacityMaskFilter);}
	.st1{fill:#FFFFFF;}
	.st2{mask:url(#mask-2);fill:#F6C823;}
	.st3{fill:#25282C;}
	.st4{fill:#F6C823;}
</style>
<title>Group 22</title>
<desc>Created with Sketch.</desc>
<g id="Landing-Page">
	<g id="GraphQL-landingpage-light" transform="translate(-377.000000, -2551.000000)">
		<g id="Group" transform="translate(377.000000, 2498.000000)">
			<g id="Group-22" transform="translate(0.000000, 53.000000)">
				<g id="Group-19">
					<g id="Group-3" transform="translate(0.000000, 8.943611)">
						<g id="Clip-2">
						</g>
						<defs>
							<filter id="Adobe_OpacityMaskFilter" filterUnits="userSpaceOnUse" x="0" y="0.2" width="46.2" height="48">
								<feColorMatrix  type="matrix" values="1 0 0 0 0  0 1 0 0 0  0 0 1 0 0  0 0 0 1 0"/>
							</filter>
						</defs>
						<mask maskUnits="userSpaceOnUse" x="0" y="0.2" width="46.2" height="48" id="mask-2">
							<g class="st0">
								<polygon id="path-1" class="st1" points="0,0.2 0,48.2 46.2,48.2 46.2,0.2 								"/>
							</g>
						</mask>
						<path id="Fill-1" class="st2" d="M46.2,23.6c-0.3-3.8-1.2-7.5-2.6-10.9c-0.4-0.9-0.8-1.8-1.2-2.7C43.9,9.2,45,7.5,45,5.5
							c0-2.9-2.4-5.3-5.4-5.3h-33c-3,0-5.4,2.4-5.4,5.3c0,1.9,1.1,3.6,2.7,4.6c-0.4,0.9-0.8,1.8-1.2,2.7C1.2,16.1,0.3,19.8,0,23.6
							c0,0.5,0,0.9,0,1.4c0,3.3,0.6,6.5,1.6,9.5c0.3,0.8,0.9,2.3,1.6,3.3c0.1,0.1,0.1,0.2,0.2,0.3c0,0,0,0,0,0
							c0.3,0.4,0.7,0.8,1.1,1.2c0.5,0.4,1,0.8,1.6,1.1c0.6,0.3,1.3,0.6,2,0.7c0.7,0.1,1.5,0,2.1-0.4c0.6-0.4,1-1.1,1.3-1.8
							c0.5-1.6,0.4-3.3,0.3-4.9c-0.2-1.6-0.5-3.1-0.8-4.4c-0.6-2.6-1.2-4.2-1.2-4.2s0.7,1.6,1.5,4.1c0.4,1.3,0.8,2.8,1.1,4.4
							c0.3,1.6,0.5,3.4,0,5.3c-0.2,0.9-0.7,1.9-1.5,2.5c-0.8,0.7-1.9,0.9-2.8,0.9c-1,0-1.9-0.2-2.7-0.5c-0.1,0-0.2-0.1-0.3-0.1
							c1.5,2.1,3.2,4.1,5.1,5.8c1,0.6,2.7,1,5-0.2c3.9-2,7.8-2.2,7.8-2.2s3.9,0.2,7.8,2.2c2.6,1.3,4.5,0.5,5.4-0.1
							c1.8-1.6,3.4-3.5,4.8-5.5c-0.1,0-0.2,0.1-0.3,0.1c-0.8,0.3-1.7,0.5-2.7,0.5c-0.9,0-2-0.2-2.8-0.9c-0.8-0.6-1.3-1.6-1.5-2.5
							c-0.4-1.8-0.2-3.6,0-5.3c0.3-1.6,0.7-3.1,1.1-4.4c0.8-2.5,1.5-4.1,1.5-4.1s-0.6,1.7-1.2,4.2c-0.3,1.3-0.6,2.8-0.8,4.4
							c-0.1,1.6-0.2,3.4,0.3,4.9c0.2,0.8,0.7,1.5,1.3,1.8c0.6,0.4,1.3,0.5,2.1,0.4c0.7-0.1,1.4-0.4,2-0.7c0.6-0.3,1.1-0.7,1.6-1.1
							c0.6-0.5,1.1-1.1,1.4-1.5c0.6-0.8,1-1.9,1.4-2.7c1.1-3.1,1.7-6.5,1.7-10C46.2,24.6,46.2,24.1,46.2,23.6"/>
					</g>
					<path id="Fill-4" class="st1" d="M18.3,18.3c0,2.7-2.2,4.8-4.9,4.8s-4.9-2.2-4.9-4.8s2.2-4.8,4.9-4.8S18.3,15.6,18.3,18.3"/>
					<path id="Fill-5" class="st3" d="M6.6,11.8c-1.5,0-2.7,1.2-2.7,2.7c0,1,0.5,1.8,1.3,2.3c0.9-1.5,2-3,3.1-4.3
						C7.9,12,7.3,11.8,6.6,11.8"/>
					<path id="Fill-6" class="st3" d="M39.6,11.8c-0.7,0-1.2,0.2-1.7,0.6c1.2,1.4,2.2,2.8,3.1,4.3c0.8-0.5,1.3-1.3,1.3-2.3
						C42.3,13,41.1,11.8,39.6,11.8"/>
					<path id="Fill-7" class="st3" d="M13.3,16.1c-0.2,0-0.3,0-0.4,0c0.1,0.2,0.1,0.4,0.1,0.5c0,0.7-0.5,1.2-1.2,1.2
						c-0.2,0-0.4-0.1-0.6-0.2c0,0.2-0.1,0.4-0.1,0.5c0,1.2,1,2.2,2.2,2.2s2.2-1,2.2-2.2S14.5,16.1,13.3,16.1"/>
					<path id="Fill-8" class="st1" d="M37.8,18.3c0,2.7-2.2,4.8-4.9,4.8s-4.9-2.2-4.9-4.8s2.2-4.8,4.9-4.8S37.8,15.6,37.8,18.3"/>
					<path id="Fill-9" class="st3" d="M32.9,16.1c-0.2,0-0.3,0-0.4,0c0.1,0.2,0.1,0.4,0.1,0.5c0,0.7-0.5,1.2-1.2,1.2
						c-0.2,0-0.4-0.1-0.6-0.2c0,0.2-0.1,0.4-0.1,0.5c0,1.2,1,2.2,2.2,2.2c1.2,0,2.2-1,2.2-2.2S34.1,16.1,32.9,16.1"/>
					<path id="Fill-10" class="st1" d="M29.7,27.6c0,3.6-3,6.6-6.7,6.6c-3.7,0-6.7-2.9-6.7-6.6c0-3.6,3-6.6,6.7-6.6
						C26.7,21,29.7,24,29.7,27.6"/>
					<path id="Fill-11" class="st3" d="M26.5,24c0-0.1,0-0.2,0-0.3c0,0,0-0.1,0-0.1h0c0-0.1-0.1-0.2-0.1-0.2l0,0
						c0,0-0.4-0.8-3.3-0.8v0c0,0,0,0,0,0c0,0,0,0,0,0v0c-1.7,0-2.5,0.3-2.9,0.5c-0.2,0.1-0.4,0.3-0.5,0.5h0c0,0,0,0,0,0.1
						c0,0.1,0,0.2,0,0.2c0,0,0,0,0,0c0,0.4,0.1,1.1,1.1,1.9c0.9,0.7,1.6,0.9,2,1v7.2c0.1,0,0.3,0,0.4,0s0.3,0,0.4,0V27
						c0.4-0.1,1.1-0.4,2-1C26.4,25.2,26.5,24.4,26.5,24C26.5,24,26.5,24,26.5,24"/>
					<path id="Fill-12" class="st4" d="M12.2,7.7h21.6c-2.6-1.7-5.6-2.9-8.9-3.2L26.3,1c0,0-0.8-0.7-3.2-0.7S19.8,1,19.8,1l1.3,3.5
						C17.9,4.8,14.8,6,12.2,7.7"/>
					<path id="Fill-13" class="st1" d="M3.6,44.5c0,0-0.4-0.5-0.8-1.2c-0.4-0.8-0.8-1.9-1.1-3c-0.3-1.1-0.4-2.3-0.4-3.1
						c0-0.9,0-1.4,0-1.4s0,0.1,0.1,0.4c0.1,0.2,0.1,0.6,0.2,1c0.2,0.8,0.4,1.9,0.7,3c0.2,1.1,0.5,2.2,0.8,3c0.1,0.4,0.2,0.7,0.3,1
						C3.6,44.4,3.6,44.5,3.6,44.5"/>
					<path id="Fill-14" class="st1" d="M37.1,37.6c0,0,0,0.4-0.1,0.9c-0.1,0.6-0.2,1.3-0.3,2c-0.2,0.7-0.3,1.4-0.5,2
						C36.1,42.8,36,43,36,43.2c-0.1,0.2-0.1,0.2-0.1,0.2s-0.1-0.4-0.1-0.9c0-0.6,0.1-1.3,0.2-2.1c0.2-0.7,0.4-1.5,0.6-2
						C36.9,37.9,37.1,37.6,37.1,37.6"/>
					<path id="Fill-15" class="st1" d="M6.5,9.8c0,0-0.4,0.2-0.9,0.5c-0.3,0.2-0.6,0.3-0.9,0.6c-0.3,0.2-0.6,0.5-0.9,0.8
						c-0.3,0.3-0.5,0.6-0.7,0.9c-0.2,0.3-0.4,0.6-0.5,0.9c-0.2,0.3-0.3,0.5-0.4,0.7c-0.1,0.2-0.1,0.3-0.1,0.3s0-0.1,0-0.3
						c0-0.2,0-0.5,0.1-0.8c0.1-0.3,0.2-0.7,0.4-1c0.2-0.4,0.4-0.7,0.8-1c0.6-0.6,1.4-1.1,2-1.2C6.1,9.7,6.5,9.8,6.5,9.8"/>
				</g>
				<g id="Group-21" transform="translate(63.000000, 14.500000)">
					<path id="Fill-16" d="M47.7,25.4c-1.3,1.3-2.9,2-4.8,2c-1.9,0-3.5-0.7-4.8-2c-1.3-1.3-2-3-2-5.1c0-2,0.7-3.7,2-5.1
						c1.3-1.3,2.9-2,4.8-2c1.9,0,3.5,0.7,4.8,2c1.3,1.3,2,3,2,5.1C49.7,22.4,49,24.1,47.7,25.4L47.7,25.4z M42.9,8.5
						c-3.5,0-6.5,1.1-8.9,3.3c-2.4,2.2-3.6,5.1-3.6,8.5c0,3.4,1.2,6.3,3.6,8.5c2.4,2.2,5.3,3.3,8.9,3.3c3.5,0,6.5-1.1,8.9-3.3
						c2.4-2.2,3.6-5.1,3.6-8.5c0-3.4-1.2-6.3-3.6-8.5C49.4,9.7,46.4,8.5,42.9,8.5L42.9,8.5z"/>
					<path id="Fill-17" d="M93,17.4c0.3-1.4,1-2.5,1.9-3.3c1-0.8,2.2-1.2,3.6-1.2c1.2,0,2.2,0.4,3,1.3c0.8,0.9,1.2,1.9,1.3,3.3H93
						L93,17.4z M98.5,8.5c-3.4,0-6.2,1.1-8.3,3.3C88,14,87,16.9,87,20.4c0,3.3,1.1,6.1,3.4,8.4c2.2,2.3,5.2,3.4,8.9,3.4
						c1.1,0,2.1-0.1,3.1-0.4c1-0.2,1.9-0.5,2.5-0.8c0.7-0.3,1.3-0.6,1.9-1c0.6-0.4,1-0.7,1.2-0.8c0.2-0.2,0.3-0.3,0.4-0.4l-2.4-3.9
						l-0.8,0.6c-0.5,0.4-1.3,0.8-2.4,1.3c-1.1,0.4-2.1,0.6-3.2,0.6c-1.8,0-3.3-0.5-4.6-1.6c-1.3-1.1-2-2.6-2.2-4.5h15.7l0.1-2.1
						c0-3.1-0.9-5.7-2.7-7.7C104.2,9.5,101.7,8.5,98.5,8.5L98.5,8.5z"/>
					<path id="Fill-18" d="M154,25.6c-1.1,1.3-2.5,1.9-4.1,1.9c-1.8,0-3.2-0.7-4.2-2.1c-1-1.4-1.5-3-1.5-4.9c0-2.4,0.6-4.1,1.7-5.3
						c1.1-1.2,2.5-1.8,4.1-1.8c1.7,0,3.1,0.7,4.1,1.9c1,1.3,1.6,3,1.6,5.1C155.7,22.6,155.1,24.3,154,25.6L154,25.6z M151.3,8.5
						c-1,0-1.9,0.1-2.8,0.4c-0.9,0.3-1.6,0.6-2.1,0.9c-0.5,0.3-0.9,0.7-1.4,1.1c-0.4,0.4-0.7,0.7-0.8,0.9c-0.1,0.2-0.2,0.3-0.2,0.4
						h-0.1v-0.9c0-1.4-1-2.2-2.9-2.2h-10.4c-1.5,0-2.6,0.7-3,2.1l-0.1,0.4l-4.5,13l-5.4-13.4c-0.3-0.8-0.7-1.3-1.1-1.6
						c-0.4-0.3-1.1-0.5-1.9-0.5h-4.4l10.1,22.6l-0.8,1.7c-0.8,1.9-2.1,2.9-3.8,2.9c-1.3,0-2.3-0.5-3.3-1.6l-2.2,4l0.7,0.6
						c0.4,0.4,1.1,0.8,2.1,1.2c1,0.4,2,0.6,3,0.6c1.8,0,3.4-0.5,4.9-1.5c1.5-1,2.6-2.5,3.3-4.4l8.2-20.4c0.2-0.5,0.6-0.8,1.3-0.8
						h3.9c0.7,0,1,0.3,1,1v25.7h5.6v-9.3c0-0.8,0-1.4-0.1-1.9h0.1l0.6,0.8c0.4,0.5,1.2,1,2.3,1.5c1.1,0.5,2.3,0.8,3.6,0.8
						c3,0,5.5-1.1,7.5-3.3c2-2.2,2.9-5,2.9-8.6c0-3.5-0.9-6.4-2.8-8.6C156.8,9.6,154.3,8.5,151.3,8.5L151.3,8.5z"/>
					<path id="Fill-19" d="M181.5,25.4c-1.3,1.3-2.9,2-4.8,2c-1.9,0-3.5-0.7-4.8-2c-1.3-1.3-2-3-2-5.1c0-2,0.7-3.7,2-5.1
						c1.3-1.3,2.9-2,4.8-2c1.9,0,3.5,0.7,4.8,2c1.3,1.3,2,3,2,5.1C183.5,22.4,182.9,24.1,181.5,25.4L181.5,25.4z M176.7,8.5
						c-3.5,0-6.5,1.1-8.9,3.3c-2.4,2.2-3.6,5.1-3.6,8.5c0,3.4,1.2,6.3,3.6,8.5c2.4,2.2,5.4,3.3,8.9,3.3c3.5,0,6.5-1.1,8.9-3.3
						c2.4-2.2,3.6-5.1,3.6-8.5c0-3.4-1.2-6.3-3.6-8.5C183.2,9.7,180.2,8.5,176.7,8.5L176.7,8.5z"/>
					<path id="Fill-20" d="M204.6,26.9c-1.1,0-2.2-0.3-3.1-0.9c-0.9-0.6-1.4-1.7-1.4-3.3v-9.1h5.2V9.1h-5.2V2.9h-5.5v6.2h-3.1v4.5
						h2.9v9.8c0,1.4,0.2,2.7,0.7,3.8c0.5,1.1,1,1.9,1.7,2.5c0.7,0.6,1.5,1,2.4,1.4c0.9,0.4,1.7,0.6,2.5,0.7c0.7,0.1,1.5,0.2,2.2,0.2
						c0.7,0,1.3,0,1.7-0.1v-4.9L204.6,26.9"/>
					<path id="Fill-21" d="M20.2,3.2v10.3h-14V3.2c0-1-0.2-1.8-0.7-2.3C5,0.4,4.3,0.2,3.2,0.2H0.4v31.5h5.8V18.5h14v13.2h5.8V0.2
						h-2.8C21.2,0.2,20.2,1.2,20.2,3.2"/>
					<path id="Fill-22" d="M74,8.5C72,8.5,70.3,9,68.9,10c-1.3,0.9-2.3,2-2.9,3.3h-0.1l0.1-1v-0.7c0-1.7-1-2.5-3-2.5h-2.5v22.6h5.6
						V21.3c0-1.1,0.1-2.1,0.4-3c0.4-1.4,1.2-2.5,2.3-3.3c1.1-0.8,2.4-1.3,3.9-1.3c1.3,0,2.3,0.4,2.8,1.2c0.5,0.8,0.8,1.9,0.8,3.4
						v10.4c0,1.1,0.2,1.8,0.7,2.3c0.5,0.5,1.3,0.7,2.3,0.7H82V17.1C82,11.4,79.3,8.5,74,8.5"/>
				</g>
			</g>
		</g>
	</g>
</g>
</svg>
