<?xml version="1.0" encoding="UTF-8" standalone="no"?>
<svg width="310px" height="57px" viewBox="0 0 310 57" version="1.1" xmlns="http://www.w3.org/2000/svg" xmlns:xlink="http://www.w3.org/1999/xlink">
    <!-- Generator: Sketch 43.2 (39069) - http://www.bohemiancoding.com/sketch -->
    <title>Zalando_logo</title>
    <desc>Created with Sketch.</desc>
    <defs>
        <linearGradient x1="84.2855408%" y1="108.994338%" x2="15.6975835%" y2="-9.0017333%" id="linearGradient-1">
            <stop stop-color="#F47026" offset="0%"></stop>
            <stop stop-color="#F47026" offset="37.533599%"></stop>
            <stop stop-color="#FBC195" offset="94.923401%"></stop>
            <stop stop-color="#FBC195" offset="94.923401%"></stop>
            <stop stop-color="#FBC195" offset="100%"></stop>
        </linearGradient>
        <linearGradient x1="91.5401164%" y1="191.018763%" x2="17.0486967%" y2="-15.7795822%" id="linearGradient-2">
            <stop stop-color="#F47026" offset="0%"></stop>
            <stop stop-color="#F47026" offset="37.533599%"></stop>
            <stop stop-color="#FBC195" offset="94.923401%"></stop>
            <stop stop-color="#FBC195" offset="94.923401%"></stop>
            <stop stop-color="#FBC195" offset="100%"></stop>
        </linearGradient>
        <linearGradient x1="0.000444619387%" y1="0.000541381104%" x2="99.9997836%" y2="0.000541381104%" id="linearGradient-3">
            <stop stop-color="#F57D34" offset="0%"></stop>
            <stop stop-color="#F47026" offset="53.379798%"></stop>
            <stop stop-color="#F47026" offset="53.379798%"></stop>
            <stop stop-color="#F47026" offset="100%"></stop>
        </linearGradient>
    </defs>
    <g id="Logos" stroke="none" stroke-width="1" fill="none" fill-rule="evenodd">
        <g id="zalando-org" transform="translate(-45.000000, -39.000000)">
            <g id="Zalando_logo" transform="translate(45.000000, 39.000000)">
                <g id="svg6365">
                    <path d="M128.378988,15.0722163 C126.029933,13.7809739 122.537622,13.1528374 117.701745,13.151089 C111.084942,13.1535368 104.942673,14.5253834 102.61811,15.3913113 C102.09328,15.5596012 101.531711,16.012454 101.522526,16.7874617 L101.523926,16.9583742 L102.175153,20.2472393 L102.191318,20.3084356 C102.395127,20.9780982 102.953197,21.2783972 103.461408,21.2783972 L103.463858,21.2783972 C103.62743,21.2714034 103.754701,21.239931 103.873226,21.2097699 L104.974495,20.9527454 C107.856691,20.2315031 112.213223,19.1422086 117.077966,19.1422086 C120.028827,19.1422086 122.012687,19.3992331 123.342695,19.9604908 C125.500187,20.7770245 125.513745,22.1709893 125.535613,24.4785276 L125.535613,27.93 C125.288505,27.9256288 124.871264,27.9212577 124.228784,27.9212577 C121.846053,27.9212577 117.161064,28.0318482 112.553488,28.770138 C105.522506,29.8493788 99.7047577,31.5314034 99.7414958,41.2135353 C99.743945,53.5043788 111.150441,53.527546 116.63186,53.538911 L116.63256,53.538911 C120.353609,53.5382117 123.786877,52.9890184 126.029216,52.5256748 C131.146315,51.3380291 132.452706,49.7141411 132.384041,44.6322239 L132.384041,24.1944018 C132.391494,21.0773236 132.400661,17.1979141 128.378708,15.0722163 L128.378988,15.0722163 Z M125.569552,46.6442715 C122.846118,47.527684 119.866391,47.9748543 116.710409,47.9748543 L116.710409,48.2620399 L116.706491,47.9748543 C111.663742,47.936388 106.739081,47.3598313 106.732958,40.931158 C106.765323,35.8182055 109.49488,35.2097393 112.950015,34.4386656 L113.189688,34.3853374 C116.263446,33.7287883 123.978895,33.6055215 125.570444,33.5871626 L125.569744,46.6442715 L125.569552,46.6442715 Z M189.403398,24.1944018 L189.403398,44.6322239 C189.472063,49.7141411 188.165235,51.3380291 183.048573,52.5256748 C180.806233,52.9890184 177.372966,53.5380368 173.651479,53.538911 L173.651129,53.538911 C168.16971,53.527546 156.763389,53.5043963 156.760328,41.2135353 C156.724027,31.5314034 162.541775,29.8493788 169.572757,28.770138 C174.180333,28.0318482 178.865322,27.9212577 181.247616,27.9212577 C181.890534,27.9212577 182.307337,27.9256288 182.554882,27.93 L182.554882,24.4785276 C182.533014,22.1709893 182.519456,20.7770245 180.361964,19.9604908 C179.031956,19.3992331 177.048096,19.1422086 174.097235,19.1422086 C169.232055,19.1422086 164.87596,20.2315031 161.993764,20.9527454 L160.892495,21.2097699 C160.77397,21.2399485 160.646699,21.2714034 160.482689,21.2783972 L160.48059,21.2783972 C159.972379,21.2783972 159.414309,20.9780982 159.2105,20.3084356 L159.1943,20.2472393 L158.543073,16.9583742 L158.541673,16.7874617 C158.550875,16.012454 159.112426,15.5596012 159.637257,15.3913113 C161.961382,14.5253834 168.104088,13.1537117 174.720891,13.151089 C179.556769,13.1528374 183.04908,13.7809739 185.398135,15.0722163 C189.41965,17.1979141 189.410903,21.0773236 189.403468,24.1944018 L189.403398,24.1944018 Z M182.589853,33.5871626 C180.997867,33.6055215 173.282418,33.7287883 170.208659,34.3853374 L169.969424,34.4386656 C166.514289,35.2097393 163.784732,35.8182055 163.752367,40.931158 C163.75849,47.3598313 168.683152,47.936388 173.7259,47.9748543 L173.729854,48.2620399 L173.729854,47.9748543 C176.885836,47.9748543 179.865562,47.527684 182.588996,46.6442715 L182.589696,33.5871626 L182.589853,33.5871626 Z M292.690149,13.151089 C276.805273,13.1724902 275.458208,23.6038574 275.443338,33.3812807 C275.458208,43.1228604 276.805273,53.5174923 292.690149,53.538911 L292.691199,53.538911 C308.563829,53.5174748 309.917017,43.1508359 309.939323,33.3799693 C309.922703,23.1558129 308.576075,13.1725077 292.690324,13.151089 L292.690149,13.151089 Z M292.690674,47.8323543 C283.056095,47.789954 282.571938,42.8470399 282.506334,33.3830291 C282.571938,23.8670015 283.05522,18.8991718 292.689799,18.8572086 C302.326566,18.8991718 302.80941,23.8670015 302.875014,33.378658 C302.80941,42.8470399 302.325254,47.789954 292.690674,47.8323543 L292.690674,47.8323543 Z M264.182745,52.1003604 L263.767692,52.2052684 C261.546346,52.7682745 258.502765,53.538911 253.168736,53.538911 L253.168386,53.538911 L253.157014,53.538911 C238.455632,53.5174748 235.570375,46.1057439 235.554193,33.3100307 C235.572142,18.633842 240.226935,13.1707592 252.72884,13.151089 C257.139167,13.151089 260.177937,13.721089 262.358171,14.2473773 L262.345051,2.42643405 C262.326681,1.9080138 262.561543,1.22917178 263.78921,0.995314417 L267.693985,0 L267.906979,0 C268.804002,0.0223104294 269.121525,0.821342025 269.123274,1.49843558 L269.123274,45.9142868 C269.18363,48.7188267 268.853424,51.1251534 264.182868,52.1003604 L264.182745,52.1003604 Z M262.348584,19.9360123 C261.044817,19.6046779 257.405554,18.7859586 253.307501,18.7859586 C245.780554,18.855023 242.623697,20.8985429 242.544973,33.382592 C242.633319,47.0905675 246.717377,47.8314801 253.374854,47.9036043 L253.378808,48.1907899 L253.378808,47.9036043 C257.522346,47.9036043 261.0772,47.0402991 262.345103,46.6910429 L262.348602,19.9360123 L262.348584,19.9360123 Z M227.257529,52.6130982 L223.765218,52.6130982 C222.829707,52.6116994 222.124248,51.9054064 222.122061,50.9708512 L222.122061,24.6210276 C222.058644,20.16375 220.726011,18.9240874 215.92381,18.8572086 C210.4905,18.8572086 204.991149,20.2197009 203.177422,20.7136426 L203.177422,50.969977 C203.175672,51.9211426 202.514823,52.6117868 201.605991,52.6130982 L198.042828,52.6130982 C197.10688,52.6116994 196.400545,51.9054064 196.399233,50.9708512 L196.399233,21.4165261 C196.347188,18.6810506 196.604355,16.7900844 200.497724,15.5307515 C204.224897,14.2443175 211.358658,13.1537117 216.070325,13.151089 C225.051053,13.162454 228.887128,16.4006135 228.899374,23.9797776 L228.899374,50.969977 C228.897975,51.9054064 228.191728,52.6117868 227.257529,52.6130982 L227.257529,52.6130982 Z M148.157233,53.325161 L148.160382,53.325161 C150.167422,53.2858206 151.651818,52.8893558 152.233068,52.2371779 C152.439501,52.0059433 152.534846,51.738865 152.509042,51.4752837 C152.495501,51.2584739 152.495501,51.2584739 151.944849,48.6807975 L151.931728,48.6191641 C151.812329,47.9451304 151.331234,47.6387117 150.934549,47.6387117 C150.897374,47.6387117 150.861073,47.6408098 150.880754,47.6435374 C150.880754,47.6435374 150.376479,47.6190589 149.878765,47.6190589 L149.873972,47.6190589 C148.443371,47.5735988 147.257691,47.3655313 147.233198,45.2730543 L147.233198,1.49889018 C147.231799,0.768888037 146.791361,0.020107362 145.945946,0 L145.696652,0.00209815951 L141.785351,1.00396933 C141.118816,1.07215951 140.425165,1.54555675 140.454905,2.42547239 L140.454905,45.4158865 C140.462358,50.5069831 143.196271,53.3158942 148.154171,53.3250736 L148.15732,53.3250736 L148.157233,53.325161 Z M92.9144281,52.6130982 L64.8910929,52.6130982 C63.9555822,52.6116994 63.2492475,51.9054064 63.2474981,50.9708512 L63.2474981,47.5517255 C63.2282543,46.713773 63.4967927,46.3404755 64.0133135,45.7009739 L86.3186183,19.7834586 L64.4637932,19.7834586 C63.5278451,19.7813604 62.8215105,19.0753298 62.8201984,18.1412117 L62.8201984,15.7195859 C62.821598,14.7850307 63.5278451,14.0790874 64.4633559,14.077339 L92.7718491,14.077339 C93.7069225,14.0790874 94.4132571,14.7850307 94.4150065,15.7191488 L94.4150065,19.2090874 C94.4285472,19.8398466 94.2098852,20.3748773 93.7060477,20.936135 L71.3443237,46.9061043 L92.9139907,46.9061043 C93.8495015,46.9089018 94.5558361,47.6142331 94.5575856,48.5487883 L94.5575856,50.969977 C94.5558361,51.9054064 93.8495015,52.6117868 92.9144281,52.6130982 L92.9144281,52.6130982 Z" id="path6289" fill="#231F20"></path>
                    <path d="M7.09614842,9.7586273 C2.25283588,9.7586273 -0.237485892,22.9757209 0.0218679458,35.3845859 C0.0149241558,35.3828374 0.00694331772,35.3863344 0,35.3845859 C0.258916479,46.2762193 2.66876421,56.7158742 7.44603555,56.7158742 C25.7788093,56.7158742 46.6661964,39.4366564 46.6661964,33.2427147 C46.6661964,31.6931365 45.0868933,28.7115644 42.9705135,26.3581288 C42.9677144,26.3597374 42.9622912,26.3565202 42.9595971,26.3581288 C42.8156885,26.1911503 42.6630502,26.0246089 42.5112867,25.8554448 C35.9806433,18.5730828 22.4321388,9.7586273 7.09614842,9.7586273 L7.09614842,9.7586273 Z" id="path6315" fill="url(#linearGradient-1)"></path>
                    <path d="M0.018385981,35.3841488 C13.7925676,38.6170629 28.4978864,34.9776304 42.7444165,26.4914497 L42.7444165,26.4914497 C42.8161433,26.4486123 42.8878702,26.4057749 42.9595971,26.3625003 L42.9595971,26.3625003 C42.815706,26.1955218 42.668316,26.0272319 42.5165525,25.8580678 L42.5165525,25.8580678 C35.9859091,18.5757059 22.4290941,9.75950188 7.0931037,9.75950188 L7.0931037,9.75950188 C2.24979117,9.75950188 -0.240967856,22.9752841 0.018385981,35.3841488 L0.018385981,35.3841488 Z M42.9595971,26.3625003 C42.962746,26.3611016 42.9652652,26.3593531 42.9678894,26.3577096 L42.9678894,26.3577096 L42.9595971,26.3625003 L42.9595971,26.3625003 Z" id="path6315-1" fill="url(#linearGradient-2)"></path>
                    <path d="M0.00395313679,35.381089 C0.262869615,46.2727224 2.67359196,56.7163113 7.4508633,56.7163113 L7.4508633,56.7163113 C25.783637,56.7163113 46.6692754,39.4419018 46.6692754,33.2479605 L46.6692754,33.2479605 C46.6692754,31.6983823 45.0842867,28.7111277 42.9679069,26.3576921 L42.9679069,26.3576921 C28.6474632,34.9422243 13.8551099,38.6367331 0.00395313679,35.381089" id="path6339" fill="url(#linearGradient-3)"></path>
                </g>
            </g>
        </g>
    </g>
</svg>