<svg id="Layer_1" xmlns="http://www.w3.org/2000/svg" viewBox="0 0 539.4 106.3"><style>.st0{fill:#1A1A18;} .st1{fill:#FF6B00;}</style><path class="st0" d="M238.7 26.1c-3.9-2.1-9.7-3.2-17.7-3.2-11 0-21.1 2.3-25 3.7-1 .3-1.8 1.2-1.8 2.3v.3l1.1 5.4v.1c.3.9 1.1 1.6 2.1 1.6.2 0 .5 0 .7-.1l1.8-.4c4.8-1.2 12-3 20-3 4.9 0 8.2.4 10.4 1.4 3.6 1.3 3.6 3.7 3.6 7.5v5.7h-2.1c-6.5 0-12.9.5-19.3 1.4-11.6 1.8-21.3 4.6-21.2 20.6 0 20.4 18.9 20.4 28 20.4 5.2 0 10.4-.6 15.6-1.7 8.5-2 10.6-4.7 10.5-13.1V41.2c0-5.1 0-11.6-6.7-15.1m-4.6 52.3c-4.7 1.5-9.7 2.2-14.7 2.2-8.4-.1-16.5-1-16.5-11.7 0-8.5 4.6-9.5 10.3-10.8l.4-.1c5.1-1.1 17.9-1.3 20.5-1.3v21.7zm105.7-37.2v33.9c.1 8.4-2 11.1-10.5 13.1-5.1 1.1-10.3 1.6-15.6 1.7-9.1 0-28-.1-28-20.4-.1-16 9.6-18.8 21.2-20.6 6.4-1 12.9-1.4 19.3-1.4h2.2v-5.7c0-3.8-.1-6.1-3.6-7.5-2.2-.9-5.5-1.4-10.4-1.4-8 0-15.3 1.8-20 3l-1.8.4c-.2.1-.4.1-.7.1-1 0-1.8-.7-2.1-1.6v-.1l-1.1-5.4V29c0-1.1.8-2 1.8-2.3 3.9-1.4 14-3.7 25-3.7 8 0 13.8 1 17.7 3.2 6.7 3.4 6.6 9.9 6.6 15m-11.2 15.6c-2.6 0-15.4.2-20.5 1.3l-.4.1c-5.8 1.3-10.3 2.3-10.3 10.8 0 10.6 8.2 11.6 16.5 11.7 5 0 9.9-.7 14.7-2.2V56.8zm182.2-33.9c-26.3 0-28.5 17.3-28.6 33.5s2.2 33.4 28.6 33.4c26.3 0 28.5-17.2 28.6-33.4 0-16.9-2.3-33.4-28.6-33.5m0 57.5c-16-.1-16.8-8.3-16.9-23.9.1-15.8.9-24 16.9-24.1s16.8 8.3 16.9 24.1c-.2 15.6-.9 23.8-16.9 23.9m-47.2 7.1l-.7.2c-5.7 1.5-11.6 2.3-17.5 2.2-24.3 0-29.1-12.3-29.2-33.5 0-24.3 7.7-33.4 28.4-33.4 5.4-.1 10.7.6 15.9 1.8V5.2c0-.9.4-2 2.4-2.4l6.4-1.7h.3c1.2.1 2.1 1.2 2 2.4V77.2c.2 4.7-.3 8.6-8 10.3m-3.1-53.3c-4.9-1.2-9.9-1.9-15-1.9-12.5.1-17.7 3.5-17.8 24.2.1 22.7 6.9 23.9 17.9 24.1 5 0 10-.7 14.8-2l.1-44.4zm-58.1 54.1h-5.8c-1.5 0-2.7-1.1-2.7-2.6V41.9c-.1-7.4-2.3-9.4-10.3-9.6-7.1.2-14.2 1.2-21.1 3.1v50.1c.1 1.4-1 2.6-2.4 2.7H354c-1.5 0-2.7-1.1-2.7-2.6V36.5c-.1-4.5.3-7.7 6.8-9.8 6.2-2.1 18-3.9 25.8-3.9 14.9 0 21.2 5.4 21.2 17.9v44.7c0 1.5-1.1 2.7-2.6 2.7.1.2 0 .2-.1.2m-130.9 1.2c3.3-.1 5.8-.7 6.7-1.8.3-.3.5-.8.5-1.3-.2-1.6-.5-3.1-.9-4.6v-.1c-.1-.9-.8-1.6-1.7-1.6h-1.8c-2.4-.1-4.3-.4-4.4-3.9V3.6c.1-1.3-.8-2.4-2.1-2.5h-.5l-6.5 1.7c-1.3.1-2.2 1.1-2.2 2.4v71.2c.1 8.4 4.6 13.1 12.9 13.1zM180 88.3h-46.4c-1.5 0-2.7-1.1-2.7-2.6v-5.8c0-1.2.4-2.3 1.3-3.1l36.9-42.9h-36.2c-1.5 0-2.7-1.1-2.7-2.6v-4.1c0-1.5 1.2-2.7 2.6-2.7h47c1.5 0 2.7 1.1 2.7 2.6V33c0 1.1-.4 2.1-1.1 2.8l-37 43h35.7c1.5 0 2.7 1.1 2.7 2.6v4.1c0 1.5-1.1 2.7-2.6 2.7-.1.1-.1.1-.2.1"/><path class="st1" d="M98.2 41.7C90.6 32.3 79.9 23.2 66 15.1h-.1C51.9 7.1 38.7 2.4 26.8.5c-7.4-1.2-11 .2-12.6 1.1S9.6 4.9 6.9 11.9C2.6 23.2.1 36.9 0 53.1v.1c.1 16.2 2.6 29.9 6.9 41.2 2.7 7 5.7 9.4 7.3 10.3s5.2 2.3 12.6 1.1c11.9-1.9 25.1-6.6 39.1-14.6h.1C79.9 83.1 90.6 74 98.2 64.7c4.8-5.8 5.3-9.6 5.3-11.5s-.6-5.7-5.3-11.5z"/></svg>
