<?xml version="1.0" encoding="utf-8"?>
<!-- Generator: Adobe Illustrator 21.0.0, SVG Export Plug-In . SVG Version: 6.00 Build 0)  -->
<!DOCTYPE svg PUBLIC "-//W3C//DTD SVG 1.1//EN" "http://www.w3.org/Graphics/SVG/1.1/DTD/svg11.dtd">
<svg version="1.1" id="Layer_1" xmlns="http://www.w3.org/2000/svg" xmlns:xlink="http://www.w3.org/1999/xlink" x="0px" y="0px"
	 viewBox="0 0 48 48" style="enable-background:new 0 0 48 48;" xml:space="preserve">
<style type="text/css">
	.st0{fill:#999999;}
	.st1{fill:none;}
</style>
<path class="st0" d="M37.8,12c-0.4-1.2-1.5-2-2.8-2H13c-1.3,0-2.4,0.8-2.8,2L6,24v16c0,1.1,0.9,2,2,2h2c1.1,0,2-0.9,2-2v-2h24v2
	c0,1.1,0.9,2,2,2h2c1.1,0,2-0.9,2-2V24L37.8,12z M13,32c-1.7,0-3-1.3-3-3s1.3-3,3-3s3,1.3,3,3S14.7,32,13,32z M35,32
	c-1.7,0-3-1.3-3-3s1.3-3,3-3s3,1.3,3,3S36.7,32,35,32z M10,22l3-9h22l3,9H10z"/>
<path class="st1" d="M0,0h48v48H0V0z"/>
</svg>
