<?xml version="1.0" encoding="utf-8"?>
<!-- Generator: Adobe Illustrator 21.0.0, SVG Export Plug-In . SVG Version: 6.00 Build 0)  -->
<!DOCTYPE svg PUBLIC "-//W3C//DTD SVG 1.1//EN" "http://www.w3.org/Graphics/SVG/1.1/DTD/svg11.dtd">
<svg version="1.1" id="Layer_1" xmlns="http://www.w3.org/2000/svg" xmlns:xlink="http://www.w3.org/1999/xlink" x="0px" y="0px"
	 viewBox="0 0 434.3 397.7" style="enable-background:new 0 0 434.3 397.7;" xml:space="preserve">
<style type="text/css">
	.st0{fill:#FFFFFF;}
</style>
<path class="st0" d="M434.3,147.6c-1-0.7-2.1-1.2-3.4-1.2c-3.1,0-5.6,2.5-5.6,5.6c0,0.2,0,0.5,0,0.7l-25.5,7.9c-0.9-1.8-2.8-3-5-3
	c-1.4,0-2.7,0.5-3.7,1.4L366.8,140c0.2-0.5,0.3-1.1,0.3-1.7c0-3.1-2.5-5.6-5.6-5.6c-2.5,0-4.6,1.6-5.3,3.9l-31.4-4.2
	c-0.1-3-2.6-5.3-5.6-5.3c-3.1,0-5.6,2.5-5.6,5.6c0,0,0,0,0,0l-33.9,6.2c-0.8-2.1-2.8-3.6-5.2-3.6c-1.6,0-3.1,0.7-4.1,1.8l-19.8-12.7
	c0.3-0.7,0.4-1.4,0.4-2.1c0-3.1-2.5-5.6-5.6-5.6s-5.6,2.5-5.6,5.6c0,1.6,0.7,3.1,1.8,4.1l-16.3,26.1c-0.6-0.3-1.3-0.4-2.1-0.4
	c-3.1,0-5.6,2.5-5.6,5.6c0,3.1,2.5,5.6,5.6,5.6c1.4,0,2.6-0.5,3.6-1.3l20.2,17c-0.1,0.1-0.1,0.2-0.2,0.3c-1.4,2.8-0.2,6.1,2.5,7.5
	c2.8,1.4,6.1,0.2,7.5-2.5c0.6-1.2,0.7-2.5,0.5-3.7l28-11.5c1,1.6,2.7,2.6,4.7,2.6c1.9,0,3.5-0.9,4.5-2.3l10.3,4.9c0,0.1,0,0.2,0,0.3
	c0,1.6,0.7,3.1,1.8,4.1l-20.4,37.9c-0.5-0.2-1.1-0.3-1.7-0.3c-2.5,0-4.6,1.6-5.3,3.8l-36.5-4.2c-0.2-2.9-2.6-5.2-5.6-5.2
	c-3.1,0-5.6,2.5-5.6,5.6c0,1.3,0.4,2.4,1.1,3.3l-24,25.6c-0.9-0.6-1.9-0.9-3-0.9c-3.1,0-5.6,2.5-5.6,5.6c0,0.8,0.2,1.6,0.5,2.2
	l-15.5,20.8c-0.8-0.4-1.6-0.6-2.5-0.6c-2.4,0-4.4,1.5-5.2,3.5l-34.2-7c0.3-0.6,0.4-1.3,0.4-2.1c0-3.1-2.5-5.6-5.6-5.6
	s-5.6,2.5-5.6,5.6c0,1,0.3,2,0.8,2.8l-23.5,20c-2.2-1.8-5.4-1.7-7.5,0.4c-1.4,1.4-1.9,3.4-1.5,5.2l-29.9,12.6
	c-1-1.5-2.7-2.6-4.7-2.6c-3.1,0-5.6,2.5-5.6,5.6c0,3.1,2.5,5.6,5.6,5.6c0.4,0,0.9-0.1,1.3-0.1l11.8,27.3c-1.5,1-2.5,2.7-2.5,4.7
	c0,0.8,0.2,1.6,0.5,2.4l-22.8,16.1c-1-1-2.4-1.6-3.9-1.6c-3.1,0-5.6,2.5-5.6,5.6c0,0.3,0,0.6,0.1,0.9l-23,8.2
	c-1-1.5-2.7-2.4-4.6-2.4c-3.1,0-5.6,2.5-5.6,5.6c0,1.8,0.9,3.4,2.2,4.4l-2.6,10.5H13l2.4-9.5c0.5,0.2,1,0.2,1.6,0.2
	c1.2,0,2.4-0.4,3.3-1.1L31,397.7h2.9l-12.3-11.8c0.6-0.9,0.9-2,0.9-3.1c0-0.5-0.1-0.9-0.2-1.3l22.9-8.1c1,1.7,2.8,2.8,4.9,2.8
	c1.4,0,2.6-0.5,3.6-1.3l12.8,10.7c-0.5,0.8-0.7,1.8-0.7,2.8c0,1.8,0.9,3.5,2.3,4.5l-2.4,4.8h2.2l1.9-3.9c0.5,0.1,1,0.2,1.5,0.2
	c0.3,0,0.6,0,0.9-0.1l2.1,3.8h2.3l-2.5-4.4c1.7-1,2.8-2.8,2.8-4.9c0-0.2,0-0.5-0.1-0.7l24.8-7.9c0.2,0.4,0.5,0.8,0.8,1.1l-13,16.8
	H92l12.1-15.5c0.8,0.4,1.7,0.6,2.6,0.6c0.4,0,0.8-0.1,1.2-0.1l6.4,15h2.2l-6.8-15.8c1.1-0.7,1.9-1.9,2.3-3.2l49.8,4.6
	c0.1,1.2,0.6,2.3,1.3,3.2l-9.2,11.3h2.6l8.1-10c0.8,0.4,1.7,0.7,2.7,0.7c1.3,0,2.4-0.4,3.4-1.1l7.3,10.4h2.4l-8.3-11.9
	c0.5-0.9,0.8-1.9,0.8-3c0-1-0.3-2-0.8-2.8l21.9-18.5c1,0.8,2.2,1.3,3.6,1.3c0.5,0,0.9-0.1,1.3-0.2l1.4,35.1h2l-1.4-36
	c0.2-0.2,0.4-0.3,0.6-0.5l60.4,27.1c0,0,0,0.1,0,0.1c0,1.1,0.3,2.2,0.9,3.1l-9.7,6.2h3.7l7.4-4.7c0.8,0.6,1.8,1,2.9,1l0.6,3.7h2
	l-0.6-3.9c2.3-0.7,4-2.8,4-5.4c0-0.1,0-0.2,0-0.3l74.9-17.5c0.2,0.4,0.4,0.8,0.7,1.2l-37.1,25.8h3.5l35.2-24.5
	c0.7,0.4,1.6,0.7,2.5,0.8l2.6,23.7h2l-2.6-23.9c1.4-0.4,2.5-1.3,3.2-2.5l61.6,23c0.1,1.3,0.6,2.5,1.4,3.4h8.4c0.9-1,1.4-2.3,1.4-3.7
	c0-3.1-2.5-5.6-5.6-5.6c-0.1,0-0.1,0-0.2,0l-7.9-37.2c1.1-0.5,2-1.2,2.6-2.2l14.5,7.7v-2.3l-13.8-7.3c0.1-0.3,0.1-0.7,0.1-1.1
	c0-0.8-0.2-1.6-0.5-2.3l14.2-13.3v-2.7L419,342c-1-1-2.4-1.7-4-1.7c-1.6,0-3,0.6-4,1.7l-35.5-18.7c0.2-0.5,0.3-1.1,0.3-1.7
	c0-0.2,0-0.4,0-0.5l58.5-16.6v-2.1l-59.1,16.8c-0.1-0.3-0.3-0.6-0.5-0.8l56.2-58.5c0.3,0.2,0.5,0.4,0.8,0.5l-6.8,22.2
	c-0.2,0-0.4,0-0.7,0c-3.1,0-5.6,2.5-5.6,5.6s2.5,5.6,5.6,5.6c2.6,0,4.8-1.8,5.4-4.1l4.6,0.4v-2l-4.5-0.4c-0.2-1.9-1.4-3.6-3-4.5
	l6.8-22.2c0.2,0,0.4,0,0.7,0v-11.2c-0.8,0-1.6,0.2-2.3,0.5l-31.1-43.6c0.4-0.2,0.7-0.5,1-0.9l32.4,13v-2.2L403,204.2
	c0.3-0.6,0.4-1.4,0.4-2.1c0-1.2-0.4-2.3-1-3.2l31.9-23.8v-2.5l-33.4,24.9c-0.7-0.5-1.6-0.8-2.5-0.9l-2.1-27.9
	c2.4-0.6,4.2-2.8,4.2-5.4c0-0.2,0-0.5,0-0.7l25.5-7.9c0.9,1.8,2.8,3,5,3c1.3,0,2.5-0.5,3.4-1.2V147.6z M430.4,251.5
	c-1,1-1.6,2.3-1.7,3.9l-48.7,7.7c-0.6-0.7-1.4-1.3-2.4-1.6l19.6-53.7c0.2,0,0.4,0,0.6,0c0.4,0,0.8,0,1.2-0.1L430.4,251.5z
	 M250.9,272.3C250.9,272.2,250.9,272.2,250.9,272.3l43.4-8.6c0.8,1.5,2.2,2.6,4,2.9v32.9c-1.6,0.3-2.9,1.2-3.7,2.5l-44-27.7
	C250.8,273.7,250.9,273,250.9,272.3z M278.4,333.3c0,0.1,0,0.2,0,0.3l-50.9,12.3c-0.3-0.8-0.8-1.4-1.4-2l21.4-34.2
	c0.6,0.3,1.3,0.4,2.1,0.4c2.7,0,4.9-1.9,5.5-4.4l39,1.3c0.6,1.6,2,2.9,3.7,3.4l-11.6,17.8c-0.7-0.3-1.4-0.4-2.2-0.4
	C280.9,327.7,278.4,330.2,278.4,333.3z M225.5,341.2l19.2-63.4c0.2,0,0.4,0,0.6,0c0.2,0,0.5,0,0.7,0l2.1,21.4
	c-2.4,0.7-4.1,2.8-4.1,5.4c0,1.6,0.7,3.1,1.8,4.1L225.5,341.2z M248,277.2c0.6-0.3,1.1-0.7,1.5-1.2l44.3,27.9
	c-0.1,0.4-0.1,0.7-0.1,1.1l-38.5-1.2c-0.4-2.6-2.5-4.5-5.1-4.8L248,277.2z M299.7,311l9,37.4c-1.8,0.6-3.2,2.1-3.6,4l-75.6-4.8
	l49.4-11.9c0.9,2,2.8,3.3,5.1,3.3c3.1,0,5.6-2.5,5.6-5.6c0-1.6-0.7-3-1.8-4.1L299.7,311z M304.9,305c0-1.7-0.8-3.3-2-4.3l11.9-26.2
	c0.5,0.1,0.9,0.2,1.4,0.2c0.9,0,1.7-0.2,2.4-0.6l44.8,42.5l-58.7-10.5C304.9,305.8,304.9,305.4,304.9,305z M321.6,267.8
	c-0.3-1.1-0.8-2-1.6-2.8l25.5-38.1c0.7,0.3,1.4,0.5,2.2,0.5c0.4,0,0.8-0.1,1.2-0.1l23,35.4c-0.9,0.8-1.5,2-1.7,3.2L321.6,267.8z
	 M321.7,269.8l48.6-2c0.1,0.5,0.3,0.9,0.5,1.3l-9.6,7c-1-0.9-2.4-1.5-3.8-1.5c-2.3,0-4.2,1.3-5.1,3.3l-30.6-7.9
	C321.7,269.9,321.7,269.9,321.7,269.8z M372,270.7c0.6,0.6,1.4,1.1,2.3,1.3l-4.5,44c-0.1,0-0.2,0-0.2,0l-9.6-30.9c1.8-0.9,3-2.8,3-5
	c0-0.9-0.2-1.7-0.6-2.5L372,270.7z M367.6,316.7c-0.3,0.1-0.5,0.3-0.8,0.5L320.3,273c0.3-0.3,0.6-0.7,0.8-1.1l30.8,7.9
	c0,0.1,0,0.3,0,0.4c0,3.1,2.5,5.6,5.6,5.6c0.2,0,0.5,0,0.7,0L367.6,316.7z M365.3,319c-0.4,0.8-0.7,1.7-0.7,2.6l-49.8,28.4
	c-1-1.2-2.5-1.9-4.1-2l-9.1-37.9c1-0.4,1.9-1.2,2.4-2.1L365.3,319z M300.3,266.6c1.2-0.2,2.3-0.8,3.1-1.7l7.2,3.6
	c0,0.2-0.1,0.5-0.1,0.7c0,1.9,0.9,3.5,2.4,4.6l-11.8,26c-0.3-0.1-0.5-0.2-0.8-0.2V266.6z M301.3,255.8l13.7-34.2c0,0,0.1,0,0.1,0v42
	c-1.7,0.3-3.1,1.4-3.9,2.8l-6.7-3.3c0.3-0.6,0.4-1.3,0.4-2.1C304.9,258.7,303.4,256.6,301.3,255.8z M312.2,179.7c0,0,0.1,0,0.1,0
	l30.5,39.3c-0.5,0.8-0.8,1.8-0.8,2.8c0,1.6,0.7,3,1.7,4L318.3,264c-0.4-0.2-0.8-0.3-1.2-0.4v-41.9c2.6-0.5,4.6-2.8,4.6-5.5
	c0-3-2.3-5.4-5.2-5.6L312.2,179.7z M314.1,178.7c1.1-1,1.9-2.4,2-4l26.6-3.4c0.9,1.8,2.8,3.1,5,3.1c1.6,0,3-0.6,4-1.7l40.7,27.8
	c-0.1,0.5-0.2,1-0.2,1.5c0,0.2,0,0.4,0,0.6L352.6,219c-1-1.7-2.8-2.8-4.9-2.8c-1.3,0-2.5,0.5-3.5,1.2L314.1,178.7z M392.8,204.6
	c0.5,1.1,1.4,1.9,2.5,2.5l-19.7,54c-0.7,0-1.4,0.2-2,0.4l-22.8-35.1c1.5-1,2.5-2.7,2.5-4.7c0-0.3,0-0.6-0.1-0.9L392.8,204.6z
	 M373.3,317c-0.5-0.3-1-0.6-1.5-0.7l4.5-44c2.9-0.2,5.2-2.6,5.2-5.6c0-0.6-0.1-1.2-0.3-1.8l47.9-7.5c0.1,0.4,0.3,0.8,0.5,1.1
	L373.3,317z M409.5,346c0,1.5,0.6,2.9,1.6,3.9l-13,13.2c-0.9-0.6-2-1-3.2-1c-0.6,0-1.2,0.1-1.7,0.3l-19.5-36.3
	c0.3-0.3,0.7-0.6,0.9-0.9l35.3,18.6C409.6,344.4,409.5,345.2,409.5,346z M359.3,369.5l30.1-0.7c0.5,2.6,2.8,4.5,5.5,4.5
	c3.1,0,5.6-2.5,5.6-5.6c0-1.2-0.4-2.3-1-3.2l13.2-13.4c0.7,0.3,1.5,0.5,2.4,0.5c0.1,0,0.1,0,0.2,0l7.9,37.2
	c-1.5,0.6-2.7,1.9-3.2,3.4L359.3,369.5z M356.5,363.8l12.8-36.6c0.3,0,0.6,0.1,0.9,0.1c0.6,0,1.2-0.1,1.7-0.3l19.5,36.3
	c-1.1,0.9-1.8,2.1-2,3.5l-30.5,0.7C358.6,366,357.8,364.7,356.5,363.8z M316,354.5c0-0.3,0.1-0.6,0.1-0.8c0-0.7-0.1-1.3-0.3-1.9
	l49.2-28.1c0.5,1.2,1.3,2.2,2.4,2.8L354.7,363c-0.4-0.1-0.9-0.2-1.4-0.2c-2.1,0-3.9,1.2-4.9,2.9L316,354.5z M267,382.8l-4.1-13.5
	c1.8-0.9,3-2.8,3-5c0,0,0,0,0,0l39.9-7.5c1,1.5,2.7,2.5,4.6,2.5c2.1,0,3.9-1.2,4.9-2.9l32.4,11.1c0,0.3-0.1,0.6-0.1,0.8
	c0,0.1,0,0.2,0,0.3l-74.9,17.5c-0.9-2-2.8-3.4-5.1-3.4C267.5,382.8,267.3,382.8,267,382.8z M227.1,351c0.3-0.5,0.5-1,0.7-1.6
	l77.2,4.9c0,0.2,0.1,0.4,0.1,0.6l-39.4,7.4c-0.8-2.1-2.8-3.6-5.2-3.6c-3.1,0-5.6,2.5-5.6,5.6s2.5,5.6,5.6,5.6c0.2,0,0.4,0,0.7,0
	l4.1,13.5c-0.3,0.2-0.6,0.4-0.9,0.6L227.1,351z M202.8,359.5c0.3-0.7,0.5-1.5,0.5-2.3c0-0.3,0-0.7-0.1-1l14.3-5.3
	c1,1.6,2.8,2.8,4.8,2.8c1.3,0,2.5-0.4,3.5-1.2l37.1,33c-0.2,0.3-0.3,0.5-0.4,0.8L202.8,359.5z M196,351.8l-22.6-42.4
	c1.3-1,2.1-2.6,2.1-4.4c0-0.3,0-0.7-0.1-1l19.6-7.3c1,1.6,2.8,2.7,4.8,2.7c0.8,0,1.5-0.2,2.2-0.4l17.3,44.3c-1.6,1-2.7,2.7-2.7,4.8
	c0,0.3,0,0.7,0.1,1l-14.3,5.3c-1-1.6-2.8-2.8-4.8-2.8C197.1,351.6,196.6,351.7,196,351.8z M192.3,355.8l-60.1-3.9c0-0.1,0-0.2,0-0.4
	c0-1.2-0.4-2.4-1.1-3.3l36.5-38.2c0.7,0.3,1.5,0.5,2.4,0.5c0.6,0,1.2-0.1,1.7-0.3l22.6,42.4C193.3,353.5,192.6,354.6,192.3,355.8z
	 M129.7,346.9c-0.9-0.6-1.9-0.9-3.1-0.9c-2.6,0-4.8,1.8-5.4,4.2l-33.7-2.6c0-0.3-0.1-0.6-0.2-0.9l78.2-37.2L129.7,346.9z
	 M131.3,354.5c0.1-0.2,0.2-0.4,0.3-0.6l60.5,3.9c0.1,0.8,0.3,1.5,0.7,2.1L171,378.5c-1-0.8-2.2-1.3-3.6-1.3c-1.5,0-2.8,0.6-3.8,1.5
	L131.3,354.5z M111,373.6l13.9-16.7c0.5,0.2,1.1,0.3,1.7,0.3c1.3,0,2.5-0.4,3.4-1.2l32.4,24.3c-0.2,0.3-0.3,0.6-0.4,1l-49.8-4.6
	C112.2,375.5,111.7,374.4,111,373.6z M86.3,351.6c0.5-0.6,0.9-1.3,1.1-2.1l33.7,2.6c0.2,1.5,0.9,2.9,2.1,3.8l-13.6,16.4
	c-0.8-0.5-1.8-0.7-2.8-0.7c-1,0-2,0.3-2.8,0.8L86.3,351.6z M81.9,353.7c1,0,2-0.3,2.8-0.8l17.6,20.7c-0.8,1-1.3,2.2-1.3,3.5
	c0,0.2,0,0.5,0.1,0.7l-24.8,7.9c-0.9-1.8-2.8-3-5-3c-1.4,0-2.6,0.5-3.6,1.3L55,373.3c0.5-0.8,0.7-1.8,0.7-2.8c0-0.8-0.2-1.6-0.5-2.4
	L78,352.1C79,353.1,80.4,353.7,81.9,353.7z M71.4,311.3l93.5-3.9c0,0,0,0,0,0.1l-78.5,37.3c-1-1.4-2.7-2.3-4.5-2.3
	c-0.4,0-0.9,0.1-1.3,0.1l-11.8-27.3C70.3,314.4,71.2,313,71.4,311.3z M109.9,297.8c0.6-0.6,1-1.3,1.3-2l53.2,9.3c0,0.1,0,0.2,0,0.4
	l-92.9,3.9l29.7-12.5c0.2,0.3,0.5,0.6,0.7,0.9C104.2,299.9,107.7,299.9,109.9,297.8z M165.7,301.4c-0.4,0.5-0.7,1-0.9,1.6l-53.2-9.3
	c0-1-0.3-1.9-0.8-2.8l23.5-20c1,0.8,2.2,1.3,3.6,1.3c1,0,2-0.3,2.8-0.7L165.7,301.4z M185.8,282.3l9.4,8.5c-0.5,0.9-0.9,1.9-0.9,3
	c0,0.3,0,0.7,0.1,1l-19.6,7.3c-1-1.6-2.8-2.7-4.8-2.7c-1,0-2,0.3-2.8,0.7l-24.7-29.4l34.3,7.1c0,0,0,0.1,0,0.1
	c0,3.1,2.5,5.6,5.6,5.6C183.7,283.5,184.9,283,185.8,282.3z M203.8,255.2l-4.2,33c-1.2,0.1-2.2,0.5-3.1,1.1l-9.4-8.5
	c0.5-0.9,0.9-1.9,0.9-3c0-1.5-0.6-2.8-1.5-3.8l15.1-20.2C202.2,254.5,203,254.9,203.8,255.2z M209.9,253.4l30.4,16.5
	c-0.4,0.7-0.6,1.6-0.6,2.4c0,2.2,1.2,4.1,3,5L223,342.5c-0.2,0-0.4,0-0.6,0c-0.4,0-0.7,0-1.1,0.1l-17.4-44.7c1.1-1,1.7-2.4,1.7-4
	c0-2.5-1.6-4.6-3.9-5.3l4.2-33C207.5,255.4,208.9,254.6,209.9,253.4z M278.9,222.4l-68.6,24.7c-0.1-0.2-0.2-0.4-0.4-0.5l24-25.6
	c0.9,0.6,1.9,0.9,3,0.9c2.5,0,4.7-1.7,5.4-4l36.5,4.2C278.9,222.1,278.9,222.2,278.9,222.4z M280.4,225.6l-31.9,42.1
	c-0.9-0.6-2-1-3.2-1c-1.5,0-2.9,0.6-3.9,1.5l-30.6-16.6c0.2-0.6,0.3-1.1,0.3-1.7c0-0.3,0-0.6-0.1-0.9l68.4-24.6
	C279.7,224.8,280,225.2,280.4,225.6z M290.1,221.9l20.6-4.5c0.3,1.4,1.2,2.7,2.5,3.4l-13.9,34.6c-3.1,0-5.6,2.5-5.6,5.6
	c0,0.2,0,0.5,0,0.7l-43.2,8.5c-0.2-0.4-0.4-0.8-0.6-1.1l32-42.3c0.8,0.4,1.6,0.6,2.5,0.6C287.5,227.4,290,224.9,290.1,221.9z
	 M308.4,179.6c0.6,0.2,1.2,0.4,1.9,0.4l4.2,30.8c-2.1,0.6-3.6,2.4-3.9,4.6l-20.8,4.5c-0.3-1-1-1.9-1.8-2.5L308.4,179.6z
	 M269.3,138.7c-0.3,0.7-0.4,1.4-0.4,2.1c0,0.3,0,0.5,0.1,0.8l-40.7,13.4c-0.3-0.6-0.7-1.1-1.2-1.5l16.3-26.1
	c0.6,0.3,1.3,0.4,2.1,0.4c1.6,0,3.1-0.7,4.1-1.8L269.3,138.7z M276.5,146l9.8,15.9c-1.1,1-1.8,2.5-1.8,4.2c0,0.4,0,0.8,0.1,1.2
	l-28,11.5c-0.5-0.8-1.3-1.5-2.2-2c-2-1-4.4-0.7-6.1,0.7l-20.2-17c0.5-0.8,0.7-1.8,0.7-2.8c0-0.3,0-0.5-0.1-0.8l40.7-13.4
	c0.9,1.7,2.8,2.9,4.9,2.9C275.2,146.4,275.9,146.3,276.5,146z M317.1,137.9l-6.2,31c-0.1,0-0.2,0-0.4,0c-2.3,0-4.2,1.4-5.1,3.3
	l-9.9-4.7c0.1-0.5,0.2-0.9,0.2-1.5c0-3.1-2.5-5.6-5.6-5.6c-0.7,0-1.4,0.1-2.1,0.4l-9.8-15.9c1.1-1,1.8-2.5,1.8-4.2c0,0,0,0,0,0
	l33.9-6.2C314.5,136.1,315.6,137.3,317.1,137.9z M343.5,165.1c-0.9,1-1.4,2.3-1.4,3.7c0,0.2,0,0.4,0,0.6l-26.3,3.4
	c-0.5-1.5-1.6-2.8-3-3.4l6.3-31.1c0,0,0.1,0,0.1,0c1,0,1.8-0.2,2.6-0.7L343.5,165.1z M358.3,142.9l-9.2,20.5
	c-0.4-0.1-0.9-0.2-1.4-0.2c-1,0-1.8,0.2-2.6,0.7l-21.7-27.5c0.5-0.6,0.9-1.2,1.1-2l31.4,4.2C356,140.3,356.9,141.9,358.3,142.9z
	 M389.9,160.6c-0.4,0.7-0.6,1.4-0.6,2.3l-36.3,4.3c-0.4-1.2-1.2-2.3-2.2-3l9.2-20.5c0.4,0.1,0.9,0.2,1.4,0.2c1.8,0,3.3-0.8,4.4-2.1
	L389.9,160.6z M396.4,196.7c-1.3,0.3-2.4,1.1-3.1,2.1l-40.5-27.7c0.3-0.6,0.4-1.3,0.5-1.9l36.3-4.3c0.6,2.1,2.5,3.7,4.8,3.9
	L396.4,196.7z"/>
</svg>
