<?xml version="1.0" encoding="utf-8"?>
<!-- Generator: Adobe Illustrator 21.0.0, SVG Export Plug-In . SVG Version: 6.00 Build 0)  -->
<!DOCTYPE svg PUBLIC "-//W3C//DTD SVG 1.1//EN" "http://www.w3.org/Graphics/SVG/1.1/DTD/svg11.dtd">
<svg version="1.1" id="Layer_1" xmlns="http://www.w3.org/2000/svg" xmlns:xlink="http://www.w3.org/1999/xlink" x="0px" y="0px"
	 viewBox="0 0 434.3 644" style="enable-background:new 0 0 434.3 644;" xml:space="preserve">
<style type="text/css">
	.st0{fill:#FFFFFF;}
</style>
<path class="st0" d="M434.3,241.3c-1-0.8-2.1-1.2-3.4-1.2c-2.2,0-4,1.2-5,3l-25.5-7.9c0-0.2,0-0.5,0-0.7c0-2.6-1.8-4.8-4.2-5.4
	l2.1-27.9c0.9-0.1,1.8-0.4,2.5-0.9l33.4,24.9v-2.5l-31.9-23.8c0.7-0.9,1-2,1-3.2c0-0.7-0.1-1.5-0.4-2.1l31.3-12.5v-2.2l-32.4,13
	c-0.3-0.3-0.6-0.6-1-0.9l31.1-43.6c0.7,0.3,1.5,0.5,2.3,0.5v-11.2c-0.2,0-0.4,0-0.7,0l-6.8-22.2c1.7-0.9,2.8-2.5,3-4.5l4.5-0.4v-2
	l-4.6,0.4c-0.6-2.4-2.8-4.1-5.4-4.1c-3.1,0-5.6,2.5-5.6,5.6s2.5,5.6,5.6,5.6c0.2,0,0.4,0,0.7,0l6.8,22.2c-0.3,0.2-0.6,0.3-0.8,0.5
	l-56.2-58.5c0.2-0.3,0.3-0.5,0.5-0.8l59.1,16.8v-2.1l-58.5-16.6c0-0.2,0-0.4,0-0.5c0-0.6-0.1-1.2-0.3-1.7l35.5-18.7
	c1,1,2.4,1.7,4,1.7c1.6,0,3-0.6,4-1.7L434.3,70v-2.7L420.2,54c0.3-0.7,0.5-1.5,0.5-2.3c0-0.4,0-0.7-0.1-1.1l13.8-7.3v-2.3l-14.5,7.7
	c-0.6-1-1.5-1.8-2.6-2.2l7.9-37.2c0.1,0,0.1,0,0.2,0c3.1,0,5.6-2.5,5.6-5.6c0-1.4-0.5-2.7-1.4-3.7h-8.4c-0.8,0.9-1.3,2.1-1.4,3.4
	l-61.6,23c-0.7-1.2-1.9-2.1-3.2-2.5L357.5,0h-2l-2.6,23.7c-0.9,0.1-1.7,0.3-2.5,0.8L315.3,0h-3.5l37.1,25.8
	c-0.3,0.4-0.5,0.8-0.7,1.2L273.3,9.6c0-0.1,0-0.2,0-0.3c0-2.5-1.7-4.7-4-5.4l0.6-3.9h-2l-0.6,3.7c-1.1,0.1-2.1,0.4-2.9,1L257.1,0
	h-3.7l9.7,6.2c-0.6,0.9-0.9,2-0.9,3.1c0,0,0,0.1,0,0.1l-60.4,27.1c-0.2-0.2-0.4-0.4-0.6-0.5l1.4-36h-2l-1.4,35.1
	c-0.4-0.1-0.9-0.2-1.3-0.2c-1.4,0-2.6,0.5-3.6,1.3l-21.9-18.5c0.5-0.8,0.8-1.8,0.8-2.8c0-1.1-0.3-2.1-0.8-3L180.5,0h-2.4l-7.3,10.4
	c-0.9-0.7-2.1-1.1-3.4-1.1c-1,0-1.9,0.3-2.7,0.7l-8.1-10H154l9.2,11.3c-0.7,0.9-1.2,2-1.3,3.2L112.1,19c-0.4-1.3-1.2-2.4-2.3-3.2
	L116.6,0h-2.2L108,15c-0.4-0.1-0.8-0.1-1.2-0.1c-0.9,0-1.8,0.2-2.6,0.6L92,0h-2.5l13,16.8c-0.3,0.3-0.6,0.7-0.8,1.1L77,10
	C77,9.8,77,9.5,77,9.3c0-2.1-1.1-3.9-2.8-4.9L76.7,0h-2.3l-2.1,3.8c-0.3,0-0.6-0.1-0.9-0.1c-0.5,0-1.1,0.1-1.5,0.2L67.9,0h-2.2
	l2.4,4.8c-1.4,1-2.3,2.6-2.3,4.5c0,1,0.3,1.9,0.7,2.8L53.7,22.8c-1-0.8-2.2-1.3-3.6-1.3c-2.1,0-3.9,1.1-4.9,2.8l-22.9-8.1
	c0.1-0.4,0.2-0.9,0.2-1.3c0-1.1-0.3-2.2-0.9-3.1L33.9,0H31L20.2,10.4c-0.9-0.7-2.1-1.1-3.3-1.1c-0.6,0-1.1,0.1-1.6,0.2L13,0h-2.1
	l2.6,10.5c-1.3,1-2.2,2.6-2.2,4.4c0,3.1,2.5,5.6,5.6,5.6c1.9,0,3.6-1,4.6-2.4l23,8.2c0,0.3-0.1,0.6-0.1,0.9c0,3.1,2.5,5.6,5.6,5.6
	c1.5,0,2.9-0.6,3.9-1.6l22.8,16.1c-0.3,0.7-0.5,1.5-0.5,2.4c0,1.9,1,3.7,2.5,4.7L67.1,81.6c-0.4-0.1-0.8-0.1-1.3-0.1
	c-3.1,0-5.6,2.5-5.6,5.6c0,3.1,2.5,5.6,5.6,5.6c2,0,3.7-1,4.7-2.6l29.9,12.6c-0.4,1.8,0.1,3.8,1.5,5.2c2.1,2.1,5.3,2.2,7.5,0.4
	l23.5,20c-0.5,0.8-0.8,1.8-0.8,2.8c0,3.1,2.5,5.6,5.6,5.6s5.6-2.5,5.6-5.6c0-0.7-0.1-1.4-0.4-2.1l34.2-7c0.8,2.1,2.8,3.5,5.2,3.5
	c0.9,0,1.7-0.2,2.5-0.6l15.5,20.8c-0.3,0.7-0.5,1.4-0.5,2.2c0,3.1,2.5,5.6,5.6,5.6c1.1,0,2.2-0.3,3-0.9l24,25.6
	c-0.7,0.9-1.1,2.1-1.1,3.3c0,3.1,2.5,5.6,5.6,5.6c3,0,5.4-2.3,5.6-5.2l36.5-4.2c0.7,2.2,2.8,3.8,5.3,3.8c0.6,0,1.2-0.1,1.7-0.3
	l20.4,37.9c-1.1,1-1.8,2.5-1.8,4.1c0,0.1,0,0.2,0,0.3l-10.3,4.9c-1-1.4-2.7-2.3-4.5-2.3c-2,0-3.7,1-4.7,2.6l-28-11.5
	c0.3-1.2,0.1-2.5-0.5-3.7c-1.4-2.8-4.7-3.9-7.5-2.5c-2.8,1.4-3.9,4.7-2.5,7.5c0,0.1,0.1,0.2,0.2,0.3l-20.2,17
	c-1-0.8-2.2-1.3-3.6-1.3c-3.1,0-5.6,2.5-5.6,5.6c0,3.1,2.5,5.6,5.6,5.6c0.7,0,1.4-0.1,2.1-0.4l16.3,26.1c-1.1,1-1.8,2.5-1.8,4.1
	c0,3.1,2.5,5.6,5.6,5.6s5.6-2.5,5.6-5.6c0-0.8-0.2-1.5-0.4-2.1l19.8-12.7c1,1.1,2.5,1.8,4.1,1.8c2.4,0,4.4-1.5,5.2-3.6l33.9,6.2
	c0,0,0,0,0,0c0,3.1,2.5,5.6,5.6,5.6c3,0,5.4-2.4,5.6-5.3l31.4-4.2c0.7,2.3,2.8,3.9,5.3,3.9c3.1,0,5.6-2.5,5.6-5.6
	c0-0.6-0.1-1.2-0.3-1.7l24.4-19.1c1,0.9,2.3,1.4,3.7,1.4c2.2,0,4-1.2,5-3l25.5,7.9c0,0.2,0,0.5,0,0.7c0,3.1,2.5,5.6,5.6,5.6
	c1.3,0,2.5-0.5,3.4-1.2V241.3z M399,190.1c-0.4-0.1-0.8-0.1-1.2-0.1c-0.2,0-0.4,0-0.6,0l-19.6-53.7c0.9-0.3,1.7-0.9,2.4-1.6
	l48.7,7.7c0,1.5,0.7,2.9,1.7,3.9L399,190.1z M250.5,123.3l44-27.7c0.8,1.3,2.2,2.2,3.7,2.5v32.9c-1.7,0.3-3.2,1.4-4,2.9l-43.4-8.5
	c0,0,0-0.1,0-0.1C250.9,124.7,250.8,124,250.5,123.3z M284,70c0.8,0,1.5-0.2,2.2-0.4l11.6,17.8c-1.7,0.5-3,1.8-3.7,3.4l-39,1.3
	c-0.5-2.5-2.8-4.4-5.5-4.4c-0.7,0-1.4,0.1-2.1,0.4l-21.4-34.2c0.6-0.5,1.1-1.2,1.4-2L278.4,64c0,0.1,0,0.2,0,0.3
	C278.4,67.4,280.9,70,284,70z M245.8,89c-1.1,1-1.8,2.5-1.8,4.1c0,2.6,1.7,4.7,4.1,5.4l-2.1,21.4c-0.2,0-0.4,0-0.7,0
	c-0.2,0-0.4,0-0.6,0l-19.2-63.4L245.8,89z M250.1,98.7c2.6-0.2,4.7-2.2,5.1-4.8l38.5-1.2c0,0.4,0,0.7,0.1,1.1l-44.3,27.9
	c-0.4-0.5-0.9-0.9-1.5-1.2L250.1,98.7z M287.8,68.4c1.1-1,1.8-2.5,1.8-4.1c0-3.1-2.5-5.6-5.6-5.6c-2.3,0-4.3,1.4-5.1,3.3l-49.4-11.9
	l75.6-4.8c0.5,1.9,1.8,3.3,3.6,4l-9,37.4L287.8,68.4z M304.8,91.5L363.4,81l-44.8,42.5c-0.7-0.4-1.6-0.6-2.4-0.6
	c-0.5,0-1,0.1-1.4,0.2L302.9,97c1.2-1,2-2.6,2-4.3C304.9,92.3,304.9,91.9,304.8,91.5z M370.3,131.9c0.2,1.3,0.8,2.4,1.7,3.2
	l-23,35.4c-0.4-0.1-0.8-0.1-1.2-0.1c-0.8,0-1.5,0.2-2.2,0.5L320,132.6c0.8-0.7,1.3-1.7,1.6-2.8L370.3,131.9z M321.7,127.7l30.6-7.9
	c0.9,1.9,2.8,3.3,5.1,3.3c1.5,0,2.8-0.6,3.8-1.5l9.6,7c-0.2,0.4-0.4,0.9-0.5,1.3l-48.6-2C321.7,127.8,321.7,127.7,321.7,127.7z
	 M362.4,119.9c0.4-0.7,0.6-1.6,0.6-2.5c0-2.2-1.2-4-3-5l9.6-30.9c0.1,0,0.2,0,0.2,0l4.5,44c-0.9,0.3-1.6,0.7-2.3,1.3L362.4,119.9z
	 M358.1,111.9c-0.2,0-0.4,0-0.7,0c-3.1,0-5.6,2.5-5.6,5.6c0,0.1,0,0.3,0,0.4l-30.8,7.9c-0.2-0.4-0.5-0.8-0.8-1.1l46.6-44.2
	c0.2,0.2,0.5,0.3,0.8,0.5L358.1,111.9z M304,89.6c-0.6-0.9-1.4-1.6-2.4-2.1l9.1-37.9c1.6-0.1,3.1-0.8,4.1-2L364.6,76
	c0,0.9,0.2,1.8,0.7,2.6L304,89.6z M300.3,98.2c0.3-0.1,0.6-0.1,0.8-0.2l11.8,26c-1.4,1-2.4,2.7-2.4,4.6c0,0.2,0,0.5,0.1,0.7
	l-7.2,3.6c-0.8-0.9-1.9-1.5-3.1-1.7V98.2z M304.9,136.6c0-0.7-0.1-1.4-0.4-2.1l6.7-3.3c0.8,1.5,2.2,2.5,3.9,2.8v42c0,0-0.1,0-0.1,0
	l-13.7-34.2C303.4,141,304.9,139,304.9,136.6z M316.5,187.1c2.9-0.2,5.2-2.6,5.2-5.6c0-2.8-2-5-4.6-5.5v-41.9
	c0.4-0.1,0.9-0.2,1.2-0.4l25.5,38.2c-1.1,1-1.7,2.4-1.7,4c0,1,0.3,2,0.8,2.8L312.4,218c0,0-0.1,0-0.1,0L316.5,187.1z M344.2,180.3
	c1,0.8,2.2,1.2,3.5,1.2c2.1,0,3.9-1.1,4.9-2.8l39.7,16.3c0,0.2,0,0.4,0,0.6c0,0.5,0.1,1,0.2,1.5l-40.7,27.8c-1-1-2.4-1.7-4-1.7
	c-2.2,0-4.1,1.3-5,3.1l-26.6-3.4c-0.1-1.6-0.8-3-2-4L344.2,180.3z M353.2,176.8c0-0.3,0.1-0.6,0.1-0.9c0-1.9-1-3.7-2.5-4.7
	l22.8-35.1c0.6,0.3,1.3,0.4,2,0.4l19.7,54c-1.1,0.5-2,1.4-2.5,2.5L353.2,176.8z M429.6,139.2c-0.2,0.3-0.4,0.7-0.5,1.1l-47.9-7.5
	c0.2-0.6,0.3-1.2,0.3-1.8c0-2.9-2.3-5.4-5.2-5.6l-4.5-44c0.6-0.2,1.1-0.4,1.5-0.7L429.6,139.2z M409.9,54l-35.3,18.6
	c-0.3-0.3-0.6-0.7-0.9-0.9l19.5-36.3c0.5,0.2,1.1,0.3,1.7,0.3c1.2,0,2.3-0.4,3.2-1l13,13.2c-1,1-1.6,2.4-1.6,3.9
	C409.5,52.5,409.6,53.3,409.9,54z M420,5.5c0.5,1.6,1.7,2.8,3.2,3.4l-7.9,37.2c-0.1,0-0.1,0-0.2,0c-0.8,0-1.6,0.2-2.4,0.5
	l-13.2-13.4c0.6-0.9,1-2,1-3.2c0-3.1-2.5-5.6-5.6-5.6c-2.7,0-5,1.9-5.5,4.5l-30.1-0.7L420,5.5z M358.8,30.1l30.5,0.7
	c0.2,1.4,1,2.7,2,3.5L372,70.7c-0.5-0.2-1.1-0.3-1.7-0.3c-0.3,0-0.6,0-0.9,0.1l-12.8-36.6C357.8,33,358.6,31.7,358.8,30.1z
	 M348.4,32c1,1.7,2.8,2.9,4.9,2.9c0.5,0,1-0.1,1.4-0.2l12.8,36.4c-1.1,0.6-2,1.6-2.4,2.8l-49.2-28.1c0.2-0.6,0.3-1.2,0.3-1.9
	c0-0.3,0-0.6-0.1-0.8L348.4,32z M267.7,14.9c2.3,0,4.3-1.4,5.1-3.4L347.7,29c0,0.1,0,0.2,0,0.3c0,0.3,0,0.6,0.1,0.8l-32.4,11.1
	c-1-1.7-2.8-2.9-4.9-2.9c-1.9,0-3.6,1-4.6,2.5L266,33.3c0,0,0,0,0,0c0-2.2-1.2-4-3-5l4.1-13.5C267.3,14.9,267.5,14.9,267.7,14.9z
	 M264.2,13.7c0.3,0.2,0.6,0.4,0.9,0.6L261,27.7c-0.2,0-0.4,0-0.7,0c-3.1,0-5.6,2.5-5.6,5.6s2.5,5.6,5.6,5.6c2.4,0,4.4-1.5,5.2-3.6
	l39.4,7.4c0,0.2-0.1,0.4-0.1,0.6l-77.2,4.9c-0.1-0.6-0.4-1.1-0.7-1.6L264.2,13.7z M262.5,11.4c0.1,0.3,0.2,0.5,0.4,0.8l-37.1,33
	c-1-0.7-2.1-1.2-3.5-1.2c-2.1,0-3.8,1.1-4.8,2.8l-14.3-5.3c0.1-0.3,0.1-0.6,0.1-1c0-0.8-0.2-1.6-0.5-2.3L262.5,11.4z M197.7,46.1
	c2.1,0,3.8-1.1,4.8-2.8l14.3,5.3c-0.1,0.3-0.1,0.6-0.1,1c0,2,1.1,3.8,2.7,4.8l-17.3,44.3c-0.7-0.3-1.4-0.4-2.2-0.4
	c-2,0-3.8,1.1-4.8,2.7l-19.6-7.3c0.1-0.3,0.1-0.7,0.1-1c0-1.8-0.8-3.4-2.1-4.4L196,45.8C196.6,46,197.1,46.1,197.7,46.1z
	 M194.3,44.9l-22.6,42.4c-0.5-0.2-1.1-0.3-1.7-0.3c-0.8,0-1.6,0.2-2.4,0.5l-36.5-38.2c0.7-0.9,1.1-2.1,1.1-3.3c0-0.1,0-0.2,0-0.4
	l60.1-3.9C192.6,43.1,193.3,44.1,194.3,44.9z M165.5,88.3L87.3,51.1c0.1-0.3,0.1-0.6,0.2-0.9l33.7-2.6c0.6,2.4,2.8,4.2,5.4,4.2
	c1.1,0,2.2-0.3,3.1-0.9L165.5,88.3z M163.6,19c1,0.9,2.3,1.5,3.8,1.5c1.4,0,2.6-0.5,3.6-1.3l21.9,18.5c-0.4,0.6-0.6,1.4-0.7,2.1
	l-60.5,3.9c-0.1-0.2-0.2-0.4-0.3-0.6L163.6,19z M112.3,21l49.8-4.6c0.1,0.3,0.2,0.7,0.4,1L130,41.7c-0.9-0.7-2.1-1.2-3.4-1.2
	c-0.6,0-1.2,0.1-1.7,0.3L111,24.1C111.7,23.2,112.2,22.2,112.3,21z M103.9,25.3c0.8,0.5,1.8,0.8,2.8,0.8c1,0,1.9-0.3,2.8-0.7
	l13.6,16.4c-1.1,0.9-1.9,2.3-2.1,3.8l-33.7,2.6c-0.2-0.8-0.6-1.5-1.1-2.1L103.9,25.3z M78,45.6L55.2,29.5c0.3-0.7,0.5-1.5,0.5-2.4
	c0-1-0.3-1.9-0.7-2.8l12.8-10.7c1,0.8,2.2,1.3,3.6,1.3c2.1,0,4-1.2,5-3l24.8,7.9c0,0.2-0.1,0.5-0.1,0.7c0,1.3,0.5,2.6,1.3,3.5
	L84.7,44.8C83.9,44.3,83,44,81.9,44C80.4,44,79,44.6,78,45.6z M68.9,82.4l11.8-27.3c0.4,0.1,0.8,0.1,1.3,0.1c1.9,0,3.5-0.9,4.5-2.3
	L165,90.2c0,0,0,0,0,0.1l-93.5-3.9C71.2,84.7,70.3,83.3,68.9,82.4z M102,99.9c-0.3,0.3-0.5,0.6-0.7,0.9L71.5,88.4l92.9,3.9
	c0,0.1,0,0.2,0,0.4l-53.2,9.3c-0.3-0.7-0.7-1.4-1.3-2C107.7,97.7,104.2,97.7,102,99.9z M140.6,126.1c-0.8-0.5-1.8-0.7-2.8-0.7
	c-1.3,0-2.6,0.5-3.6,1.3l-23.5-20c0.5-0.9,0.8-1.8,0.8-2.8l53.2-9.3c0.2,0.6,0.5,1.2,0.9,1.6L140.6,126.1z M182.4,114.2
	c-3.1,0-5.6,2.5-5.6,5.6c0,0,0,0.1,0,0.1l-34.3,7.1l24.7-29.4c0.8,0.5,1.8,0.7,2.8,0.7c2,0,3.8-1.1,4.8-2.7l19.6,7.3
	c-0.1,0.3-0.1,0.7-0.1,1c0,1.1,0.3,2.1,0.9,3l-9.4,8.5C184.9,114.6,183.7,114.2,182.4,114.2z M201.6,143.8l-15.1-20.2
	c0.9-1,1.5-2.3,1.5-3.8c0-1.1-0.3-2.1-0.9-3l9.4-8.5c0.9,0.7,1.9,1.1,3.1,1.1l4.2,33C203,142.7,202.2,143.2,201.6,143.8z
	 M205.8,142.2l-4.2-33c2.3-0.7,3.9-2.8,3.9-5.3c0-1.6-0.7-3-1.7-4l17.4-44.7c0.3,0.1,0.7,0.1,1.1,0.1c0.2,0,0.4,0,0.6,0l19.8,65.2
	c-1.8,0.9-3,2.8-3,5c0,0.9,0.2,1.7,0.6,2.4l-30.4,16.5C208.9,143.1,207.5,142.3,205.8,142.2z M278.9,175.7l-36.5,4.2
	c-0.7-2.3-2.8-4-5.4-4c-1.1,0-2.2,0.3-3,0.9l-24-25.6c0.1-0.2,0.2-0.3,0.4-0.5l68.6,24.7C278.9,175.4,278.9,175.6,278.9,175.7z
	 M279.5,173.4l-68.4-24.6c0.1-0.3,0.1-0.6,0.1-0.9c0-0.6-0.1-1.2-0.3-1.7l30.6-16.6c1,1,2.4,1.5,3.9,1.5c1.2,0,2.3-0.4,3.2-1
	l31.9,42.1C280,172.5,279.7,172.9,279.5,173.4z M284.5,170.3c-0.9,0-1.8,0.2-2.5,0.6l-32-42.3c0.2-0.4,0.4-0.7,0.6-1.1l43.2,8.5
	c0,0.2,0,0.4,0,0.7c0,3.1,2.5,5.6,5.6,5.6l13.9,34.6c-1.2,0.8-2.1,2-2.5,3.4l-20.6-4.5C290,172.7,287.5,170.3,284.5,170.3z
	 M288,180.3c0.8-0.7,1.4-1.5,1.8-2.5l20.8,4.5c0.3,2.2,1.8,4,3.9,4.6l-4.2,30.8c-0.7,0-1.3,0.2-1.9,0.4L288,180.3z M249.4,271.7
	c-1-1.1-2.5-1.8-4.1-1.8c-0.7,0-1.4,0.1-2.1,0.4L227,244.2c0.5-0.4,0.9-0.9,1.2-1.5l40.7,13.4c0,0.3-0.1,0.5-0.1,0.8
	c0,0.8,0.2,1.5,0.4,2.1L249.4,271.7z M274.5,251.3c-2.1,0-4,1.2-4.9,2.9l-40.7-13.4c0-0.3,0.1-0.5,0.1-0.8c0-1-0.3-2-0.7-2.8
	l20.2-17c1.7,1.4,4,1.7,6.1,0.7c0.9-0.5,1.7-1.2,2.2-2l28,11.5c-0.1,0.4-0.1,0.8-0.1,1.2c0,1.6,0.7,3.1,1.8,4.2l-9.8,15.9
	C275.9,251.4,275.2,251.3,274.5,251.3z M313.9,263l-33.9-6.2c0,0,0,0,0,0c0-1.6-0.7-3.1-1.8-4.2l9.8-15.9c0.6,0.3,1.3,0.4,2.1,0.4
	c3.1,0,5.6-2.5,5.6-5.6c0-0.5-0.1-1-0.2-1.5l9.9-4.7c0.9,2,2.8,3.3,5.1,3.3c0.1,0,0.2,0,0.4,0l6.2,31
	C315.6,260.4,314.5,261.6,313.9,263z M321.8,260.1c-0.8-0.4-1.7-0.7-2.6-0.7c0,0-0.1,0-0.1,0l-6.3-31.1c1.4-0.7,2.6-1.9,3-3.4
	l26.3,3.4c0,0.2,0,0.4,0,0.6c0,1.4,0.5,2.7,1.4,3.7L321.8,260.1z M355.9,259.1l-31.4,4.2c-0.2-0.7-0.6-1.4-1.1-2l21.7-27.5
	c0.8,0.4,1.7,0.7,2.6,0.7c0.5,0,0.9-0.1,1.4-0.2l9.2,20.5C356.9,255.8,356,257.3,355.9,259.1z M365.9,255.9c-1-1.3-2.6-2.1-4.4-2.1
	c-0.5,0-0.9,0.1-1.4,0.2l-9.2-20.5c1-0.7,1.8-1.8,2.2-3l36.3,4.3c0,0.8,0.3,1.6,0.6,2.3L365.9,255.9z M394.3,228.9
	c-2.3,0.2-4.1,1.8-4.8,3.9l-36.3-4.3c0-0.7-0.2-1.3-0.5-1.9l40.5-27.7c0.8,1,1.8,1.8,3.1,2.1L394.3,228.9z"/>
</svg>
