<?xml version="1.0" encoding="utf-8"?>
<!-- Generator: Adobe Illustrator 21.0.0, SVG Export Plug-In . SVG Version: 6.00 Build 0)  -->
<!DOCTYPE svg PUBLIC "-//W3C//DTD SVG 1.1//EN" "http://www.w3.org/Graphics/SVG/1.1/DTD/svg11.dtd">
<svg version="1.1" id="Layer_1" xmlns="http://www.w3.org/2000/svg" xmlns:xlink="http://www.w3.org/1999/xlink" x="0px" y="0px"
	 viewBox="0 0 493 644" style="enable-background:new 0 0 493 644;" xml:space="preserve">
<style type="text/css">
	.st0{fill:#D6D6D6;}
</style>
<path class="st0" d="M0,18.4l24.3,1.1c0.2,1.1,0.6,2.1,1.3,3L5.3,48.2c-0.8-0.4-1.7-0.7-2.6-0.7c-0.8,0-1.5,0.2-2.2,0.5L0,47.3V58
	c0.4,0.2,0.9,0.4,1.4,0.6L0,88.2v44.6c0.7-0.1,1.4-0.4,2-0.7l21.8,24.7c-0.8,1-1.2,2.2-1.2,3.5c0,0.9,0.2,1.8,0.6,2.6L0,182v2.6
	l24.5-20.1c0.5,0.5,1.1,0.8,1.8,1.1L24,232c-1.6,0.1-3.1,0.8-4.1,2L0,220.5v2.4l18.9,12.8c-0.2,0.6-0.3,1.2-0.3,1.8
	c0,2.9,2.2,5.3,5.1,5.6l6.7,42.8c-0.3,0.1-0.6,0.3-0.9,0.4L9.6,262.8c0.8-1,1.3-2.2,1.3-3.5c0-3.1-2.5-5.6-5.6-5.6
	c-0.7,0-1.3,0.1-1.9,0.3L0,247.8v4.2l1.6,3c-0.7,0.6-1.3,1.4-1.6,2.3v4c0.2,0.5,0.5,1,0.8,1.4L0,263.5v2.9l2.3-2.4
	c0.7,0.4,1.4,0.7,2.2,0.8L0,299.4V315l6.5-50.3c0.6-0.1,1.1-0.3,1.6-0.6l19.9,23.6c-0.8,1-1.3,2.2-1.3,3.6c0,1,0.3,2,0.8,2.8
	l-1.9,3.1L0,325.1c0,0,0,0,0,0v9.5c1.6-1,2.7-2.8,2.7-4.8c0-1.3-0.4-2.5-1.2-3.4l18.3-20L0,338.5v3.8l27.1-43.9l2.2-2.4
	c0.9,0.5,1.9,0.9,3,0.9c1.7,0,3.2-0.7,4.2-1.9l24.8,17.9c-0.3,0.7-0.6,1.5-0.6,2.4c0,1.1,0.3,2.2,0.9,3L0,356.9v2.4l62.9-39.5
	c0.4,0.3,0.9,0.6,1.4,0.8l-13.3,83.1c-1.8,0-3.5,1-4.5,2.4L0,378.6v2.3l45.8,26.9c-0.1,0.2-0.1,0.5-0.1,0.7l-33.1,2
	c-0.7-2.3-2.8-4-5.4-4c-0.3,0-0.5,0-0.8,0.1L0,395v4.2l4.5,8.2c-1.7,1-2.9,2.8-2.9,4.9c0,0.3,0,0.6,0.1,0.9L0,413.6v2l2.4-0.5
	c1,1.7,2.8,2.8,4.8,2.8c3,0,5.4-2.3,5.6-5.2l33-2c0.3,1.1,0.8,2,1.6,2.7l-11.6,26.5c-0.5-0.2-1-0.2-1.6-0.2c-2.3,0-4.2,1.3-5.1,3.3
	L0,431v2.2l28.6,11.7c0,0.1,0,0.3,0,0.4c0,1.2,0.4,2.3,1,3.2L0,472.3v2.6l31.1-24.9c0.7,0.5,1.6,0.8,2.6,0.9l-3.1,65.9
	c-1.2,0.2-2.3,0.7-3.2,1.5L0,500.2v2.4l26.2,17.3c-0.3,0.7-0.5,1.5-0.5,2.4c0,0,0,0.1,0,0.1L0,528.8v5.6l53.8,22.2
	c0.2,0.7,0.5,1.4,0.9,1.9L9.4,594.8c-0.9-0.7-2.1-1.2-3.4-1.2c-0.1,0-0.2,0-0.3,0L0,558.1V571l3.7,23.2c-0.3,0.2-0.7,0.3-0.9,0.5
	L0,591.8v3l1.3,1.4c-0.6,0.9-1,2-1,3.1c0,3.1,2.5,5.6,5.6,5.6c1.6,0,3-0.6,4-1.7L50,630.5c-0.3,0.7-0.5,1.5-0.5,2.3
	c0,3.1,2.5,5.6,5.6,5.6c3.1,0,5.6-2.5,5.6-5.6c0-0.9-0.2-1.7-0.6-2.5l61.7-46.5c0.9,0.7,2.1,1.1,3.4,1.1c3.1,0,5.6-2.5,5.6-5.6
	c0-1.6-0.7-3.1-1.8-4.1l43-66.7c0.7,0.3,1.4,0.4,2.1,0.4c3.1,0,5.6-2.5,5.6-5.6s-2.5-5.6-5.6-5.6c-1,0-1.9,0.3-2.7,0.7l-20-24.5
	c0.8-1,1.3-2.2,1.3-3.6c0-3.1-2.5-5.6-5.6-5.6c-1,0-2,0.3-2.8,0.7l-24.9-29.6c0.8-1,1.3-2.2,1.3-3.6c0-2.3-1.4-4.4-3.5-5.2l7.4-35.2
	c0,0,0.1,0,0.1,0c1,0,2-0.3,2.8-0.8l21.2,24.6c-0.8,1-1.3,2.2-1.3,3.5c0,3.1,2.5,5.6,5.6,5.6c3.1,0,5.6-2.5,5.6-5.6
	c0-0.4-0.1-0.8-0.1-1.2l73-30.9c1,1.5,2.7,2.5,4.7,2.5c3.1,0,5.6-2.5,5.6-5.6c0-1.1-0.3-2.2-0.9-3l56.4-53c2,1.2,4.6,1.1,6.5-0.6
	c2.3-2,2.6-5.6,0.6-7.9c-1.5-1.7-3.8-2.3-5.8-1.7l-19.3-44.1c1.4-0.9,2.3-2.4,2.5-4.2l16.8-4.1c0.9,2,2.8,3.3,5.1,3.3
	c1,0,2-0.3,2.9-0.8l20.3,23.3c-0.8,1-1.2,2.2-1.2,3.5c0,3.1,2.5,5.6,5.6,5.6s5.6-2.5,5.6-5.6c0-0.4,0-0.7-0.1-1.1l73.9-29.3
	c1,1.5,2.7,2.4,4.6,2.4c3.1,0,5.6-2.5,5.6-5.6c0-1.2-0.4-2.2-1-3.1l55.1-53.3c0.9,0.7,2,1.1,3.3,1.1c3.1,0,5.6-2.5,5.6-5.6
	s-2.5-5.6-5.6-5.6c-0.4,0-0.8,0.1-1.2,0.1l-18.7-43.6c1.5-1,2.5-2.7,2.5-4.7c0-3.1-2.5-5.6-5.6-5.6c-1.1,0-2.1,0.3-3,0.8L432.4,117
	c0.9-1,1.4-2.3,1.4-3.7c0-3.1-2.5-5.6-5.6-5.6c-2,0-3.7,1-4.7,2.5l-91.1-39.1c0.1-0.4,0.1-0.8,0.1-1.3c0-3.1-2.5-5.6-5.6-5.6
	c-2.4,0-4.4,1.5-5.2,3.6L280.3,60c0,0,0,0,0,0c0-3.1-2.5-5.6-5.6-5.6s-5.6,2.5-5.6,5.6c0,0.3,0,0.7,0.1,1l-29.8,8.4
	c-0.9-1.9-2.8-3.1-5-3.1c-1,0-1.9,0.3-2.8,0.7l-21.1-25.3c0.7-0.9,1.1-2,1.1-3.3c0-3.1-2.5-5.6-5.6-5.6c-1.3,0-2.5,0.5-3.5,1.2
	l-25.3-20.1c0.4-0.8,0.7-1.7,0.7-2.6c0-3.1-2.5-5.6-5.6-5.6s-5.6,2.5-5.6,5.6c0,0.6,0.1,1.2,0.3,1.7l-37.8,19.9
	c-1-1.3-2.6-2.1-4.4-2.1c-2.8,0-5.2,2.1-5.6,4.9l-30.6,1.5c-0.6-2.5-2.8-4.3-5.5-4.3c-2.1,0-3.8,1.1-4.8,2.8l-43-15.8
	c0.1-0.3,0.1-0.6,0.1-1c0-3.1-2.5-5.6-5.6-5.6c-2.7,0-4.9,1.9-5.5,4.4L0,16.4V18.4z M1.5,122.2c-0.4-0.2-0.7-0.3-1.1-0.4l3-63.1
	c0.8-0.1,1.6-0.4,2.3-0.8l20.6,22c-0.6,0.9-1,2-1,3.1c0,1.4,0.5,2.7,1.4,3.7L1.5,122.2z M25.3,155.5L3.5,130.7
	c0.8-1,1.2-2.2,1.2-3.5c0-1.5-0.6-2.9-1.6-3.9l25.2-35.4c0.8,0.4,1.7,0.6,2.6,0.6c0.1,0,0.3,0,0.4,0l10.2,31.8c-1.8,0.9-3,2.8-3,4.9
	c0,1.9,1,3.6,2.4,4.6l-11.4,25c-0.4-0.1-0.9-0.2-1.4-0.2C27.2,154.7,26.2,155,25.3,155.5z M36.6,82.8l28.1-6.1c0.5,2,2,3.7,4.1,4.2
	c0.6,0.1,1.2,0.2,1.7,0.2l7.4,29.2c-1.9,0.9-3.3,2.8-3.3,5.1c0,0.3,0,0.6,0.1,0.9l-25.8,6c-1-1.5-2.7-2.5-4.7-2.5
	c-0.2,0-0.5,0-0.7,0.1L33.3,88c1.9-0.9,3.2-2.8,3.2-5.1C36.6,82.9,36.6,82.8,36.6,82.8z M198.2,118l-49.7,70.5
	c-0.5-0.2-1-0.4-1.6-0.5l-2.6-72.8c2.5-0.5,4.4-2.8,4.4-5.5c0-2.1-1.1-3.9-2.8-4.9l6.4-18c0.3,0,0.6,0.1,0.9,0.1
	c1.6,0,3.1-0.7,4.1-1.8l40.1,26c-0.5,0.9-0.8,1.8-0.8,2.9C196.6,115.6,197.2,117,198.2,118z M258,163l-11.6,24.1
	c-0.7-0.3-1.4-0.5-2.2-0.5c-0.2,0-0.4,0-0.6,0l-37.7-68.1l49.9,38.4c-0.1,0.5-0.2,0.9-0.2,1.4C255.6,160.3,256.6,162,258,163z
	 M346.9,106.1L301.7,143c-0.8-0.7-1.8-1.2-3-1.3l-9-56.5c1.2-0.4,2.3-1.3,2.9-2.4l53.6,20.5c0,0.1,0,0.3,0,0.4
	C346.4,104.6,346.5,105.4,346.9,106.1z M387.7,127.6l-11.3,23.9c-0.5-0.1-0.9-0.2-1.4-0.2c-0.4,0-0.8,0-1.1,0.1l-18.6-43.2
	c0.7-0.5,1.2-1.1,1.6-1.8l29.3,14.4c-0.3,0.7-0.5,1.5-0.5,2.3C385.6,125,386.4,126.6,387.7,127.6z M450.5,149.5L405.8,187
	c-0.8-0.7-1.8-1.1-2.9-1.3l-9.6-57.2c1.4-0.6,2.5-1.7,3.1-3.1l53.2,20.6c0,0.2,0,0.4,0,0.5C449.6,147.6,449.9,148.7,450.5,149.5z
	 M314,213.4l9.4-26.7c0.3,0,0.6,0.1,0.9,0.1c1.8,0,3.5-0.9,4.5-2.3l31.1,15.4c-0.1,0.5-0.2,1-0.2,1.5c0,1.8,0.9,3.4,2.2,4.5
	l-12.2,23.9c-0.4-0.1-0.9-0.2-1.4-0.2c-2.1,0-4,1.2-4.9,2.9l-26.7-12.8c0.1-0.5,0.2-1,0.2-1.5C316.8,216.2,315.7,214.4,314,213.4z
	 M134.3,336.1l10-26.3c0.6,0.2,1.2,0.3,1.9,0.3c1.8,0,3.4-0.8,4.4-2.2l30,15.8c0,0.2,0,0.3,0,0.5c0,1.9,0.9,3.5,2.4,4.6l-11.3,24
	c-0.5-0.1-0.9-0.2-1.4-0.2c-1.9,0-3.6,1-4.6,2.4l-27.9-12.6c0.1-0.4,0.2-0.8,0.2-1.3C137.8,338.9,136.4,336.9,134.3,336.1z
	 M62.6,550.8l11.3-26.1c0.4,0.1,0.8,0.2,1.3,0.2c0,0,0,0,0,0l10.3,56.1c-0.5,0.2-1,0.4-1.5,0.7l-20.4-22.9c0.7-1,1.2-2.1,1.2-3.4
	C64.8,553.5,64,551.8,62.6,550.8z M77.2,524.5c1.2-0.4,2.2-1.3,2.8-2.3l53.6,20.6c0.1,0.8,0.3,1.6,0.7,2.3l-43.2,37.2
	c-0.9-0.9-2.2-1.5-3.6-1.6L77.2,524.5z M133.8,540.8l-53.1-20.4c0.1-0.3,0.1-0.7,0.1-1c0-0.2,0-0.3,0-0.5l26.4-7.1
	c0.4,0.7,0.9,1.4,1.5,2c1.8,1.5,4.3,1.6,6.3,0.5l20.2,24.2C134.6,539,134.1,539.8,133.8,540.8z M107.8,505.8c-0.9,1.2-1.3,2.6-1.2,4
	l-26.4,7.1c-0.9-1.9-2.8-3.2-5.1-3.2c-0.2,0-0.4,0-0.6,0l-10-33c1.4-0.7,2.4-2,2.8-3.5l28.6-4.5c0.8,1.7,2.5,3,4.5,3.2l9.1,28.5
	C108.9,504.7,108.3,505.2,107.8,505.8z M72.7,514.3c-1.6,0.8-2.8,2.4-3,4.3l-33.1,2.1c-0.3-1-0.9-1.9-1.6-2.6l24.8-37.2
	c0.7,0.3,1.4,0.5,2.2,0.5c0.2,0,0.4,0,0.6,0L72.7,514.3z M101.1,464.7c-3.1,0-5.6,2.5-5.6,5.6c0,0.1,0,0.3,0,0.4l-28,4.4
	c-0.1-0.8-0.3-1.5-0.7-2.1l44.7-36.5c0.2,0.2,0.5,0.4,0.8,0.6l-10.3,27.7C101.7,464.7,101.4,464.7,101.1,464.7z M56.8,408.9
	l26.6-6.7c1,1.6,2.8,2.7,4.8,2.7c0.9,0,1.7-0.2,2.4-0.6l20.3,24.4c-0.3,0.4-0.6,0.9-0.9,1.4l-53.3-19.8c0.1-0.3,0.1-0.6,0.1-1
	C56.8,409.1,56.8,409,56.8,408.9z M31.4,155.7l11.4-25c0.4,0.1,0.9,0.2,1.3,0.2l9.6,56.2c-0.2,0.1-0.5,0.3-0.7,0.4l-20.9-23.2
	c1.1-1,1.7-2.4,1.7-4C33.8,158.4,32.9,156.7,31.4,155.7z M49.7,124.1l25.7-6c1,1.7,2.8,2.8,4.8,2.8c0.8,0,1.5-0.2,2.1-0.4l21.4,23.5
	c-0.2,0.2-0.3,0.4-0.5,0.7L49.8,126c0-0.2,0-0.5,0-0.7C49.8,124.9,49.8,124.5,49.7,124.1z M102.7,146.6c0,0.3-0.1,0.6-0.1,0.9
	c0,1.3,0.5,2.5,1.2,3.5l-44,36.8c-1-0.8-2.2-1.3-3.5-1.3c-0.2,0-0.4,0-0.6,0l-9.6-56c1.3-0.5,2.4-1.4,3-2.7L102.7,146.6z
	 M266.7,226.2l-12.8,6.4c-0.9-1-2-1.6-3.4-1.8l-4.1-33.3c0.2-0.1,0.4-0.2,0.6-0.3l20.9,24.6c-0.8,1-1.3,2.2-1.3,3.5
	C266.6,225.6,266.6,225.9,266.7,226.2z M248.5,230.8c-1.9,0.4-3.5,1.8-4.1,3.6l-66.6-8.2c0-0.4-0.1-0.8-0.2-1.2l62-29.6
	c1,1.5,2.7,2.4,4.6,2.4c0.1,0,0.2,0,0.2,0L248.5,230.8z M218.7,314.4l-27.4,7.4c-0.6-1.2-1.6-2.2-2.9-2.8l7.3-33.2
	c0.1,0,0.1,0,0.2,0c1,0,2-0.3,2.8-0.8l21.3,25c-0.9,1-1.5,2.3-1.5,3.8C218.6,314,218.6,314.2,218.7,314.4z M87.8,280.7l27.4-7.9
	c0.9,1.8,2.8,3.1,5,3.1c0.9,0,1.8-0.2,2.5-0.6l19.3,25.4c-0.3,0.3-0.5,0.6-0.7,1l-53.6-19.5c0.1-0.3,0.1-0.6,0.1-0.9
	C87.8,281.1,87.8,280.9,87.8,280.7z M95.5,232.5l11.3-23.9c0.5,0.1,0.9,0.2,1.5,0.2c0,0,0,0,0.1,0l10.8,56c-0.4,0.1-0.7,0.2-1,0.3
	l-21.4-24.6c0.8-1,1.2-2.2,1.2-3.5C97.8,235.2,96.9,233.6,95.5,232.5z M167.5,229.5l-43.6,36.6c-0.8-0.7-1.8-1.1-2.8-1.3l-10.8-56.4
	c1.2-0.5,2.2-1.3,2.8-2.4l53.6,19.7c0,0.2-0.1,0.5-0.1,0.7C166.6,227.6,166.9,228.7,167.5,229.5z M208.9,250.8l-11.5,24.1
	c-0.5-0.1-1-0.2-1.5-0.2c-0.5,0-0.9,0.1-1.3,0.2l-19.3-43.7c0.3-0.2,0.6-0.5,0.9-0.8l30.5,14.4c-0.1,0.5-0.2,0.9-0.2,1.4
	C206.6,248.1,207.5,249.8,208.9,250.8z M192.8,275.6c-1.2,0.8-2,2.1-2.3,3.5l-64.6-9c0-0.9-0.3-1.7-0.7-2.4l43.7-36.7
	c0.9,0.7,2.1,1.1,3.4,1.1c0.5,0,0.9-0.1,1.3-0.2L192.8,275.6z M108.2,197.7c-3.1,0-5.6,2.5-5.6,5.6c0,1.9,0.9,3.5,2.3,4.6
	l-11.3,23.9c-0.1,0-0.2-0.1-0.3-0.1l0.9-41c2.4,0,4.5-1.6,5.3-3.8l40.8,6.8l-27,7.3C112.4,199,110.5,197.7,108.2,197.7z
	 M124.4,274.2c0.5-0.6,0.9-1.3,1.2-2l64.9,9c0.1,0.3,0.1,0.7,0.3,1l-39.9,19.1c-1-1.4-2.7-2.3-4.5-2.3c-0.9,0-1.8,0.2-2.5,0.6
	L124.4,274.2z M151.6,303l40-19.2c0.6,0.7,1.3,1.2,2.1,1.6l-7.3,33.2c-0.1,0-0.1,0-0.2,0c-2.2,0-4.1,1.3-5,3.1l-29.6-15.6
	c0.2-0.5,0.3-1.1,0.3-1.7C151.8,304,151.7,303.5,151.6,303z M200.3,283.8c0.8-1,1.3-2.2,1.3-3.5c0-1.9-0.9-3.5-2.3-4.5l11.5-24.1
	c0.5,0.1,1,0.2,1.5,0.2c0,0,0.1,0,0.1,0l11.3,56.4c-0.7,0.1-1.3,0.3-1.9,0.6L200.3,283.8z M212.2,240.7c-1.9,0-3.5,0.9-4.6,2.3
	l-30.3-14.3c0.1-0.2,0.1-0.3,0.2-0.5l66.4,8.2l-26.7,7.5C216.3,242,214.4,240.7,212.2,240.7z M151.8,194.4l86.9-2.5
	c0,0.1,0,0.2,0,0.3c0,0.5,0.1,0.9,0.2,1.3l-62,29.7c-1-1.4-2.7-2.3-4.5-2.3c-1.1,0-2.1,0.3-2.9,0.8L150.7,197
	C151.2,196.2,151.6,195.4,151.8,194.4z M151,190.6l37.7-35.6c0.9,0.7,2.1,1.1,3.3,1.1c1.4,0,2.7-0.5,3.6-1.4l43.3,35.1l-87.3,2.5
	C151.6,191.8,151.3,191.2,151,190.6z M167.8,223.1c-0.2,0.2-0.4,0.5-0.5,0.8l-53.5-19.7c0.1-0.3,0.1-0.6,0.1-1c0-0.2,0-0.3,0-0.5
	l27.2-7.3c0.8,2.2,2.8,3.7,5.3,3.7c1.1,0,2.1-0.3,3-0.9L167.8,223.1z M141,191.7l-41.1-6.9c0-1.5-0.7-2.8-1.7-3.8l42.9-66.1
	c0.4,0.2,0.9,0.3,1.4,0.4l2.6,72.8C143.1,188.5,141.6,189.9,141,191.7z M95.4,179.5c-0.4-0.1-0.8-0.1-1.2-0.1
	c-3.1,0-5.6,2.5-5.6,5.6c0,0.1,0,0.2,0,0.3l-27,5.1c-0.1-0.4-0.3-0.8-0.5-1.2l44.2-37c0.2,0.1,0.5,0.3,0.8,0.4L95.4,179.5z
	 M53.5,196.9c0.8,0.5,1.8,0.7,2.8,0.7c3,0,5.4-2.3,5.6-5.2l27.3-5.2c0.1,0.2,0.2,0.4,0.3,0.6l-60.9,45.3L53.5,196.9z M90.7,189.4
	c0.5,0.4,1,0.7,1.6,0.9l-0.9,41.3c-2.4,0.4-4.2,2.2-4.6,4.6l-57,0.4c-0.1-0.5-0.3-1-0.5-1.4L90.7,189.4z M91.9,242.7
	c0.1,0,0.2,0,0.3,0c1,0,2-0.3,2.9-0.8l21.3,24.4c-1.1,1-1.7,2.4-1.7,4c0,0.2,0,0.4,0,0.6l-27.4,7.9c-0.7-1.3-1.9-2.4-3.3-2.9
	L91.9,242.7z M69.5,310.7l11.3-24c0.4,0.1,0.9,0.2,1.4,0.2L92,343c-0.4,0.1-0.7,0.3-1,0.4l-20.4-24.5c0.8-1,1.3-2.2,1.3-3.6
	C71.8,313.4,70.9,311.7,69.5,310.7z M89.4,344.7c-0.8,1-1.3,2.2-1.3,3.6c0,2.1,1.2,4,3,4.9l-3.7,38.9l-18.8-71.8
	c0.1-0.1,0.3-0.1,0.4-0.2L89.4,344.7z M92.3,403.2c1-1,1.6-2.4,1.6-3.9c0-2.7-2-5-4.6-5.5l3.8-39.9c0.1,0,0.2,0,0.4,0l20.7,72.9
	c-0.6,0.1-1.1,0.3-1.6,0.6L92.3,403.2z M84.2,286.5c1.2-0.5,2.3-1.3,2.9-2.4l53.6,19.5c-0.1,0.3-0.1,0.6-0.1,0.9
	c0,1,0.3,1.9,0.7,2.8l-44,36.7c-0.9-0.8-2.1-1.2-3.4-1.3L84.2,286.5z M142.5,308.9l-10.2,26.8c0,0-0.1,0-0.1,0
	c-2.9,0-5.3,2.2-5.6,5.1l-27.7,5.4c-0.1-0.2-0.2-0.5-0.3-0.7L142.5,308.9z M166.1,362c1,1.1,2.5,1.9,4.2,1.9c1,0,1.9-0.3,2.7-0.7
	l20.1,24.5c-0.5,0.6-0.9,1.4-1.2,2.2l-61.4-4.2c-0.1-0.5-0.2-1-0.4-1.4L166.1,362z M174.5,361.9c0.8-1,1.3-2.2,1.3-3.6
	c0-1.9-0.9-3.5-2.4-4.6l11.3-24c0.4,0.1,0.9,0.2,1.3,0.2l9.2,56.1c-0.3,0.1-0.6,0.2-0.8,0.4L174.5,361.9z M188.1,329.5
	c1.2-0.4,2.3-1.3,2.9-2.4l53.6,19.6c-0.1,1,0,2,0.4,2.9l-44.3,37.3c-0.9-0.8-2.1-1.2-3.4-1.3L188.1,329.5z M191.7,325.2
	c0.1-0.3,0.1-0.6,0.1-1c0-0.2,0-0.3,0-0.5l27.4-7.4c0.9,1.8,2.8,3.1,5,3.1c1,0,2-0.3,2.8-0.8l19.1,24.9c-0.3,0.4-0.6,0.8-0.8,1.2
	L191.7,325.2z M228.5,317.4c0.4-0.5,0.7-1,0.9-1.6l65.3,8.8c0,0.1,0,0.1,0,0.2l-40.1,19.3c-0.6-0.8-1.3-1.4-2.3-1.8
	c-1.6-0.7-3.4-0.6-4.8,0.1L228.5,317.4z M227.8,309.5c-0.6-0.5-1.3-0.9-2.1-1.1l-11.4-56.9c1.2-0.5,2.1-1.3,2.8-2.4l53.6,19.7
	c0,0.1,0,0.2,0,0.4c0,1.3,0.4,2.5,1.2,3.4L227.8,309.5z M271.1,266.9l-53.4-19.6c0.1-0.3,0.1-0.6,0.1-1c0-0.2,0-0.3,0-0.5l26.7-7.5
	c0.8,2.1,2.8,3.6,5.2,3.6c1.1,0,2.1-0.3,3-0.8l19.2,24.6C271.6,266,271.3,266.4,271.1,266.9z M254.2,239.7c0.7-0.9,1.2-2.1,1.2-3.4
	c0-0.7-0.1-1.4-0.4-2l12.4-6.2c0.9,1.5,2.5,2.6,4.3,2.8l3.6,32.8c-0.6,0.1-1.3,0.3-1.8,0.7L254.2,239.7z M272,219.7l-9-56
	c0.7-0.2,1.3-0.6,1.9-1.1l53.7,18.7c0,1.2,0.4,2.3,1,3.2l-44.1,36.4c-0.9-0.7-2.1-1.1-3.4-1.1C272.2,219.7,272.1,219.7,272,219.7z
	 M396.8,192.8l-27.1,5.3c-0.5-0.7-1.1-1.2-1.8-1.6l7-34c0,0,0,0,0,0c1,0,1.9-0.3,2.7-0.7l20.8,25.3c-1.1,1-1.8,2.5-1.8,4.1
	C396.6,191.8,396.7,192.3,396.8,192.8z M366,195.9c-0.3,0-0.5-0.1-0.8-0.1c-1.8,0-3.5,0.9-4.5,2.3l-31.1-15.4c0.1-0.5,0.2-1,0.2-1.5
	c0-0.4,0-0.7-0.1-1.1l41-19.6c0.6,0.7,1.4,1.3,2.3,1.6L366,195.9z M329,178.3c-1-1.6-2.8-2.7-4.8-2.7c-1.2,0-2.4,0.4-3.3,1.1
	l-18.7-25.5c0.6-0.6,1-1.3,1.3-2.2l65.9,8.3c0,0.5,0.1,1.1,0.3,1.6L329,178.3z M319.5,178.1c-0.2,0.3-0.4,0.7-0.6,1.1l-52.7-18.3
	c0.3-0.7,0.5-1.5,0.6-2.3l26.4-8.7c0.9,1.7,2.8,2.9,4.9,2.9c0.9,0,1.7-0.2,2.5-0.6L319.5,178.1z M321.1,185.8
	c0.1,0.1,0.2,0.1,0.4,0.2l-9.4,26.7c-0.3,0-0.6-0.1-0.9-0.1c-3.1,0-5.5,2.5-5.6,5.5l-28.4,4.6c-0.1-0.2-0.2-0.4-0.3-0.5L321.1,185.8
	z M344.1,239.1c1,1.1,2.5,1.8,4.1,1.8c0.9,0,1.7-0.2,2.5-0.6l21.6,24c-0.8,0.8-1.4,1.8-1.6,3l-61.4-4.6c-0.1-0.5-0.2-1-0.4-1.5
	L344.1,239.1z M352.3,239.1c0.9-1,1.5-2.3,1.5-3.8c0-1.9-0.9-3.6-2.4-4.6l12.2-23.8c0.5,0.2,1,0.2,1.6,0.2l10,55.7
	c-0.4,0.1-0.9,0.2-1.3,0.4L352.3,239.1z M367.2,206.7c1.2-0.5,2.2-1.3,2.9-2.4l52.6,19.1c-0.1,0.3-0.1,0.6-0.1,0.9
	c0,1,0.3,2,0.8,2.8l-43.2,37.3c-0.8-0.8-1.8-1.4-3-1.6L367.2,206.7z M423.4,221.5l-52.6-19.1c0.1-0.3,0.1-0.6,0.1-0.9
	c0-0.5-0.1-1-0.2-1.5l27.1-5.4c1,1.3,2.6,2.2,4.5,2.2c0.9,0,1.8-0.2,2.6-0.7l19.2,24.3C423.8,220.8,423.6,221.1,423.4,221.5z
	 M406.4,195c0.6-0.7,1.1-1.6,1.3-2.6l64.9,8.2c0,0.4,0.1,0.8,0.2,1.2L432.8,221c-1-1.4-2.7-2.3-4.5-2.3c-0.9,0-1.8,0.2-2.6,0.7
	L406.4,195z M400.9,185.8c-0.3,0.1-0.5,0.1-0.7,0.2l-20.9-25.5c0.8-1,1.3-2.2,1.3-3.6c0-1.9-0.9-3.5-2.4-4.6l11.2-23.8
	c0.6,0.2,1.2,0.3,1.8,0.3c0,0,0.1,0,0.1,0L400.9,185.8z M372,152.2c-1.1,0.7-2,1.8-2.4,3.1l-65.9-8.3c0-0.9-0.3-1.7-0.7-2.4l45-36.8
	c1,1,2.4,1.6,4,1.6c0.5,0,1-0.1,1.5-0.2L372,152.2z M296.8,141.8c-0.5,0.1-1,0.3-1.4,0.5l-19.9-24.2c0.8-1,1.3-2.2,1.3-3.6
	c0-1.9-0.9-3.5-2.3-4.5l12-24.7c0.4,0.1,0.9,0.2,1.4,0.2L296.8,141.8z M293.8,143.7c-0.8,1-1.3,2.2-1.3,3.6c0,0.3,0,0.5,0.1,0.8
	l-26,8.6c-0.6-1.8-2.1-3.2-3.9-3.6l8.3-32.8c0.1,0,0.2,0,0.4,0c1,0,1.9-0.3,2.7-0.7L293.8,143.7z M270.1,220.1
	c-0.2,0.1-0.5,0.2-0.7,0.3l-20.9-24.6c0.8-1,1.3-2.2,1.3-3.6c0-1.6-0.6-3-1.7-4l11.7-24.4c0.4,0.1,0.8,0.2,1.3,0.2L270.1,220.1z
	 M241.6,187.3c-0.5,0.3-1,0.6-1.4,1.1l-43.3-35.1c0.4-0.8,0.7-1.7,0.7-2.7c0-2.2-1.3-4.1-3.2-5l7.1-25.9c0.2,0,0.5,0,0.7,0
	c0.6,0,1.3-0.1,1.8-0.3L241.6,187.3z M192.5,145c-0.2,0-0.3,0-0.5,0c-3.1,0-5.6,2.5-5.6,5.6c0,1.1,0.3,2.2,0.9,3.1l-34.8,32.8
	l46.9-66.5L192.5,145z M144.1,104.2c-0.3,0-0.6-0.1-0.9-0.1c-1,0-1.9,0.2-2.6,0.7l-19.9-25.1c0.4-0.5,0.7-1,0.9-1.6l26.2,3.5
	c0.1,2,1.2,3.7,2.8,4.6L144.1,104.2z M139,106.1c-0.9,1-1.4,2.3-1.4,3.7c0,1.6,0.7,3.1,1.8,4.1l-40.5,62.4l9.2-23.2c0,0,0.1,0,0.1,0
	c3.1,0,5.6-2.5,5.6-5.6c0-2.2-1.3-4.1-3.1-5l6.4-60.6c0.8-0.1,1.5-0.4,2.1-0.8L139,106.1z M108.7,141.9c-0.2,0-0.3,0-0.5,0
	c-1.1,0-2.1,0.3-2.9,0.8l-21.2-23.3c1.1-1,1.8-2.5,1.8-4.1c0-1.3-0.4-2.5-1.2-3.4l28.3-31c0.6,0.4,1.3,0.8,2.1,0.9L108.7,141.9z
	 M83.2,110.5c-0.9-0.5-1.9-0.9-3-0.9c-0.1,0-0.3,0-0.4,0l-7.4-29.2c1.5-0.7,2.7-2,3.1-3.7c0-0.1,0-0.2,0.1-0.3l35.1,0.7
	c0.1,0.8,0.4,1.6,0.9,2.2L83.2,110.5z M28.3,165.9c0.7,0,1.5-0.2,2.1-0.4l21.2,23.5c-0.6,0.9-1,2-1,3.2c0,1.4,0.5,2.6,1.3,3.6
	l-25.4,36.8c-0.2-0.1-0.3-0.1-0.5-0.2L28.3,165.9z M62.3,311.2l-24.9-18c0.2-0.6,0.4-1.3,0.4-2c0-3-2.4-5.5-5.5-5.6l-6.5-41.9
	l37.8,66.5C63.1,310.6,62.7,310.9,62.3,311.2z M27.3,242.3c1.3-0.8,2.2-2.2,2.5-3.7l57-0.4c0.3,1.8,1.6,3.4,3.2,4.1l-8,33.5
	c-3,0.1-5.3,2.6-5.3,5.6c0,1.9,0.9,3.5,2.4,4.6l-11.3,24c-0.5-0.1-0.9-0.2-1.4-0.2c-0.2,0-0.5,0-0.7,0L27.3,242.3z M66.3,320.9
	c0.1,0,0.2,0,0.3,0l19.2,73.3c-1.9,0.9-3.2,2.8-3.2,5.1c0,0.4,0,0.7,0.1,1L56.3,407c-0.6-1.4-1.8-2.5-3.2-3L66.3,320.9z M56,412.1
	l53.6,19.9c0,0.1,0,0.2,0,0.2c0,1,0.3,1.9,0.7,2.7l-44.7,36.5c-1-0.8-2.2-1.3-3.6-1.3l-9.8-55.4C53.8,414.5,55.2,413.5,56,412.1z
	 M49.1,414.5c0.3,0.1,0.7,0.2,1.1,0.3l9.8,55.7c-0.3,0.1-0.7,0.3-1,0.5l-20.7-22c0.9-1,1.5-2.3,1.5-3.8c0-1.8-0.9-3.4-2.2-4.5
	L49.1,414.5z M35.6,450.7c0.4-0.1,0.8-0.3,1.1-0.4l20.8,22.1c-0.7,1-1.2,2.1-1.2,3.5c0,1.6,0.7,3,1.7,4l-24.8,37.3
	c-0.3-0.1-0.5-0.2-0.8-0.2L35.6,450.7z M53.7,554.4L0.2,532.3c0.1-0.5,0.1-1,0.1-1.5l25.7-6.4c0.8,2.1,2.8,3.5,5.2,3.5
	c0.9,0,1.8-0.2,2.5-0.6l20.8,24.9C54.1,552.8,53.8,553.6,53.7,554.4z M35.4,526c0.8-0.9,1.4-2.1,1.5-3.3l33-2.1
	c0.3,1.4,1.2,2.5,2.3,3.3l-11.3,26c-0.5-0.2-1.1-0.2-1.6-0.2c-1.2,0-2.3,0.4-3.2,1L35.4,526z M54.5,627.2c-1.3,0.2-2.4,0.8-3.3,1.6
	l-40.1-27.3c0.3-0.7,0.5-1.5,0.5-2.3c0-1.1-0.3-2.1-0.8-2.9l45.4-36.4c0.6,0.4,1.2,0.7,1.9,0.8L54.5,627.2z M57.5,627.7
	c-0.3-0.2-0.7-0.3-1.1-0.4l3.5-66.5c0.8-0.1,1.5-0.4,2.2-0.8l20.5,23c-0.6,0.9-1,2-1,3.2c0,1.6,0.6,3,1.7,4L57.5,627.7z M59.6,628.2
	l25.4-36.9c0.7,0.3,1.5,0.5,2.3,0.5c2.8,0,5.1-2,5.5-4.7l27.6-5.2c0,0.1,0.1,0.2,0.1,0.2L59.6,628.2z M126.4,573.8
	c-0.4-0.1-0.8-0.1-1.2-0.1c-3.1,0-5.6,2.5-5.6,5.6c0,0.3,0,0.6,0.1,0.8l-27,5.1c-0.1-0.4-0.2-0.8-0.4-1.2l43.4-37.3
	c0.3,0.3,0.7,0.5,1.1,0.7L126.4,573.8z M148.1,475.8c0.6-0.1,1.3-0.3,1.8-0.6l20,24.5c-0.8,1-1.3,2.2-1.3,3.6c0,1.6,0.7,3.1,1.8,4.1
	L130,570l8.7-22.1c0.2,0,0.3,0,0.5,0c3.1,0,5.6-2.5,5.6-5.6c0-2.2-1.3-4.1-3.2-5L148.1,475.8z M146.1,475.8l-6.4,60.9
	c-0.2,0-0.3,0-0.5,0c-0.8,0-1.6,0.2-2.3,0.5l-20.4-24.3c0,0,0.1,0,0.1-0.1c1.7-2.1,1.6-4.9,0-6.9l27.6-30.8
	C144.8,475.4,145.5,475.6,146.1,475.8z M118,437.1l24.9,29.6c-0.8,1-1.3,2.2-1.3,3.6c0,1.3,0.4,2.5,1.2,3.4l-27.7,30.8
	c-1.1-0.7-2.4-1-3.6-0.8l-8.9-28.1c2.4-0.7,4.1-2.8,4.1-5.4c0-2-1.1-3.8-2.7-4.8l10.3-27.7c0.3,0.1,0.6,0.1,1,0.1
	C116.2,437.9,117.2,437.6,118,437.1z M115.7,425.2l-20.3-71.6c0.4-0.1,0.7-0.3,1-0.5l24.1,29.5c-0.8,1-1.3,2.2-1.3,3.6
	c0,2.3,1.4,4.4,3.5,5.2L115.7,425.2z M124.8,380.7c-1,0-1.9,0.3-2.7,0.7L98,351.9c0.8-1,1.3-2.2,1.3-3.6c0,0,0-0.1,0-0.1l27.5-5.4
	c0.7,2.4,2.8,4.1,5.4,4.1c1.9,0,3.7-1,4.7-2.5l27.9,12.5c-0.1,0.4-0.2,0.9-0.2,1.3c0,0.7,0.1,1.4,0.4,2l-36,22.2
	C128,381.4,126.5,380.7,124.8,380.7z M157.9,416.2c-1-1.5-2.7-2.5-4.7-2.5c-1,0-2,0.3-2.8,0.8l-21.2-24.6c0.5-0.6,0.9-1.4,1.1-2.2
	l61.4,4.2c0.3,2.8,2.7,5,5.6,5c3.1,0,5.5-2.4,5.6-5.5l24.6-4.6L157.9,416.2z M236.3,378.5c-3.1,0-5.6,2.5-5.6,5.6c0,0,0,0,0,0
	l-28.2,5.3c-0.1-0.3-0.3-0.7-0.4-1l44.1-37.2c0.3,0.3,0.7,0.6,1.1,0.9l-10,26.4C237,378.5,236.7,378.5,236.3,378.5z M239.7,379.6
	c-0.1-0.1-0.3-0.2-0.4-0.3l10-26.4c2.5,0.5,5.1-0.8,6.1-3.2c0.5-1.2,0.6-2.6,0.3-3.8l40.1-19.3c0,0.1,0.1,0.1,0.1,0.2L239.7,379.6z
	 M296.9,318.8c-0.1,0.1-0.2,0.1-0.3,0.2c-1.1,0.9-1.7,2.2-1.9,3.5l-64.9-8.7c0-1-0.3-1.9-0.7-2.8l44.2-37.1c0.9,0.5,1.8,0.8,2.9,0.8
	c0.4,0,0.9-0.1,1.3-0.2L296.9,318.8z M298.1,263.3c0,0.1,0,0.2,0,0.3l-16.5,4.1c-0.6-2-2.3-3.6-4.4-4l-3.6-33
	c0.5-0.1,0.9-0.3,1.3-0.5l24.5,29.5C298.6,260.6,298.1,261.9,298.1,263.3z M303.7,257.7c-1,0-1.9,0.3-2.7,0.7l-24.5-29.5
	c0.8-1,1.3-2.2,1.3-3.6c0-0.2,0-0.3,0-0.5l28.1-4.6c0.8,2.2,2.8,3.7,5.3,3.7c1.9,0,3.5-0.9,4.5-2.3l26.9,13c0,0.2-0.1,0.5-0.1,0.7
	c0,0.7,0.1,1.4,0.4,2.1l-35.2,22.1C306.8,258.4,305.4,257.7,303.7,257.7z M336,291.9c-1-1.6-2.7-2.6-4.8-2.6c-1,0-2,0.3-2.9,0.8
	l-20.3-23.3c0.5-0.6,0.8-1.3,1-2.1l61.6,4.6c0.5,2.6,2.8,4.6,5.5,4.6c3,0,5.5-2.4,5.6-5.4l24.4-4.4L336,291.9z M415.2,255.7
	c-3.1,0-5.6,2.5-5.6,5.6c0,0,0,0.1,0,0.1l-28.1,5.1c-0.1-0.2-0.1-0.3-0.2-0.4l43.3-37.4c0.3,0.2,0.6,0.4,0.9,0.6L417,256
	C416.5,255.8,415.9,255.7,415.2,255.7z M419.1,256.1l8.4-26.3c0.2,0,0.5,0.1,0.7,0.1c3.1,0,5.6-2.5,5.6-5.6c0-0.5-0.1-1-0.2-1.5
	l39.5-18.9L419.1,256.1z M455.2,152.1c0.4,0,0.8-0.1,1.2-0.1l18.7,43.6c-1.1,0.7-1.9,1.8-2.3,3l-65.1-8.2c-0.1-0.7-0.3-1.3-0.7-1.9
	l44.8-37.5C452.8,151.7,454,152.1,455.2,152.1z M428.2,118.9c1,0,1.9-0.2,2.7-0.7l19.9,24.9c-0.2,0.3-0.4,0.6-0.6,0.9l-53.4-20.6
	c0,0,0-0.1,0-0.1c0-0.4-0.1-0.8-0.1-1.2l26.4-6.5C424,117.5,425.9,118.9,428.2,118.9z M422.6,113.6l-26.8,6.6
	c-1-1.5-2.7-2.5-4.7-2.5c-1.5,0-2.9,0.6-3.9,1.6l-28.9-14.2L422.6,113.6C422.6,113.6,422.6,113.6,422.6,113.6z M331.6,72.9
	l89.5,38.4l-63.7-8.4c-0.4-2.7-2.7-4.8-5.5-4.8c-0.7,0-1.3,0.1-1.9,0.4l-18.9-24.9C331.3,73.4,331.5,73.2,331.6,72.9z M321.8,72.1
	c0.9,2,2.8,3.3,5.1,3.3c0.9,0,1.8-0.2,2.5-0.6l18.8,24.7c-0.6,0.5-1.1,1.1-1.4,1.9L293.5,81c0.1-0.3,0.1-0.7,0.1-1
	c0-0.4,0-0.7-0.1-1.1L321.8,72.1z M275.4,65.5c2.1-0.2,3.8-1.6,4.6-3.6l41.4,7.8c0,0,0,0,0,0c0,0.1,0,0.2,0,0.3L292.7,77
	c-1-1.6-2.7-2.7-4.8-2.7c-3.1,0-5.6,2.5-5.6,5.6c0,1.9,0.9,3.5,2.3,4.5l-12,24.7c0,0-0.1,0-0.1,0L275.4,65.5z M240,71.9
	c0-0.2,0-0.4,0-0.5l30-8.5c0.8,1.3,2,2.2,3.5,2.6l-2.8,43.6c-0.8,0.1-1.5,0.4-2.2,0.7l-29.6-34.4C239.5,74.4,240,73.2,240,71.9z
	 M237.2,76.7l29.6,34.4c-0.8,1-1.2,2.2-1.2,3.5c0,2.3,1.4,4.2,3.3,5.1l-8.4,33.2c-0.3,0-0.6,0.1-0.9,0.2l-22.7-76.2
	C237,76.8,237.1,76.8,237.2,76.7z M231.8,76.9c0.8,0.4,1.6,0.6,2.5,0.6c0.2,0,0.4,0,0.6,0l22.8,76.6c-0.4,0.3-0.8,0.7-1.1,1.2
	L207,116.9c0.5-0.8,0.8-1.8,0.8-2.8c0-1.5-0.6-2.8-1.5-3.8L231.8,76.9z M207.4,43.8c0.6-0.2,1.2-0.4,1.7-0.7l21,25.2
	c-0.8,1-1.3,2.2-1.3,3.6c0,1.5,0.6,2.8,1.5,3.8l-25.5,33.5c-0.4-0.2-0.8-0.3-1.2-0.5L207.4,43.8z M175.9,15.5l25.2,20.1
	c-0.5,0.8-0.8,1.8-0.8,2.9c0,0,0,0,0,0L178.3,45c-0.8-1.6-2.3-2.7-4.2-3l-0.8-25.2C174.3,16.5,175.2,16.1,175.9,15.5z M173.3,53.1
	c3.1,0,5.6-2.5,5.6-5.6c0-0.2,0-0.4,0-0.6l21.8-6.5c0.7,1.9,2.5,3.4,4.7,3.6l-3.9,64.6c-1,0.1-2,0.5-2.8,1.1l-40.3-26.1
	c0.3-0.7,0.4-1.4,0.4-2.2c0-1.7-0.8-3.2-1.9-4.2l14.4-24.4C172,53,172.6,53.1,173.3,53.1z M167.8,14.7c0.9,1.1,2.1,1.9,3.6,2.1
	l0.8,25.2c-1.8,0.4-3.3,1.6-4,3.3l-37.9-8.7c0-0.1,0-0.2,0-0.3c0-0.6-0.1-1.2-0.3-1.7L167.8,14.7z M129.9,38.5l37.9,8.7
	c0,0.1,0,0.2,0,0.3c0,1.7,0.8,3.2,1.9,4.2l-14.4,24.4c-0.6-0.2-1.3-0.4-1.9-0.4c-0.7,0-1.5,0.1-2.1,0.4l-22.7-35.7
	C129.1,39.9,129.6,39.3,129.9,38.5z M124.7,41.9c0.7,0,1.5-0.1,2.1-0.4l22.7,35.7c-0.7,0.6-1.2,1.5-1.5,2.4l-26.2-3.5
	c-0.1-2.2-1.3-4-3.2-4.9l5.9-29.4C124.6,41.9,124.7,41.9,124.7,41.9z M88.7,39.1l30.6-1.5c0.4,1.8,1.7,3.3,3.4,3.9l-5.9,29.2
	c-0.2,0-0.3,0-0.5,0c-1,0-1.8,0.2-2.6,0.7L87.5,41.9C88.1,41.1,88.5,40.1,88.7,39.1z M83.1,44c1.1,0,2-0.3,2.9-0.8l26,29.4
	c-0.6,0.7-1.1,1.6-1.3,2.6l-35.1-0.7c-0.3-1.7-1.3-3.1-2.8-4l9.4-26.6C82.5,44,82.8,44,83.1,44z M80.3,43.3L71,69.9
	c-2.8-0.5-5.6,1.3-6.3,4.2c0,0.2-0.1,0.4-0.1,0.6l-28.4,6.2c-0.1-0.2-0.2-0.4-0.3-0.6L80.3,43.3z M78.8,42L34.6,78.7
	c-1-0.8-2.2-1.3-3.6-1.3c-1.2,0-2.3,0.4-3.2,1L7.2,56.5c0.7-0.9,1.1-2.1,1.1-3.3c0,0,0,0,0,0l69.6-12.7C78.1,41,78.4,41.5,78.8,42z
	 M27.2,23.7c0.8,0.4,1.7,0.7,2.6,0.7c2.1,0,3.8-1.1,4.8-2.8l43,15.8c-0.1,0.3-0.1,0.6-0.1,1c0,0,0,0,0,0L7.9,51.1
	c-0.2-0.6-0.6-1.2-1-1.7L27.2,23.7z"/>
</svg>
