<?xml version="1.0" encoding="utf-8"?>
<!-- Generator: Adobe Illustrator 21.0.0, SVG Export Plug-In . SVG Version: 6.00 Build 0)  -->
<!DOCTYPE svg PUBLIC "-//W3C//DTD SVG 1.1//EN" "http://www.w3.org/Graphics/SVG/1.1/DTD/svg11.dtd">
<svg version="1.1" id="Layer_1" xmlns="http://www.w3.org/2000/svg" xmlns:xlink="http://www.w3.org/1999/xlink" x="0px" y="0px"
	 viewBox="0 0 445.6 644" style="enable-background:new 0 0 445.6 644;" xml:space="preserve">
<style type="text/css">
	.st0{fill:#D6D6D6;}
</style>
<path class="st0" d="M428.7,61.4L422,0h-2l6.7,61.6c-0.2,0.1-0.5,0.1-0.7,0.2l-17.9-26.4c0.8-1,1.3-2.2,1.3-3.6
	c0-2.4-1.5-4.5-3.7-5.3L409.7,0h-2l-3.8,26.2c-0.1,0-0.2,0-0.3,0L397,0h-2.1l6.7,26.7c-0.6,0.3-1.2,0.7-1.7,1.1L365,0h-3.2l37,29.5
	c-0.3,0.7-0.5,1.5-0.5,2.3c0,0.9,0.2,1.8,0.6,2.6l-48.5,33.7c-0.6-0.6-1.4-1.1-2.2-1.3l9.4-65.8c1,0,2-0.4,2.8-0.9h-8.5l-28,32.6
	c-0.7-0.3-1.4-0.4-2.1-0.4c-0.2,0-0.4,0-0.6,0L314.9,0h-2l6.6,32.8c-1.5,0.8-2.6,2.2-2.9,4L288,39.3c-0.6-2.4-2.8-4.1-5.4-4.1
	l-5.2-28.8c2.1-0.8,3.6-2.8,3.6-5.2c0,0,0-0.1,0-0.1l5.4-1.1H270c-0.1,0.4-0.1,0.8-0.1,1.2c0,1,0.3,2,0.8,2.8L240,31.4
	c-0.4-0.3-0.9-0.6-1.4-0.8L244.5,0h-2l-5.8,30.2c0,0,0,0-0.1,0c-0.8,0-1.6,0.2-2.4,0.5l-17.7-25c1-1,1.6-2.4,1.6-3.9
	c0-0.6-0.1-1.2-0.3-1.8h-10.6c-0.2,0.6-0.3,1.2-0.3,1.8c0,2.9,2.1,5.2,4.9,5.6l2.4,42.8L192.8,0h-2.2l21.8,51.1
	c-1,0.7-1.8,1.6-2.2,2.8l-57.1-4.2c0-2-1.1-3.8-2.8-4.7l10.4-31.6c0.3,0,0.5,0.1,0.8,0.1c3.1,0,5.6-2.5,5.6-5.6s-2.5-5.6-5.6-5.6
	c-1.9,0-3.5,0.9-4.6,2.4L147.2,0h-4.7l13.6,6.4c-0.1,0.5-0.2,0.9-0.2,1.4c0,0,0,0,0,0l-27.2,4.9c-0.8-2.1-2.8-3.6-5.2-3.6
	c-0.8,0-1.5,0.2-2.2,0.5L114.9,0h-2.4l7.1,10.7c-0.5,0.5-1,1.1-1.3,1.8L62.7,0H43.4c0.3,0.8,0.8,1.5,1.5,2L30.5,25.9
	c-0.5-0.2-1-0.3-1.5-0.3L26.3,0h-2L27,25.8c-1.2,0.4-2.3,1.1-3,2.2L0,16.9v2.2l23.1,10.7c-0.1,0.4-0.2,0.8-0.2,1.2L0,34.3v2
	l23.2-3.4c0.7,2.2,2.8,3.8,5.3,3.8c1.7,0,3.2-0.7,4.2-1.9L61,51.6L0,38.7v2l60.8,12.9c0,0.1,0,0.1,0,0.2c0,0.1,0,0.2,0,0.3
	l-18.1,5.6c-1-1.7-2.8-2.9-4.9-2.9c-1.8,0-3.4,0.8-4.4,2.1L0,41.3v2.3l32.5,17.2c-0.2,0.5-0.3,1.1-0.3,1.7c0,0.4,0.1,0.8,0.1,1.2
	L0,77.4v2.2l33.1-14c1,1.5,2.7,2.5,4.7,2.5c0.6,0,1.3-0.1,1.8-0.3l10.3,15.7c-0.7,0.8-1.2,1.8-1.4,2.9L0,81.6v2l48.5,4.8
	c0.3,1.6,1.3,3,2.7,3.8l-11.6,29.5c-0.2,0-0.4,0-0.6,0c-0.9,0-1.7,0.2-2.5,0.6L0,87.1v2.8l35,33.5c-0.9,1-1.5,2.3-1.5,3.8
	c0,2.1,1.2,4,3,5l-8,25.1c-0.2,0-0.5-0.1-0.7-0.1c-0.5,0-1,0.1-1.5,0.2L0,101.9v4.7l24.5,51.7c-0.1,0-0.1,0.1-0.2,0.1L0,136.6v2.7
	l23,20.6c-0.5,0.9-0.8,1.9-0.8,2.9c0,0.7,0.1,1.3,0.3,1.9L0,177.6v2.3l22.1-12.7L0,190v2.9l24.7-25.4c0.4,0.3,0.9,0.5,1.3,0.7
	l-9.7,66.1c-0.8,0-1.5,0.2-2.1,0.5L0,214.2v3.5l12.6,18.1c-1,1-1.6,2.4-1.6,4c0,1.9,1,3.7,2.5,4.7L0,266.9v10.9
	c1.8-0.7,3.1-2.3,3.4-4.2l32.5,1.7c0.1,1.2,0.6,2.2,1.3,3.1l-27.6,34c-0.8-0.4-1.7-0.7-2.7-0.7c-0.3,0-0.5,0-0.8,0.1L0,279.8v10.5
	l4.3,22.2c-1.7,1-2.9,2.8-2.9,4.9c0,2.7,1.9,4.9,4.4,5.5l5.5,56.5c-1.3,0.3-2.4,1-3.2,2L0,377.5v2.2l7.2,3.4
	c-0.2,0.5-0.3,1.1-0.3,1.7l-6.9,1v2l7.2-1c0.8,2.2,2.8,3.7,5.3,3.7c2.7,0,4.9-1.9,5.5-4.4l33.2,1.4c0.7,2.2,2.8,3.8,5.3,3.8
	c2.7,0,5-1.9,5.5-4.5l26.2-4.5c0.8,2.1,2.8,3.7,5.3,3.7c3.1,0,5.6-2.5,5.6-5.6c0-1.7-0.8-3.3-2.1-4.3l13.7-24.6
	c0.6,0.2,1.2,0.3,1.8,0.3c3.1,0,5.6-2.5,5.6-5.6c0-3-2.3-5.4-5.3-5.6l-12.2-100.3c2.3-0.7,3.9-2.8,3.9-5.4c0-1.9-1-3.6-2.4-4.6
	l7-15.5c0.4,0.1,0.9,0.2,1.4,0.2c0.8,0,1.6-0.2,2.2-0.5l21.4,31.9c-0.8,1-1.2,2.2-1.2,3.5c0,3.1,2.5,5.6,5.6,5.6
	c0.8,0,1.6-0.2,2.3-0.5l18.4,26.4c-0.8,1-1.3,2.2-1.3,3.6c0,3.1,2.5,5.6,5.6,5.6c2.9,0,5.2-2.2,5.6-5l26.2-5.3
	c0.8,2.1,2.8,3.5,5.2,3.5c2.5,0,4.7-1.7,5.4-4l34.3,1.2c0.7,2.2,2.8,3.8,5.3,3.8c3.1,0,5.6-2.5,5.6-5.6l26.2-4.7
	c0.8,2.1,2.8,3.6,5.2,3.6c3.1,0,5.6-2.5,5.6-5.6c0-1.7-0.8-3.3-2-4.3l13.6-24.2c0.6,0.2,1.2,0.3,1.8,0.3c3.1,0,5.6-2.5,5.6-5.6
	c0-3-2.3-5.4-5.3-5.6l-12.2-100.1c2.3-0.7,3.9-2.8,3.9-5.4c0-2.6-1.7-4.7-4.1-5.4l0.5-5.3c2.8-0.2,4.9-2.5,5.1-5.3l27.1-4.2
	c0.8,2.2,2.8,3.8,5.3,3.8c2.7,0,4.9-1.9,5.5-4.4l33,1.4c0.5,2.6,2.8,4.5,5.5,4.5c3.1,0,5.6-2.5,5.6-5.6c0,0,0-0.1,0-0.1l27.2-5.4
	c0.8,2.1,2.8,3.6,5.2,3.6c3.1,0,5.6-2.5,5.6-5.6c0-1.7-0.8-3.3-2-4.3l13.4-23.3c0.6,0.2,1.2,0.3,1.9,0.3c3.1,0,5.6-2.5,5.6-5.6
	C433.9,64,431.6,61.6,428.7,61.4z M354.6,0.1c0.3,0.2,0.7,0.4,1.1,0.5l-9.4,65.8c-0.8,0-1.5,0.2-2.2,0.5L326,41.7
	c1-1,1.6-2.4,1.6-3.9c0-1.6-0.7-3.1-1.8-4.1L354.6,0.1z M282.6,46.4c2.9,0,5.3-2.2,5.6-5.1l28.3-2.5c0.1,0.5,0.2,0.9,0.4,1.3
	l-47.3,33.2c-0.2-0.2-0.5-0.4-0.7-0.6l12.3-26.5C281.7,46.4,282.1,46.4,282.6,46.4z M288,117l-0.5,5.3c-0.7,0.1-1.4,0.3-2,0.5
	L266,96.1c0.7-0.9,1.1-2,1.1-3.3c0-3.1-2.5-5.6-5.6-5.6c-0.4,0-0.8,0-1.2,0.1l-18.7-42.7l20.1,28.7c-1,1-1.6,2.4-1.6,3.9
	c0,3.1,2.5,5.6,5.6,5.6c0.8,0,1.6-0.2,2.3-0.5l17.5,25.2c-1,1-1.6,2.4-1.6,4C283.9,114.1,285.6,116.3,288,117z M271.8,207
	l-47.5,32.8c-0.6-0.6-1.4-1.1-2.2-1.4l9.1-64.6c1.3-0.1,2.5-0.6,3.5-1.4l37.4,29.7c-0.5,0.8-0.7,1.7-0.7,2.7
	C271.4,205.7,271.5,206.4,271.8,207z M119.9,140.8l-26.1,24l43-55l-10.7,22.6c-0.5-0.1-0.9-0.2-1.4-0.2c-3.1,0-5.6,2.5-5.6,5.6
	C119.1,138.9,119.4,139.9,119.9,140.8z M76.7,195.6l7.4-16.3c0.4,0.1,0.9,0.2,1.4,0.2c0.8,0,1.6-0.2,2.4-0.5l18.7,26.5
	c-0.5,0.5-0.8,1-1.1,1.6l-26.3-6.5c0-0.1,0-0.2,0-0.4C79.1,198.3,78.1,196.6,76.7,195.6z M95.4,239.1l-13.6,23.8
	c-0.4-0.2-0.8-0.3-1.3-0.4l-5.5-56.9c0.3-0.1,0.6-0.2,0.9-0.4L94.9,231c-1,1-1.5,2.4-1.5,3.9C93.4,236.5,94.2,238.1,95.4,239.1z
	 M82.9,314l-46.7,32.8c-0.6-0.6-1.4-1.1-2.3-1.4l8-65.1c1.3-0.1,2.4-0.6,3.3-1.3l37.7,30.5c-0.3,0.7-0.5,1.4-0.5,2.2
	C82.4,312.6,82.6,313.3,82.9,314z M132.9,79.3l12.9-24.2c0,0,0.1,0,0.1,0l-4.8,41.4c-2.1,0.2-3.8,1.4-4.7,3.2L96.1,89.4
	c0-0.1,0-0.2,0-0.3l27.6-3.9c0.8,2.2,2.8,3.7,5.3,3.7c3.1,0,5.6-2.5,5.6-5.6C134.6,81.8,134,80.3,132.9,79.3z M123.4,83.2l-27.6,3.9
	c-0.7-2.3-2.8-3.9-5.3-3.9c-0.7,0-1.3,0.1-1.9,0.3L70.5,57.6c0.1-0.1,0.3-0.3,0.4-0.5l52.8,24.5C123.5,82.1,123.4,82.7,123.4,83.2z
	 M68.3,118.6l19.4-24.9c0.4,0.3,0.9,0.5,1.5,0.6l-4.4,74c-0.2,0-0.3,0-0.5,0.1L67.2,127c1.5-1,2.6-2.7,2.6-4.7
	C69.8,120.9,69.2,119.6,68.3,118.6z M86.9,84.5c-0.9,0.8-1.6,1.9-1.9,3.1L59.6,87c-0.1-1.9-1.1-3.5-2.6-4.4l8.5-23.3
	c0.3,0.1,0.6,0.1,0.9,0.1c0.9,0,1.7-0.2,2.5-0.6L86.9,84.5z M59.3,89L85,89.7c0.2,1,0.6,2,1.2,2.7l-19.4,25
	c-0.8-0.4-1.7-0.6-2.6-0.6c-0.2,0-0.4,0-0.6,0l-7.2-24.4C57.8,91.7,58.9,90.5,59.3,89z M64.2,127.9c0.4,0,0.8,0,1.2-0.1l17.1,41.3
	c-1,0.6-1.7,1.5-2.1,2.6l-46.9-8.8c0,0,0,0,0,0c0-1.3-0.4-2.5-1.2-3.4l29-32.3C62.1,127.6,63.1,127.9,64.2,127.9z M33,164.8
	l46.9,8.8c0,0.1,0,0.1,0,0.2c0,1.9,1,3.6,2.4,4.6l-7.4,16.3c-0.5-0.1-0.9-0.2-1.4-0.2c-1.4,0-2.7,0.5-3.7,1.4L32.4,166
	C32.6,165.7,32.9,165.3,33,164.8z M73.1,205.7l5.5,56.7c-1.4,0.2-2.7,1-3.5,2.2l-53-23.6c0.1-0.4,0.1-0.7,0.1-1.1
	c0-0.8-0.2-1.6-0.5-2.3L69.4,204C70.4,205,71.7,205.6,73.1,205.7z M74.1,266.4c-0.1,0.5-0.2,1-0.2,1.6l-27.2,4.9
	c-0.8-2.1-2.8-3.6-5.2-3.6c-0.9,0-1.7,0.2-2.4,0.5l-18.6-26c0.3-0.3,0.5-0.6,0.7-0.9L74.1,266.4z M46.4,277.5
	c0.4-0.8,0.7-1.7,0.7-2.7l27.2-4.9c0.8,2.1,2.8,3.6,5.2,3.6c0,0,0,0,0.1,0l6.3,33.1c-0.7,0.3-1.4,0.7-1.9,1.3L46.4,277.5z
	 M81.5,273.2c2.1-0.8,3.6-2.8,3.6-5.2c0-1.5-0.6-2.9-1.6-3.9l13.6-23.9c0,0,0.1,0,0.1,0l-9.4,66.1c0,0,0,0-0.1,0L81.5,273.2z
	 M86.8,168.4l4.4-74c1.9-0.2,3.5-1.4,4.3-3l40.4,10.4c0,0.1,0,0.3,0,0.4c0,1.4,0.5,2.7,1.4,3.7l-49.2,63
	C87.7,168.6,87.3,168.5,86.8,168.4z M140.1,107.6c0.5,0.1,0.9,0.2,1.4,0.2c2.9,0,5.3-2.2,5.6-5.1l28.2-2.2c0.1,0.3,0.2,0.6,0.3,0.9
	l-47,32.4c-0.2-0.2-0.5-0.4-0.7-0.6L140.1,107.6z M202.2,136.3l-14.3,24.7c-0.4-0.2-0.9-0.3-1.3-0.3l-4.4-56.2
	c0.4-0.1,0.8-0.2,1.1-0.4l18.6,24.3c-0.9,1-1.5,2.3-1.5,3.8C200.4,133.8,201.1,135.3,202.2,136.3z M184.6,160.9
	c-1.3,0.4-2.5,1.2-3.2,2.3l-51.3-23.9c0.1-0.5,0.2-0.9,0.2-1.4c0-0.8-0.2-1.6-0.5-2.3l47-32.4c0.9,0.9,2.1,1.5,3.4,1.6L184.6,160.9z
	 M129.2,141.1l51.3,24c-0.1,0.3-0.1,0.7-0.1,1.1l-26.7,4.8c-0.8-2.1-2.8-3.6-5.2-3.6c-0.7,0-1.3,0.1-1.9,0.3l-17.9-25.8
	C128.9,141.6,129.1,141.3,129.2,141.1z M154.1,172.8l26.6-4.8c0.7,2.2,2.8,3.8,5.3,3.8c0.1,0,0.1,0,0.2,0l7.1,32.7
	c-1.9,0.8-3.2,2.5-3.4,4.6l-28.5,2.2c-0.6-2.4-2.8-4.2-5.4-4.2c-0.2,0-0.4,0-0.6,0l-5-29.2C152.6,177.3,154.1,175.2,154.1,172.8z
	 M188.2,171.5c2-0.8,3.4-2.8,3.4-5.2c0-1.7-0.8-3.2-2-4.3l14.3-24.7c0.6,0.3,1.3,0.4,2.1,0.4c0.8,0,1.6-0.2,2.3-0.5l18.6,27.3
	c-0.9,1-1.4,2.3-1.4,3.7c0,1.3,0.5,2.6,1.3,3.5L198.3,205c-0.8-0.5-1.8-0.8-2.8-0.8c-0.1,0-0.1,0-0.2,0L188.2,171.5z M284.2,131.9
	l-14.6,23.2c-0.5-0.2-1-0.3-1.6-0.4L263,98.2c0.6-0.2,1.1-0.4,1.6-0.7L284,124c-1,1-1.5,2.4-1.5,3.9
	C282.4,129.5,283.1,130.9,284.2,131.9z M266.1,154.9c-1.3,0.4-2.4,1.1-3.1,2.2l-51.6-23.3c0.2-0.5,0.3-1.1,0.3-1.7
	c0-0.9-0.2-1.8-0.6-2.5l46.5-32.9c0.9,0.9,2.2,1.5,3.5,1.6L266.1,154.9z M262.1,159c-0.1,0.4-0.2,0.9-0.2,1.4c0,0,0,0.1,0,0.1
	l-26,5.4c-0.9-1.8-2.8-3.1-5-3.1c-0.9,0-1.8,0.2-2.6,0.6l-18.5-27.2c0.2-0.2,0.3-0.3,0.5-0.5L262.1,159z M199.9,206.3l28.3-33.1
	c0.3,0.2,0.7,0.4,1.1,0.5l-9.1,64.6c-0.8,0-1.5,0.2-2.2,0.6l-18.3-25.1c1-1,1.5-2.4,1.5-3.9C201.1,208.5,200.6,207.2,199.9,206.3z
	 M236,171c0.4-0.8,0.7-1.7,0.7-2.6c0-0.2,0-0.4,0-0.6l25.8-5.3c0.8,2.1,2.8,3.5,5.2,3.5c0.1,0,0.1,0,0.2,0l7.2,33.9
	c-0.6,0.2-1.1,0.5-1.6,0.9L236,171z M269.7,165.5c2-0.8,3.5-2.8,3.5-5.2c0-1.6-0.7-3.1-1.8-4.1l14.6-23.2c0.1,0,0.2,0.1,0.3,0.1
	l-9.5,65.5L269.7,165.5z M241.4,32.9L272,5.5c1,0.8,2.2,1.3,3.5,1.3l5.2,28.8c-2.1,0.8-3.6,2.8-3.6,5.2c0,1.9,0.9,3.6,2.4,4.6
	l-12.3,26.5c-0.5-0.1-0.9-0.2-1.4-0.2c-0.8,0-1.6,0.2-2.3,0.5l-22.7-32.5c1-1,1.6-2.4,1.6-3.9C242.2,34.7,241.9,33.7,241.4,32.9z
	 M213.8,7.3c0.4-0.1,0.7-0.2,1.1-0.4l17.7,25c-1,1-1.6,2.4-1.6,3.9c0,3.1,2.5,5.6,5.6,5.6c0.4,0,0.9-0.1,1.3-0.2l20.5,46.8
	c-0.3,0.2-0.6,0.4-0.9,0.7l-37.2-30.3c0.4-0.8,0.7-1.7,0.7-2.7c0-2.9-2.1-5.2-4.9-5.6L213.8,7.3z M215.8,61.4
	c1.3-0.1,2.4-0.6,3.3-1.3l37.3,30.3c-0.3,0.7-0.5,1.5-0.5,2.4c0,0.8,0.2,1.6,0.5,2.3l-46.5,33c-0.6-0.5-1.3-0.9-2-1.2L215.8,61.4z
	 M212.8,60.7c0.3,0.2,0.7,0.3,1,0.4l-8,65.4c-0.8,0-1.6,0.2-2.3,0.6l-18.6-24.3c0.9-1,1.5-2.3,1.5-3.8c0-1.5-0.6-2.8-1.5-3.8
	L212.8,60.7z M183.3,94.1c-0.8-0.4-1.6-0.6-2.5-0.6c-2.9,0-5.3,2.2-5.6,5l-28.2,2.2c-0.1-0.4-0.3-0.8-0.5-1.2l64.6-39.7L183.3,94.1z
	 M152.8,51.7l57.1,4.2c0,0.7,0.1,1.4,0.4,2l-65.1,40.1c-0.6-0.5-1.3-0.9-2.1-1.1l4.8-41.4C150.2,55.3,152.1,53.8,152.8,51.7z
	 M129.1,14.7C129.1,14.7,129.1,14.7,129.1,14.7l27.2-4.9c0.5,1.3,1.4,2.3,2.6,3l-10.4,31.6c-0.3-0.1-0.6-0.1-0.9-0.1
	c-0.8,0-1.6,0.2-2.3,0.5l-17.8-26C128.5,17.7,129.1,16.3,129.1,14.7z M125.8,19.8l17.8,26c-1,1-1.7,2.4-1.7,4c0,1.8,0.8,3.4,2.1,4.4
	l-12.8,24c-0.5-0.2-1-0.4-1.6-0.4L125,20.1C125.2,20.1,125.5,20,125.8,19.8z M123,20.3l4.7,57.6c-1.2,0.3-2.3,1-3.1,2L71.8,55.4
	c0.1-0.5,0.2-1,0.2-1.6c0-0.7-0.1-1.3-0.3-1.9l47.9-33.2C120.4,19.6,121.6,20.2,123,20.3z M53.7,0l64.3,14.5c0,0.1,0,0.2,0,0.2
	c0,0.8,0.2,1.6,0.5,2.3L70.7,50.2c-1-1.2-2.6-2-4.3-2c-0.2,0-0.3,0-0.5,0L51.2,2.8C52.3,2.2,53.2,1.2,53.7,0z M33.8,33.1
	c0.2-0.6,0.4-1.3,0.4-2c0-1.7-0.7-3.2-1.9-4.2L46.5,3.1c0.6,0.2,1.3,0.4,2,0.4c0.3,0,0.5,0,0.8-0.1L64,48.8
	c-0.7,0.3-1.3,0.8-1.8,1.3L33.8,33.1z M41.4,66.8c1.2-1,2-2.6,2-4.3c0-0.3,0-0.5-0.1-0.8l18-5.6c0.5,1.1,1.3,2,2.3,2.5l-8.4,23.2
	c-0.4-0.1-0.8-0.1-1.1-0.1c-0.9,0-1.7,0.2-2.5,0.6L41.4,66.8z M53.1,92.8c0.3,0,0.6,0.1,0.9,0.1c0.1,0,0.3,0,0.4,0l7.2,24.4
	c-1.8,0.9-3.1,2.8-3.1,5c0,0,0,0,0,0.1l-14.3,2.8c-0.5-1.3-1.5-2.3-2.7-3L53.1,92.8z M38.4,132.8c0.2,0,0.5,0.1,0.7,0.1
	c3.1,0,5.6-2.5,5.6-5.6c0,0,0,0,0-0.1l14.3-2.8c0.2,0.5,0.5,1,0.8,1.4l-29,32.3c-0.1-0.1-0.2-0.1-0.3-0.2L38.4,132.8z M28,168.4
	c1.1,0,2.1-0.4,3-1l37.6,30c-0.4,0.8-0.7,1.7-0.7,2.7c0,0.8,0.2,1.5,0.5,2.2l-47.9,33.5c-0.6-0.6-1.3-1.1-2.2-1.3L28,168.4z
	 M36.1,273.4l-32.7-1.7c-0.2-1.3-0.9-2.5-1.9-3.3l13.8-23c0.4,0.1,0.8,0.1,1.3,0.1c0.9,0,1.7-0.2,2.4-0.5l18.6,26
	C36.8,271.6,36.3,272.5,36.1,273.4z M13.3,379.3L7.8,323c2.7-0.4,4.8-2.7,4.8-5.5c0-1.4-0.5-2.7-1.4-3.7l27.6-34
	c0.3,0.2,0.7,0.3,1,0.4l-8,65.1c-2.9,0.2-5.3,2.6-5.3,5.6c0,1.7,0.8,3.3,2.1,4.3L15,379.8C14.5,379.5,13.9,379.4,13.3,379.3z
	 M50.9,385.4l-32.9-1.4c-0.2-1.2-0.7-2.2-1.5-3.1l13.8-24.9c0.6,0.2,1.2,0.3,1.8,0.3c0.8,0,1.6-0.2,2.3-0.5l17.7,26.1
	C51.4,383,51,384.2,50.9,385.4z M87.9,380.3L62,384.7c-0.5-2.6-2.7-4.6-5.5-4.6c-1,0-2,0.3-2.8,0.7l-17.6-26
	c0.2-0.2,0.5-0.5,0.7-0.8l51.7,23.7C88.1,378.5,87.9,379.4,87.9,380.3z M89.8,376.1l-52.2-23.9c0.1-0.4,0.2-0.9,0.2-1.4
	c0-0.8-0.2-1.6-0.5-2.3L84,315.7c0.9,0.9,2.1,1.6,3.4,1.7l4.7,57.5C91.2,375.1,90.4,375.6,89.8,376.1z M95.3,375
	c-0.4-0.1-0.8-0.2-1.2-0.3l-4.7-57.5c0.2-0.1,0.5-0.1,0.7-0.2l18.4,25.2c-1,1-1.5,2.4-1.5,3.9c0,1.7,0.8,3.3,2.1,4.3L95.3,375z
	 M110.9,340.7c-0.3,0.1-0.5,0.2-0.8,0.3L91.8,316c1.1-1,1.8-2.5,1.8-4.1c0-2.4-1.6-4.5-3.7-5.3l9.1-64L110.9,340.7z M100.4,229.4
	c-0.4-0.1-0.9-0.2-1.4-0.2c-0.9,0-1.7,0.2-2.5,0.6l-19-25.9c0.4-0.4,0.7-0.9,1-1.5l26.3,6.5c0,0.1,0,0.2,0,0.4c0,1.9,1,3.6,2.4,4.6
	L100.4,229.4z M110.5,203.7c-0.8,0-1.6,0.2-2.4,0.5l-18.7-26.5c1-1,1.6-2.4,1.6-3.9c0-1.1-0.3-2.1-0.9-3l31.1-28.5
	c0.4,0.3,0.8,0.6,1.3,0.7L110.5,203.7C110.6,203.7,110.5,203.7,110.5,203.7z M112.6,204.1l12-60.7c0,0,0.1,0,0.1,0
	c0.8,0,1.6-0.2,2.3-0.5l17.9,25.7c-1.2,1-1.9,2.5-1.9,4.2c0,1.2,0.4,2.3,1,3.2l-30.1,28.8C113.4,204.5,113,204.3,112.6,204.1z
	 M140,244.4c-0.5-0.1-0.9-0.2-1.5-0.2c-1,0-2,0.3-2.9,0.8l-21.2-31.7c1-1,1.7-2.4,1.7-4c0-1.1-0.3-2.2-0.9-3.1l30.1-28.8
	c0.9,0.6,2,1,3.1,1l5,29.4c-1.8,0.9-3.1,2.8-3.1,5c0,1.9,0.9,3.5,2.3,4.6L140,244.4z M141.8,245.3l12.8-27c0.5,0.1,0.9,0.2,1.5,0.2
	c2.9,0,5.3-2.2,5.6-5l28.5-2.2c0.1,0.3,0.2,0.6,0.3,0.9l-48,33.7C142.2,245.6,142,245.4,141.8,245.3z M194.9,278.3l-26,5.2
	c-0.6-2.4-2.8-4.2-5.4-4.2c-1,0-1.9,0.3-2.7,0.7l-18.3-26.3c0.2-0.2,0.4-0.5,0.6-0.7l52,23.8c-0.1,0.4-0.2,0.9-0.2,1.4
	C194.9,278.3,194.9,278.3,194.9,278.3z M195.9,275l-52-23.8c0.1-0.4,0.2-0.9,0.2-1.4c0-0.8-0.2-1.6-0.5-2.3l48-33.7
	c0.9,0.9,2,1.4,3.3,1.6l4.2,57.4C197.8,273.2,196.7,273.9,195.9,275z M201.1,272.7l-4.2-57.4c0.4-0.1,0.7-0.2,1-0.4l18.3,25.1
	c-1,1-1.5,2.4-1.5,3.9c0,1.7,0.8,3.2,2,4.3L202.4,273C202,272.8,201.6,272.7,201.1,272.7z M239.9,279.1l-33.8-1.2
	c-0.1-1.6-0.8-2.9-2-3.9l14.3-24.9c0.6,0.2,1.2,0.3,1.9,0.3c0.8,0,1.6-0.2,2.4-0.5l18.8,26.5C240.6,276.4,240,277.6,239.9,279.1z
	 M276.9,272.6l-26.2,4.7c-0.8-2.1-2.8-3.6-5.2-3.6c-0.8,0-1.6,0.2-2.4,0.5l-18.8-26.5c0.2-0.2,0.4-0.4,0.6-0.7l52.2,24.2
	C277,271.7,276.9,272.1,276.9,272.6z M277.9,269.4l-52.2-24.2c0.1-0.5,0.2-0.9,0.2-1.4c0-0.8-0.2-1.6-0.5-2.3l47.4-32.8
	c0.9,1,2.2,1.7,3.6,1.8l4.6,56.7C279.8,267.6,278.7,268.3,277.9,269.4z M284.3,267.3c-0.4-0.1-0.8-0.2-1.3-0.3l-4.6-56.7
	c0.4-0.1,0.7-0.2,1.1-0.4l18,24.9c-1,1-1.6,2.4-1.6,3.9c0,1.7,0.8,3.3,2,4.3L284.3,267.3z M299.9,233.5c-0.3,0.1-0.5,0.2-0.7,0.3
	l-18-25c0.9-1,1.5-2.3,1.5-3.8c0-2.5-1.7-4.7-4-5.4l9.3-64.2L299.9,233.5z M321.9,105.7l-27.1,4.2c-0.7-2.3-2.8-3.9-5.3-3.9
	c-0.8,0-1.6,0.2-2.3,0.5l-17.5-25.2c0.2-0.2,0.4-0.5,0.6-0.7l51.8,23.9C322,104.8,321.9,105.2,321.9,105.7z M322.9,102.6l-51.8-23.9
	c0.1-0.4,0.2-0.9,0.2-1.4c0-0.8-0.2-1.6-0.5-2.3l47.3-33.2c0.9,0.9,2.1,1.5,3.4,1.6l4.6,57C324.8,100.8,323.7,101.5,322.9,102.6z
	 M328.1,100.2l-4.6-57c0.3-0.1,0.6-0.2,1-0.3l18.1,25.3c-1,1-1.6,2.4-1.6,3.9c0,1.7,0.8,3.3,2,4.3l-13.6,24.2
	C328.9,100.4,328.5,100.3,328.1,100.2z M366,106.4l-32.9-1.4c-0.2-1.4-0.9-2.7-2-3.5l13.6-24.2c0.6,0.2,1.2,0.3,1.8,0.3
	c0.8,0,1.6-0.2,2.4-0.5l18.6,26.3C366.7,104.2,366.2,105.2,366,106.4z M403.9,99.9l-27.2,5.4c-0.8-2.1-2.8-3.6-5.2-3.6
	c-0.8,0-1.6,0.2-2.4,0.5L350.5,76c0.2-0.2,0.5-0.5,0.6-0.8l52.9,23.3C404,98.9,403.9,99.4,403.9,99.9
	C403.9,99.8,403.9,99.9,403.9,99.9z M404.9,96.7L352,73.4c0.1-0.4,0.2-0.9,0.2-1.3c0-0.8-0.2-1.6-0.5-2.3L400.2,36
	c0.9,0.9,2.2,1.4,3.6,1.4l4.4,57C406.8,94.8,405.6,95.6,404.9,96.7z M411.4,94.5c-0.4-0.1-0.8-0.3-1.3-0.3l-4.4-57.1
	c0.3-0.1,0.7-0.3,1-0.4l17.8,26.3c-1,1-1.7,2.4-1.7,4c0,1.7,0.8,3.3,2,4.3L411.4,94.5z"/>
</svg>
