<?xml version="1.0" encoding="utf-8"?>
<!-- Generator: Adobe Illustrator 21.0.0, SVG Export Plug-In . SVG Version: 6.00 Build 0)  -->
<!DOCTYPE svg PUBLIC "-//W3C//DTD SVG 1.1//EN" "http://www.w3.org/Graphics/SVG/1.1/DTD/svg11.dtd">
<svg version="1.1" id="Layer_1" xmlns="http://www.w3.org/2000/svg" xmlns:xlink="http://www.w3.org/1999/xlink" x="0px" y="0px"
	 viewBox="0 0 430.3 644" style="enable-background:new 0 0 430.3 644;" xml:space="preserve">
<style type="text/css">
	.st0{fill:#D6D6D6;}
</style>
<path class="st0" d="M12.3,213.2c0.1,0,0.1,0,0.2,0l21.4,99.2c-2,0.8-3.5,2.8-3.5,5.2c0,3.1,2.5,5.6,5.6,5.6c1,0,2-0.3,2.8-0.8
	l20.6,24.1c-0.6,0.9-0.9,1.9-0.9,3c0,3.1,2.5,5.6,5.6,5.6c1.6,0,3-0.7,4-1.7l39.4,26.5c-0.4,0.8-0.6,1.6-0.6,2.5
	c0,3.1,2.5,5.6,5.6,5.6c1.5,0,2.8-0.6,3.8-1.5l33.4,30.1c-0.5,0.9-0.8,1.9-0.8,2.9c0,3.1,2.5,5.6,5.6,5.6c0.1,0,0.1,0,0.2,0
	l22.1,99.2c-2,0.8-3.4,2.8-3.4,5.2c0,3.1,2.5,5.6,5.6,5.6c1,0,2-0.3,2.8-0.8l20.7,23.5c-0.9,1-1.4,2.3-1.4,3.7
	c0,3.1,2.5,5.6,5.6,5.6c1.8,0,3.4-0.8,4.4-2.2l40,26.1c-0.5,0.8-0.7,1.8-0.7,2.8c0,3.1,2.5,5.6,5.6,5.6c3.1,0,5.6-2.5,5.6-5.6
	c0-0.6-0.1-1.2-0.3-1.8l69.6-39.7c1,1.2,2.6,2,4.3,2c3.1,0,5.6-2.5,5.6-5.6c0-1.7-0.7-3.2-1.9-4.2l34.6-73.6
	c0.5,0.1,0.9,0.2,1.4,0.2c3.1,0,5.6-2.5,5.6-5.6s-2.5-5.6-5.6-5.6c-1,0-1.9,0.2-2.7,0.7L352.6,436c0.7-0.9,1.2-2.1,1.2-3.4
	c0-2.5-1.6-4.6-3.9-5.3l3.2-40.1c0.3,0.1,0.6,0.1,1,0.1c3.1,0,5.6-2.5,5.6-5.6c0-0.4-0.1-0.8-0.1-1.2l70.8-30v-2.2l-71.6,30.3
	c-1-1.5-2.7-2.5-4.7-2.5c-1,0-2,0.3-2.8,0.7l-20.8-24.6c0.5-0.6,0.9-1.3,1.1-2.1l61,4.7c0.5,2.6,2.8,4.5,5.5,4.5
	c3.1,0,5.6-2.5,5.6-5.6c0-0.1,0-0.2,0-0.3l26.7-6.2v-2.1l-27.1,6.3c-0.2-0.4-0.4-0.8-0.6-1.1l27.8-23.5v-2.6l-29.2,24.7
	c-0.7-0.5-1.5-0.8-2.4-0.9l-9.7-56.2c1.1-0.4,2-1.1,2.7-2.1l38.7,13.6v-2.1L392.4,288c0.1-0.4,0.2-0.9,0.2-1.4c0-0.1,0-0.3,0-0.4
	l27.7-7.1c1,1.6,2.7,2.6,4.7,2.6c0.8,0,1.5-0.2,2.2-0.5l3.1,4.1V282l-1.4-1.9c0.6-0.6,1.1-1.4,1.4-2.3v-3.5
	c-0.1-0.4-0.3-0.8-0.5-1.2l0.5-0.5v-2.6l-1.9,1.6c-0.8-0.6-1.7-1-2.7-1.1l-10.2-57c1-0.5,1.8-1.3,2.4-2.3l12.4,4.5v-2.1l-11.8-4.3
	c0-0.3,0.1-0.5,0.1-0.8c0-0.1,0-0.1,0-0.2l11.7-3.3V203l-12.1,3.5c-0.8-2-2.8-3.4-5.2-3.4c-2,0-3.7,1-4.7,2.5l-30.1-15.2l52.1,5.1
	v-2l-51.7-5c0-0.1,0-0.1,0-0.2c0-0.1,0-0.2,0-0.3l16.8-6.1c1,1.7,2.8,2.8,4.8,2.8c2.1,0,3.9-1.2,4.9-2.9l25.2,8.7v-2.1l-24.6-8.5
	c0-0.3,0.1-0.6,0.1-0.9c0-0.7-0.1-1.4-0.4-2.1l24.9-15.5v-2.4l-26,16.1c-0.9-1-2.2-1.7-3.7-1.8l-4.4-54.4c0.8-0.3,1.5-0.7,2.1-1.3
	l31.9,24.6v-2.5l-30.7-23.7c0.4-0.8,0.6-1.6,0.6-2.5c0-2.3-1.4-4.3-3.5-5.2l5.4-25.5c0.1,0,0.1,0,0.2,0c0.7,0,1.3-0.1,1.9-0.3
	l26.1,45.6v-4l-23.8-41.5l23.8,22.3v-2.7l-23.1-21.6l23.1,10v-2.2l-22.5-9.8c0.1-0.4,0.2-0.8,0.2-1.3c0-0.1,0-0.2,0-0.3l22.4-5.1V70
	l-22.8,5.2c-0.9-2-2.8-3.4-5.2-3.4c-0.2,0-0.4,0-0.6,0L395,49.2c1.1-0.6,2-1.5,2.5-2.6l32.8,8.8v-2.1l-32.2-8.7c0-0.2,0-0.3,0-0.5
	c0-0.4,0-0.8-0.1-1.2l32.3-13.2v-2.2l-33.1,13.5c-1-1.6-2.7-2.6-4.7-2.6c-3.1,0-5.6,2.5-5.6,5.6c0,0.7,0.1,1.3,0.3,1.9l-40.4,23
	c-1-1.2-2.5-1.9-4.2-1.9c-2.9,0-5.3,2.2-5.6,5.1L287.4,76c-0.6-2.4-2.8-4.2-5.4-4.2c-3.1,0-5.6,2.5-5.6,5.6c0,0.2,0,0.4,0,0.5
	l-28.9,8.2c-0.9-2-2.8-3.3-5.1-3.3c-3.1,0-5.6,2.5-5.6,5.6c0,1.9,1,3.6,2.5,4.6l-10.9,24.9c-0.4-0.1-0.9-0.2-1.3-0.2
	c-1,0-1.9,0.3-2.7,0.7L204.2,94c0.8-1,1.3-2.2,1.3-3.6c0-3.1-2.5-5.6-5.6-5.6s-5.6,2.5-5.6,5.6c0,0.1,0,0.2,0,0.4l-28,7
	c-0.9-1.8-2.8-3-5-3c-3.1,0-5.6,2.5-5.6,5.6c0,1.9,1,3.6,2.5,4.6l-8.1,18.5c-0.4-0.1-0.9-0.2-1.3-0.2c-3.1,0-5.6,2.5-5.6,5.6
	c0,2.5,1.6,4.6,3.9,5.3l-1.4,10.7c-3,0.2-5.3,2.6-5.3,5.6c0,0.1,0,0.2,0,0.3l-26.6,6.4c-1-1.7-2.8-2.8-4.8-2.8
	c-2.8,0-5.1,2.1-5.5,4.8l-33,2c-0.6-2.5-2.8-4.3-5.4-4.3c-3,0-5.4,2.4-5.6,5.3l-26.4,7.3c-0.9-1.9-2.8-3.2-5-3.2
	c-3.1,0-5.6,2.5-5.6,5.6c0,1.9,1,3.6,2.5,4.6l-11.3,25.4c-0.4-0.1-0.9-0.2-1.3-0.2c-3.1,0-5.6,2.5-5.6,5.6S9.2,213.2,12.3,213.2z
	 M37.8,312.3c-0.2-0.1-0.3-0.1-0.5-0.1l3.6-64.7l9.7,29.6c-1.9,0.9-3.2,2.8-3.2,5.1c0,2,1,3.7,2.5,4.7L37.8,312.3z M120.8,232.2
	c0.3,0,0.7,0,1-0.1l9.8,33.5c-1.6,0.8-2.8,2.4-3,4.3l-34,1.7c-0.4-2.2-2.1-3.9-4.2-4.4l3.8-66.7c0.4-0.1,0.8-0.1,1.1-0.3l21.1,23.1
	c-0.7,0.9-1.1,2.1-1.1,3.4C115.2,229.7,117.7,232.2,120.8,232.2z M224.3,205l6.6,43.3c-0.3,0.1-0.6,0.2-0.9,0.4l-19.5-23.6
	c0.7-0.9,1.1-2.1,1.1-3.3c0-3.1-2.5-5.6-5.6-5.6c-0.5,0-0.9,0.1-1.4,0.2l-25.1-45.9c0.1-0.1,0.3-0.3,0.4-0.4l39.4,27.1
	c-0.3,0.7-0.5,1.5-0.5,2.3C218.8,202.5,221.3,204.9,224.3,205z M339.9,120.5l-40.5,23.6c-0.4-0.5-0.9-1-1.5-1.3l7.8-26.8
	c0.2,0,0.4,0,0.6,0c2.4,0,4.4-1.4,5.2-3.5l28.3,5.9c0,0.3-0.1,0.6-0.1,0.9C339.7,119.7,339.8,120.1,339.9,120.5z M351.5,152.2
	l39.3-34.5c0.4,0.4,0.8,0.7,1.3,0.9l-18.3,64c-0.3,0-0.5-0.1-0.8-0.1c-0.9,0-1.8,0.2-2.6,0.6l-19.2-24c0.9-1,1.4-2.3,1.4-3.7
	C352.6,154.3,352.2,153.2,351.5,152.2z M383.7,291.1l-11.5,24c-0.4-0.1-0.8-0.1-1.3-0.1c-1.7,0-3.3,0.8-4.3,2l-28.2-14.6
	c-0.3-1.5-1.3-2.9-2.6-3.6l9.9-26.7c0.3,0.1,0.6,0.1,1,0.1c1.8,0,3.5-0.9,4.5-2.3l30.4,15.1c-0.1,0.5-0.2,1-0.2,1.6
	C381.4,288.5,382.3,290.1,383.7,291.1z M324,353.8l-7.7,35.2c-0.1,0-0.1,0-0.2,0c-0.2,0-0.3,0-0.4,0l-19.5-73.4
	c0.1-0.1,0.3-0.1,0.4-0.2l25.3,29.6c-0.8,1-1.3,2.2-1.3,3.5C320.5,350.9,321.9,352.9,324,353.8z M263.2,513l11.5-25.9
	c0.4,0.1,0.9,0.2,1.3,0.2c0.4,0,0.7,0,1.1-0.1l8.8,56.2c-0.4,0.1-0.7,0.3-1,0.5l-20.2-23.1c0.6-0.9,0.9-2,0.9-3.1
	C265.6,515.7,264.7,514,263.2,513z M157.8,415l11.8-25c0.5,0.1,0.9,0.2,1.4,0.2l10.1,56.1c-0.4,0.1-0.8,0.3-1.2,0.5l-20.8-24.1
	c0.6-0.9,1-2,1-3.1C160.1,417.7,159.2,416.1,157.8,415z M121.2,301l11.4-25c0.4,0.1,0.9,0.2,1.3,0.2l9.4,55.1
	c-0.3,0.1-0.6,0.2-0.9,0.4l-19.7-23.3c0.5-0.8,0.8-1.8,0.8-2.8C123.6,303.7,122.7,302,121.2,301z M58.6,281.5l25.2-6.7
	c0.9,2,2.8,3.4,5.2,3.4c1,0,2-0.3,2.8-0.8l21.9,24.7c-0.2,0.2-0.3,0.4-0.5,0.7l-54.7-19.4c0.1-0.4,0.2-0.9,0.2-1.4
	C58.6,281.9,58.6,281.7,58.6,281.5z M93.3,276.2c0.6-0.7,1-1.6,1.2-2.6l34.1-1.7c0.3,1.4,1.1,2.5,2.3,3.3l-11.4,25
	c-0.4-0.1-0.9-0.2-1.4-0.2c-1.1,0-2.1,0.3-2.9,0.8L93.3,276.2z M135.9,275.9c1.3-0.5,2.3-1.4,3-2.6l53.6,18c0,0.3-0.1,0.5-0.1,0.8
	c0,1.2,0.4,2.3,1.1,3.3l-44.6,37c-1-0.8-2.2-1.3-3.5-1.3L135.9,275.9z M139.6,269.9l25.5-7.8c0.9,1.8,2.8,3,5,3c1,0,2-0.3,2.8-0.8
	l20.8,24.2c-0.2,0.3-0.4,0.5-0.6,0.8l-53.6-18c0-0.3,0.1-0.5,0.1-0.8C139.6,270.4,139.6,270.2,139.6,269.9z M174.6,256.3l28.5-29.8
	c0.9,0.5,1.9,0.8,2.9,0.8c1.1,0,2.2-0.3,3.1-0.9l19.4,23.5c-0.8,1-1.3,2.2-1.3,3.6c0,1.3,0.4,2.5,1.2,3.4L201,287.3
	c-0.9-0.5-1.9-0.8-2.9-0.8c-1,0-2,0.3-2.8,0.8l-20.8-24.2c0.8-1,1.2-2.2,1.2-3.5C175.6,258.4,175.2,257.2,174.6,256.3z M262,280
	l-73.8,46.8c-0.1-0.1-0.2-0.2-0.3-0.3l43.1-67.6c0.6,0.2,1.2,0.3,1.9,0.3c1.5,0,2.9-0.6,3.9-1.6l25.2,17.7c-0.3,0.7-0.5,1.5-0.5,2.3
	C261.4,278.5,261.6,279.3,262,280z M270.6,273.3l10.8-24.2c0.4,0.1,0.8,0.2,1.2,0.2l9.2,56.1c-0.2,0.1-0.5,0.2-0.7,0.3l-19.3-25.2
	c0.5-0.8,0.8-1.8,0.8-2.8C272.6,275.9,271.8,274.3,270.6,273.3z M289.6,306.8c-0.9,1-1.5,2.3-1.5,3.8c0,2.6,1.7,4.7,4.1,5.4l-3.6,40
	c0,0-0.1,0-0.1,0c-3.1,0-5.6,2.5-5.6,5.6c0,0.4,0.1,0.8,0.1,1.3l-25.9,6.4c-0.6-1.4-1.8-2.4-3.2-3l14.1-83.2
	c0.9-0.2,1.8-0.6,2.5-1.1L289.6,306.8z M268.4,438.4l28.3-3.7c0.8,2.1,2.8,3.6,5.2,3.6c0.3,0,0.5,0,0.8-0.1l8,28.3
	c-1.9,0.9-3.2,2.8-3.3,5l-26.9,6.7c-1-1.3-2.6-2.2-4.5-2.2c-0.3,0-0.5,0-0.8,0.1l-9.9-32.5c1.8-0.9,3-2.8,3-5
	C268.4,438.5,268.4,438.5,268.4,438.4z M304.6,437.6c1.6-0.8,2.7-2.4,2.9-4.2l35.2,0.2c0.2,1,0.6,1.9,1.3,2.7l-27.8,30.7
	c-0.9-0.6-1.9-0.9-3-0.9c-0.1,0-0.3,0-0.4,0L304.6,437.6z M187.7,449.1l43.8-37.2c0.8,0.6,1.7,1,2.7,1.2l-2.2,65.7
	c-1.4,0-2.7,0.6-3.6,1.4L188,453.7c0.2-0.6,0.4-1.3,0.4-2C188.3,450.7,188.1,449.9,187.7,449.1z M238.7,403.4l12-26.3
	c0.3,0.1,0.7,0.1,1,0.2l9.1,56.2c-0.5,0.2-0.9,0.4-1.3,0.7l-20.9-22.1c1.3-1,2.1-2.6,2.1-4.3C240.6,405.9,239.9,404.4,238.7,403.4z
	 M236.9,402.3c-0.6-0.2-1.2-0.3-1.9-0.3c-1.1,0-2.1,0.3-3,0.9l-20-24.4c0.9-0.9,1.4-2.1,1.5-3.5l33-2c0.3,1.3,1.1,2.5,2.2,3.3
	L236.9,402.3z M246.5,370.9l-33.1,2c-0.7-2.3-2.8-4-5.4-4c-0.6,0-1.2,0.1-1.8,0.3l-18.8-34.2c0.1-0.1,0.2-0.1,0.3-0.2l59.1,34.8
	C246.6,370.1,246.5,370.5,246.5,370.9z M204.5,370.3c-1.3,1-2.1,2.6-2.1,4.3c0,0.2,0,0.4,0,0.6l-26.1,7.6c-0.5-1.5-1.6-2.7-3-3.3
	l10.5-43.3c0.1,0,0.2,0,0.2,0c0.6,0,1.1-0.1,1.6-0.2L204.5,370.3z M176.6,384.8l26.4-7.7c0.9,1.8,2.8,3.1,5,3.1
	c0.9,0,1.7-0.2,2.4-0.6l20.1,24.6c-0.1,0.2-0.3,0.4-0.4,0.6l-53.6-19.3C176.6,385.3,176.6,385.1,176.6,384.8z M236.1,413.1
	c0.2,0,0.4-0.1,0.6-0.2l21.3,22.6c-0.6,0.9-0.9,2-0.9,3.1c0,1.6,0.7,3,1.7,4.1l-24.2,36.9c-0.3-0.1-0.5-0.3-0.8-0.4L236.1,413.1z
	 M260.6,443.8c0.7,0.3,1.4,0.4,2.2,0.4c0.2,0,0.4,0,0.7,0l9.9,32.5c-1.6,0.8-2.7,2.4-2.9,4.3l-33,2.1c-0.2-0.8-0.6-1.6-1.2-2.3
	L260.6,443.8z M262.8,433l-9.1-56c1.4-0.4,2.5-1.3,3.2-2.5l53.6,19.3c0,0.3-0.1,0.6-0.1,0.9c0,1,0.3,2,0.7,2.8l-44.5,37.2
	C265.7,433.6,264.3,433,262.8,433z M257.5,372.5c0-0.3,0.1-0.6,0.1-0.9c0-0.1,0-0.2,0-0.4l26.3-6.5c1,1.5,2.7,2.5,4.7,2.5
	c1,0,1.9-0.2,2.7-0.7l20.5,24.5c-0.2,0.2-0.4,0.5-0.5,0.8L257.5,372.5z M292.8,365.3c0.9-1,1.4-2.3,1.4-3.7c0-2.4-1.5-4.4-3.5-5.2
	l3.6-40.1l19.4,73.2c-0.1,0.1-0.3,0.1-0.4,0.2L292.8,365.3z M252,366c-1.7,0-3.2,0.8-4.2,1.9l-58.8-34.7c0.4-0.8,0.7-1.7,0.7-2.7
	c0-0.7-0.1-1.5-0.4-2.1l73.9-46.9c0.8,0.8,1.8,1.3,2.9,1.5L252,366z M202.5,288.7l24.1-26.7l-38.5,60.4l9-24.8
	c0.3,0.1,0.6,0.1,0.9,0.1c3.1,0,5.6-2.5,5.6-5.6C203.6,290.8,203.2,289.6,202.5,288.7z M194.9,296.8c0.1,0.1,0.2,0.1,0.3,0.2
	L185,325.1c-0.3-0.1-0.6-0.1-0.9-0.1c-2.9,0-5.2,2.2-5.6,5l-28,4.3c-0.1-0.1-0.1-0.3-0.2-0.4L194.9,296.8z M181.8,335.8L171.3,379
	c-0.1,0-0.2,0-0.3,0c-2.7,0-4.9,1.9-5.5,4.4l-47.5-1.6c-0.1-0.6-0.2-1.1-0.5-1.7l62.5-45.5C180.6,335.1,181.2,335.5,181.8,335.8z
	 M173,389.8c1.2-0.5,2.2-1.3,2.9-2.4l53.6,19.3c0,0.3-0.1,0.6-0.1,0.9c0,1,0.3,2,0.8,2.8l-43.7,37.1c-0.9-0.8-2.1-1.3-3.4-1.4
	L173,389.8z M186.9,455.4l40.1,26.4c-0.4,0.8-0.6,1.6-0.6,2.6c0,0.1,0,0.2,0,0.3l-26.3,6.4c-0.9-2-2.8-3.3-5.1-3.3
	c-0.2,0-0.4,0-0.5,0l-8.9-31.4C186.1,456.2,186.5,455.9,186.9,455.4z M200.6,493.1l26.3-6.4c0.9,2,2.8,3.3,5.1,3.3
	c0.9,0,1.7-0.2,2.5-0.6l21,24.9c-0.1,0.2-0.2,0.3-0.3,0.5l-54.9-19.3c0.2-0.6,0.4-1.3,0.4-2C200.6,493.4,200.6,493.3,200.6,493.1z
	 M236.1,488.2c0.8-0.9,1.3-2,1.5-3.2l33-2.1c0.3,1.4,1.2,2.5,2.3,3.3l-11.5,25.9c-0.4-0.1-0.9-0.2-1.3-0.2c-1.1,0-2.2,0.3-3.1,0.9
	L236.1,488.2z M279,486.3c0.8-0.5,1.4-1.1,1.9-1.9l53.6,19.3c0,0.3-0.1,0.6-0.1,0.9c0,1,0.3,2,0.7,2.8l-43.8,36.9
	c-0.9-0.8-2.1-1.2-3.4-1.3L279,486.3z M281.5,482.5c0-0.3,0.1-0.6,0.1-0.9c0-0.5-0.1-1.1-0.2-1.5l26.3-6.6c0.8,2.2,2.8,3.7,5.3,3.7
	c1.1,0,2.2-0.3,3.1-0.9l20.5,23.9c-0.6,0.4-1.1,1-1.4,1.6L281.5,482.5z M317.6,474.9c0.7-0.9,1.1-2,1.1-3.3c0-1.2-0.4-2.4-1.1-3.3
	l27.9-30.8c0.4,0.2,0.8,0.4,1.3,0.5l-7.1,61c-0.4,0-0.8,0.1-1.2,0.2L317.6,474.9z M342.6,431.6l-35.3-0.2c-0.6-2.5-2.8-4.3-5.4-4.3
	c-3.1,0-5.6,2.5-5.6,5.6c0,0,0,0.1,0,0.1l-28.3,3.7c0-0.1-0.1-0.2-0.1-0.2l44.6-37.3c1,0.8,2.2,1.3,3.6,1.3c1,0,2-0.3,2.8-0.8
	l25.1,29.4C343.3,429.6,342.8,430.5,342.6,431.6z M293.8,305l-9.2-56.1c1.1-0.4,2.1-1.2,2.8-2.1l53.9,19c0,0.3-0.1,0.6-0.1,0.9
	c0,1,0.3,1.9,0.7,2.7l-44.6,37C296.4,305.5,295.2,305,293.8,305z M292.9,205c0.1,0,0.1,0,0.2,0c1.2,0,2.2-0.4,3.1-1l20.6,24.6
	c-0.8,1-1.3,2.2-1.3,3.6c0,0.2,0,0.5,0.1,0.7l-27.7,8.2c-0.6-1.2-1.6-2.1-2.8-2.6L292.9,205z M292.2,193.9c-2.4,0.4-4.3,2.2-4.7,4.6
	l-57.5,0.1c-0.1-0.6-0.3-1.1-0.5-1.6l61.8-45.2c0.7,0.6,1.5,1,2.5,1.3L292.2,193.9z M341.4,156l-27.4,7.2c-0.9-1.9-2.8-3.2-5.1-3.2
	c-0.9,0-1.8,0.2-2.5,0.6l-7.1-9.5c0.4-0.5,0.8-1.2,1-1.9l41.1,5.8c0,0.2,0,0.4,0,0.6C341.4,155.7,341.4,155.9,341.4,156z
	 M368.4,191.4l-43.6,36.7c-1-0.9-2.3-1.5-3.8-1.5l-10.1-55.8c1.2-0.5,2.2-1.3,2.9-2.4l53.6,19.2c0,0.2,0,0.4,0,0.6
	C367.4,189.4,367.8,190.5,368.4,191.4z M288.3,243l27.8-8.2c0.9,1.8,2.8,3,4.9,3c0.9,0,1.7-0.2,2.5-0.6l19.4,25.4
	c-0.4,0.4-0.7,0.8-0.9,1.2l-53.8-18.9c0.1-0.4,0.2-0.8,0.2-1.3C288.3,243.4,288.3,243.2,288.3,243z M296.3,194.9l11.3-23.9
	c0.5,0.1,0.9,0.2,1.4,0.2l10.1,55.8c-0.3,0.1-0.6,0.2-0.8,0.4l-20.7-24.7c0.7-0.9,1-2,1-3.2C298.6,197.5,297.7,195.9,296.3,194.9z
	 M304.9,161.8c-0.9,1-1.5,2.3-1.5,3.8c0,1.9,0.9,3.5,2.3,4.6L294.5,194c-0.1,0-0.2,0-0.3-0.1l1.6-40.8c0.7-0.1,1.4-0.3,2-0.7
	L304.9,161.8z M343.2,270.9c0.2,0.2,0.5,0.4,0.7,0.5l-9.9,26.7c-0.3-0.1-0.6-0.1-1-0.1c-3.1,0-5.6,2.5-5.6,5.6l-28.5,5.1
	c-0.1-0.3-0.2-0.5-0.4-0.8L343.2,270.9z M346.8,261c-0.8,0-1.6,0.2-2.3,0.5L325.1,236c0.6-0.6,1-1.4,1.3-2.2l64.8,7.9
	c0,0.3-0.1,0.6-0.1,0.8c0,0.6,0.1,1.2,0.3,1.7l-40.1,19C350.3,261.9,348.7,261,346.8,261z M326.6,231.8c-0.1-0.8-0.3-1.5-0.6-2.1
	l43.8-36.9c0.9,0.6,2,1,3.2,1c0.5,0,1.1-0.1,1.6-0.2l19.1,44.3c-0.7,0.5-1.3,1.1-1.8,1.9L326.6,231.8z M368.9,184.5
	c-0.3,0.4-0.6,0.8-0.9,1.3l-53.5-19.2c0-0.3,0.1-0.6,0.1-0.9c0-0.1,0-0.3,0-0.4l27.4-7.2c0.9,1.9,2.8,3.2,5.1,3.2
	c1,0,1.9-0.2,2.7-0.7L368.9,184.5z M342,153.1l-41.4-5.8c0-0.5-0.1-0.9-0.3-1.4l40.3-23.5c0.9,1.3,2.3,2.2,4,2.4l1.2,25.3
	C344.1,150.5,342.8,151.6,342,153.1z M296,142.1c-0.3-0.1-0.6-0.1-1-0.1c-3.1,0-5.6,2.5-5.6,5.6c0,0,0,0,0,0.1l-27.4,5
	c-0.1-0.4-0.3-0.7-0.5-1.1l41.3-36.8c0.3,0.2,0.6,0.4,1,0.6L296,142.1z M262.3,154.6l27.5-5c0.1,0.2,0.2,0.4,0.3,0.6L228.8,195
	l25.2-35.7c0.8,0.5,1.8,0.8,2.8,0.8C259.8,160.1,262.3,157.7,262.3,154.6z M229.9,200.6l57.6-0.1c0.3,1.9,1.6,3.5,3.4,4.2L283,238
	c-0.1,0-0.2,0-0.3,0c-3.1,0-5.6,2.5-5.6,5.6c0,1.9,1,3.6,2.4,4.6l-10.7,24.1c-0.6-0.2-1.2-0.3-1.8-0.3c-0.6,0-1.2,0.1-1.8,0.3
	L228,203.8C228.9,203,229.7,201.9,229.9,200.6z M263.5,273.2c-0.1,0.1-0.3,0.2-0.4,0.4l-25.2-17.7c0.3-0.7,0.5-1.5,0.5-2.3
	c0-3-2.4-5.5-5.5-5.6l-6.6-43.1L263.5,273.2z M201.7,215.1l-24.8-28.9c0.8-1,1.3-2.2,1.3-3.5c0-2.4-1.5-4.5-3.7-5.2l0.9-5.2
	c0.1,0,0.1,0,0.2,0c0.9,0,1.7-0.2,2.4-0.6L201.7,215.1z M175.3,187.4l26.4,30.8c-0.8,1-1.3,2.2-1.3,3.6c0,1.3,0.4,2.5,1.2,3.4
	l-28.5,29.7c-0.9-0.6-1.9-0.9-3.1-0.9c-0.1,0-0.3,0-0.4,0l-7.2-28.4c1.9-0.9,3.2-2.8,3.2-5.1c0-2.2-1.2-4-3-5l9.1-27.5
	c0.3,0,0.5,0.1,0.8,0.1C173.5,188.2,174.5,187.9,175.3,187.4z M160.7,215c-0.2,0-0.5,0-0.7,0c-2.7,0-5,1.9-5.5,4.5l-28.5,5.1
	c-0.2-0.4-0.3-0.8-0.6-1.2l43.5-36.6c0.3,0.2,0.6,0.4,0.9,0.6L160.7,215z M126.4,226.6l28.1-5.1c0.5,2.6,2.7,4.6,5.5,4.6
	c0.2,0,0.3,0,0.5,0l7.2,28.3c-1.9,0.9-3.3,2.8-3.3,5.1c0,0.2,0,0.4,0,0.7L139,268c-0.9-1.8-2.8-3-5-3c-0.2,0-0.4,0-0.6,0l-9.8-33.6
	C125.3,230.4,126.4,228.7,126.4,226.6z M88.3,267c-1,0.1-2,0.5-2.8,1.2L45,242c0.4-0.7,0.6-1.6,0.6-2.5c0-1-0.3-2-0.8-2.8l44.9-37.6
	c0.7,0.6,1.4,0.9,2.3,1.1L88.3,267z M84.1,269.7c-0.5,0.8-0.8,1.8-0.8,2.9c0,0.1,0,0.2,0,0.2L58,279.6c-0.9-1.8-2.8-3.1-5-3.1
	c-0.2,0-0.3,0-0.5,0l-10.4-31.8c0.6-0.3,1.2-0.6,1.7-1.1L84.1,269.7z M60.8,345.1l-20.4-23.9c0.8-1,1.3-2.2,1.3-3.5
	c0-1.8-0.8-3.3-2.1-4.3l12.2-25.7c0.4,0.1,0.8,0.1,1.3,0.1c0,0,0.1,0,0.1,0l9.1,56.6C61.7,344.5,61.2,344.7,60.8,345.1z M67.7,345.3
	c-1-0.8-2.2-1.3-3.5-1.3l-9.1-56.7c1-0.4,1.9-1.1,2.5-2l54.9,19.4c0,0.3-0.1,0.6-0.1,0.9c0,1,0.3,1.9,0.7,2.7L67.7,345.3z
	 M112.4,376.8c-1.4,0-2.7,0.6-3.7,1.5l-39.5-26.5c0.3-0.7,0.5-1.4,0.5-2.2c0-1-0.3-1.9-0.7-2.7l45.4-37c0.8,0.6,1.7,1.1,2.7,1.3
	L112.4,376.8z M115,377.4c-0.2-0.1-0.4-0.2-0.6-0.3l4.7-66c0.9-0.2,1.7-0.6,2.4-1.1L141,333c-0.8,1-1.3,2.2-1.3,3.6
	c0,1.5,0.6,2.9,1.6,3.9L115,377.4z M142.9,341.7c0.7,0.3,1.5,0.5,2.4,0.5c3.1,0,5.6-2.5,5.6-5.6c0-0.1,0-0.2,0-0.4l27.7-4.3
	c0.1,0.4,0.2,0.7,0.4,1.1l-62.1,45.1L142.9,341.7z M154.5,414c-1.3,0-2.5,0.4-3.4,1.2l-33.6-30.2c0.2-0.4,0.3-0.8,0.4-1.2l47.5,1.6
	c0.2,1.5,1.1,2.9,2.3,3.7l-11.8,25C155.5,414.1,155,414,154.5,414z M178.4,522.1l-21.7-97.3c0.4-0.2,0.7-0.4,1.1-0.6l20.7,24
	c-0.8,1-1.3,2.2-1.3,3.6c0,2.6,1.8,4.9,4.3,5.4L178.4,522.1z M183.5,457.2c0.1,0,0.1,0,0.2,0l8.9,31.2c-1.9,0.9-3.1,2.8-3.1,5
	c0,1.9,0.9,3.5,2.3,4.6l-11.4,24.1L183.5,457.2z M204.1,556.6l-20.7-23.5c0.8-1,1.3-2.2,1.3-3.5c0-2.2-1.3-4.2-3.2-5.1l12.1-25.7
	c0.5,0.1,0.9,0.2,1.4,0.2l10.1,57.1C204.8,556.3,204.4,556.5,204.1,556.6z M210.8,557.7c-0.9-1-2.2-1.6-3.6-1.7L197,498.7
	c0.9-0.3,1.6-0.8,2.2-1.5l55.3,19.5c0,0.3-0.1,0.6-0.1,0.9c0,1,0.3,2,0.7,2.8L210.8,557.7z M256,588.3c-1.3,0-2.6,0.5-3.5,1.3
	l-40.4-26.3c0.2-0.5,0.3-1.1,0.3-1.7c0-0.8-0.2-1.6-0.5-2.2l44.6-37.4c0.7,0.6,1.5,1,2.3,1.2L256,588.3z M258.7,589
	c-0.2-0.1-0.5-0.2-0.7-0.3l2.8-65.5c0.9-0.1,1.8-0.5,2.5-1l20.1,23c-0.8,1-1.2,2.2-1.2,3.5c0,1.6,0.6,3,1.7,4L258.7,589z
	 M260.4,590.4c0,0-0.1-0.1-0.1-0.1l25.2-36.6c0.7,0.3,1.5,0.5,2.3,0.5c2.9,0,5.3-2.3,5.6-5.1l36.4,0.6c0.1,0.3,0.1,0.6,0.2,1
	L260.4,590.4z M334.9,543.2c-2.5,0.2-4.6,2-5.1,4.5l-36.6-0.6c-0.1-0.4-0.3-0.9-0.5-1.3l43.8-36.9c0.6,0.5,1.3,0.8,2,1.1
	L334.9,543.2z M337.3,543.6c-0.1-0.1-0.3-0.1-0.4-0.1l3.6-33.2c2.9-0.2,5.2-2.6,5.2-5.6c0-1.3-0.4-2.5-1.2-3.4l26.8-29.8
	L337.3,543.6z M351.1,437.4l19.7,24.6c-0.9,1-1.4,2.3-1.4,3.7c0,1.3,0.4,2.5,1.2,3.4l-27.7,30.8c-0.4-0.2-0.8-0.5-1.3-0.6l7.1-61.1
	C349.6,438.1,350.4,437.8,351.1,437.4z M349.7,378c-0.8,1-1.3,2.2-1.3,3.6c0,2,1.1,3.8,2.7,4.8l-3.3,40.6c-0.8,0-1.6,0.3-2.2,0.6
	l-25.2-29.5c0.8-1,1.3-2.2,1.3-3.5c0-2.3-1.4-4.3-3.4-5.2l7.7-35.2c0.1,0,0.1,0,0.2,0c1,0,2-0.3,2.8-0.8L349.7,378z M330.2,344.8
	c-1-1.1-2.5-1.8-4.1-1.8c-1,0-2,0.3-2.8,0.8l-25.3-29.6c0.8-1,1.3-2.2,1.3-3.5l28.5-5.1c0.8,2.1,2.8,3.7,5.2,3.7
	c2.7,0,5-1.9,5.5-4.5l27.2,14.1c-0.2,0.6-0.3,1.2-0.3,1.8c0,0.5,0.1,0.9,0.2,1.4L330.2,344.8z M392.5,352.7l-60.8-4.7
	c-0.1-0.6-0.2-1.1-0.4-1.6l35.1-22.6c1,1.4,2.7,2.4,4.6,2.4c1,0,1.9-0.2,2.7-0.7l19.9,24.7C393.1,350.9,392.7,351.8,392.5,352.7z
	 M396.7,348.2c-0.6,0.1-1.1,0.4-1.6,0.7l-19.8-24.6c0.8-1,1.4-2.3,1.4-3.7c0-1.9-1-3.7-2.5-4.7l11.4-23.9c0.5,0.1,0.9,0.2,1.4,0.2
	L396.7,348.2z M387.3,281c-0.1,0-0.2,0-0.3,0c-1.8,0-3.5,0.9-4.5,2.3l-30.4-15.1c0.1-0.5,0.2-1,0.2-1.6c0-0.5-0.1-1-0.2-1.5l40.2-19
	c0.7,0.8,1.5,1.5,2.6,1.8L387.3,281z M419.4,276.1c0,0.4,0,0.8,0.1,1.1l-27.4,7c-0.6-1.3-1.6-2.3-2.9-2.8l7.7-33.3
	c0.9,0,1.7-0.3,2.4-0.6l21.6,24.6C420,273.2,419.4,274.6,419.4,276.1z M413,214.2c0.2,0,0.4,0,0.6,0l10.1,56.5
	c-0.4,0.1-0.8,0.2-1.1,0.4l-21.7-24.7c0.9-1,1.4-2.3,1.4-3.7c0-1.8-0.8-3.4-2.1-4.4l12.3-24C412.6,214.2,412.8,214.2,413,214.2z
	 M407.6,207.4c-0.1,0.4-0.1,0.8-0.1,1.2c0,2.2,1.3,4.1,3.1,5l-12.1,23.7c-0.5-0.2-1.1-0.3-1.7-0.3c-0.4,0-0.9,0.1-1.3,0.1
	l-19.1-44.5c0.3-0.2,0.5-0.4,0.7-0.7L407.6,207.4z M398.7,173.6c-2.4,0.7-4.1,2.8-4.1,5.4c0,0.3,0,0.6,0.1,0.9l-16.6,6
	c-0.5-1.1-1.4-2.1-2.4-2.7l18.3-64c0.1,0,0.2,0,0.3,0L398.7,173.6z M388.2,47.8c1,1.2,2.6,2,4.3,2c0.2,0,0.4,0,0.6,0l6.7,22.6
	c-1.4,0.7-2.5,2-2.9,3.5l-48.8-4.2c-0.1-0.3-0.1-0.6-0.3-0.9L388.2,47.8z M348.1,73.7l48.6,4.2c0.2,2.1,1.6,3.9,3.4,4.7l-5.4,25.5
	c-0.1,0-0.1,0-0.2,0c-1.4,0-2.7,0.5-3.7,1.4l-43.5-33.9C347.8,75,348,74.4,348.1,73.7z M346.2,77.1l43.5,33.9
	c-0.4,0.8-0.7,1.7-0.7,2.7c0,0.9,0.2,1.7,0.6,2.4L350,150.9c-0.7-0.4-1.4-0.7-2.2-0.8l-1.2-25.3c2.5-0.6,4.3-2.8,4.3-5.4
	c0-2.8-2.1-5.2-4.9-5.6l-1.8-35.6C345,77.9,345.6,77.6,346.2,77.1z M339.7,77.6c0.8,0.5,1.6,0.7,2.6,0.8l1.8,35.5
	c-1.5,0.4-2.8,1.3-3.6,2.7l-28.6-6c0,0,0-0.1,0-0.1c0-1.2-0.4-2.3-1-3.2L339.7,77.6z M287.5,78l49.7-3.8c0.2,0.7,0.5,1.4,1,2
	l-28.8,29.5c-0.9-0.6-2-1-3.1-1c-0.9,0-1.7,0.2-2.5,0.6L286,81.2C286.8,80.4,287.4,79.3,287.5,78z M248,88.1l29-8.2
	c0.9,1.9,2.8,3.1,5,3.1c0.9,0,1.7-0.2,2.5-0.6l17.8,24.1c-0.3,0.3-0.6,0.7-0.8,1.1L247.9,89c0-0.2,0-0.4,0-0.6
	C248,88.3,248,88.2,248,88.1z M247.4,91l53.4,18.6c0,0.3-0.1,0.6-0.1,0.9c0,1.1,0.3,2.1,0.8,2.9l-41.3,36.8
	c-0.9-0.7-2.1-1.2-3.4-1.2c-0.1,0-0.1,0-0.2,0l-11.4-55.6C246.1,92.7,246.9,91.9,247.4,91z M241.1,93.9c0.4,0.1,0.9,0.2,1.3,0.2
	c0.3,0,0.6,0,0.9-0.1l11.4,55.4c-0.3,0.1-0.7,0.3-1,0.5l-22.1-23.2c0.7-0.9,1.1-2.1,1.1-3.3c0-1.9-1-3.6-2.5-4.6L241.1,93.9z
	 M227.6,129c0.9-0.1,1.7-0.4,2.5-0.9l22.1,23.2c-0.7,0.9-1,2-1,3.3c0,1.3,0.5,2.6,1.3,3.5l-25.6,36.3c-0.4-0.2-0.8-0.3-1.2-0.4
	L227.6,129z M225.6,128.8l-2,65.1c-1.2,0.2-2.3,0.7-3.1,1.6l-39.6-27.3c0.2-0.5,0.2-1,0.2-1.6c0-1-0.3-2-0.7-2.8l43-36.1
	C224.1,128.2,224.8,128.6,225.6,128.8z M194.8,92.7c0.9,1.9,2.8,3.3,5.1,3.3c1,0,1.9-0.3,2.7-0.7l20.1,24.5
	c-0.2,0.3-0.4,0.5-0.6,0.8L166.9,101c0-0.2,0-0.4,0-0.6c0-0.2,0-0.5,0-0.7L194.8,92.7z M166.4,102.9l55.1,19.5
	c0,0.3-0.1,0.6-0.1,0.9c0,1,0.3,2,0.7,2.8l-43,36.1c-0.8-0.7-1.9-1.2-3.1-1.3l-11.8-55.8C165.2,104.7,165.9,103.9,166.4,102.9z
	 M149.1,134.6c3-0.2,5.3-2.6,5.3-5.6c0-1.9-1-3.6-2.5-4.6l8.1-18.5c0.4,0.1,0.9,0.2,1.3,0.2c0.3,0,0.7,0,1-0.1l11.6,55.3
	c-2.4,0.7-4.1,2.8-4.1,5.4c0,2.3,1.4,4.3,3.5,5.2l-0.9,5.2c-1,0-1.9,0.3-2.7,0.7l-19.4-23.5c0.8-1,1.3-2.2,1.3-3.6
	c0-2.5-1.6-4.6-3.9-5.3L149.1,134.6z M114.6,160.1c0-0.3,0-0.6-0.1-0.9l26.4-6.3c0.9,2,2.8,3.3,5.1,3.3c1,0,1.9-0.3,2.7-0.7
	l19.4,23.5c-0.8,1-1.3,2.2-1.3,3.6c0,1,0.3,2,0.7,2.8L124,222.1c-0.9-0.7-2-1.1-3.3-1.1c0,0,0,0,0,0l-10.1-55.5
	C113,164.8,114.6,162.6,114.6,160.1z M108.7,165.7l10.1,55.7c-0.4,0.1-0.7,0.3-1,0.5l-20.8-22.7c1.2-1,2-2.6,2-4.3
	c0-1.9-1-3.6-2.5-4.6l10.9-24.8C107.7,165.6,108.2,165.7,108.7,165.7z M70.6,163.3l33-2c0.3,1.3,1,2.4,2,3.2l-10.9,25
	c-0.4-0.1-0.8-0.2-1.3-0.2c-1.2,0-2.4,0.4-3.3,1.1l-21.1-23.7C69.8,165.8,70.4,164.6,70.6,163.3z M33.6,171.6l26.1-7.3
	c0.7,2.2,2.8,3.9,5.3,3.9c0.8,0,1.5-0.2,2.2-0.4l21.4,24.1c-0.2,0.3-0.3,0.6-0.5,0.9L33.5,173c0.1-0.3,0.1-0.6,0.1-0.9
	C33.6,171.9,33.6,171.8,33.6,171.6z M32.9,174.9l54.8,19.7c0,0.1,0,0.2,0,0.2c0,1,0.3,2,0.7,2.8l-44.9,37.6c-1-0.8-2.2-1.3-3.5-1.3
	l-10-56.6C31.2,176.9,32.2,176,32.9,174.9z M15.4,203l11.3-25.4c0.4,0.1,0.8,0.2,1.3,0.2l10,56.6c-2.1,0.8-3.7,2.8-3.7,5.2
	c0,2.8,2,5.1,4.6,5.5l-3.6,65l-21-97.3c2-0.8,3.5-2.8,3.5-5.2C17.9,205.7,16.9,204,15.4,203z"/>
</svg>
