<?xml version="1.0" encoding="utf-8"?>
<!-- Generator: Adobe Illustrator 21.0.0, SVG Export Plug-In . SVG Version: 6.00 Build 0)  -->
<!DOCTYPE svg PUBLIC "-//W3C//DTD SVG 1.1//EN" "http://www.w3.org/Graphics/SVG/1.1/DTD/svg11.dtd">
<svg version="1.1" id="Layer_1" xmlns="http://www.w3.org/2000/svg" xmlns:xlink="http://www.w3.org/1999/xlink" x="0px" y="0px"
	 viewBox="0 0 493 644" style="enable-background:new 0 0 493 644;" xml:space="preserve">
<style type="text/css">
	.st0{fill:#FFFFFF;}
</style>
<path class="st0" d="M493,626.3l-24.3-1.1c-0.2-1.1-0.6-2.1-1.3-3l20.3-25.7c0.8,0.4,1.7,0.7,2.6,0.7c0.8,0,1.5-0.2,2.2-0.5l0.5,0.7
	v-10.7c-0.4-0.2-0.9-0.4-1.4-0.6l1.4-29.6V512c-0.7,0.1-1.4,0.4-2,0.7L469.2,488c0.8-1,1.2-2.2,1.2-3.5c0-0.9-0.2-1.8-0.6-2.6
	l23.3-19.1v-2.6l-24.5,20.1c-0.5-0.5-1.1-0.8-1.8-1.1l2.3-66.4c1.6-0.1,3.1-0.8,4.1-2l19.9,13.5v-2.4L474.1,409
	c0.2-0.6,0.3-1.2,0.3-1.8c0-2.9-2.2-5.3-5.1-5.6l-6.7-42.8c0.3-0.1,0.6-0.3,0.9-0.4l19.9,23.6c-0.8,1-1.3,2.2-1.3,3.5
	c0,3.1,2.5,5.6,5.6,5.6c0.7,0,1.3-0.1,1.9-0.3l3.4,6.1v-4.2l-1.6-3c0.7-0.6,1.3-1.4,1.6-2.3v-4c-0.2-0.5-0.5-1-0.8-1.4l0.8-0.8v-2.9
	l-2.3,2.4c-0.7-0.4-1.4-0.7-2.2-0.8l4.5-34.6v-15.6l-6.5,50.3c-0.6,0.1-1.1,0.3-1.6,0.6l-19.9-23.6c0.8-1,1.3-2.2,1.3-3.6
	c0-1-0.3-2-0.8-2.8l1.9-3.1l25.4-27.9c0,0,0,0,0,0v-9.5c-1.6,1-2.7,2.8-2.7,4.8c0,1.3,0.4,2.5,1.2,3.4l-18.3,20l19.8-32v-3.8
	l-27.1,43.9l-2.2,2.4c-0.9-0.5-1.9-0.9-3-0.9c-1.7,0-3.2,0.7-4.2,1.9l-24.8-17.9c0.3-0.7,0.6-1.5,0.6-2.4c0-1.1-0.3-2.2-0.9-3
	l61.5-38.6v-2.4L430.1,325c-0.4-0.3-0.9-0.6-1.4-0.8l13.3-83.1c1.8,0,3.5-1,4.5-2.4l46.6,27.4v-2.3l-45.8-26.9
	c0.1-0.2,0.1-0.5,0.1-0.7l33.1-2c0.7,2.3,2.8,4,5.4,4c0.3,0,0.5,0,0.8-0.1l6.4,11.7v-4.2l-4.5-8.2c1.7-1,2.9-2.8,2.9-4.9
	c0-0.3,0-0.6-0.1-0.9l1.7-0.4v-2l-2.4,0.5c-1-1.7-2.8-2.8-4.8-2.8c-3,0-5.4,2.3-5.6,5.2l-33,2c-0.3-1.1-0.8-2-1.6-2.7l11.6-26.5
	c0.5,0.2,1,0.2,1.6,0.2c2.3,0,4.2-1.3,5.1-3.3l29.1,11.9v-2.2l-28.6-11.7c0-0.1,0-0.3,0-0.4c0-1.2-0.4-2.3-1-3.2l29.6-23.8v-2.6
	l-31.1,24.9c-0.7-0.5-1.6-0.8-2.6-0.9l3.1-65.9c1.2-0.2,2.3-0.7,3.2-1.5l27.3,18.1v-2.4l-26.2-17.3c0.3-0.7,0.5-1.5,0.5-2.4
	c0,0,0-0.1,0-0.1L493,116v-5.6l-53.8-22.2c-0.2-0.7-0.5-1.4-0.9-1.9l45.3-36.3c0.9,0.7,2.1,1.2,3.4,1.2c0.1,0,0.2,0,0.3,0l5.6,35.6
	V73.8l-3.7-23.2c0.3-0.2,0.7-0.3,0.9-0.5L493,53v-3l-1.3-1.4c0.6-0.9,1-2,1-3.1c0-3.1-2.5-5.6-5.6-5.6c-1.6,0-3,0.6-4,1.7L443,14.3
	c0.3-0.7,0.5-1.5,0.5-2.3c0-3.1-2.5-5.6-5.6-5.6c-3.1,0-5.6,2.5-5.6,5.6c0,0.9,0.2,1.7,0.6,2.5L371.2,61c-0.9-0.7-2.1-1.1-3.4-1.1
	c-3.1,0-5.6,2.5-5.6,5.6c0,1.6,0.7,3.1,1.8,4.1l-43,66.7c-0.7-0.3-1.4-0.4-2.1-0.4c-3.1,0-5.6,2.5-5.6,5.6s2.5,5.6,5.6,5.6
	c1,0,1.9-0.3,2.7-0.7l20,24.5c-0.8,1-1.3,2.2-1.3,3.6c0,3.1,2.5,5.6,5.6,5.6c1,0,2-0.3,2.8-0.7l24.9,29.6c-0.8,1-1.3,2.2-1.3,3.6
	c0,2.3,1.4,4.4,3.5,5.2l-7.4,35.2c0,0-0.1,0-0.1,0c-1,0-2,0.3-2.8,0.8L344.1,229c0.8-1,1.3-2.2,1.3-3.5c0-3.1-2.5-5.6-5.6-5.6
	c-3.1,0-5.6,2.5-5.6,5.6c0,0.4,0.1,0.8,0.1,1.2l-73,30.9c-1-1.5-2.7-2.5-4.7-2.5c-3.1,0-5.6,2.5-5.6,5.6c0,1.1,0.3,2.2,0.9,3
	l-56.4,53c-2-1.2-4.6-1.1-6.5,0.6c-2.3,2-2.6,5.6-0.6,7.9c1.5,1.7,3.8,2.3,5.8,1.7l19.3,44.1c-1.4,0.9-2.3,2.4-2.5,4.2l-16.8,4.1
	c-0.9-2-2.8-3.3-5.1-3.3c-1,0-2,0.3-2.9,0.8l-20.3-23.3c0.8-1,1.2-2.2,1.2-3.5c0-3.1-2.5-5.6-5.6-5.6s-5.6,2.5-5.6,5.6
	c0,0.4,0,0.7,0.1,1.1l-73.9,29.3c-1-1.5-2.7-2.4-4.6-2.4c-3.1,0-5.6,2.5-5.6,5.6c0,1.2,0.4,2.2,1,3.1L18,439.9
	c-0.9-0.7-2-1.1-3.3-1.1c-3.1,0-5.6,2.5-5.6,5.6s2.5,5.6,5.6,5.6c0.4,0,0.8-0.1,1.2-0.1l18.7,43.6c-1.5,1-2.5,2.7-2.5,4.7
	c0,3.1,2.5,5.6,5.6,5.6c1.1,0,2.1-0.3,3-0.8l19.8,24.8c-0.9,1-1.4,2.3-1.4,3.7c0,3.1,2.5,5.6,5.6,5.6c2,0,3.7-1,4.7-2.5l91.1,39.1
	c-0.1,0.4-0.1,0.8-0.1,1.3c0,3.1,2.5,5.6,5.6,5.6c2.4,0,4.4-1.5,5.2-3.6l41.4,7.8c0,0,0,0,0,0c0,3.1,2.5,5.6,5.6,5.6
	s5.6-2.5,5.6-5.6c0-0.3,0-0.7-0.1-1l29.8-8.4c0.9,1.9,2.8,3.1,5,3.1c1,0,1.9-0.3,2.8-0.7l21.1,25.3c-0.7,0.9-1.1,2-1.1,3.3
	c0,3.1,2.5,5.6,5.6,5.6c1.3,0,2.5-0.5,3.5-1.2l25.3,20.1c-0.4,0.8-0.7,1.7-0.7,2.6c0,3.1,2.5,5.6,5.6,5.6s5.6-2.5,5.6-5.6
	c0-0.6-0.1-1.2-0.3-1.7l37.8-19.9c1,1.3,2.6,2.1,4.4,2.1c2.8,0,5.2-2.1,5.6-4.9l30.6-1.5c0.6,2.5,2.8,4.3,5.5,4.3
	c2.1,0,3.8-1.1,4.8-2.8l43,15.8c-0.1,0.3-0.1,0.6-0.1,1c0,3.1,2.5,5.6,5.6,5.6c2.7,0,4.9-1.9,5.5-4.4l24.4,1.1V626.3z M491.5,522.6
	c0.4,0.2,0.7,0.3,1.1,0.4l-3,63.1c-0.8,0.1-1.6,0.4-2.3,0.8l-20.6-22c0.6-0.9,1-2,1-3.1c0-1.4-0.5-2.7-1.4-3.7L491.5,522.6z
	 M467.7,489.3l21.8,24.7c-0.8,1-1.2,2.2-1.2,3.5c0,1.5,0.6,2.9,1.6,3.9l-25.2,35.4c-0.8-0.4-1.7-0.6-2.6-0.6c-0.1,0-0.3,0-0.4,0
	l-10.2-31.8c1.8-0.9,3-2.8,3-4.9c0-1.9-1-3.6-2.4-4.6l11.4-25c0.4,0.1,0.9,0.2,1.4,0.2C465.8,490.1,466.8,489.8,467.7,489.3z
	 M456.4,562l-28.1,6.1c-0.5-2-2-3.7-4.1-4.2c-0.6-0.1-1.2-0.2-1.7-0.2l-7.4-29.2c1.9-0.9,3.3-2.8,3.3-5.1c0-0.3,0-0.6-0.1-0.9
	l25.8-6c1,1.5,2.7,2.5,4.7,2.5c0.2,0,0.5,0,0.7-0.1l10.2,31.7c-1.9,0.9-3.2,2.8-3.2,5.1C456.4,561.9,456.4,561.9,456.4,562z
	 M294.8,526.7l49.7-70.5c0.5,0.2,1,0.4,1.6,0.5l2.6,72.8c-2.5,0.5-4.4,2.8-4.4,5.5c0,2.1,1.1,3.9,2.8,4.9l-6.4,18
	c-0.3,0-0.6-0.1-0.9-0.1c-1.6,0-3.1,0.7-4.1,1.8l-40.1-26c0.5-0.9,0.8-1.8,0.8-2.9C296.4,529.1,295.8,527.7,294.8,526.7z M235,481.7
	l11.6-24.1c0.7,0.3,1.4,0.5,2.2,0.5c0.2,0,0.4,0,0.6,0l37.7,68.1l-49.9-38.4c0.1-0.5,0.2-0.9,0.2-1.4
	C237.4,484.4,236.4,482.7,235,481.7z M146.1,538.7l45.1-36.9c0.8,0.7,1.8,1.2,3,1.3l9,56.5c-1.2,0.4-2.3,1.3-2.9,2.4l-53.6-20.5
	c0-0.1,0-0.3,0-0.4C146.6,540.2,146.5,539.4,146.1,538.7z M105.3,517.2l11.3-23.9c0.5,0.1,0.9,0.2,1.4,0.2c0.4,0,0.8,0,1.1-0.1
	l18.6,43.2c-0.7,0.5-1.2,1.1-1.6,1.8l-29.3-14.4c0.3-0.7,0.5-1.5,0.5-2.3C107.4,519.7,106.6,518.2,105.3,517.2z M42.5,495.2
	l44.7-37.4c0.8,0.7,1.8,1.1,2.9,1.3l9.6,57.2c-1.4,0.6-2.5,1.7-3.1,3.1l-53.2-20.6c0-0.2,0-0.4,0-0.5
	C43.4,497.1,43.1,496.1,42.5,495.2z M179,431.4l-9.4,26.7c-0.3,0-0.6-0.1-0.9-0.1c-1.8,0-3.5,0.9-4.5,2.3l-31.1-15.4
	c0.1-0.5,0.2-1,0.2-1.5c0-1.8-0.9-3.4-2.2-4.5l12.2-23.9c0.4,0.1,0.9,0.2,1.4,0.2c2.1,0,4-1.2,4.9-2.9l26.7,12.8
	c-0.1,0.5-0.2,1-0.2,1.5C176.2,428.6,177.3,430.4,179,431.4z M358.7,308.7l-10,26.3c-0.6-0.2-1.2-0.3-1.9-0.3
	c-1.8,0-3.4,0.8-4.4,2.2l-30-15.8c0-0.2,0-0.3,0-0.5c0-1.9-0.9-3.5-2.4-4.6l11.3-24c0.5,0.1,0.9,0.2,1.4,0.2c1.9,0,3.6-1,4.6-2.4
	l27.9,12.6c-0.1,0.4-0.2,0.8-0.2,1.3C355.2,305.8,356.6,307.8,358.7,308.7z M430.4,93.9L419.1,120c-0.4-0.1-0.8-0.2-1.3-0.2
	c0,0,0,0,0,0l-10.3-56.1c0.5-0.2,1-0.4,1.5-0.7L429.4,86c-0.7,1-1.2,2.1-1.2,3.4C428.2,91.3,429,92.9,430.4,93.9z M415.8,120.3
	c-1.2,0.4-2.2,1.3-2.8,2.3l-53.6-20.6c-0.1-0.8-0.3-1.6-0.7-2.3l43.2-37.2c0.9,0.9,2.2,1.5,3.6,1.6L415.8,120.3z M359.2,104
	l53.1,20.4c-0.1,0.3-0.1,0.7-0.1,1c0,0.2,0,0.3,0,0.5l-26.4,7.1c-0.4-0.7-0.9-1.4-1.5-2c-1.8-1.5-4.3-1.6-6.3-0.5l-20.2-24.2
	C358.4,105.8,358.9,104.9,359.2,104z M385.2,139c0.9-1.2,1.3-2.6,1.2-4l26.4-7.1c0.9,1.9,2.8,3.2,5.1,3.2c0.2,0,0.4,0,0.6,0l10,33
	c-1.4,0.7-2.4,2-2.8,3.5l-28.6,4.5c-0.8-1.7-2.5-3-4.5-3.2l-9.1-28.5C384.1,140.1,384.7,139.6,385.2,139z M420.3,130.5
	c1.6-0.8,2.8-2.4,3-4.3l33.1-2.1c0.3,1,0.9,1.9,1.6,2.6l-24.8,37.2c-0.7-0.3-1.4-0.5-2.2-0.5c-0.2,0-0.4,0-0.6,0L420.3,130.5z
	 M391.9,180.1c3.1,0,5.6-2.5,5.6-5.6c0-0.1,0-0.3,0-0.4l28-4.4c0.1,0.8,0.3,1.5,0.7,2.1l-44.7,36.5c-0.2-0.2-0.5-0.4-0.8-0.6
	l10.3-27.7C391.3,180.1,391.6,180.1,391.9,180.1z M436.2,235.9l-26.6,6.7c-1-1.6-2.8-2.7-4.8-2.7c-0.9,0-1.7,0.2-2.4,0.6l-20.3-24.4
	c0.3-0.4,0.6-0.9,0.9-1.4l53.3,19.8c-0.1,0.3-0.1,0.6-0.1,1C436.2,235.6,436.2,235.7,436.2,235.9z M461.6,489.1l-11.4,25
	c-0.4-0.1-0.9-0.2-1.3-0.2l-9.6-56.2c0.2-0.1,0.5-0.3,0.7-0.4l20.9,23.2c-1.1,1-1.7,2.4-1.7,4C459.2,486.4,460.1,488.1,461.6,489.1z
	 M443.3,520.7l-25.7,6c-1-1.7-2.8-2.8-4.8-2.8c-0.8,0-1.5,0.2-2.1,0.4l-21.4-23.5c0.2-0.2,0.3-0.4,0.5-0.7l53.5,18.7
	c0,0.2,0,0.5,0,0.7C443.2,519.9,443.2,520.3,443.3,520.7z M390.3,498.2c0-0.3,0.1-0.6,0.1-0.9c0-1.3-0.5-2.5-1.2-3.5l44-36.8
	c1,0.8,2.2,1.3,3.5,1.3c0.2,0,0.4,0,0.6,0l9.6,56c-1.3,0.5-2.4,1.4-3,2.7L390.3,498.2z M226.3,418.6l12.8-6.4c0.9,1,2,1.6,3.4,1.8
	l4.1,33.3c-0.2,0.1-0.4,0.2-0.6,0.3L225.1,423c0.8-1,1.3-2.2,1.3-3.5C226.4,419.2,226.4,418.9,226.3,418.6z M244.5,414
	c1.9-0.4,3.5-1.8,4.1-3.6l66.6,8.2c0,0.4,0.1,0.8,0.2,1.2l-62,29.6c-1-1.5-2.7-2.4-4.6-2.4c-0.1,0-0.2,0-0.2,0L244.5,414z
	 M274.3,330.3l27.4-7.4c0.6,1.2,1.6,2.2,2.9,2.8l-7.3,33.2c-0.1,0-0.1,0-0.2,0c-1,0-2,0.3-2.8,0.8l-21.3-25c0.9-1,1.5-2.3,1.5-3.8
	C274.4,330.7,274.4,330.5,274.3,330.3z M405.2,364l-27.4,7.9c-0.9-1.8-2.8-3.1-5-3.1c-0.9,0-1.8,0.2-2.5,0.6L350.9,344
	c0.3-0.3,0.5-0.6,0.7-1l53.6,19.5c-0.1,0.3-0.1,0.6-0.1,0.9C405.2,363.7,405.2,363.9,405.2,364z M397.5,412.2l-11.3,23.9
	c-0.5-0.1-0.9-0.2-1.5-0.2c0,0,0,0-0.1,0l-10.8-56c0.4-0.1,0.7-0.2,1-0.3l21.4,24.6c-0.8,1-1.2,2.2-1.2,3.5
	C395.2,409.5,396.1,411.2,397.5,412.2z M325.5,415.2l43.6-36.6c0.8,0.7,1.8,1.1,2.8,1.3l10.8,56.4c-1.2,0.5-2.2,1.3-2.8,2.4
	L326.3,419c0-0.2,0.1-0.5,0.1-0.7C326.4,417.1,326.1,416.1,325.5,415.2z M284.1,394l11.5-24.1c0.5,0.1,1,0.2,1.5,0.2
	c0.5,0,0.9-0.1,1.3-0.2l19.3,43.7c-0.3,0.2-0.6,0.5-0.9,0.8l-30.5-14.4c0.1-0.5,0.2-0.9,0.2-1.4C286.4,396.6,285.5,395,284.1,394z
	 M300.2,369.1c1.2-0.8,2-2.1,2.3-3.5l64.6,9c0,0.9,0.3,1.7,0.7,2.4l-43.7,36.7c-0.9-0.7-2.1-1.1-3.4-1.1c-0.5,0-0.9,0.1-1.3,0.2
	L300.2,369.1z M384.8,447.1c3.1,0,5.6-2.5,5.6-5.6c0-1.9-0.9-3.5-2.3-4.6l11.3-23.9c0.1,0,0.2,0.1,0.3,0.1l-0.9,41
	c-2.4,0-4.5,1.6-5.3,3.8l-40.8-6.8l27-7.3C380.6,445.8,382.5,447.1,384.8,447.1z M368.6,370.6c-0.5,0.6-0.9,1.3-1.2,2l-64.9-9
	c-0.1-0.3-0.1-0.7-0.3-1l39.9-19.1c1,1.4,2.7,2.3,4.5,2.3c0.9,0,1.8-0.2,2.5-0.6L368.6,370.6z M341.4,341.7l-40,19.2
	c-0.6-0.7-1.3-1.2-2.1-1.6l7.3-33.2c0.1,0,0.1,0,0.2,0c2.2,0,4.1-1.3,5-3.1l29.6,15.6c-0.2,0.5-0.3,1.1-0.3,1.7
	C341.2,340.7,341.3,341.2,341.4,341.7z M292.7,360.9c-0.8,1-1.3,2.2-1.3,3.5c0,1.9,0.9,3.5,2.3,4.5l-11.5,24.1
	c-0.5-0.1-1-0.2-1.5-0.2c0,0-0.1,0-0.1,0l-11.3-56.4c0.7-0.1,1.3-0.3,1.9-0.6L292.7,360.9z M280.8,404.1c1.9,0,3.5-0.9,4.6-2.3
	l30.3,14.3c-0.1,0.2-0.1,0.3-0.2,0.5l-66.4-8.2l26.7-7.5C276.7,402.8,278.6,404.1,280.8,404.1z M341.2,450.3l-86.9,2.5
	c0-0.1,0-0.2,0-0.3c0-0.5-0.1-0.9-0.2-1.3l62-29.7c1,1.4,2.7,2.3,4.5,2.3c1.1,0,2.1-0.3,2.9-0.8l18.6,24.8
	C341.8,448.5,341.4,449.4,341.2,450.3z M342,454.1l-37.7,35.6c-0.9-0.7-2.1-1.1-3.3-1.1c-1.4,0-2.7,0.5-3.6,1.4L254,454.8l87.3-2.5
	C341.4,453,341.7,453.6,342,454.1z M325.2,421.6c0.2-0.2,0.4-0.5,0.5-0.8l53.5,19.7c-0.1,0.3-0.1,0.6-0.1,1c0,0.2,0,0.3,0,0.5
	l-27.2,7.3c-0.8-2.2-2.8-3.7-5.3-3.7c-1.1,0-2.1,0.3-3,0.9L325.2,421.6z M352,453l41.1,6.9c0,1.5,0.7,2.8,1.7,3.8l-42.9,66.1
	c-0.4-0.2-0.9-0.3-1.4-0.4l-2.6-72.8C349.9,456.2,351.4,454.8,352,453z M397.6,465.2c0.4,0.1,0.8,0.1,1.2,0.1c3.1,0,5.6-2.5,5.6-5.6
	c0-0.1,0-0.2,0-0.3l27-5.1c0.1,0.4,0.3,0.8,0.5,1.2l-44.2,37c-0.2-0.1-0.5-0.3-0.8-0.4L397.6,465.2z M439.5,447.8
	c-0.8-0.5-1.8-0.7-2.8-0.7c-3,0-5.4,2.3-5.6,5.2l-27.3,5.2c-0.1-0.2-0.2-0.4-0.3-0.6l60.9-45.3L439.5,447.8z M402.3,455.4
	c-0.5-0.4-1-0.7-1.6-0.9l0.9-41.3c2.4-0.4,4.2-2.2,4.6-4.6l57-0.4c0.1,0.5,0.3,1,0.5,1.4L402.3,455.4z M401.1,402.1
	c-0.1,0-0.2,0-0.3,0c-1,0-2,0.3-2.9,0.8l-21.3-24.4c1.1-1,1.7-2.4,1.7-4c0-0.2,0-0.4,0-0.6l27.4-7.9c0.7,1.3,1.9,2.4,3.3,2.9
	L401.1,402.1z M423.5,334l-11.3,24c-0.4-0.1-0.9-0.2-1.4-0.2l-9.8-56.1c0.4-0.1,0.7-0.3,1-0.4l20.4,24.5c-0.8,1-1.3,2.2-1.3,3.6
	C421.2,331.4,422.1,333,423.5,334z M403.6,300.1c0.8-1,1.3-2.2,1.3-3.6c0-2.1-1.2-4-3-4.9l3.7-38.9l18.8,71.8
	c-0.1,0.1-0.3,0.1-0.4,0.2L403.6,300.1z M400.7,241.6c-1,1-1.6,2.4-1.6,3.9c0,2.7,2,5,4.6,5.5l-3.8,39.9c-0.1,0-0.2,0-0.4,0
	L378.9,218c0.6-0.1,1.1-0.3,1.6-0.6L400.7,241.6z M408.8,358.2c-1.2,0.5-2.3,1.3-2.9,2.4l-53.6-19.5c0.1-0.3,0.1-0.6,0.1-0.9
	c0-1-0.3-1.9-0.7-2.8l44-36.7c0.9,0.8,2.1,1.2,3.4,1.3L408.8,358.2z M350.5,335.9l10.2-26.8c0,0,0.1,0,0.1,0c2.9,0,5.3-2.2,5.6-5.1
	l27.7-5.4c0.1,0.2,0.2,0.5,0.3,0.7L350.5,335.9z M326.9,282.7c-1-1.1-2.5-1.9-4.2-1.9c-1,0-1.9,0.3-2.7,0.7L300,257.1
	c0.5-0.6,0.9-1.4,1.2-2.2l61.4,4.2c0.1,0.5,0.2,1,0.4,1.4L326.9,282.7z M318.5,282.9c-0.8,1-1.3,2.2-1.3,3.6c0,1.9,0.9,3.5,2.4,4.6
	l-11.3,24c-0.4-0.1-0.9-0.2-1.3-0.2l-9.2-56.1c0.3-0.1,0.6-0.2,0.8-0.4L318.5,282.9z M304.9,315.2c-1.2,0.4-2.3,1.3-2.9,2.4
	L248.3,298c0.1-1,0-2-0.4-2.9l44.3-37.3c0.9,0.8,2.1,1.2,3.4,1.3L304.9,315.2z M301.3,319.5c-0.1,0.3-0.1,0.6-0.1,1
	c0,0.2,0,0.3,0,0.5l-27.4,7.4c-0.9-1.8-2.8-3.1-5-3.1c-1,0-2,0.3-2.8,0.8l-19.1-24.9c0.3-0.4,0.6-0.8,0.8-1.2L301.3,319.5z
	 M264.5,327.4c-0.4,0.5-0.7,1-0.9,1.6l-65.3-8.8c0-0.1,0-0.1,0-0.2l40.1-19.3c0.6,0.8,1.3,1.4,2.3,1.8c1.6,0.7,3.4,0.6,4.8-0.1
	L264.5,327.4z M265.2,335.2c0.6,0.5,1.3,0.9,2.1,1.1l11.4,56.9c-1.2,0.5-2.1,1.3-2.8,2.4l-53.6-19.7c0-0.1,0-0.2,0-0.4
	c0-1.3-0.4-2.5-1.2-3.4L265.2,335.2z M221.9,377.9l53.4,19.6c-0.1,0.3-0.1,0.6-0.1,1c0,0.2,0,0.3,0,0.5l-26.7,7.5
	c-0.8-2.1-2.8-3.6-5.2-3.6c-1.1,0-2.1,0.3-3,0.8l-19.2-24.6C221.4,378.8,221.7,378.3,221.9,377.9z M238.8,405.1
	c-0.7,0.9-1.2,2.1-1.2,3.4c0,0.7,0.1,1.4,0.4,2l-12.4,6.2c-0.9-1.5-2.5-2.6-4.3-2.8l-3.6-32.8c0.6-0.1,1.3-0.3,1.8-0.7L238.8,405.1z
	 M221,425.1l9,56c-0.7,0.2-1.3,0.6-1.9,1.1l-53.7-18.7c0-1.2-0.4-2.3-1-3.2l44.1-36.4c0.9,0.7,2.1,1.1,3.4,1.1
	C220.8,425.1,220.9,425.1,221,425.1z M96.2,452l27.1-5.3c0.5,0.7,1.1,1.2,1.8,1.6l-7,34c0,0,0,0,0,0c-1,0-1.9,0.3-2.7,0.7
	l-20.8-25.3c1.1-1,1.8-2.5,1.8-4.1C96.4,453,96.3,452.4,96.2,452z M127,448.8c0.3,0,0.5,0.1,0.8,0.1c1.8,0,3.5-0.9,4.5-2.3
	l31.1,15.4c-0.1,0.5-0.2,1-0.2,1.5c0,0.4,0,0.7,0.1,1.1l-41,19.6c-0.6-0.7-1.4-1.3-2.3-1.6L127,448.8z M164,466.5
	c1,1.6,2.8,2.7,4.8,2.7c1.2,0,2.4-0.4,3.3-1.1l18.7,25.5c-0.6,0.6-1,1.3-1.3,2.2l-65.9-8.3c0-0.5-0.1-1.1-0.3-1.6L164,466.5z
	 M173.5,466.6c0.2-0.3,0.4-0.7,0.6-1.1l52.7,18.3c-0.3,0.7-0.5,1.5-0.6,2.3l-26.4,8.7c-0.9-1.7-2.8-2.9-4.9-2.9
	c-0.9,0-1.7,0.2-2.5,0.6L173.5,466.6z M171.9,458.9c-0.1-0.1-0.2-0.1-0.4-0.2l9.4-26.7c0.3,0,0.6,0.1,0.9,0.1c3.1,0,5.5-2.5,5.6-5.5
	l28.4-4.6c0.1,0.2,0.2,0.4,0.3,0.5L171.9,458.9z M148.9,405.7c-1-1.1-2.5-1.8-4.1-1.8c-0.9,0-1.7,0.2-2.5,0.6l-21.6-24
	c0.8-0.8,1.4-1.8,1.6-3l61.4,4.6c0.1,0.5,0.2,1,0.4,1.5L148.9,405.7z M140.7,405.7c-0.9,1-1.5,2.3-1.5,3.8c0,1.9,0.9,3.6,2.4,4.6
	l-12.2,23.8c-0.5-0.2-1-0.2-1.6-0.2l-10-55.7c0.4-0.1,0.9-0.2,1.3-0.4L140.7,405.7z M125.8,438c-1.2,0.5-2.2,1.3-2.9,2.4l-52.6-19.1
	c0.1-0.3,0.1-0.6,0.1-0.9c0-1-0.3-2-0.8-2.8l43.2-37.3c0.8,0.8,1.8,1.4,3,1.6L125.8,438z M69.6,423.3l52.6,19.1
	c-0.1,0.3-0.1,0.6-0.1,0.9c0,0.5,0.1,1,0.2,1.5l-27.1,5.4c-1-1.3-2.6-2.2-4.5-2.2c-0.9,0-1.8,0.2-2.6,0.7L69,424.2
	C69.2,423.9,69.4,423.6,69.6,423.3z M86.6,449.8c-0.6,0.7-1.1,1.6-1.3,2.6l-64.9-8.2c0-0.4-0.1-0.8-0.2-1.2l40.1-19.2
	c1,1.4,2.7,2.3,4.5,2.3c0.9,0,1.8-0.2,2.6-0.7L86.6,449.8z M92.1,458.9c0.3-0.1,0.5-0.1,0.7-0.2l20.9,25.5c-0.8,1-1.3,2.2-1.3,3.6
	c0,1.9,0.9,3.5,2.4,4.6l-11.2,23.8c-0.6-0.2-1.2-0.3-1.8-0.3c0,0-0.1,0-0.1,0L92.1,458.9z M121,492.5c1.1-0.7,2-1.8,2.4-3.1
	l65.9,8.3c0,0.9,0.3,1.7,0.7,2.4L145,537c-1-1-2.4-1.6-4-1.6c-0.5,0-1,0.1-1.5,0.2L121,492.5z M196.2,502.9c0.5-0.1,1-0.3,1.4-0.5
	l19.9,24.2c-0.8,1-1.3,2.2-1.3,3.6c0,1.9,0.9,3.5,2.3,4.5l-12,24.7c-0.4-0.1-0.9-0.2-1.4-0.2L196.2,502.9z M199.2,501.1
	c0.8-1,1.3-2.2,1.3-3.6c0-0.3,0-0.5-0.1-0.8l26-8.6c0.6,1.8,2.1,3.2,3.9,3.6l-8.3,32.8c-0.1,0-0.2,0-0.4,0c-1,0-1.9,0.3-2.7,0.7
	L199.2,501.1z M222.9,424.7c0.2-0.1,0.5-0.2,0.7-0.3l20.9,24.6c-0.8,1-1.3,2.2-1.3,3.6c0,1.6,0.6,3,1.7,4l-11.7,24.4
	c-0.4-0.1-0.8-0.2-1.3-0.2L222.9,424.7z M251.4,457.5c0.5-0.3,1-0.6,1.4-1.1l43.3,35.1c-0.4,0.8-0.7,1.7-0.7,2.7
	c0,2.2,1.3,4.1,3.2,5l-7.1,25.9c-0.2,0-0.5,0-0.7,0c-0.6,0-1.3,0.1-1.8,0.3L251.4,457.5z M300.5,499.8c0.2,0,0.3,0,0.5,0
	c3.1,0,5.6-2.5,5.6-5.6c0-1.1-0.3-2.2-0.9-3.1l34.8-32.8l-46.9,66.5L300.5,499.8z M348.9,540.5c0.3,0,0.6,0.1,0.9,0.1
	c1,0,1.9-0.2,2.6-0.7l19.9,25.1c-0.4,0.5-0.7,1-0.9,1.6l-26.2-3.5c-0.1-2-1.2-3.7-2.8-4.6L348.9,540.5z M354,538.7
	c0.9-1,1.4-2.3,1.4-3.7c0-1.6-0.7-3.1-1.8-4.1l40.5-62.4l-9.2,23.2c0,0-0.1,0-0.1,0c-3.1,0-5.6,2.5-5.6,5.6c0,2.2,1.3,4.1,3.1,5
	l-6.4,60.6c-0.8,0.1-1.5,0.4-2.1,0.8L354,538.7z M384.3,502.9c0.2,0,0.3,0,0.5,0c1.1,0,2.1-0.3,2.9-0.8l21.2,23.3
	c-1.1,1-1.8,2.5-1.8,4.1c0,1.3,0.4,2.5,1.2,3.4l-28.3,31c-0.6-0.4-1.3-0.8-2.1-0.9L384.3,502.9z M409.8,534.2c0.9,0.5,1.9,0.9,3,0.9
	c0.1,0,0.3,0,0.4,0l7.4,29.2c-1.5,0.7-2.7,2-3.1,3.7c0,0.1,0,0.2-0.1,0.3l-35.1-0.7c-0.1-0.8-0.4-1.6-0.9-2.2L409.8,534.2z
	 M464.7,478.9c-0.7,0-1.5,0.2-2.1,0.4l-21.2-23.5c0.6-0.9,1-2,1-3.2c0-1.4-0.5-2.6-1.3-3.6l25.4-36.8c0.2,0.1,0.3,0.1,0.5,0.2
	L464.7,478.9z M430.7,333.5l24.9,18c-0.2,0.6-0.4,1.3-0.4,2c0,3,2.4,5.5,5.5,5.6l6.5,41.9l-37.8-66.5
	C429.9,334.2,430.3,333.9,430.7,333.5z M465.7,402.5c-1.3,0.8-2.2,2.2-2.5,3.7l-57,0.4c-0.3-1.8-1.6-3.4-3.2-4.1l8-33.5
	c3-0.1,5.3-2.6,5.3-5.6c0-1.9-0.9-3.5-2.4-4.6l11.3-24c0.5,0.1,0.9,0.2,1.4,0.2c0.2,0,0.5,0,0.7,0L465.7,402.5z M426.7,323.9
	c-0.1,0-0.2,0-0.3,0l-19.2-73.3c1.9-0.9,3.2-2.8,3.2-5.1c0-0.4,0-0.7-0.1-1l26.4-6.7c0.6,1.4,1.8,2.5,3.2,3L426.7,323.9z M437,232.6
	l-53.6-19.9c0-0.1,0-0.2,0-0.2c0-1-0.3-1.9-0.7-2.7l44.7-36.5c1,0.8,2.2,1.3,3.6,1.3l9.8,55.4C439.2,230.3,437.8,231.3,437,232.6z
	 M443.9,230.3c-0.3-0.1-0.7-0.2-1.1-0.3l-9.8-55.7c0.3-0.1,0.7-0.3,1-0.5l20.7,22c-0.9,1-1.5,2.3-1.5,3.8c0,1.8,0.9,3.4,2.2,4.5
	L443.9,230.3z M457.4,194.1c-0.4,0.1-0.8,0.3-1.1,0.4l-20.8-22.1c0.7-1,1.2-2.1,1.2-3.5c0-1.6-0.7-3-1.7-4l24.8-37.3
	c0.3,0.1,0.5,0.2,0.8,0.2L457.4,194.1z M439.3,90.4l53.5,22.1c-0.1,0.5-0.1,1-0.1,1.5l-25.7,6.4c-0.8-2.1-2.8-3.5-5.2-3.5
	c-0.9,0-1.8,0.2-2.5,0.6l-20.8-24.9C438.9,92,439.2,91.2,439.3,90.4z M457.6,118.7c-0.8,0.9-1.4,2.1-1.5,3.3l-33,2.1
	c-0.3-1.4-1.2-2.5-2.3-3.3l11.3-26c0.5,0.2,1.1,0.2,1.6,0.2c1.2,0,2.3-0.4,3.2-1L457.6,118.7z M438.5,17.6c1.3-0.2,2.4-0.8,3.3-1.6
	l40.1,27.3c-0.3,0.7-0.5,1.5-0.5,2.3c0,1.1,0.3,2.1,0.8,2.9l-45.4,36.4c-0.6-0.4-1.2-0.7-1.9-0.8L438.5,17.6z M435.5,17.1
	c0.3,0.2,0.7,0.3,1.1,0.4L433,83.9c-0.8,0.1-1.5,0.4-2.2,0.8l-20.5-23c0.6-0.9,1-2,1-3.2c0-1.6-0.6-3-1.7-4L435.5,17.1z M433.4,16.5
	l-25.4,36.9c-0.7-0.3-1.5-0.5-2.3-0.5c-2.8,0-5.1,2-5.5,4.7l-27.6,5.2c0-0.1-0.1-0.2-0.1-0.2L433.4,16.5z M366.6,71
	c0.4,0.1,0.8,0.1,1.2,0.1c3.1,0,5.6-2.5,5.6-5.6c0-0.3,0-0.6-0.1-0.8l27-5.1c0.1,0.4,0.2,0.8,0.4,1.2l-43.4,37.3
	c-0.3-0.3-0.7-0.5-1.1-0.7L366.6,71z M344.9,169c-0.6,0.1-1.3,0.3-1.8,0.6l-20-24.5c0.8-1,1.3-2.2,1.3-3.6c0-1.6-0.7-3.1-1.8-4.1
	L363,74.8l-8.7,22.1c-0.2,0-0.3,0-0.5,0c-3.1,0-5.6,2.5-5.6,5.6c0,2.2,1.3,4.1,3.2,5L344.9,169z M346.9,169l6.4-60.9
	c0.2,0,0.3,0,0.5,0c0.8,0,1.6-0.2,2.3-0.5l20.4,24.3c0,0-0.1,0-0.1,0.1c-1.7,2.1-1.6,4.9,0,6.9l-27.6,30.8
	C348.2,169.4,347.5,169.1,346.9,169z M375,207.6l-24.9-29.6c0.8-1,1.3-2.2,1.3-3.6c0-1.3-0.4-2.5-1.2-3.4l27.7-30.8
	c1.1,0.7,2.4,1,3.6,0.8l8.9,28.1c-2.4,0.7-4.1,2.8-4.1,5.4c0,2,1.1,3.8,2.7,4.8L378.8,207c-0.3-0.1-0.6-0.1-1-0.1
	C376.8,206.9,375.8,207.2,375,207.6z M377.3,219.6l20.3,71.6c-0.4,0.1-0.7,0.3-1,0.5l-24.1-29.5c0.8-1,1.3-2.2,1.3-3.6
	c0-2.3-1.4-4.4-3.5-5.2L377.3,219.6z M368.2,264.1c1,0,1.9-0.3,2.7-0.7l24.1,29.5c-0.8,1-1.3,2.2-1.3,3.6c0,0,0,0.1,0,0.1l-27.5,5.4
	c-0.7-2.4-2.8-4.1-5.4-4.1c-1.9,0-3.7,1-4.7,2.5l-27.9-12.5c0.1-0.4,0.2-0.9,0.2-1.3c0-0.7-0.1-1.4-0.4-2l36-22.2
	C365,263.4,366.5,264.1,368.2,264.1z M335.1,228.6c1,1.5,2.7,2.5,4.7,2.5c1,0,2-0.3,2.8-0.8l21.2,24.6c-0.5,0.6-0.9,1.4-1.1,2.2
	l-61.4-4.2c-0.3-2.8-2.7-5-5.6-5c-3.1,0-5.5,2.4-5.6,5.5l-24.6,4.6L335.1,228.6z M256.7,266.3c3.1,0,5.6-2.5,5.6-5.6c0,0,0,0,0,0
	l28.2-5.3c0.1,0.3,0.3,0.7,0.4,1l-44.1,37.2c-0.3-0.3-0.7-0.6-1.1-0.9l10-26.4C256,266.2,256.3,266.3,256.7,266.3z M253.3,265.2
	c0.1,0.1,0.3,0.2,0.4,0.3l-10,26.4c-2.5-0.5-5.1,0.8-6.1,3.2c-0.5,1.2-0.6,2.6-0.3,3.8l-40.1,19.3c0-0.1-0.1-0.1-0.1-0.2
	L253.3,265.2z M196.1,325.9c0.1-0.1,0.2-0.1,0.3-0.2c1.1-0.9,1.7-2.2,1.9-3.5l64.9,8.7c0,1,0.3,1.9,0.7,2.8l-44.2,37.1
	c-0.9-0.5-1.8-0.8-2.9-0.8c-0.4,0-0.9,0.1-1.3,0.2L196.1,325.9z M194.9,381.5c0-0.1,0-0.2,0-0.3l16.5-4.1c0.6,2,2.3,3.6,4.4,4
	l3.6,33c-0.5,0.1-0.9,0.3-1.3,0.5l-24.5-29.5C194.4,384.1,194.9,382.9,194.9,381.5z M189.3,387.1c1,0,1.9-0.3,2.7-0.7l24.5,29.5
	c-0.8,1-1.3,2.2-1.3,3.6c0,0.2,0,0.3,0,0.5l-28.1,4.6c-0.8-2.2-2.8-3.7-5.3-3.7c-1.9,0-3.5,0.9-4.5,2.3l-26.9-13
	c0-0.2,0.1-0.5,0.1-0.7c0-0.7-0.1-1.4-0.4-2.1l35.2-22.1C186.2,386.4,187.6,387.1,189.3,387.1z M157,352.8c1,1.6,2.7,2.6,4.8,2.6
	c1,0,2-0.3,2.9-0.8l20.3,23.3c-0.5,0.6-0.8,1.3-1,2.1l-61.6-4.6c-0.5-2.6-2.8-4.6-5.5-4.6c-3,0-5.5,2.4-5.6,5.4l-24.4,4.4L157,352.8
	z M77.8,389.1c3.1,0,5.6-2.5,5.6-5.6c0,0,0-0.1,0-0.1l28.1-5.1c0.1,0.2,0.1,0.3,0.2,0.4l-43.3,37.4c-0.3-0.2-0.6-0.4-0.9-0.6
	l8.6-26.8C76.5,389,77.1,389.1,77.8,389.1z M73.9,388.7l-8.4,26.3c-0.2,0-0.5-0.1-0.7-0.1c-3.1,0-5.6,2.5-5.6,5.6
	c0,0.5,0.1,1,0.2,1.5l-39.5,18.9L73.9,388.7z M37.8,492.6c-0.4,0-0.8,0.1-1.2,0.1l-18.7-43.6c1.1-0.7,1.9-1.8,2.3-3l65.1,8.2
	c0.1,0.7,0.3,1.3,0.7,1.9l-44.8,37.5C40.2,493.1,39,492.6,37.8,492.6z M64.8,525.9c-1,0-1.9,0.2-2.7,0.7l-19.9-24.9
	c0.2-0.3,0.4-0.6,0.6-0.9l53.4,20.6c0,0,0,0.1,0,0.1c0,0.4,0.1,0.8,0.1,1.2l-26.4,6.5C69,527.2,67.1,525.9,64.8,525.9z M70.4,531.1
	l26.8-6.6c1,1.5,2.7,2.5,4.7,2.5c1.5,0,2.9-0.6,3.9-1.6l28.9,14.2L70.4,531.1C70.4,531.2,70.4,531.2,70.4,531.1z M161.4,571.8
	l-89.5-38.4l63.7,8.4c0.4,2.7,2.7,4.8,5.5,4.8c0.7,0,1.3-0.1,1.9-0.4l18.9,24.9C161.7,571.4,161.5,571.6,161.4,571.8z M171.2,572.7
	c-0.9-2-2.8-3.3-5.1-3.3c-0.9,0-1.8,0.2-2.5,0.6l-18.8-24.7c0.6-0.5,1.1-1.1,1.4-1.9l53.4,20.4c-0.1,0.3-0.1,0.7-0.1,1
	c0,0.4,0,0.7,0.1,1.1L171.2,572.7z M217.6,579.2c-2.1,0.2-3.8,1.6-4.6,3.6l-41.4-7.8c0,0,0,0,0,0c0-0.1,0-0.2,0-0.3l28.6-6.9
	c1,1.6,2.7,2.7,4.8,2.7c3.1,0,5.6-2.5,5.6-5.6c0-1.9-0.9-3.5-2.3-4.5l12-24.7c0,0,0.1,0,0.1,0L217.6,579.2z M253,572.9
	c0,0.2,0,0.4,0,0.5l-30,8.5c-0.8-1.3-2-2.2-3.5-2.6l2.8-43.6c0.8-0.1,1.5-0.4,2.2-0.7l29.6,34.4C253.5,570.3,253,571.6,253,572.9z
	 M255.8,568.1l-29.6-34.4c0.8-1,1.2-2.2,1.2-3.5c0-2.3-1.4-4.2-3.3-5.1l8.4-33.2c0.3,0,0.6-0.1,0.9-0.2l22.7,76.2
	C256,567.9,255.9,568,255.8,568.1z M261.2,567.9c-0.8-0.4-1.6-0.6-2.5-0.6c-0.2,0-0.4,0-0.6,0l-22.8-76.6c0.4-0.3,0.8-0.7,1.1-1.2
	l49.6,38.2c-0.5,0.8-0.8,1.8-0.8,2.8c0,1.5,0.6,2.8,1.5,3.8L261.2,567.9z M285.6,601c-0.6,0.2-1.2,0.4-1.7,0.7l-21-25.2
	c0.8-1,1.3-2.2,1.3-3.6c0-1.5-0.6-2.8-1.5-3.8l25.5-33.5c0.4,0.2,0.8,0.3,1.2,0.5L285.6,601z M317.1,629.3l-25.2-20.1
	c0.5-0.8,0.8-1.8,0.8-2.9c0,0,0,0,0,0l22.1-6.6c0.8,1.6,2.3,2.7,4.2,3l0.8,25.2C318.7,628.2,317.8,628.7,317.1,629.3z M319.7,591.6
	c-3.1,0-5.6,2.5-5.6,5.6c0,0.2,0,0.4,0,0.6l-21.8,6.5c-0.7-1.9-2.5-3.4-4.7-3.6l3.9-64.6c1-0.1,2-0.5,2.8-1.1l40.3,26.1
	c-0.3,0.7-0.4,1.4-0.4,2.2c0,1.7,0.8,3.2,1.9,4.2L321.6,592C321,591.8,320.4,591.6,319.7,591.6z M325.2,630
	c-0.9-1.1-2.1-1.9-3.6-2.1l-0.8-25.2c1.8-0.4,3.3-1.6,4-3.3l37.9,8.7c0,0.1,0,0.2,0,0.3c0,0.6,0.1,1.2,0.3,1.7L325.2,630z
	 M363.1,606.2l-37.9-8.7c0-0.1,0-0.2,0-0.3c0-1.7-0.8-3.2-1.9-4.2l14.4-24.4c0.6,0.2,1.3,0.4,1.9,0.4c0.7,0,1.5-0.1,2.1-0.4
	l22.7,35.7C363.9,604.9,363.4,605.5,363.1,606.2z M368.3,602.8c-0.7,0-1.5,0.1-2.1,0.4l-22.7-35.7c0.7-0.6,1.2-1.5,1.5-2.4l26.2,3.5
	c0.1,2.2,1.3,4,3.2,4.9l-5.9,29.4C368.4,602.8,368.3,602.8,368.3,602.8z M404.3,605.6l-30.6,1.5c-0.4-1.8-1.7-3.3-3.4-3.9l5.9-29.2
	c0.2,0,0.3,0,0.5,0c1,0,1.8-0.2,2.6-0.7l26.1,29.5C404.9,603.7,404.5,604.6,404.3,605.6z M409.9,600.8c-1.1,0-2,0.3-2.9,0.8
	l-26-29.4c0.6-0.7,1.1-1.6,1.3-2.6l35.1,0.7c0.3,1.7,1.3,3.1,2.8,4l-9.4,26.6C410.5,600.8,410.2,600.8,409.9,600.8z M412.7,601.4
	l9.4-26.6c2.8,0.5,5.6-1.3,6.3-4.2c0-0.2,0.1-0.4,0.1-0.6l28.4-6.2c0.1,0.2,0.2,0.4,0.3,0.6L412.7,601.4z M414.2,602.8l44.3-36.7
	c1,0.8,2.2,1.3,3.6,1.3c1.2,0,2.3-0.4,3.2-1l20.6,21.9c-0.7,0.9-1.1,2.1-1.1,3.3c0,0,0,0,0,0l-69.6,12.7
	C414.9,603.8,414.6,603.3,414.2,602.8z M465.8,621c-0.8-0.4-1.7-0.7-2.6-0.7c-2.1,0-3.8,1.1-4.8,2.8l-43-15.8c0.1-0.3,0.1-0.6,0.1-1
	c0,0,0,0,0,0l69.6-12.7c0.2,0.6,0.6,1.2,1,1.7L465.8,621z"/>
</svg>
