<?xml version="1.0" encoding="utf-8"?>
<!-- Generator: Adobe Illustrator 21.0.0, SVG Export Plug-In . SVG Version: 6.00 Build 0)  -->
<!DOCTYPE svg PUBLIC "-//W3C//DTD SVG 1.1//EN" "http://www.w3.org/Graphics/SVG/1.1/DTD/svg11.dtd">
<svg version="1.1" id="Layer_1" xmlns="http://www.w3.org/2000/svg" xmlns:xlink="http://www.w3.org/1999/xlink" x="0px" y="0px"
	 viewBox="0 0 430.3 644" style="enable-background:new 0 0 430.3 644;" xml:space="preserve">
<style type="text/css">
	.st0{fill:#FFFFFF;}
</style>
<path class="st0" d="M418,453.6c-0.1,0-0.1,0-0.2,0l-21.4-99.2c2-0.8,3.5-2.8,3.5-5.2c0-3.1-2.5-5.6-5.6-5.6c-1,0-2,0.3-2.8,0.8
	l-20.6-24.1c0.6-0.9,0.9-1.9,0.9-3c0-3.1-2.5-5.6-5.6-5.6c-1.6,0-3,0.7-4,1.7l-39.4-26.5c0.4-0.8,0.6-1.6,0.6-2.5
	c0-3.1-2.5-5.6-5.6-5.6c-1.5,0-2.8,0.6-3.8,1.5l-33.4-30.1c0.5-0.9,0.8-1.9,0.8-2.9c0-3.1-2.5-5.6-5.6-5.6c-0.1,0-0.1,0-0.2,0
	l-22.1-99.2c2-0.8,3.4-2.8,3.4-5.2c0-3.1-2.5-5.6-5.6-5.6c-1,0-2,0.3-2.8,0.8l-20.7-23.5c0.9-1,1.4-2.3,1.4-3.7
	c0-3.1-2.5-5.6-5.6-5.6c-1.8,0-3.4,0.8-4.4,2.2l-40-26.1c0.5-0.8,0.7-1.8,0.7-2.8c0-3.1-2.5-5.6-5.6-5.6s-5.6,2.5-5.6,5.6
	c0,0.6,0.1,1.2,0.3,1.8l-69.6,39.7c-1-1.2-2.6-2-4.3-2c-3.1,0-5.6,2.5-5.6,5.6c0,1.7,0.7,3.2,1.9,4.2l-34.6,73.6
	c-0.5-0.1-0.9-0.2-1.4-0.2c-3.1,0-5.6,2.5-5.6,5.6s2.5,5.6,5.6,5.6c1,0,1.9-0.2,2.7-0.7l19.8,24.7c-0.7,0.9-1.2,2.1-1.2,3.4
	c0,2.5,1.6,4.6,3.9,5.3l-3.2,40.1c-0.3-0.1-0.6-0.1-1-0.1c-3.1,0-5.6,2.5-5.6,5.6c0,0.4,0.1,0.8,0.1,1.2L0,316.4v2.2l71.6-30.3
	c1,1.5,2.7,2.5,4.7,2.5c1,0,2-0.3,2.8-0.7l20.8,24.6c-0.5,0.6-0.9,1.3-1.1,2.1l-61-4.7c-0.5-2.6-2.8-4.5-5.5-4.5
	c-3.1,0-5.6,2.5-5.6,5.6c0,0.1,0,0.2,0,0.3L0,319.7v2.1l27.1-6.3c0.2,0.4,0.4,0.8,0.6,1.1L0,340v2.6l29.2-24.7
	c0.7,0.5,1.5,0.8,2.4,0.9l9.7,56.2c-1.1,0.4-2,1.1-2.7,2.1L0,363.5v2.1l37.9,13.3c-0.1,0.4-0.2,0.9-0.2,1.4c0,0.1,0,0.3,0,0.4
	L10,387.7c-1-1.6-2.7-2.6-4.7-2.6c-0.8,0-1.5,0.2-2.2,0.5L0,381.5v3.3l1.4,1.9c-0.6,0.6-1.1,1.4-1.4,2.3v3.5
	c0.1,0.4,0.3,0.8,0.5,1.2L0,394.1v2.6l1.9-1.6c0.8,0.6,1.7,1,2.7,1.1l10.2,57c-1,0.5-1.8,1.3-2.4,2.3L0,451v2.1l11.8,4.3
	c0,0.3-0.1,0.5-0.1,0.8c0,0.1,0,0.1,0,0.2L0,461.8v2.1l12.1-3.5c0.8,2,2.8,3.4,5.2,3.4c2,0,3.7-1,4.7-2.5l30.1,15.2L0,471.4v2
	l51.7,5c0,0.1,0,0.1,0,0.2c0,0.1,0,0.2,0,0.3L35,485c-1-1.7-2.8-2.8-4.8-2.8c-2.1,0-3.9,1.2-4.9,2.9L0,476.3v2.1l24.6,8.5
	c0,0.3-0.1,0.6-0.1,0.9c0,0.7,0.1,1.4,0.4,2.1L0,505.3v2.4l26-16.1c0.9,1,2.2,1.7,3.7,1.8l4.4,54.4c-0.8,0.3-1.5,0.7-2.1,1.3
	L0,524.4v2.5l30.7,23.7c-0.4,0.8-0.6,1.6-0.6,2.5c0,2.3,1.4,4.3,3.5,5.2l-5.4,25.5c-0.1,0-0.1,0-0.2,0c-0.7,0-1.3,0.1-1.9,0.3
	L0,538.6v4l23.8,41.5L0,561.9v2.7l23.1,21.6L0,576.2v2.2l22.5,9.8c-0.1,0.4-0.2,0.8-0.2,1.3c0,0.1,0,0.2,0,0.3L0,594.8v2.1l22.8-5.2
	c0.9,2,2.8,3.4,5.2,3.4c0.2,0,0.4,0,0.6,0l6.7,22.6c-1.1,0.6-2,1.5-2.5,2.6L0,611.3v2.1l32.2,8.7c0,0.2,0,0.3,0,0.5
	c0,0.4,0,0.8,0.1,1.2L0,637v2.2l33.1-13.5c1,1.6,2.7,2.6,4.7,2.6c3.1,0,5.6-2.5,5.6-5.6c0-0.7-0.1-1.3-0.3-1.9l40.4-23
	c1,1.2,2.5,1.9,4.2,1.9c2.9,0,5.3-2.2,5.6-5.1l49.7-3.8c0.6,2.4,2.8,4.2,5.4,4.2c3.1,0,5.6-2.5,5.6-5.6c0-0.2,0-0.4,0-0.5l28.9-8.2
	c0.9,2,2.8,3.3,5.1,3.3c3.1,0,5.6-2.5,5.6-5.6c0-1.9-1-3.6-2.5-4.6l10.9-24.9c0.4,0.1,0.9,0.2,1.3,0.2c1,0,1.9-0.3,2.7-0.7
	l20.1,24.5c-0.8,1-1.3,2.2-1.3,3.6c0,3.1,2.5,5.6,5.6,5.6s5.6-2.5,5.6-5.6c0-0.1,0-0.2,0-0.4l28-7c0.9,1.8,2.8,3,5,3
	c3.1,0,5.6-2.5,5.6-5.6c0-1.9-1-3.6-2.5-4.6l8.1-18.5c0.4,0.1,0.9,0.2,1.3,0.2c3.1,0,5.6-2.5,5.6-5.6c0-2.5-1.6-4.6-3.9-5.3
	l1.4-10.7c3-0.2,5.3-2.6,5.3-5.6c0-0.1,0-0.2,0-0.3l26.6-6.4c1,1.7,2.8,2.8,4.8,2.8c2.8,0,5.1-2.1,5.5-4.8l33-2
	c0.6,2.5,2.8,4.3,5.4,4.3c3,0,5.4-2.4,5.6-5.3l26.4-7.3c0.9,1.9,2.8,3.2,5,3.2c3.1,0,5.6-2.5,5.6-5.6c0-1.9-1-3.6-2.5-4.6l11.3-25.4
	c0.4,0.1,0.9,0.2,1.3,0.2c3.1,0,5.6-2.5,5.6-5.6S421.1,453.6,418,453.6z M392.5,354.5c0.2,0.1,0.3,0.1,0.5,0.1l-3.6,64.7l-9.7-29.6
	c1.9-0.9,3.2-2.8,3.2-5.1c0-2-1-3.7-2.5-4.7L392.5,354.5z M309.6,434.6c-0.3,0-0.7,0-1,0.1l-9.8-33.5c1.6-0.8,2.8-2.4,3-4.3l34-1.7
	c0.4,2.2,2.1,3.9,4.2,4.4l-3.8,66.7c-0.4,0.1-0.8,0.1-1.1,0.3L314,443.6c0.7-0.9,1.1-2.1,1.1-3.4
	C315.2,437.1,312.7,434.6,309.6,434.6z M206,461.8l-6.6-43.3c0.3-0.1,0.6-0.2,0.9-0.4l19.5,23.6c-0.7,0.9-1.1,2.1-1.1,3.3
	c0,3.1,2.5,5.6,5.6,5.6c0.5,0,0.9-0.1,1.4-0.2l25.1,45.9c-0.1,0.1-0.3,0.3-0.4,0.4L211,469.7c0.3-0.7,0.5-1.5,0.5-2.3
	C211.5,464.4,209.1,461.9,206,461.8z M90.5,546.3l40.5-23.6c0.4,0.5,0.9,1,1.5,1.3l-7.8,26.8c-0.2,0-0.4,0-0.6,0
	c-2.4,0-4.4,1.4-5.2,3.5l-28.3-5.9c0-0.3,0.1-0.6,0.1-0.9C90.6,547.1,90.6,546.7,90.5,546.3z M78.9,514.6l-39.3,34.5
	c-0.4-0.4-0.8-0.7-1.3-0.9l18.3-64c0.3,0,0.5,0.1,0.8,0.1c0.9,0,1.8-0.2,2.6-0.6l19.2,24c-0.9,1-1.4,2.3-1.4,3.7
	C77.7,512.5,78.1,513.7,78.9,514.6z M46.6,375.7l11.5-24c0.4,0.1,0.8,0.1,1.3,0.1c1.7,0,3.3-0.8,4.3-2l28.2,14.6
	c0.3,1.5,1.3,2.9,2.6,3.6l-9.9,26.7c-0.3-0.1-0.6-0.1-1-0.1c-1.8,0-3.5,0.9-4.5,2.3l-30.4-15.1c0.1-0.5,0.2-1,0.2-1.6
	C48.9,378.3,48,376.7,46.6,375.7z M106.4,313l7.7-35.2c0.1,0,0.1,0,0.2,0c0.2,0,0.3,0,0.4,0l19.5,73.4c-0.1,0.1-0.3,0.1-0.4,0.2
	l-25.3-29.6c0.8-1,1.3-2.2,1.3-3.5C109.8,315.9,108.4,313.9,106.4,313z M167.2,153.9l-11.5,25.9c-0.4-0.1-0.9-0.2-1.3-0.2
	c-0.4,0-0.7,0-1.1,0.1l-8.8-56.2c0.4-0.1,0.7-0.3,1-0.5l20.2,23.1c-0.6,0.9-0.9,2-0.9,3.1C164.7,151.1,165.7,152.8,167.2,153.9z
	 M272.6,251.8l-11.8,25c-0.5-0.1-0.9-0.2-1.4-0.2l-10.1-56.1c0.4-0.1,0.8-0.3,1.2-0.5l20.8,24.1c-0.6,0.9-1,2-1,3.1
	C270.2,249.1,271.1,250.8,272.6,251.8z M309.1,365.8l-11.4,25c-0.4-0.1-0.9-0.2-1.3-0.2l-9.4-55.1c0.3-0.1,0.6-0.2,0.9-0.4
	l19.7,23.3c-0.5,0.8-0.8,1.8-0.8,2.8C306.7,363.1,307.7,364.8,309.1,365.8z M371.7,385.3l-25.2,6.7c-0.9-2-2.8-3.4-5.2-3.4
	c-1,0-2,0.3-2.8,0.8l-21.9-24.7c0.2-0.2,0.3-0.4,0.5-0.7l54.7,19.4c-0.1,0.4-0.2,0.9-0.2,1.4C371.7,384.9,371.7,385.1,371.7,385.3z
	 M337.1,390.7c-0.6,0.7-1,1.6-1.2,2.6l-34.1,1.7c-0.3-1.4-1.1-2.5-2.3-3.3l11.4-25c0.4,0.1,0.9,0.2,1.4,0.2c1.1,0,2.1-0.3,2.9-0.8
	L337.1,390.7z M294.4,391c-1.3,0.5-2.3,1.4-3,2.6l-53.6-18c0-0.3,0.1-0.5,0.1-0.8c0-1.2-0.4-2.3-1.1-3.3l44.6-37
	c1,0.8,2.2,1.3,3.5,1.3L294.4,391z M290.8,396.9l-25.5,7.8c-0.9-1.8-2.8-3-5-3c-1,0-2,0.3-2.8,0.8l-20.8-24.2
	c0.2-0.3,0.4-0.5,0.6-0.8l53.6,18c0,0.3-0.1,0.5-0.1,0.8C290.7,396.4,290.7,396.7,290.8,396.9z M255.8,410.5l-28.5,29.8
	c-0.9-0.5-1.9-0.8-2.9-0.8c-1.1,0-2.2,0.3-3.1,0.9l-19.4-23.5c0.8-1,1.3-2.2,1.3-3.6c0-1.3-0.4-2.5-1.2-3.4l27.4-30.3
	c0.9,0.5,1.9,0.8,2.9,0.8c1,0,2-0.3,2.8-0.8l20.8,24.2c-0.8,1-1.2,2.2-1.2,3.5C254.7,408.4,255.1,409.6,255.8,410.5z M168.4,386.8
	l73.8-46.8c0.1,0.1,0.2,0.2,0.3,0.3l-43.1,67.6c-0.6-0.2-1.2-0.3-1.9-0.3c-1.5,0-2.9,0.6-3.9,1.6l-25.2-17.7
	c0.3-0.7,0.5-1.5,0.5-2.3C168.9,388.4,168.7,387.6,168.4,386.8z M159.8,393.5l-10.8,24.2c-0.4-0.1-0.8-0.2-1.2-0.2l-9.2-56.1
	c0.2-0.1,0.5-0.2,0.7-0.3l19.3,25.2c-0.5,0.8-0.8,1.8-0.8,2.8C157.7,391,158.5,392.5,159.8,393.5z M140.8,360c0.9-1,1.5-2.3,1.5-3.8
	c0-2.6-1.7-4.7-4.1-5.4l3.6-40c0,0,0.1,0,0.1,0c3.1,0,5.6-2.5,5.6-5.6c0-0.4-0.1-0.8-0.1-1.3l25.9-6.4c0.6,1.4,1.8,2.4,3.2,3
	l-14.1,83.2c-0.9,0.2-1.8,0.6-2.5,1.1L140.8,360z M162,228.4l-28.3,3.7c-0.8-2.1-2.8-3.6-5.2-3.6c-0.3,0-0.5,0-0.8,0.1l-8-28.3
	c1.9-0.9,3.2-2.8,3.3-5l26.9-6.7c1,1.3,2.6,2.2,4.5,2.2c0.3,0,0.5,0,0.8-0.1l9.9,32.5c-1.8,0.9-3,2.8-3,5
	C162,228.3,162,228.3,162,228.4z M125.8,229.3c-1.6,0.8-2.7,2.4-2.9,4.2l-35.2-0.2c-0.2-1-0.6-1.9-1.3-2.7l27.8-30.7
	c0.9,0.6,1.9,0.9,3,0.9c0.1,0,0.3,0,0.4,0L125.8,229.3z M242.6,217.7l-43.8,37.2c-0.8-0.6-1.7-1-2.7-1.2l2.2-65.7
	c1.4,0,2.7-0.6,3.6-1.4l40.3,26.6c-0.2,0.6-0.4,1.3-0.4,2C242,216.1,242.2,217,242.6,217.7z M191.7,263.5l-12,26.3
	c-0.3-0.1-0.7-0.1-1-0.2l-9.1-56.2c0.5-0.2,0.9-0.4,1.3-0.7l20.9,22.1c-1.3,1-2.1,2.6-2.1,4.3C189.7,260.9,190.5,262.4,191.7,263.5z
	 M193.4,264.5c0.6,0.2,1.2,0.3,1.9,0.3c1.1,0,2.1-0.3,3-0.9l20,24.4c-0.9,0.9-1.4,2.1-1.5,3.5l-33,2c-0.3-1.3-1.1-2.5-2.2-3.3
	L193.4,264.5z M183.9,295.9l33.1-2c0.7,2.3,2.8,4,5.4,4c0.6,0,1.2-0.1,1.8-0.3l18.8,34.2c-0.1,0.1-0.2,0.1-0.3,0.2l-59.1-34.8
	C183.7,296.7,183.8,296.3,183.9,295.9z M225.8,296.6c1.3-1,2.1-2.6,2.1-4.3c0-0.2,0-0.4,0-0.6L254,284c0.5,1.5,1.6,2.7,3,3.3
	l-10.5,43.3c-0.1,0-0.2,0-0.2,0c-0.6,0-1.1,0.1-1.6,0.2L225.8,296.6z M253.7,282l-26.4,7.7c-0.9-1.8-2.8-3.1-5-3.1
	c-0.9,0-1.7,0.2-2.4,0.6l-20.1-24.6c0.1-0.2,0.3-0.4,0.4-0.6l53.6,19.3C253.8,281.5,253.7,281.8,253.7,282z M194.2,253.7
	c-0.2,0-0.4,0.1-0.6,0.2l-21.3-22.6c0.6-0.9,0.9-2,0.9-3.1c0-1.6-0.7-3-1.7-4.1l24.2-36.9c0.3,0.1,0.5,0.3,0.8,0.4L194.2,253.7z
	 M169.8,223.1c-0.7-0.3-1.4-0.4-2.2-0.4c-0.2,0-0.4,0-0.7,0l-9.9-32.5c1.6-0.8,2.7-2.4,2.9-4.3l33-2.1c0.2,0.8,0.6,1.6,1.2,2.3
	L169.8,223.1z M167.6,233.8l9.1,56c-1.4,0.4-2.5,1.3-3.2,2.5l-53.6-19.3c0-0.3,0.1-0.6,0.1-0.9c0-1-0.3-2-0.7-2.8l44.5-37.2
	C164.7,233.2,166,233.8,167.6,233.8z M172.8,294.3c0,0.3-0.1,0.6-0.1,0.9c0,0.1,0,0.2,0,0.4l-26.3,6.5c-1-1.5-2.7-2.5-4.7-2.5
	c-1,0-1.9,0.2-2.7,0.7l-20.5-24.5c0.2-0.2,0.4-0.5,0.5-0.8L172.8,294.3z M137.6,301.6c-0.9,1-1.4,2.3-1.4,3.7c0,2.4,1.5,4.4,3.5,5.2
	l-3.6,40.1l-19.4-73.2c0.1-0.1,0.3-0.1,0.4-0.2L137.6,301.6z M178.4,300.8c1.7,0,3.2-0.8,4.2-1.9l58.8,34.7
	c-0.4,0.8-0.7,1.7-0.7,2.7c0,0.7,0.1,1.5,0.4,2.1l-73.9,46.9c-0.8-0.8-1.8-1.3-2.9-1.5L178.4,300.8z M227.9,378.1l-24.1,26.7
	l38.5-60.4l-9,24.8c-0.3-0.1-0.6-0.1-0.9-0.1c-3.1,0-5.6,2.5-5.6,5.6C226.7,376,227.1,377.2,227.9,378.1z M235.4,370.1
	c-0.1-0.1-0.2-0.1-0.3-0.2l10.2-28.1c0.3,0.1,0.6,0.1,0.9,0.1c2.9,0,5.2-2.2,5.6-5l28-4.3c0.1,0.1,0.1,0.3,0.2,0.4L235.4,370.1z
	 M248.5,331.1l10.5-43.3c0.1,0,0.2,0,0.3,0c2.7,0,4.9-1.9,5.5-4.4l47.5,1.6c0.1,0.6,0.2,1.1,0.5,1.7l-62.5,45.5
	C249.7,331.7,249.1,331.3,248.5,331.1z M257.4,277c-1.2,0.5-2.2,1.3-2.9,2.4l-53.6-19.3c0-0.3,0.1-0.6,0.1-0.9c0-1-0.3-2-0.8-2.8
	l43.7-37.1c0.9,0.8,2.1,1.3,3.4,1.4L257.4,277z M243.4,211.4L203.3,185c0.4-0.8,0.6-1.6,0.6-2.6c0-0.1,0-0.2,0-0.3l26.3-6.4
	c0.9,2,2.8,3.3,5.1,3.3c0.2,0,0.4,0,0.5,0l8.9,31.4C244.3,210.6,243.8,211,243.4,211.4z M229.7,173.7l-26.3,6.4
	c-0.9-2-2.8-3.3-5.1-3.3c-0.9,0-1.7,0.2-2.5,0.6l-21-24.9c0.1-0.2,0.2-0.3,0.3-0.5l54.9,19.3c-0.2,0.6-0.4,1.3-0.4,2
	C229.7,173.5,229.7,173.6,229.7,173.7z M194.2,178.6c-0.8,0.9-1.3,2-1.5,3.2l-33,2.1c-0.3-1.4-1.2-2.5-2.3-3.3l11.5-25.9
	c0.4,0.1,0.9,0.2,1.3,0.2c1.1,0,2.2-0.3,3.1-0.9L194.2,178.6z M151.3,180.5c-0.8,0.5-1.4,1.1-1.9,1.9l-53.6-19.3
	c0-0.3,0.1-0.6,0.1-0.9c0-1-0.3-2-0.7-2.8l43.8-36.9c0.9,0.8,2.1,1.2,3.4,1.3L151.3,180.5z M148.8,184.3c0,0.3-0.1,0.6-0.1,0.9
	c0,0.5,0.1,1.1,0.2,1.5l-26.3,6.6c-0.8-2.2-2.8-3.7-5.3-3.7c-1.1,0-2.2,0.3-3.1,0.9l-20.5-23.9c0.6-0.4,1.1-1,1.4-1.6L148.8,184.3z
	 M112.8,191.9c-0.7,0.9-1.1,2-1.1,3.3c0,1.2,0.4,2.4,1.1,3.3l-27.9,30.8c-0.4-0.2-0.8-0.4-1.3-0.5l7.1-61c0.4,0,0.8-0.1,1.2-0.2
	L112.8,191.9z M87.7,235.3l35.3,0.2c0.6,2.5,2.8,4.3,5.4,4.3c3.1,0,5.6-2.5,5.6-5.6c0,0,0-0.1,0-0.1l28.3-3.7c0,0.1,0.1,0.2,0.1,0.2
	l-44.6,37.3c-1-0.8-2.2-1.3-3.6-1.3c-1,0-2,0.3-2.8,0.8L86.4,238C87,237.2,87.5,236.3,87.7,235.3z M136.5,361.8l9.2,56.1
	c-1.1,0.4-2.1,1.2-2.8,2.1l-53.9-19c0-0.3,0.1-0.6,0.1-0.9c0-1-0.3-1.9-0.7-2.7l44.6-37C134,361.3,135.2,361.8,136.5,361.8z
	 M137.5,461.8c-0.1,0-0.1,0-0.2,0c-1.2,0-2.2,0.4-3.1,1l-20.6-24.6c0.8-1,1.3-2.2,1.3-3.6c0-0.2,0-0.5-0.1-0.7l27.7-8.2
	c0.6,1.2,1.6,2.1,2.8,2.6L137.5,461.8z M138.1,472.9c2.4-0.4,4.3-2.2,4.7-4.6l57.5-0.1c0.1,0.6,0.3,1.1,0.5,1.6L139,515
	c-0.7-0.6-1.5-1-2.5-1.3L138.1,472.9z M88.9,510.8l27.4-7.2c0.9,1.9,2.8,3.2,5.1,3.2c0.9,0,1.8-0.2,2.5-0.6l7.1,9.5
	c-0.4,0.5-0.8,1.2-1,1.9l-41.1-5.8c0-0.2,0-0.4,0-0.6C88.9,511.1,88.9,510.9,88.9,510.8z M61.9,475.4l43.6-36.7
	c1,0.9,2.3,1.5,3.8,1.5l10.1,55.8c-1.2,0.5-2.2,1.3-2.9,2.4l-53.6-19.2c0-0.2,0-0.4,0-0.6C62.9,477.4,62.5,476.3,61.9,475.4z
	 M142,423.8l-27.8,8.2c-0.9-1.8-2.8-3-4.9-3c-0.9,0-1.7,0.2-2.5,0.6l-19.4-25.4c0.4-0.4,0.7-0.8,0.9-1.2l53.8,18.9
	c-0.1,0.4-0.2,0.8-0.2,1.3C142,423.4,142,423.6,142,423.8z M134.1,472l-11.3,23.9c-0.5-0.1-0.9-0.2-1.4-0.2l-10.1-55.8
	c0.3-0.1,0.6-0.2,0.8-0.4l20.7,24.7c-0.7,0.9-1,2-1,3.2C131.7,469.3,132.6,470.9,134.1,472z M125.5,505c0.9-1,1.5-2.3,1.5-3.8
	c0-1.9-0.9-3.5-2.3-4.6l11.3-23.9c0.1,0,0.2,0,0.3,0.1l-1.6,40.8c-0.7,0.1-1.4,0.3-2,0.7L125.5,505z M87.1,395.9
	c-0.2-0.2-0.5-0.4-0.7-0.5l9.9-26.7c0.3,0.1,0.6,0.1,1,0.1c3.1,0,5.6-2.5,5.6-5.6l28.5-5.1c0.1,0.3,0.2,0.5,0.4,0.8L87.1,395.9z
	 M83.5,405.8c0.8,0,1.6-0.2,2.3-0.5l19.4,25.5c-0.6,0.6-1,1.4-1.3,2.2l-64.8-7.9c0-0.3,0.1-0.6,0.1-0.8c0-0.6-0.1-1.2-0.3-1.7
	l40.1-19C80,404.9,81.7,405.8,83.5,405.8z M103.7,435c0.1,0.8,0.3,1.5,0.6,2.1L60.5,474c-0.9-0.6-2-1-3.2-1c-0.5,0-1.1,0.1-1.6,0.2
	l-19.1-44.3c0.7-0.5,1.3-1.1,1.8-1.9L103.7,435z M61.5,482.4c0.3-0.4,0.6-0.8,0.9-1.3l53.5,19.2c0,0.3-0.1,0.6-0.1,0.9
	c0,0.1,0,0.3,0,0.4l-27.4,7.2c-0.9-1.9-2.8-3.2-5.1-3.2c-1,0-1.9,0.2-2.7,0.7L61.5,482.4z M88.3,513.7l41.4,5.8
	c0,0.5,0.1,0.9,0.3,1.4l-40.3,23.5c-0.9-1.3-2.3-2.2-4-2.4l-1.2-25.3C86.2,516.3,87.6,515.2,88.3,513.7z M134.3,524.7
	c0.3,0.1,0.6,0.1,1,0.1c3.1,0,5.6-2.5,5.6-5.6c0,0,0,0,0-0.1l27.4-5c0.1,0.4,0.3,0.7,0.5,1.1L127.5,552c-0.3-0.2-0.6-0.4-1-0.6
	L134.3,524.7z M168,512.2l-27.5,5c-0.1-0.2-0.2-0.4-0.3-0.6l61.3-44.8l-25.2,35.7c-0.8-0.5-1.8-0.8-2.8-0.8
	C170.5,506.7,168,509.2,168,512.2z M200.4,466.2l-57.6,0.1c-0.3-1.9-1.6-3.5-3.4-4.2l7.9-33.4c0.1,0,0.2,0,0.3,0
	c3.1,0,5.6-2.5,5.6-5.6c0-1.9-1-3.6-2.4-4.6l10.7-24.1c0.6,0.2,1.2,0.3,1.8,0.3c0.6,0,1.2-0.1,1.8-0.3l37.3,68.5
	C201.4,463.8,200.7,465,200.4,466.2z M166.8,393.6c0.1-0.1,0.3-0.2,0.4-0.4l25.2,17.7c-0.3,0.7-0.5,1.5-0.5,2.3c0,3,2.4,5.5,5.5,5.6
	l6.6,43.1L166.8,393.6z M228.7,451.8l24.8,28.9c-0.8,1-1.3,2.2-1.3,3.5c0,2.4,1.5,4.5,3.7,5.2l-0.9,5.2c-0.1,0-0.1,0-0.2,0
	c-0.9,0-1.7,0.2-2.4,0.6L228.7,451.8z M255,479.4l-26.4-30.8c0.8-1,1.3-2.2,1.3-3.6c0-1.3-0.4-2.5-1.2-3.4l28.5-29.7
	c0.9,0.6,1.9,0.9,3.1,0.9c0.1,0,0.3,0,0.4,0l7.2,28.4c-1.9,0.9-3.2,2.8-3.2,5.1c0,2.2,1.2,4,3,5l-9.1,27.5c-0.3,0-0.5-0.1-0.8-0.1
	C256.8,478.6,255.8,478.9,255,479.4z M269.6,451.8c0.2,0,0.5,0,0.7,0c2.7,0,5-1.9,5.5-4.5l28.5-5.1c0.2,0.4,0.3,0.8,0.6,1.2
	l-43.5,36.6c-0.3-0.2-0.6-0.4-0.9-0.6L269.6,451.8z M304,440.2l-28.1,5.1c-0.5-2.6-2.7-4.6-5.5-4.6c-0.2,0-0.3,0-0.5,0l-7.2-28.3
	c1.9-0.9,3.3-2.8,3.3-5.1c0-0.2,0-0.4,0-0.7l25.5-7.8c0.9,1.8,2.8,3,5,3c0.2,0,0.4,0,0.6,0l9.8,33.6
	C305.1,436.4,304,438.2,304,440.2z M342.1,399.8c1-0.1,2-0.5,2.8-1.2l40.5,26.2c-0.4,0.7-0.6,1.6-0.6,2.5c0,1,0.3,2,0.8,2.8
	l-44.9,37.6c-0.7-0.6-1.4-0.9-2.3-1.1L342.1,399.8z M346.2,397.1c0.5-0.8,0.8-1.8,0.8-2.9c0-0.1,0-0.2,0-0.2l25.3-6.7
	c0.9,1.8,2.8,3.1,5,3.1c0.2,0,0.3,0,0.5,0l10.4,31.8c-0.6,0.3-1.2,0.6-1.7,1.1L346.2,397.1z M369.6,321.7l20.4,23.9
	c-0.8,1-1.3,2.2-1.3,3.5c0,1.8,0.8,3.3,2.1,4.3l-12.2,25.7c-0.4-0.1-0.8-0.1-1.3-0.1c0,0-0.1,0-0.1,0l-9.1-56.6
	C368.6,322.3,369.1,322.1,369.6,321.7z M362.6,321.5c1,0.8,2.2,1.3,3.5,1.3l9.1,56.7c-1,0.4-1.9,1.1-2.5,2l-54.9-19.4
	c0-0.3,0.1-0.6,0.1-0.9c0-1-0.3-1.9-0.7-2.7L362.6,321.5z M317.9,290c1.4,0,2.7-0.6,3.7-1.5l39.5,26.5c-0.3,0.7-0.5,1.4-0.5,2.2
	c0,1,0.3,1.9,0.7,2.7L316,357c-0.8-0.6-1.7-1.1-2.7-1.3L317.9,290z M315.3,289.4c0.2,0.1,0.4,0.2,0.6,0.3l-4.7,66
	c-0.9,0.2-1.7,0.6-2.4,1.1l-19.5-23.1c0.8-1,1.3-2.2,1.3-3.6c0-1.5-0.6-2.9-1.6-3.9L315.3,289.4z M287.4,325.2
	c-0.7-0.3-1.5-0.5-2.4-0.5c-3.1,0-5.6,2.5-5.6,5.6c0,0.1,0,0.2,0,0.4l-27.7,4.3c-0.1-0.4-0.2-0.7-0.4-1.1l62.1-45.1L287.4,325.2z
	 M275.8,252.8c1.3,0,2.5-0.4,3.4-1.2l33.6,30.2c-0.2,0.4-0.3,0.8-0.4,1.2l-47.5-1.6c-0.2-1.5-1.1-2.9-2.3-3.7l11.8-25
	C274.8,252.8,275.3,252.8,275.8,252.8z M252,144.7l21.7,97.3c-0.4,0.2-0.7,0.4-1.1,0.6l-20.7-24c0.8-1,1.3-2.2,1.3-3.6
	c0-2.6-1.8-4.9-4.3-5.4L252,144.7z M246.9,209.6c-0.1,0-0.1,0-0.2,0l-8.9-31.2c1.9-0.9,3.1-2.8,3.1-5c0-1.9-0.9-3.5-2.3-4.6
	l11.4-24.1L246.9,209.6z M226.2,110.2l20.7,23.5c-0.8,1-1.3,2.2-1.3,3.5c0,2.2,1.3,4.2,3.2,5.1l-12.1,25.7c-0.5-0.1-0.9-0.2-1.4-0.2
	l-10.1-57.1C225.6,110.5,225.9,110.4,226.2,110.2z M219.6,109.1c0.9,1,2.2,1.6,3.6,1.7l10.2,57.3c-0.9,0.3-1.6,0.8-2.2,1.5
	l-55.3-19.5c0-0.3,0.1-0.6,0.1-0.9c0-1-0.3-2-0.7-2.8L219.6,109.1z M174.3,78.5c1.3,0,2.6-0.5,3.5-1.3l40.4,26.3
	c-0.2,0.5-0.3,1.1-0.3,1.7c0,0.8,0.2,1.6,0.5,2.2l-44.6,37.4c-0.7-0.6-1.5-1-2.3-1.2L174.3,78.5z M171.6,77.8
	c0.2,0.1,0.5,0.2,0.7,0.3l-2.8,65.5c-0.9,0.1-1.8,0.5-2.5,1l-20.1-23c0.8-1,1.2-2.2,1.2-3.5c0-1.6-0.6-3-1.7-4L171.6,77.8z
	 M170,76.4c0,0,0.1,0.1,0.1,0.1l-25.2,36.6c-0.7-0.3-1.5-0.5-2.3-0.5c-2.9,0-5.3,2.3-5.6,5.1l-36.4-0.6c-0.1-0.3-0.1-0.6-0.2-1
	L170,76.4z M95.5,123.6c2.5-0.2,4.6-2,5.1-4.5l36.6,0.6c0.1,0.4,0.3,0.9,0.5,1.3l-43.8,36.9c-0.6-0.5-1.3-0.8-2-1.1L95.5,123.6z
	 M93.1,123.3c0.1,0.1,0.3,0.1,0.4,0.1l-3.6,33.2c-2.9,0.2-5.2,2.6-5.2,5.6c0,1.3,0.4,2.5,1.2,3.4l-26.8,29.8L93.1,123.3z
	 M79.3,229.5l-19.7-24.6c0.9-1,1.4-2.3,1.4-3.7c0-1.3-0.4-2.5-1.2-3.4L87.4,167c0.4,0.2,0.8,0.5,1.3,0.6l-7.1,61.1
	C80.8,228.7,80,229,79.3,229.5z M80.6,288.8c0.8-1,1.3-2.2,1.3-3.6c0-2-1.1-3.8-2.7-4.8l3.3-40.6c0.8,0,1.6-0.3,2.2-0.6l25.2,29.5
	c-0.8,1-1.3,2.2-1.3,3.5c0,2.3,1.4,4.3,3.4,5.2l-7.7,35.2c-0.1,0-0.1,0-0.2,0c-1,0-2,0.3-2.8,0.8L80.6,288.8z M100.1,322
	c1,1.1,2.5,1.8,4.1,1.8c1,0,2-0.3,2.8-0.8l25.3,29.6c-0.8,1-1.3,2.2-1.3,3.5l-28.5,5.1c-0.8-2.1-2.8-3.7-5.2-3.7
	c-2.7,0-5,1.9-5.5,4.5l-27.2-14.1c0.2-0.6,0.3-1.2,0.3-1.8c0-0.5-0.1-0.9-0.2-1.4L100.1,322z M37.8,314.1l60.8,4.7
	c0.1,0.6,0.2,1.1,0.4,1.6L63.9,343c-1-1.4-2.7-2.4-4.6-2.4c-1,0-1.9,0.2-2.7,0.7l-19.9-24.7C37.3,315.9,37.7,315.1,37.8,314.1z
	 M33.7,318.6c0.6-0.1,1.1-0.4,1.6-0.7l19.8,24.6c-0.8,1-1.4,2.3-1.4,3.7c0,1.9,1,3.7,2.5,4.7l-11.4,23.9c-0.5-0.1-0.9-0.2-1.4-0.2
	L33.7,318.6z M43,385.8c0.1,0,0.2,0,0.3,0c1.8,0,3.5-0.9,4.5-2.3l30.4,15.1c-0.1,0.5-0.2,1-0.2,1.6c0,0.5,0.1,1,0.2,1.5l-40.2,19
	c-0.7-0.8-1.5-1.5-2.6-1.8L43,385.8z M10.9,390.7c0-0.4,0-0.8-0.1-1.1l27.4-7c0.6,1.3,1.6,2.3,2.9,2.8l-7.7,33.3
	c-0.9,0-1.7,0.3-2.4,0.6L9.3,394.6C10.3,393.6,10.9,392.2,10.9,390.7z M17.3,452.6c-0.2,0-0.4,0-0.6,0L6.6,396.2
	c0.4-0.1,0.8-0.2,1.1-0.4l21.7,24.7c-0.9,1-1.4,2.3-1.4,3.7c0,1.8,0.8,3.4,2.1,4.4l-12.3,24C17.7,452.6,17.5,452.6,17.3,452.6z
	 M22.8,459.4c0.1-0.4,0.1-0.8,0.1-1.2c0-2.2-1.3-4.1-3.1-5l12.1-23.7c0.5,0.2,1.1,0.3,1.7,0.3c0.4,0,0.9-0.1,1.3-0.1L54,474.1
	c-0.3,0.2-0.5,0.4-0.7,0.7L22.8,459.4z M31.6,493.2c2.4-0.7,4.1-2.8,4.1-5.4c0-0.3,0-0.6-0.1-0.9l16.6-6c0.5,1.1,1.4,2.1,2.4,2.7
	l-18.3,64c-0.1,0-0.2,0-0.3,0L31.6,493.2z M42.1,619c-1-1.2-2.6-2-4.3-2c-0.2,0-0.4,0-0.6,0l-6.7-22.6c1.4-0.7,2.5-2,2.9-3.5
	l48.8,4.2c0.1,0.3,0.1,0.6,0.3,0.9L42.1,619z M82.2,593.1l-48.6-4.2c-0.2-2.1-1.6-3.9-3.4-4.7l5.4-25.5c0.1,0,0.1,0,0.2,0
	c1.4,0,2.7-0.5,3.7-1.4l43.5,33.9C82.5,591.8,82.3,592.4,82.2,593.1z M84.2,589.7l-43.5-33.9c0.4-0.8,0.7-1.7,0.7-2.7
	c0-0.9-0.2-1.7-0.6-2.4L80.3,516c0.7,0.4,1.4,0.7,2.2,0.8l1.2,25.3c-2.5,0.6-4.3,2.8-4.3,5.4c0,2.8,2.1,5.2,4.9,5.6l1.8,35.6
	C85.4,588.9,84.7,589.3,84.2,589.7z M90.6,589.3c-0.8-0.5-1.6-0.7-2.6-0.8L86.3,553c1.5-0.4,2.8-1.3,3.6-2.7l28.6,6c0,0,0,0.1,0,0.1
	c0,1.2,0.4,2.3,1,3.2L90.6,589.3z M142.8,588.8l-49.7,3.8c-0.2-0.7-0.5-1.4-1-2l28.8-29.5c0.9,0.6,2,1,3.1,1c0.9,0,1.7-0.2,2.5-0.6
	l17.8,24.1C143.5,586.4,142.9,587.6,142.8,588.8z M182.4,578.7l-29,8.2c-0.9-1.9-2.8-3.1-5-3.1c-0.9,0-1.7,0.2-2.5,0.6l-17.8-24.1
	c0.3-0.3,0.6-0.7,0.8-1.1l53.5,18.6c0,0.2,0,0.4,0,0.6C182.4,578.5,182.4,578.6,182.4,578.7z M183,575.9l-53.4-18.6
	c0-0.3,0.1-0.6,0.1-0.9c0-1.1-0.3-2.1-0.8-2.9l41.3-36.8c0.9,0.7,2.1,1.2,3.4,1.2c0.1,0,0.1,0,0.2,0l11.4,55.6
	C184.2,574.1,183.5,574.9,183,575.9z M189.3,573c-0.4-0.1-0.9-0.2-1.3-0.2c-0.3,0-0.6,0-0.9,0.1l-11.4-55.4c0.3-0.1,0.7-0.3,1-0.5
	l22.1,23.2c-0.7,0.9-1.1,2.1-1.1,3.3c0,1.9,1,3.6,2.5,4.6L189.3,573z M202.7,537.9c-0.9,0.1-1.7,0.4-2.5,0.9l-22.1-23.2
	c0.7-0.9,1-2,1-3.3c0-1.3-0.5-2.6-1.3-3.5l25.6-36.3c0.4,0.2,0.8,0.3,1.2,0.4L202.7,537.9z M204.7,538l2-65.1
	c1.2-0.2,2.3-0.7,3.1-1.6l39.6,27.3c-0.2,0.5-0.2,1-0.2,1.6c0,1,0.3,2,0.7,2.8l-43,36.1C206.3,538.6,205.5,538.2,204.7,538z
	 M235.5,574.1c-0.9-1.9-2.8-3.3-5.1-3.3c-1,0-1.9,0.3-2.7,0.7l-20.1-24.5c0.2-0.3,0.4-0.5,0.6-0.8l55.2,19.6c0,0.2,0,0.4,0,0.6
	c0,0.2,0,0.5,0,0.7L235.5,574.1z M264,563.9l-55.1-19.5c0-0.3,0.1-0.6,0.1-0.9c0-1-0.3-2-0.7-2.8l43-36.1c0.8,0.7,1.9,1.2,3.1,1.3
	l11.8,55.8C265.2,562.2,264.4,562.9,264,563.9z M281.2,532.2c-3,0.2-5.3,2.6-5.3,5.6c0,1.9,1,3.6,2.5,4.6l-8.1,18.5
	c-0.4-0.1-0.9-0.2-1.3-0.2c-0.3,0-0.7,0-1,0.1l-11.6-55.3c2.4-0.7,4.1-2.8,4.1-5.4c0-2.3-1.4-4.3-3.5-5.2l0.9-5.2
	c1,0,1.9-0.3,2.7-0.7l19.4,23.5c-0.8,1-1.3,2.2-1.3,3.6c0,2.5,1.6,4.6,3.9,5.3L281.2,532.2z M315.7,506.7c0,0.3,0,0.6,0.1,0.9
	l-26.4,6.3c-0.9-2-2.8-3.3-5.1-3.3c-1,0-1.9,0.3-2.7,0.7l-19.4-23.5c0.8-1,1.3-2.2,1.3-3.6c0-1-0.3-2-0.7-2.8l43.6-36.7
	c0.9,0.7,2,1.1,3.3,1.1c0,0,0,0,0,0l10.1,55.5C317.4,502.1,315.7,504.2,315.7,506.7z M321.7,501.1l-10.1-55.7c0.4-0.1,0.7-0.3,1-0.5
	l20.8,22.7c-1.2,1-2,2.6-2,4.3c0,1.9,1,3.6,2.5,4.6L323,501.4C322.6,501.2,322.1,501.2,321.7,501.1z M359.8,503.6l-33,2
	c-0.3-1.3-1-2.4-2-3.2l10.9-25c0.4,0.1,0.8,0.2,1.3,0.2c1.2,0,2.4-0.4,3.3-1.1l21.1,23.7C360.5,501,359.9,502.2,359.8,503.6z
	 M396.7,495.2l-26.1,7.3c-0.7-2.2-2.8-3.9-5.3-3.9c-0.8,0-1.5,0.2-2.2,0.4L341.7,475c0.2-0.3,0.3-0.6,0.5-0.9l54.6,19.7
	c-0.1,0.3-0.1,0.6-0.1,0.9C396.7,494.9,396.7,495.1,396.7,495.2z M397.5,491.9l-54.8-19.7c0-0.1,0-0.2,0-0.2c0-1-0.3-2-0.7-2.8
	l44.9-37.6c1,0.8,2.2,1.3,3.5,1.3l10,56.6C399.1,489.9,398.1,490.8,397.5,491.9z M414.9,463.9l-11.3,25.4c-0.4-0.1-0.8-0.2-1.3-0.2
	l-10-56.6c2.1-0.8,3.7-2.8,3.7-5.2c0-2.8-2-5.1-4.6-5.5l3.6-65l21,97.3c-2,0.8-3.5,2.8-3.5,5.2C412.4,461.1,413.4,462.8,414.9,463.9
	z"/>
</svg>
