<?xml version="1.0" encoding="utf-8"?>
<!-- Generator: Adobe Illustrator 21.0.0, SVG Export Plug-In . SVG Version: 6.00 Build 0)  -->
<!DOCTYPE svg PUBLIC "-//W3C//DTD SVG 1.1//EN" "http://www.w3.org/Graphics/SVG/1.1/DTD/svg11.dtd">
<svg version="1.1" id="Layer_1" xmlns="http://www.w3.org/2000/svg" xmlns:xlink="http://www.w3.org/1999/xlink" x="0px" y="0px"
	 viewBox="0 0 445.6 397.7" style="enable-background:new 0 0 445.6 397.7;" xml:space="preserve">
<style type="text/css">
	.st0{fill:#FFFFFF;}
</style>
<path class="st0" d="M433.9,330.7c0-3.1-2.5-5.6-5.6-5.6c-0.7,0-1.3,0.1-1.9,0.3l-13.4-23.3c1.2-1,2-2.6,2-4.3
	c0-3.1-2.5-5.6-5.6-5.6c-2.4,0-4.4,1.5-5.2,3.6l-27.2-5.4c0,0,0-0.1,0-0.1c0-3.1-2.5-5.6-5.6-5.6c-2.7,0-5,1.9-5.5,4.5l-33,1.4
	c-0.6-2.5-2.8-4.4-5.5-4.4c-2.5,0-4.5,1.6-5.3,3.8l-27.1-4.2c-0.2-2.8-2.3-5-5.1-5.3l-0.5-5.3c2.4-0.7,4.1-2.8,4.1-5.4
	c0-2.5-1.7-4.6-3.9-5.4l12.2-100.1c2.9-0.2,5.3-2.6,5.3-5.6c0-3.1-2.5-5.6-5.6-5.6c-0.6,0-1.3,0.1-1.8,0.3l-13.6-24.2
	c1.2-1,2-2.6,2-4.3c0-3.1-2.5-5.6-5.6-5.6c-2.4,0-4.4,1.5-5.2,3.6l-26.2-4.7c0-3.1-2.5-5.6-5.6-5.6c-2.5,0-4.6,1.6-5.3,3.8
	l-34.3,1.2c-0.7-2.3-2.8-4-5.4-4c-2.4,0-4.4,1.5-5.2,3.5l-26.2-5.3c-0.3-2.8-2.7-5-5.6-5c-3.1,0-5.6,2.5-5.6,5.6
	c0,1.4,0.5,2.6,1.3,3.6l-18.4,26.4c-0.7-0.3-1.5-0.5-2.3-0.5c-3.1,0-5.6,2.5-5.6,5.6c0,1.3,0.5,2.5,1.2,3.5l-21.4,31.9
	c-0.7-0.3-1.4-0.5-2.2-0.5c-0.5,0-0.9,0.1-1.4,0.2l-7-15.5c1.5-1,2.4-2.7,2.4-4.6c0-2.5-1.7-4.6-3.9-5.4l12.2-100.3
	c2.9-0.2,5.3-2.6,5.3-5.6c0-3.1-2.5-5.6-5.6-5.6c-0.6,0-1.2,0.1-1.8,0.3L97.1,21.7c1.3-1,2.1-2.6,2.1-4.3c0-3.1-2.5-5.6-5.6-5.6
	c-2.4,0-4.5,1.5-5.3,3.7L62,10.9c-0.5-2.6-2.8-4.5-5.5-4.5c-2.5,0-4.6,1.6-5.3,3.8L18,11.6c-0.6-2.5-2.8-4.4-5.5-4.4
	c-2.4,0-4.5,1.5-5.3,3.7L0,9.9v2l6.9,1c0,0.6,0.1,1.1,0.3,1.7L0,17.9v2.2l8.1-3.8c0.8,1,1.9,1.7,3.2,2L5.8,74.8
	c-2.5,0.5-4.4,2.8-4.4,5.5c0,2.1,1.2,4,2.9,4.9L0,107.4v10.5l6.2-32.1c0.3,0,0.5,0.1,0.8,0.1c1,0,1.9-0.3,2.7-0.7l27.6,34
	c-0.7,0.8-1.2,1.9-1.3,3.1L3.4,124c-0.4-1.9-1.7-3.5-3.4-4.2v10.9l13.4,22.5c-1.5,1-2.5,2.7-2.5,4.7c0,1.5,0.6,2.9,1.6,4L0,179.9
	v3.5l14.2-20.5c0.7,0.3,1.4,0.5,2.1,0.5l9.7,66.1c-0.5,0.2-0.9,0.4-1.3,0.7L0,204.8v2.9l22.1,22.7L0,217.7v2.3L22.5,233
	c-0.2,0.6-0.3,1.2-0.3,1.9c0,1.1,0.3,2.1,0.8,2.9L0,258.4v2.7l24.4-21.8c0.1,0,0.1,0.1,0.2,0.1L0,291.1v4.7l26.3-55.5
	c0.5,0.1,1,0.2,1.5,0.2c0.2,0,0.5,0,0.7-0.1l8,25.1c-1.8,0.9-3,2.8-3,5c0,1.5,0.6,2.8,1.5,3.8L0,307.8v2.8l36.6-35.1
	c0.7,0.4,1.6,0.6,2.5,0.6c0.2,0,0.4,0,0.6,0l11.6,29.5c-1.4,0.8-2.4,2.2-2.7,3.8L0,314.1v2l48.5-4.7c0.2,1.1,0.7,2.1,1.4,2.9
	l-10.3,15.7c-0.6-0.2-1.2-0.3-1.8-0.3c-2,0-3.7,1-4.7,2.5L0,318.1v2.2l32.4,13.7c-0.1,0.4-0.1,0.8-0.1,1.2c0,0.6,0.1,1.2,0.3,1.7
	L0,354.1v2.3l33.4-17.7c1,1.3,2.6,2.1,4.4,2.1c2.1,0,3.9-1.2,4.9-2.9l18.1,5.6c0,0.1,0,0.2,0,0.3c0,0.1,0,0.1,0,0.2L0,356.9v2
	L61,346l-28.2,16.8c-1-1.2-2.5-1.9-4.2-1.9c-2.5,0-4.6,1.6-5.3,3.8L0,361.4v2l22.9,3.3c0,0.4,0.1,0.8,0.2,1.2L0,378.6v2.2l23.9-11
	c0.7,1,1.8,1.8,3,2.2l-2.6,25.8h2l2.6-25.6c0.5,0,1.1-0.2,1.5-0.3l14.3,23.9c-0.6,0.6-1.1,1.2-1.5,2h19.4l55.6-12.5
	c0.3,0.7,0.7,1.3,1.3,1.8l-7.1,10.7h2.4l6.4-9.6c0.7,0.3,1.4,0.5,2.2,0.5c2.4,0,4.4-1.5,5.2-3.6l27.2,4.9c0,0,0,0,0,0
	c0,0.5,0.1,1,0.2,1.4l-13.6,6.4h4.7l9.7-4.6c1,1.4,2.7,2.4,4.6,2.4c3.1,0,5.6-2.5,5.6-5.6s-2.5-5.6-5.6-5.6c-0.3,0-0.5,0-0.8,0.1
	l-10.4-31.6c1.6-1,2.8-2.7,2.8-4.7l57.1-4.2c0.4,1.1,1.2,2.1,2.2,2.8l-21.8,51.1h2.2l21.4-50.2l-2.4,42.8c-2.8,0.3-4.9,2.7-4.9,5.6
	c0,0.6,0.1,1.2,0.3,1.8h10.6c0.2-0.6,0.3-1.2,0.3-1.8c0-1.5-0.6-2.9-1.6-3.9l17.7-25c0.7,0.3,1.5,0.5,2.4,0.5c0,0,0,0,0.1,0
	l5.8,30.2h2l-5.9-30.6c0.5-0.2,1-0.5,1.4-0.8l30.6,27.4c-0.5,0.8-0.8,1.8-0.8,2.8c0,0.4,0,0.8,0.1,1.2h16.5l-5.4-1.1
	c0,0,0-0.1,0-0.1c0-2.4-1.5-4.5-3.6-5.2l5.2-28.8c2.6,0,4.7-1.7,5.4-4.1l28.5,2.5c0.3,1.7,1.4,3.2,2.9,4l-6.6,32.8h2l6.5-32.3
	c0.2,0,0.4,0,0.6,0c0.7,0,1.5-0.1,2.1-0.4l28,32.6h8.5c-0.8-0.5-1.8-0.9-2.8-0.9l-9.4-65.8c0.8-0.3,1.6-0.7,2.2-1.3l48.5,33.7
	c-0.4,0.8-0.6,1.6-0.6,2.6c0,0.8,0.2,1.6,0.5,2.3l-37,29.5h3.2l35-27.9c0.5,0.5,1,0.9,1.7,1.1l-6.7,26.7h2.1l6.6-26.2
	c0.1,0,0.2,0,0.3,0l3.8,26.2h2l-3.9-26.6c2.1-0.8,3.7-2.8,3.7-5.3c0-1.4-0.5-2.6-1.3-3.6l17.9-26.4c0.2,0.1,0.4,0.2,0.7,0.2
	l-6.7,61.6h2l6.7-61.4C431.6,336.1,433.9,333.7,433.9,330.7z M325.8,363.9c1.1-1,1.8-2.5,1.8-4.1c0-1.5-0.6-2.9-1.6-3.9l18.1-25.3
	c0.7,0.3,1.4,0.5,2.2,0.5l9.4,65.8c-0.4,0.1-0.8,0.3-1.1,0.5L325.8,363.9z M281.2,351.4l-12.3-26.5c0.3-0.2,0.5-0.4,0.7-0.6
	l47.3,33.2c-0.2,0.4-0.3,0.9-0.4,1.3l-28.3-2.5c-0.3-2.9-2.7-5.1-5.6-5.1C282.1,351.2,281.7,351.3,281.2,351.4z M283.9,286.1
	c0,1.5,0.6,2.9,1.6,4L268,315.3c-0.7-0.3-1.5-0.5-2.3-0.5c-3.1,0-5.6,2.5-5.6,5.6c0,1.5,0.6,2.9,1.6,3.9L241.6,353l18.7-42.7
	c0.4,0.1,0.8,0.1,1.2,0.1c3.1,0,5.6-2.5,5.6-5.6c0-1.2-0.4-2.4-1.1-3.3l19.6-26.7c0.6,0.3,1.3,0.5,2,0.5l0.5,5.3
	C285.6,281.4,283.9,283.5,283.9,286.1z M271.4,192.7c0,1,0.3,1.9,0.7,2.7l-37.4,29.7c-0.9-0.8-2.1-1.3-3.5-1.4l-9.1-64.6
	c0.8-0.3,1.6-0.7,2.2-1.4l47.5,32.8C271.5,191.3,271.4,192,271.4,192.7z M119.1,259.8c0,3.1,2.5,5.6,5.6,5.6c0.5,0,1-0.1,1.4-0.2
	l10.7,22.6l-43-55l26.1,24C119.4,257.7,119.1,258.7,119.1,259.8z M79.1,197.5c0-0.1,0-0.2,0-0.4l26.3-6.5c0.3,0.6,0.7,1.2,1.1,1.6
	l-18.7,26.5c-0.7-0.3-1.5-0.5-2.4-0.5c-0.5,0-0.9,0.1-1.4,0.2l-7.4-16.3C78.1,201.1,79.1,199.4,79.1,197.5z M93.4,162.8
	c0,1.5,0.6,2.8,1.5,3.9L76,192.5c-0.3-0.2-0.6-0.3-0.9-0.4l5.5-56.9c0.4-0.1,0.9-0.2,1.3-0.4l13.6,23.8
	C94.2,159.6,93.4,161.1,93.4,162.8z M82.4,85.8c0,0.8,0.2,1.5,0.5,2.2l-37.7,30.5c-0.9-0.8-2.1-1.3-3.3-1.3l-8-65.1
	c0.9-0.3,1.6-0.7,2.3-1.4l46.7,32.8C82.6,84.3,82.4,85.1,82.4,85.8z M134.6,314.3c0-3.1-2.5-5.6-5.6-5.6c-2.4,0-4.5,1.6-5.3,3.7
	l-27.6-3.9c0-0.1,0-0.2,0-0.3l40.3-10.4c0.8,1.8,2.6,3.1,4.7,3.2l4.8,41.4c0,0-0.1,0-0.1,0l-12.9-24.2
	C134,317.3,134.6,315.9,134.6,314.3z M123.7,316l-52.8,24.5c-0.1-0.2-0.3-0.3-0.4-0.5l18.1-25.9c0.6,0.2,1.2,0.3,1.9,0.3
	c2.5,0,4.6-1.6,5.3-3.9l27.6,3.9C123.4,315,123.5,315.5,123.7,316z M69.8,275.3c0-2-1-3.7-2.6-4.7l17.1-41.3c0.2,0,0.3,0.1,0.5,0.1
	l4.4,74c-0.5,0.1-1,0.3-1.5,0.6l-19.4-24.9C69.2,278.1,69.8,276.8,69.8,275.3z M68.9,338.8c-0.8-0.4-1.6-0.6-2.5-0.6
	c-0.3,0-0.6,0-0.9,0.1L57,315.1c1.5-0.9,2.5-2.6,2.6-4.4L85,310c0.3,1.2,0.9,2.3,1.9,3.1L68.9,338.8z M56.4,305.3l7.2-24.4
	c0.2,0,0.4,0,0.6,0c0.9,0,1.8-0.2,2.6-0.6l19.4,25c-0.6,0.8-1.1,1.7-1.2,2.7l-25.6,0.7C58.9,307.1,57.8,305.9,56.4,305.3z
	 M61.2,270.6l-29-32.3c0.7-0.9,1.2-2.1,1.2-3.4c0,0,0,0,0,0l46.9-8.8c0.4,1.1,1.2,2,2.1,2.6l-17.1,41.3c-0.4-0.1-0.8-0.1-1.2-0.1
	C63.1,269.7,62.1,270.1,61.2,270.6z M32.4,231.6l37.4-29.9c1,0.8,2.3,1.4,3.7,1.4c0.5,0,1-0.1,1.4-0.2l7.4,16.3
	c-1.5,1-2.4,2.7-2.4,4.6c0,0.1,0,0.1,0,0.2L33,232.8C32.9,232.4,32.6,232,32.4,231.6z M69.4,193.6l-47.8-33.4
	c0.3-0.7,0.5-1.5,0.5-2.3c0-0.4,0-0.8-0.1-1.1l53-23.6c0.8,1.1,2.1,1.9,3.5,2.2l-5.5,56.7C71.7,192,70.4,192.7,69.4,193.6z
	 M21.2,154.9c-0.2-0.3-0.4-0.6-0.7-0.9l18.6-26c0.7,0.3,1.5,0.5,2.4,0.5c2.4,0,4.4-1.5,5.2-3.6l27.2,4.9c0,0.5,0.1,1.1,0.2,1.6
	L21.2,154.9z M84,89.7c0.5,0.6,1.2,1,1.9,1.3l-6.3,33.1c0,0,0,0-0.1,0c-2.4,0-4.4,1.5-5.2,3.6l-27.2-4.9c0-1-0.3-1.9-0.7-2.7
	L84,89.7z M87.8,91.4C87.9,91.4,87.9,91.4,87.8,91.4l9.4,66.1c0,0-0.1,0-0.1,0l-13.6-23.9c1-1,1.6-2.4,1.6-3.9
	c0-2.4-1.5-4.4-3.6-5.2L87.8,91.4z M88.1,228.8l49.2,63c-0.9,1-1.4,2.3-1.4,3.7c0,0.1,0,0.3,0,0.4l-40.4,10.4
	c-0.8-1.6-2.4-2.8-4.3-3l-4.4-74C87.3,229.2,87.7,229,88.1,228.8z M127.9,264.4c0.3-0.2,0.5-0.4,0.7-0.6l47,32.4
	c-0.1,0.3-0.2,0.6-0.3,0.9l-28.2-2.2c-0.3-2.8-2.7-5.1-5.6-5.1c-0.5,0-1,0.1-1.4,0.2L127.9,264.4z M200.4,265.5
	c0,1.5,0.6,2.8,1.5,3.8l-18.6,24.3c-0.4-0.2-0.7-0.3-1.1-0.4l4.4-56.2c0.5,0,0.9-0.2,1.3-0.3l14.3,24.7
	C201.1,262.4,200.4,263.9,200.4,265.5z M180.2,293c-1.3,0.1-2.5,0.7-3.4,1.6l-47-32.4c0.3-0.7,0.5-1.5,0.5-2.3c0-0.5-0.1-1-0.2-1.4
	l51.3-23.9c0.7,1.1,1.9,1.9,3.2,2.3L180.2,293z M128.6,255.9l17.9-25.8c0.6,0.2,1.3,0.3,1.9,0.3c2.4,0,4.5-1.5,5.2-3.6l26.7,4.8
	c0,0.4,0.1,0.7,0.1,1.1l-51.3,24C129.1,256.4,128.9,256.1,128.6,255.9z M150.4,219.6l5-29.2c0.2,0,0.4,0,0.6,0
	c2.6,0,4.8-1.8,5.4-4.2l28.5,2.2c0.2,2.1,1.6,3.8,3.4,4.6l-7.1,32.7c-0.1,0-0.1,0-0.2,0c-2.5,0-4.6,1.6-5.3,3.8l-26.6-4.8
	C154.1,222.4,152.6,220.4,150.4,219.6z M195.3,193.4c0.1,0,0.1,0,0.2,0c1,0,2-0.3,2.8-0.8l28.3,33.1c-0.8,1-1.3,2.2-1.3,3.5
	c0,1.4,0.6,2.8,1.4,3.7l-18.6,27.3c-0.7-0.3-1.5-0.5-2.3-0.5c-0.7,0-1.4,0.1-2.1,0.4l-14.3-24.7c1.2-1,2-2.6,2-4.3
	c0-2.3-1.4-4.3-3.4-5.2L195.3,193.4z M282.4,269.8c0,1.5,0.6,2.8,1.5,3.9l-19.4,26.5c-0.5-0.3-1-0.6-1.6-0.7l5.1-56.5
	c0.6,0,1.1-0.2,1.6-0.4l14.6,23.2C283.1,266.7,282.4,268.2,282.4,269.8z M261,299.3c-1.4,0.1-2.6,0.7-3.5,1.6L211,268
	c0.4-0.8,0.6-1.6,0.6-2.5c0-0.6-0.1-1.2-0.3-1.7l51.6-23.3c0.7,1.1,1.8,1.9,3.1,2.2L261,299.3z M210.4,262c-0.1-0.2-0.3-0.4-0.5-0.5
	l18.5-27.2c0.8,0.4,1.6,0.6,2.6,0.6c2.2,0,4.1-1.3,5-3.1l26,5.4c0,0,0,0.1,0,0.1c0,0.5,0.1,0.9,0.2,1.4L210.4,262z M201.1,187.8
	c0-1.5-0.6-2.9-1.5-3.9l18.3-25.1c0.7,0.3,1.4,0.5,2.2,0.6l9.1,64.6c-0.4,0.1-0.7,0.3-1.1,0.5l-28.3-33.1
	C200.6,190.4,201.1,189.2,201.1,187.8z M273.4,197c0.5,0.4,1,0.7,1.6,0.9l-7.2,33.9c-0.1,0-0.1,0-0.2,0c-2.4,0-4.4,1.5-5.2,3.5
	l-25.8-5.3c0-0.2,0-0.4,0-0.6c0-1-0.2-1.9-0.7-2.6L273.4,197z M276.8,199l9.5,65.5c-0.1,0-0.2,0.1-0.3,0.1l-14.6-23.2
	c1.1-1,1.8-2.5,1.8-4.1c0-2.3-1.4-4.3-3.5-5.2L276.8,199z M242.2,361.8c0-1.5-0.6-2.9-1.6-3.9l22.7-32.5c0.7,0.3,1.5,0.5,2.3,0.5
	c0.5,0,1-0.1,1.4-0.2l12.3,26.5c-1.4,1-2.4,2.7-2.4,4.6c0,2.4,1.5,4.5,3.6,5.2l-5.2,28.8c-1.3,0-2.6,0.5-3.5,1.3l-30.6-27.4
	C241.9,363.9,242.2,362.9,242.2,361.8z M216.2,347.4c2.8-0.3,4.9-2.7,4.9-5.6c0-1-0.3-1.9-0.7-2.7l37.2-30.3
	c0.3,0.3,0.6,0.5,0.9,0.7l-20.5,46.8c-0.4-0.1-0.8-0.2-1.3-0.2c-3.1,0-5.6,2.5-5.6,5.6c0,1.5,0.6,2.9,1.6,3.9l-17.7,25
	c-0.3-0.2-0.7-0.3-1.1-0.4L216.2,347.4z M207.8,270.8c0.8-0.3,1.4-0.7,2-1.2l46.5,33c-0.3,0.7-0.5,1.5-0.5,2.3
	c0,0.9,0.2,1.7,0.5,2.4l-37.3,30.3c-0.9-0.8-2.1-1.3-3.3-1.3L207.8,270.8z M184.9,302.3c0.9-1,1.5-2.3,1.5-3.8
	c0-1.4-0.6-2.8-1.5-3.8l18.6-24.3c0.7,0.3,1.5,0.6,2.3,0.6l8,65.4c-0.4,0.1-0.7,0.3-1,0.4L184.9,302.3z M211.1,337.9l-64.6-39.7
	c0.2-0.4,0.4-0.8,0.5-1.2l28.2,2.2c0.3,2.8,2.7,5,5.6,5c0.9,0,1.8-0.2,2.5-0.6L211.1,337.9z M147.9,342.3l-4.8-41.4
	c0.8-0.2,1.5-0.6,2.1-1.1l65.1,40.1c-0.2,0.6-0.4,1.3-0.4,2l-57.1,4.2C152.1,343.9,150.2,342.4,147.9,342.3z M127.5,379l17.8-26
	c0.7,0.3,1.5,0.5,2.3,0.5c0.3,0,0.6,0,0.9-0.1l10.4,31.6c-1.2,0.6-2.1,1.7-2.6,3l-27.2-4.9c0,0,0,0,0,0
	C129.1,381.4,128.5,380,127.5,379z M125,377.5l4.7-57.6c0.6-0.1,1.1-0.2,1.6-0.4l12.8,24c-1.3,1-2.1,2.6-2.1,4.4c0,1.6,0.6,3,1.7,4
	l-17.8,26C125.5,377.7,125.2,377.6,125,377.5z M119.6,379l-47.9-33.2c0.2-0.6,0.3-1.2,0.3-1.9c0-0.5-0.1-1.1-0.2-1.6l52.8-24.5
	c0.8,1,1.8,1.7,3.1,2l-4.7,57.6C121.6,377.5,120.4,378.1,119.6,379z M51.2,394.9L66,349.4c0.2,0,0.3,0,0.5,0c1.7,0,3.2-0.8,4.3-2
	l47.7,33.1c-0.3,0.7-0.5,1.5-0.5,2.3c0,0.1,0,0.2,0,0.2l-64.3,14.5C53.2,396.5,52.3,395.5,51.2,394.9z M62.3,347.6
	c0.5,0.5,1.1,1,1.8,1.3l-14.8,45.4c-0.2,0-0.5-0.1-0.8-0.1c-0.7,0-1.4,0.1-2,0.4l-14.3-23.9c1.2-1,1.9-2.5,1.9-4.2
	c0-0.7-0.1-1.3-0.4-2L62.3,347.6z M51.5,315.4c0.7,0.4,1.6,0.6,2.5,0.6c0.4,0,0.8,0,1.1-0.1l8.4,23.2c-1,0.6-1.8,1.5-2.3,2.5
	l-18-5.6c0-0.3,0.1-0.5,0.1-0.8c0-1.7-0.8-3.3-2-4.3L51.5,315.4z M41.6,275.4c1.2-0.6,2.2-1.7,2.7-3l14.3,2.8c0,0,0,0,0,0.1
	c0,2.2,1.3,4.1,3.1,5l-7.2,24.4c-0.1,0-0.3,0-0.4,0c-0.3,0-0.6,0-0.9,0.1L41.6,275.4z M30.4,239.8c0.1-0.1,0.2-0.1,0.3-0.2l29,32.3
	c-0.3,0.4-0.6,0.9-0.8,1.4l-14.3-2.8c0,0,0,0,0-0.1c0-3.1-2.5-5.6-5.6-5.6c-0.2,0-0.5,0-0.7,0.1L30.4,239.8z M18.3,163.2
	c0.8-0.3,1.6-0.7,2.2-1.3l47.9,33.5c-0.3,0.7-0.5,1.4-0.5,2.2c0,1,0.2,1.9,0.7,2.7l-37.6,30c-0.8-0.6-1.9-0.9-3-1L18.3,163.2z
	 M37.5,126.7l-18.6,26c-0.7-0.3-1.5-0.5-2.4-0.5c-0.4,0-0.9,0.1-1.3,0.1l-13.8-23c1-0.8,1.7-2,1.9-3.3l32.7-1.7
	C36.3,125.2,36.8,126.1,37.5,126.7z M15,17.9l13.7,24.6c-1.3,1-2.1,2.6-2.1,4.3c0,3,2.3,5.4,5.3,5.6l8,65.1c-0.4,0.1-0.7,0.3-1,0.4
	l-27.6-34c0.8-1,1.4-2.3,1.4-3.7c0-2.8-2.1-5.1-4.8-5.5l5.5-56.3C13.9,18.3,14.5,18.1,15,17.9z M52.2,15.6L34.5,41.7
	c-0.7-0.3-1.5-0.5-2.3-0.5c-0.6,0-1.2,0.1-1.8,0.3L16.6,16.7c0.8-0.8,1.3-1.9,1.5-3.1l32.9-1.4C51,13.5,51.4,14.7,52.2,15.6z
	 M88.5,19.9L36.8,43.6c-0.2-0.3-0.4-0.6-0.7-0.8l17.6-26c0.8,0.5,1.8,0.7,2.8,0.7c2.8,0,5.1-2,5.5-4.6l25.9,4.4
	C87.9,18.3,88.1,19.2,88.5,19.9z M92.1,22.8l-4.7,57.5C86.1,80.4,84.9,81,84,82L37.3,49.2c0.3-0.7,0.5-1.5,0.5-2.3
	c0-0.5-0.1-0.9-0.2-1.4l52.2-23.9C90.4,22.1,91.2,22.5,92.1,22.8z M109,47.3c-1.3,1-2.1,2.6-2.1,4.3c0,1.5,0.6,2.9,1.5,3.9
	L90.1,80.6c-0.2-0.1-0.4-0.2-0.7-0.2l4.7-57.5c0.4,0,0.8-0.1,1.2-0.3L109,47.3z M98.9,155.2l-9.1-64c2.2-0.8,3.7-2.8,3.7-5.3
	c0-1.6-0.7-3.1-1.8-4.1l18.3-25.1c0.3,0.1,0.5,0.2,0.8,0.3L98.9,155.2z M107.3,183.7c-1.5,1-2.4,2.7-2.4,4.6c0,0.1,0,0.2,0,0.4
	l-26.3,6.5c-0.2-0.5-0.6-1-1-1.5l19-25.9c0.7,0.4,1.6,0.6,2.5,0.6c0.5,0,0.9-0.1,1.4-0.2L107.3,183.7z M110.6,193.9l12,60.7
	c-0.5,0.2-0.9,0.4-1.3,0.7l-31.1-28.5c0.5-0.9,0.9-1.9,0.9-3c0-1.5-0.6-2.9-1.6-3.9l18.7-26.5C108.9,193.8,109.7,193.9,110.6,193.9
	C110.5,193.9,110.6,193.9,110.6,193.9z M113.8,192.9l30.1,28.8c-0.6,0.9-1,2-1,3.2c0,1.7,0.8,3.2,1.9,4.2L127,254.8
	c-0.7-0.3-1.5-0.5-2.3-0.5c0,0-0.1,0-0.1,0l-12-60.7C113,193.4,113.4,193.1,113.8,192.9z M152.8,180.3c-1.4,1-2.3,2.7-2.3,4.6
	c0,2.2,1.2,4.1,3.1,5l-5,29.4c-1.2,0-2.2,0.4-3.1,1l-30.1-28.8c0.6-0.9,0.9-1.9,0.9-3.1c0-1.6-0.7-3-1.7-4l21.2-31.7
	c0.8,0.5,1.8,0.8,2.9,0.8c0.5,0,1-0.1,1.5-0.2L152.8,180.3z M142.5,151.8l48,33.7c-0.1,0.3-0.2,0.6-0.3,0.9l-28.5-2.2
	c-0.3-2.8-2.7-5-5.6-5c-0.5,0-1,0.1-1.5,0.2l-12.8-27C142,152.2,142.2,152,142.5,151.8z M194.9,119.4c0,0.5,0.1,0.9,0.2,1.4
	l-52,23.8c-0.2-0.3-0.4-0.5-0.6-0.7l18.3-26.3c0.8,0.4,1.7,0.7,2.7,0.7c2.6,0,4.8-1.8,5.4-4.2l26,5.2
	C194.9,119.4,194.9,119.4,194.9,119.4z M199.1,124.9l-4.2,57.4c-1.3,0.1-2.5,0.7-3.3,1.6l-48-33.7c0.3-0.7,0.5-1.5,0.5-2.3
	c0-0.5-0.1-0.9-0.2-1.4l52-23.8C196.7,123.7,197.8,124.5,199.1,124.9z M202.4,124.7l14.3,24.9c-1.2,1-2,2.6-2,4.3
	c0,1.5,0.6,2.9,1.5,3.9L198,182.8c-0.3-0.2-0.7-0.3-1-0.4l4.2-57.4C201.6,125,202,124.9,202.4,124.7z M241.5,122.3l-18.8,26.5
	c-0.7-0.3-1.5-0.5-2.4-0.5c-0.7,0-1.3,0.1-1.9,0.3l-14.3-24.9c1.1-0.9,1.9-2.3,2-3.9l33.8-1.2C240,120,240.6,121.3,241.5,122.3z
	 M277.1,126.4l-52.2,24.2c-0.2-0.2-0.4-0.5-0.6-0.7l18.8-26.5c0.7,0.3,1.5,0.5,2.4,0.5c2.4,0,4.4-1.5,5.2-3.6l26.2,4.7
	C276.9,125.5,277,126,277.1,126.4z M281.1,130.4l-4.6,56.7c-1.4,0.1-2.7,0.8-3.6,1.8l-47.4-32.8c0.3-0.7,0.5-1.5,0.5-2.3
	c0-0.5-0.1-1-0.2-1.4l52.2-24.2C278.7,129.3,279.8,130.1,281.1,130.4z M297.9,154.5c-1.2,1-2,2.6-2,4.3c0,1.5,0.6,2.9,1.6,3.9
	l-18,24.9c-0.3-0.2-0.7-0.3-1.1-0.4l4.6-56.7c0.4,0,0.9-0.1,1.3-0.3L297.9,154.5z M287.9,262.3l-9.3-64.2c2.3-0.7,4-2.8,4-5.4
	c0-1.5-0.6-2.8-1.5-3.8l18-25c0.2,0.1,0.5,0.2,0.7,0.3L287.9,262.3z M322.1,293.2l-51.8,23.9c-0.2-0.3-0.4-0.5-0.6-0.7l17.5-25.2
	c0.7,0.3,1.5,0.5,2.3,0.5c2.5,0,4.6-1.7,5.3-3.9l27.1,4.2C321.9,292.4,322,292.8,322.1,293.2z M326.1,297.3l-4.6,57
	c-1.3,0.1-2.5,0.7-3.4,1.6l-47.3-33.2c0.3-0.7,0.5-1.5,0.5-2.3c0-0.5-0.1-0.9-0.2-1.4l51.8-23.9
	C323.7,296.1,324.8,296.9,326.1,297.3z M329.3,297.1l13.6,24.2c-1.2,1-2,2.6-2,4.3c0,1.5,0.6,2.9,1.6,3.9l-18.1,25.3
	c-0.3-0.1-0.6-0.3-1-0.3l4.6-57C328.5,297.4,328.9,297.3,329.3,297.1z M367.5,294.3l-18.6,26.3c-0.7-0.3-1.5-0.5-2.4-0.5
	c-0.6,0-1.3,0.1-1.8,0.3l-13.6-24.2c1.1-0.9,1.8-2.1,2-3.5l32.9-1.4C366.2,292.4,366.7,293.5,367.5,294.3z M403.9,297.8
	c0,0.5,0.1,0.9,0.2,1.3l-52.9,23.3c-0.2-0.3-0.4-0.5-0.6-0.8l18.6-26.3c0.7,0.3,1.5,0.5,2.4,0.5c2.4,0,4.4-1.5,5.2-3.6L403.9,297.8
	C403.9,297.8,403.9,297.8,403.9,297.8z M408.1,303.3l-4.4,57c-1.4,0-2.6,0.6-3.6,1.4l-48.6-33.7c0.3-0.7,0.5-1.5,0.5-2.3
	c0-0.5-0.1-0.9-0.2-1.3l52.9-23.3C405.6,302.1,406.8,302.9,408.1,303.3z M424.7,326.4c-1.2,1-2,2.6-2,4.3c0,1.6,0.6,3,1.7,4
	L406.7,361c-0.3-0.2-0.6-0.3-1-0.4l4.4-57.1c0.5,0,0.9-0.2,1.3-0.3L424.7,326.4z"/>
</svg>
