<?xml version="1.0" encoding="utf-8"?>
<!-- Generator: Adobe Illustrator 21.0.0, SVG Export Plug-In . SVG Version: 6.00 Build 0)  -->
<!DOCTYPE svg PUBLIC "-//W3C//DTD SVG 1.1//EN" "http://www.w3.org/Graphics/SVG/1.1/DTD/svg11.dtd">
<svg version="1.1" id="Layer_1" xmlns="http://www.w3.org/2000/svg" xmlns:xlink="http://www.w3.org/1999/xlink" x="0px" y="0px"
	 viewBox="0 0 657 657" style="enable-background:new 0 0 657 657;" xml:space="preserve">
<style type="text/css">
	.st0{fill:#D6D6D6;}
	.st1{fill:#F56199;}
	.st2{fill:#DB3F74;}
	.st3{fill:#FA8D22;}
	.st4{fill:#DB6F46;}
	.st5{fill:#6C33E2;}
	.st6{fill:#331A99;}
</style>
<g>
	<g>
		<circle class="st0" cx="91.2" cy="191.5" r="36"/>
	</g>
	<g>
		<circle class="st0" cx="91.2" cy="465.5" r="36"/>
	</g>
	<g>
		<circle class="st0" cx="328.5" cy="602.5" r="36"/>
	</g>
	<g>
		<circle class="st0" cx="328.5" cy="54.5" r="36"/>
	</g>
	<g>
		<circle class="st0" cx="565.8" cy="191.5" r="36"/>
	</g>
	<g>
		<circle class="st0" cx="565.8" cy="465.5" r="36"/>
	</g>
	<g>
		<path class="st0" d="M91.2,405.9c-8.6,0-15.5-6.9-15.5-15.5V266.6c0-8.6,6.9-15.5,15.5-15.5s15.5,6.9,15.5,15.5v123.7
			C106.7,398.9,99.8,405.9,91.2,405.9z"/>
	</g>
	<g>
		<path class="st0" d="M261,579c-2.6,0-5.3-0.7-7.7-2.1l-102.2-59c-7.4-4.3-10-13.8-5.7-21.2c4.3-7.4,13.8-10,21.2-5.7l102.2,59
			c7.4,4.3,10,13.8,5.7,21.2C271.5,576.2,266.3,579,261,579z"/>
	</g>
	<g>
		<path class="st0" d="M396,579c-5.4,0-10.6-2.8-13.4-7.8c-4.3-7.4-1.7-16.9,5.7-21.2l102.2-59c7.4-4.3,16.9-1.7,21.2,5.7
			c4.3,7.4,1.7,16.9-5.7,21.2l-102.2,59C401.3,578.3,398.7,579,396,579z"/>
	</g>
	<g>
		<path class="st0" d="M565.8,405.9c-8.6,0-15.5-6.9-15.5-15.5V266.6c0-8.6,6.9-15.5,15.5-15.5s15.5,6.9,15.5,15.5v123.7
			C581.3,398.9,574.3,405.9,565.8,405.9z"/>
	</g>
	<g>
		<path class="st0" d="M498.2,168c-2.6,0-5.3-0.7-7.7-2.1l-102.2-59c-7.4-4.3-10-13.8-5.7-21.2c4.3-7.4,13.8-10,21.2-5.7l102.2,59
			c7.4,4.3,10,13.8,5.7,21.2C508.8,165.2,503.6,168,498.2,168z"/>
	</g>
	<g>
		<path class="st0" d="M158.8,168c-5.4,0-10.6-2.8-13.4-7.8c-4.3-7.4-1.7-16.9,5.7-21.2l102.2-59c7.4-4.3,16.9-1.7,21.2,5.7
			c4.3,7.4,1.7,16.9-5.7,21.2l-102.2,59C164.1,167.4,161.4,168,158.8,168z"/>
	</g>
	<g>
		<path class="st1" d="M468,455H189c-8.6,0-15.5-6.9-15.5-15.5S180.4,424,189,424h279c8.6,0,15.5,6.9,15.5,15.5S476.6,455,468,455z"
			/>
	</g>
	<g>
		<path class="st2" d="M468,455H328.5c-8.6,0-15.5-6.9-15.5-15.5s6.9-15.5,15.5-15.5H468c8.6,0,15.5,6.9,15.5,15.5
			S476.6,455,468,455z"/>
	</g>
	<g>
		<path class="st3" d="M161.2,402.4c-2.6,0-5.3-0.7-7.7-2.1c-7.4-4.3-10-13.8-5.7-21.2l137.3-237.8c4.3-7.4,13.8-10,21.2-5.7
			c7.4,4.3,10,13.8,5.7,21.2L174.6,394.6C171.8,399.6,166.6,402.4,161.2,402.4z"/>
	</g>
	<g>
		<path class="st4" d="M161.2,402.4c-2.6,0-5.3-0.7-7.7-2.1c-7.4-4.3-10-13.8-5.7-21.2l68.6-118.9c4.3-7.4,13.8-10,21.2-5.7
			c7.4,4.3,10,13.8,5.7,21.2l-68.6,118.9C171.8,399.6,166.6,402.4,161.2,402.4z"/>
	</g>
	<g>
		<path class="st5" d="M496,402.8c-5.4,0-10.6-2.8-13.4-7.8L344.8,156.5c-4.3-7.4-1.7-16.9,5.7-21.2s16.9-1.7,21.2,5.7l137.8,238.6
			c4.3,7.4,1.7,16.9-5.7,21.2C501.3,402.1,498.7,402.8,496,402.8z"/>
	</g>
	<g>
		<path class="st6" d="M427.2,283.5c-5.4,0-10.6-2.8-13.4-7.8l-68.9-119.3c-4.3-7.4-1.7-16.9,5.7-21.2s16.9-1.7,21.2,5.7l68.9,119.3
			c4.3,7.4,1.7,16.9-5.7,21.2C432.5,282.8,429.8,283.5,427.2,283.5z"/>
	</g>
</g>
</svg>
