<?xml version="1.0" encoding="utf-8"?>
<!-- Generator: Adobe Illustrator 21.0.0, SVG Export Plug-In . SVG Version: 6.00 Build 0)  -->
<!DOCTYPE svg PUBLIC "-//W3C//DTD SVG 1.1//EN" "http://www.w3.org/Graphics/SVG/1.1/DTD/svg11.dtd">
<svg version="1.1" id="Layer_1" xmlns="http://www.w3.org/2000/svg" xmlns:xlink="http://www.w3.org/1999/xlink" x="0px" y="0px"
	 viewBox="0 0 185.5 185.5" style="enable-background:new 0 0 185.5 185.5;" xml:space="preserve">
<style type="text/css">
	.st0{fill:#DC3E75;}
	.st1{fill:#FFFFFF;}
</style>
<g>
	
		<rect x="-81.1" y="42.7" transform="matrix(0.7071 -0.7071 0.7071 0.7071 -30.5868 70.7005)" class="st0" width="302.2" height="59"/>
	<g>
		<path class="st1" d="M21.3,128.3c2.1,0.1,4.7-0.5,6.8-2.6c2.4-2.4,2-4.5,1-5.6c-1.6-1.6-3.7-0.3-6.1,1.1c-3,1.8-6.5,3.8-9.5,0.8
			c-2.5-2.5-2.1-6.4,1-9.5c2.3-2.3,4.8-3.4,7.5-3.3l0.4,2.9c-2.3-0.1-4.4,1-6,2.6c-1.6,1.6-1.9,3.6-0.7,4.9c1.3,1.3,3.4,0.2,5.7-1.2
			c3.1-1.8,6.7-3.9,9.8-0.7c2.3,2.3,2.9,6.1-1.1,10.1c-2.7,2.7-5.6,3.6-8.2,3.5L21.3,128.3z"/>
		<path class="st1" d="M29.6,97.3c4.4-4.4,10.8-4.2,15.2,0.2c4.4,4.4,4.6,10.7,0.2,15.2s-10.8,4.2-15.2-0.2
			C25.4,108.1,25.2,101.8,29.6,97.3z M31.6,99.3c-3.2,3.2-2.8,7.6,0.5,10.9c3.3,3.3,7.7,3.7,10.9,0.5c3.1-3.1,2.7-7.6-0.5-10.9
			C39.2,96.5,34.7,96.2,31.6,99.3z"/>
		<path class="st1" d="M40,87.4l2.2-2.2l12.9,12.9l6.8-6.8l2,2l-9,9L40,87.4z"/>
		<path class="st1" d="M51.5,75.9l5.3-5.3c4.6-4.6,10.9-4.5,15.2-0.3c4.3,4.3,4.3,10.5-0.3,15.1l-5.3,5.3L51.5,75.9z M69.7,83.6
			c3.4-3.4,3-7.9,0-10.9c-3.1-3.1-7.4-3.6-10.9-0.1l-3.1,3.1l10.9,10.9L69.7,83.6z"/>
		<path class="st1" d="M79.6,47.4c4.4-4.4,10.8-4.2,15.2,0.2c4.4,4.4,4.6,10.7,0.2,15.2S84.2,67,79.8,62.6
			C75.4,58.1,75.1,51.8,79.6,47.4z M81.6,49.4c-3.2,3.2-2.8,7.6,0.5,10.9c3.3,3.3,7.7,3.7,10.9,0.5c3.1-3.1,2.7-7.6-0.5-10.9
			C89.2,46.6,84.7,46.2,81.6,49.4z"/>
		<path class="st1" d="M90,37.4l2.3-2.3l9,9c2.5,2.5,5.6,2.8,8.2,0.2s2.4-5.6-0.2-8.2l-9-9l2.3-2.3l9,9c3.7,3.7,4,8.2-0.1,12.3
			c-4.2,4.2-8.7,3.8-12.3,0.2L90,37.4z"/>
		<path class="st1" d="M111.4,19.9l-4.6,4.6l-2-2l11.4-11.4l2,2l-4.6,4.6l12.9,12.9l-2.2,2.2L111.4,19.9z"/>
	</g>
</g>
</svg>
