<?xml version="1.0" encoding="utf-8"?>
<!-- Generator: Adobe Illustrator 21.0.0, SVG Export Plug-In . SVG Version: 6.00 Build 0)  -->
<!DOCTYPE svg PUBLIC "-//W3C//DTD SVG 1.1//EN" "http://www.w3.org/Graphics/SVG/1.1/DTD/svg11.dtd">
<svg version="1.1" id="Layer_1" xmlns="http://www.w3.org/2000/svg" xmlns:xlink="http://www.w3.org/1999/xlink" x="0px" y="0px"
	 viewBox="0 0 1283.2 232.7" style="enable-background:new 0 0 1283.2 232.7;" xml:space="preserve">
<style type="text/css">
	.st0{fill:#FFFFFF;}
</style>
<g>
	<g>
		<g>
			<circle class="st0" cx="19.5" cy="66.3" r="13.1"/>
		</g>
		<g>
			<circle class="st0" cx="19.5" cy="166.4" r="13.1"/>
		</g>
		<g>
			<circle class="st0" cx="106.2" cy="216.4" r="13.1"/>
		</g>
		<g>
			<circle class="st0" cx="106.2" cy="16.3" r="13.1"/>
		</g>
		<g>
			<circle class="st0" cx="192.9" cy="66.3" r="13.1"/>
		</g>
		<g>
			<circle class="st0" cx="192.9" cy="166.4" r="13.1"/>
		</g>
		<g>
			<path class="st0" d="M19.5,144.6c-3.1,0-5.7-2.5-5.7-5.7V93.8c0-3.1,2.5-5.7,5.7-5.7s5.7,2.5,5.7,5.7v45.2
				C25.2,142.1,22.7,144.6,19.5,144.6z"/>
		</g>
		<g>
			<path class="st0" d="M81.5,207.9c-1,0-1.9-0.2-2.8-0.8l-37.3-21.6c-2.7-1.6-3.6-5-2.1-7.7c1.6-2.7,5-3.6,7.7-2.1l37.3,21.6
				c2.7,1.6,3.6,5,2.1,7.7C85.4,206.8,83.5,207.9,81.5,207.9z"/>
		</g>
		<g>
			<path class="st0" d="M130.9,207.9c-2,0-3.9-1-4.9-2.8c-1.6-2.7-0.6-6.2,2.1-7.7l37.3-21.6c2.7-1.6,6.2-0.6,7.7,2.1
				c1.6,2.7,0.6,6.2-2.1,7.7l-37.3,21.6C132.8,207.6,131.8,207.9,130.9,207.9z"/>
		</g>
		<g>
			<path class="st0" d="M192.9,144.6c-3.1,0-5.7-2.5-5.7-5.7V93.8c0-3.1,2.5-5.7,5.7-5.7c3.1,0,5.7,2.5,5.7,5.7v45.2
				C198.5,142.1,196,144.6,192.9,144.6z"/>
		</g>
		<g>
			<path class="st0" d="M168.2,57.7c-1,0-1.9-0.2-2.8-0.8L128,35.4c-2.7-1.6-3.6-5-2.1-7.7c1.6-2.7,5-3.6,7.7-2.1L171,47.2
				c2.7,1.6,3.6,5,2.1,7.7C172.1,56.7,170.2,57.7,168.2,57.7z"/>
		</g>
		<g>
			<path class="st0" d="M44.2,57.7c-2,0-3.9-1-4.9-2.8c-1.6-2.7-0.6-6.2,2.1-7.7l37.3-21.6c2.7-1.6,6.2-0.6,7.7,2.1
				c1.6,2.7,0.6,6.2-2.1,7.7L47,57C46.1,57.5,45.2,57.7,44.2,57.7z"/>
		</g>
		<g>
			<path class="st0" d="M157.2,162.6H55.2c-3.1,0-5.7-2.5-5.7-5.7c0-3.1,2.5-5.7,5.7-5.7h101.9c3.1,0,5.7,2.5,5.7,5.7
				C162.8,160,160.3,162.6,157.2,162.6z"/>
		</g>
		<g>
			<path class="st0" d="M157.2,162.6h-51c-3.1,0-5.7-2.5-5.7-5.7c0-3.1,2.5-5.7,5.7-5.7h51c3.1,0,5.7,2.5,5.7,5.7
				C162.8,160,160.3,162.6,157.2,162.6z"/>
		</g>
		<g>
			<path class="st0" d="M45.1,143.3c-1,0-1.9-0.2-2.8-0.8c-2.7-1.6-3.6-5-2.1-7.7L90.3,48c1.6-2.7,5-3.6,7.7-2.1
				c2.7,1.6,3.6,5,2.1,7.7L50,140.5C49,142.3,47.1,143.3,45.1,143.3z"/>
		</g>
		<g>
			<path class="st0" d="M45.1,143.3c-1,0-1.9-0.2-2.8-0.8c-2.7-1.6-3.6-5-2.1-7.7l25.1-43.4c1.6-2.7,5-3.6,7.7-2.1
				c2.7,1.6,3.6,5,2.1,7.7L50,140.5C49,142.3,47.1,143.3,45.1,143.3z"/>
		</g>
		<g>
			<path class="st0" d="M167.4,143.5c-2,0-3.9-1-4.9-2.8l-50.3-87.1c-1.6-2.7-0.6-6.2,2.1-7.7c2.7-1.6,6.2-0.6,7.7,2.1l50.3,87.1
				c1.6,2.7,0.6,6.2-2.1,7.7C169.3,143.2,168.4,143.5,167.4,143.5z"/>
		</g>
		<g>
			<path class="st0" d="M142.2,99.9c-2,0-3.9-1-4.9-2.8l-25.2-43.6c-1.6-2.7-0.6-6.2,2.1-7.7c2.7-1.6,6.2-0.6,7.7,2.1l25.2,43.6
				c1.6,2.7,0.6,6.2-2.1,7.7C144.2,99.7,143.2,99.9,142.2,99.9z"/>
		</g>
	</g>
	<g>
		<path class="st0" d="M294.7,57.5c18.8,0,30.7,9.1,37.7,19.9l-16.1,8.7c-4.2-6.4-12-11.5-21.6-11.5c-16.5,0-28.5,12.7-28.5,29.9
			s12,29.9,28.5,29.9c8.3,0,15.7-3.4,19.7-7v-11.1H290V99.8h43.4v34.8c-9.3,10.4-22.3,17.2-38.8,17.2c-26.6,0-48.5-18.6-48.5-47.3
			C246.2,75.8,268,57.5,294.7,57.5z"/>
		<path class="st0" d="M348.5,84.1h17.3v9c4.6-5.9,12.8-10.5,21-10.5v16.9c-1.2-0.3-2.9-0.4-4.8-0.4c-5.7,0-13.4,3.1-16.3,7.4v43.6
			h-17.3V84.1z"/>
		<path class="st0" d="M437.2,143.3c-4.5,5.3-12.3,8.5-20.9,8.5c-10.5,0-22.9-7.1-22.9-21.9c0-15.4,12.4-21,22.9-21
			c8.7,0,16.5,2.7,20.9,8.1v-9.2c0-6.7-5.7-11.1-14.5-11.1c-7.1,0-13.7,2.6-19.3,7.8l-6.6-11.6c8.1-7.1,18.4-10.4,28.8-10.4
			c15,0,28.8,6,28.8,25v42.6h-17.3V143.3z M437.2,126c-2.9-3.8-8.3-5.7-13.9-5.7c-6.8,0-12.4,3.7-12.4,10c0,6.1,5.6,9.7,12.4,9.7
			c5.6,0,11.1-1.9,13.9-5.7V126z"/>
		<path class="st0" d="M471.8,175.2V84.1h17.3v8.3c5.1-6.4,12.3-10,20.4-10c16.9,0,29.2,12.6,29.2,34.6s-12.3,34.7-29.2,34.7
			c-7.8,0-15-3.3-20.4-10.1v33.6H471.8z M504,97.9c-5.6,0-12,3.3-14.9,7.5v23.4c2.9,4.1,9.3,7.5,14.9,7.5c10,0,16.7-7.8,16.7-19.3
			C520.7,105.7,514,97.9,504,97.9z"/>
		<path class="st0" d="M596.3,109.9c0-9.2-4.8-12-12.3-12c-6.7,0-12,3.8-15,7.8v44.4h-17.3V59H569v33.7c4.2-5.1,12.4-10.2,23.2-10.2
			c14.5,0,21.4,7.9,21.4,20.8v46.8h-17.3V109.9z"/>
		<path class="st0" d="M710.2,136.8l6.7,7.8l-13.5,11.1l-7.2-8.6c-6.4,3-13.8,4.6-21.7,4.6c-27.5,0-47.5-19.7-47.5-47.1
			s20.1-47.1,47.5-47.1c27.6,0,47.7,19.7,47.7,47.1C722.1,117.4,717.7,128.6,710.2,136.8z M684,132.9l-10.4-12.2l13.5-10.9
			l10.4,12.2c3-4.8,4.6-10.8,4.6-17.3c0-17.1-10.9-29.9-27.7-29.9c-16.8,0-27.6,12.8-27.6,29.9c0,16.9,10.8,29.9,27.6,29.9
			C677.9,134.5,681.1,134,684,132.9z"/>
		<path class="st0" d="M735.8,59h19.4v74h38.5v17.1h-57.9V59z"/>
		<path class="st0" d="M802.3,109.7H835v14.7h-32.8V109.7z"/>
		<path class="st0" d="M848.2,59h64.5v16.7h-45.1v19.8h44.1v16.7h-44.1v21.2h45.1v16.8h-64.5V59z"/>
		<path class="st0" d="M971.9,141.8c-4.5,5.1-12.4,10-23.2,10c-14.5,0-21.3-7.9-21.3-20.8V84.1h17.3v40c0,9.1,4.8,12.2,12.2,12.2
			c6.7,0,12-3.7,15-7.5V84.1h17.3v66h-17.3V141.8z"/>
		<path class="st0" d="M1006.4,84.1h17.3v9c4.6-5.9,12.8-10.5,21-10.5v16.9c-1.2-0.3-2.9-0.4-4.8-0.4c-5.7,0-13.4,3.1-16.3,7.4v43.6
			h-17.3V84.1z"/>
		<path class="st0" d="M1051.4,117c0-18.7,13.1-34.6,34.8-34.6c21.9,0,35,15.8,35,34.6c0,18.8-13.1,34.7-35,34.7
			C1064.5,151.7,1051.4,135.9,1051.4,117z M1103.1,117c0-10.2-6.1-19.1-16.9-19.1c-10.8,0-16.8,8.9-16.8,19.1
			c0,10.4,6,19.3,16.8,19.3C1097,136.3,1103.1,127.4,1103.1,117z"/>
		<path class="st0" d="M1134,175.2V84.1h17.3v8.3c5.1-6.4,12.3-10,20.4-10c16.9,0,29.2,12.6,29.2,34.6s-12.3,34.7-29.2,34.7
			c-7.8,0-15-3.3-20.4-10.1v33.6H1134z M1166.2,97.9c-5.6,0-12,3.3-14.9,7.5v23.4c2.9,4.1,9.3,7.5,14.9,7.5c10,0,16.7-7.8,16.7-19.3
			C1182.9,105.7,1176.2,97.9,1166.2,97.9z"/>
		<path class="st0" d="M1243.8,82.5c19.7,0,33.1,14.7,33.1,36.3v3.8h-49c1.1,8.3,7.8,15.3,19,15.3c6.1,0,13.4-2.5,17.6-6.6l7.6,11.2
			c-6.7,6.1-16.9,9.1-27.2,9.1c-20.1,0-35.2-13.5-35.2-34.7C1209.6,97.9,1223.7,82.5,1243.8,82.5z M1227.5,110.9h32.5
			c-0.4-6.3-4.8-14.6-16.3-14.6C1233,96.3,1228.3,104.3,1227.5,110.9z"/>
	</g>
</g>
</svg>
