<?xml version="1.0" encoding="utf-8"?>
<!-- Generator: Adobe Illustrator 21.0.0, SVG Export Plug-In . SVG Version: 6.00 Build 0)  -->
<!DOCTYPE svg PUBLIC "-//W3C//DTD SVG 1.1//EN" "http://www.w3.org/Graphics/SVG/1.1/DTD/svg11.dtd">
<svg version="1.1" id="Layer_1" xmlns="http://www.w3.org/2000/svg" xmlns:xlink="http://www.w3.org/1999/xlink" x="0px" y="0px"
	 viewBox="0 0 48 48" style="enable-background:new 0 0 48 48;" xml:space="preserve">
<style type="text/css">
	.st0{fill:none;}
	.st1{fill:#999999;}
</style>
<path class="st0" d="M0,0h48v48H0V0z"/>
<path class="st1" d="M24,4C15.2,4,8,5,8,12v19c0,3.9,3.1,7,7,7l-3,3v1h24v-1l-3-3c3.9,0,7-3.1,7-7V12C40,5,32.8,4,24,4z M15,34
	c-1.7,0-3-1.3-3-3s1.3-3,3-3s3,1.3,3,3S16.7,34,15,34z M22,22H12V12h10V22z M33,34c-1.7,0-3-1.3-3-3s1.3-3,3-3s3,1.3,3,3
	S34.7,34,33,34z M36,22H26V12h10V22z"/>
</svg>
