<?xml version="1.0" encoding="utf-8"?>
<!-- Generator: Adobe Illustrator 21.0.0, SVG Export Plug-In . SVG Version: 6.00 Build 0)  -->
<!DOCTYPE svg PUBLIC "-//W3C//DTD SVG 1.1//EN" "http://www.w3.org/Graphics/SVG/1.1/DTD/svg11.dtd">
<svg version="1.1" id="Layer_1" xmlns="http://www.w3.org/2000/svg" xmlns:xlink="http://www.w3.org/1999/xlink" x="0px" y="0px"
	 viewBox="0 0 379.7 88.5" style="enable-background:new 0 0 379.7 88.5;" xml:space="preserve">
<style type="text/css">
	.st0{fill:#D6D5D5;}
	.st1{fill:#EF6397;}
	.st2{fill:#DC3E76;}
	.st3{fill:#F78C27;}
	.st4{fill:#DB7046;}
	.st5{fill:#6453A3;}
	.st6{fill:#3C328C;}
	.st7{fill:#231F20;}
	.st8{font-family:'ProximaNova-Bold';}
	.st9{font-size:37.0032px;}
	.st10{font-family:'ProximaNovaT-Thin';}
	.st11{font-size:24.4534px;}
</style>
<g>
	<g>
		<g>
			<circle class="st0" cx="13.5" cy="28.5" r="4.5"/>
		</g>
		<g>
			<circle class="st0" cx="13.5" cy="62.7" r="4.5"/>
		</g>
		<g>
			<circle class="st0" cx="43.1" cy="79.8" r="4.5"/>
		</g>
		<g>
			<circle class="st0" cx="43.1" cy="11.4" r="4.5"/>
		</g>
		<g>
			<circle class="st0" cx="72.8" cy="28.5" r="4.5"/>
		</g>
		<g>
			<circle class="st0" cx="72.8" cy="62.7" r="4.5"/>
		</g>
		<g>
			<path class="st0" d="M13.5,55.3c-1.1,0-1.9-0.9-1.9-1.9V37.9c0-1.1,0.9-1.9,1.9-1.9s1.9,0.9,1.9,1.9v15.5
				C15.4,54.4,14.6,55.3,13.5,55.3z"/>
		</g>
		<g>
			<path class="st0" d="M34.7,76.9c-0.3,0-0.7-0.1-1-0.3L21,69.2c-0.9-0.5-1.2-1.7-0.7-2.6c0.5-0.9,1.7-1.2,2.6-0.7l12.8,7.4
				c0.9,0.5,1.2,1.7,0.7,2.6C36,76.5,35.4,76.9,34.7,76.9z"/>
		</g>
		<g>
			<path class="st0" d="M51.6,76.9c-0.7,0-1.3-0.3-1.7-1c-0.5-0.9-0.2-2.1,0.7-2.6l12.8-7.4c0.9-0.5,2.1-0.2,2.6,0.7
				c0.5,0.9,0.2,2.1-0.7,2.6l-12.8,7.4C52.2,76.8,51.9,76.9,51.6,76.9z"/>
		</g>
		<g>
			<path class="st0" d="M72.8,55.3c-1.1,0-1.9-0.9-1.9-1.9V37.9c0-1.1,0.9-1.9,1.9-1.9s1.9,0.9,1.9,1.9v15.5
				C74.7,54.4,73.8,55.3,72.8,55.3z"/>
		</g>
		<g>
			<path class="st0" d="M64.3,25.6c-0.3,0-0.7-0.1-1-0.3l-12.8-7.4c-0.9-0.5-1.2-1.7-0.7-2.6c0.5-0.9,1.7-1.2,2.6-0.7l12.8,7.4
				c0.9,0.5,1.2,1.7,0.7,2.6C65.6,25.2,65,25.6,64.3,25.6z"/>
		</g>
		<g>
			<path class="st0" d="M21.9,25.6c-0.7,0-1.3-0.3-1.7-1c-0.5-0.9-0.2-2.1,0.7-2.6l12.8-7.4c0.9-0.5,2.1-0.2,2.6,0.7
				c0.5,0.9,0.2,2.1-0.7,2.6l-12.8,7.4C22.6,25.5,22.3,25.6,21.9,25.6z"/>
		</g>
		<g>
			<path class="st1" d="M60.6,61.4H25.7c-1.1,0-1.9-0.9-1.9-1.9s0.9-1.9,1.9-1.9h34.8c1.1,0,1.9,0.9,1.9,1.9S61.6,61.4,60.6,61.4z"
				/>
		</g>
		<g>
			<path class="st2" d="M60.6,61.4H43.1c-1.1,0-1.9-0.9-1.9-1.9s0.9-1.9,1.9-1.9h17.4c1.1,0,1.9,0.9,1.9,1.9S61.6,61.4,60.6,61.4z"
				/>
		</g>
		<g>
			<path class="st3" d="M22.2,54.8c-0.3,0-0.7-0.1-1-0.3c-0.9-0.5-1.2-1.7-0.7-2.6l17.1-29.7c0.5-0.9,1.7-1.2,2.6-0.7
				c0.9,0.5,1.2,1.7,0.7,2.6L23.9,53.9C23.6,54.5,22.9,54.8,22.2,54.8z"/>
		</g>
		<g>
			<path class="st4" d="M22.2,54.8c-0.3,0-0.7-0.1-1-0.3c-0.9-0.5-1.2-1.7-0.7-2.6l8.6-14.8c0.5-0.9,1.7-1.2,2.6-0.7
				c0.9,0.5,1.2,1.7,0.7,2.6l-8.6,14.8C23.6,54.5,22.9,54.8,22.2,54.8z"/>
		</g>
		<g>
			<path class="st5" d="M64.1,54.9c-0.7,0-1.3-0.3-1.7-1L45.2,24.1c-0.5-0.9-0.2-2.1,0.7-2.6s2.1-0.2,2.6,0.7L65.7,52
				c0.5,0.9,0.2,2.1-0.7,2.6C64.7,54.8,64.4,54.9,64.1,54.9z"/>
		</g>
		<g>
			<path class="st6" d="M55.5,40c-0.7,0-1.3-0.3-1.7-1l-8.6-14.9c-0.5-0.9-0.2-2.1,0.7-2.6s2.1-0.2,2.6,0.7l8.6,14.9
				c0.5,0.9,0.2,2.1-0.7,2.6C56.1,39.9,55.8,40,55.5,40z"/>
		</g>
	</g>
	<g>
		<text transform="matrix(1 0 0 1 92.9414 44.0511)" class="st7 st8 st9">GraphQL-Europe</text>
		<text transform="matrix(1 0 0 1 92.9424 71.0853)" class="st7 st10 st11">Berlin, May 21st, 2017</text>
	</g>
</g>
</svg>
