<?xml version="1.0" encoding="utf-8"?>
<!-- Generator: Adobe Illustrator 21.0.0, SVG Export Plug-In . SVG Version: 6.00 Build 0)  -->
<!DOCTYPE svg PUBLIC "-//W3C//DTD SVG 1.1//EN" "http://www.w3.org/Graphics/SVG/1.1/DTD/svg11.dtd">
<svg version="1.1" id="Layer_1" xmlns="http://www.w3.org/2000/svg" xmlns:xlink="http://www.w3.org/1999/xlink" x="0px" y="0px"
	 viewBox="0 0 379.7 88.5" style="enable-background:new 0 0 379.7 88.5;" xml:space="preserve">
<style type="text/css">
	.st0{fill:#D6D5D5;}
	.st1{fill:#EF6397;}
	.st2{fill:#DC3E76;}
	.st3{fill:#F78C27;}
	.st4{fill:#DB7046;}
	.st5{fill:#6453A3;}
	.st6{fill:#3C328C;}
	.st7{fill:#231F20;}
</style>
<g>
	<g>
		<g>
			<circle class="st0" cx="13.5" cy="28.5" r="4.5"/>
		</g>
		<g>
			<circle class="st0" cx="13.5" cy="62.7" r="4.5"/>
		</g>
		<g>
			<circle class="st0" cx="43.1" cy="79.8" r="4.5"/>
		</g>
		<g>
			<circle class="st0" cx="43.1" cy="11.4" r="4.5"/>
		</g>
		<g>
			<circle class="st0" cx="72.8" cy="28.5" r="4.5"/>
		</g>
		<g>
			<circle class="st0" cx="72.8" cy="62.7" r="4.5"/>
		</g>
		<g>
			<path class="st0" d="M13.5,55.3c-1.1,0-1.9-0.9-1.9-1.9V37.9c0-1.1,0.9-1.9,1.9-1.9s1.9,0.9,1.9,1.9v15.5
				C15.4,54.4,14.6,55.3,13.5,55.3z"/>
		</g>
		<g>
			<path class="st0" d="M34.7,76.9c-0.3,0-0.7-0.1-1-0.3L21,69.2c-0.9-0.5-1.2-1.7-0.7-2.6c0.5-0.9,1.7-1.2,2.6-0.7l12.8,7.4
				c0.9,0.5,1.2,1.7,0.7,2.6C36,76.5,35.4,76.9,34.7,76.9z"/>
		</g>
		<g>
			<path class="st0" d="M51.6,76.9c-0.7,0-1.3-0.3-1.7-1c-0.5-0.9-0.2-2.1,0.7-2.6l12.8-7.4c0.9-0.5,2.1-0.2,2.6,0.7
				c0.5,0.9,0.2,2.1-0.7,2.6l-12.8,7.4C52.2,76.8,51.9,76.9,51.6,76.9z"/>
		</g>
		<g>
			<path class="st0" d="M72.8,55.3c-1.1,0-1.9-0.9-1.9-1.9V37.9c0-1.1,0.9-1.9,1.9-1.9s1.9,0.9,1.9,1.9v15.5
				C74.7,54.4,73.8,55.3,72.8,55.3z"/>
		</g>
		<g>
			<path class="st0" d="M64.3,25.6c-0.3,0-0.7-0.1-1-0.3l-12.8-7.4c-0.9-0.5-1.2-1.7-0.7-2.6c0.5-0.9,1.7-1.2,2.6-0.7l12.8,7.4
				c0.9,0.5,1.2,1.7,0.7,2.6C65.6,25.2,65,25.6,64.3,25.6z"/>
		</g>
		<g>
			<path class="st0" d="M21.9,25.6c-0.7,0-1.3-0.3-1.7-1c-0.5-0.9-0.2-2.1,0.7-2.6l12.8-7.4c0.9-0.5,2.1-0.2,2.6,0.7
				c0.5,0.9,0.2,2.1-0.7,2.6l-12.8,7.4C22.6,25.5,22.3,25.6,21.9,25.6z"/>
		</g>
		<g>
			<path class="st1" d="M60.6,61.4H25.7c-1.1,0-1.9-0.9-1.9-1.9s0.9-1.9,1.9-1.9h34.8c1.1,0,1.9,0.9,1.9,1.9S61.6,61.4,60.6,61.4z"
				/>
		</g>
		<g>
			<path class="st2" d="M60.6,61.4H43.1c-1.1,0-1.9-0.9-1.9-1.9s0.9-1.9,1.9-1.9h17.4c1.1,0,1.9,0.9,1.9,1.9S61.6,61.4,60.6,61.4z"
				/>
		</g>
		<g>
			<path class="st3" d="M22.2,54.8c-0.3,0-0.7-0.1-1-0.3c-0.9-0.5-1.2-1.7-0.7-2.6l17.1-29.7c0.5-0.9,1.7-1.2,2.6-0.7
				c0.9,0.5,1.2,1.7,0.7,2.6L23.9,53.9C23.6,54.5,22.9,54.8,22.2,54.8z"/>
		</g>
		<g>
			<path class="st4" d="M22.2,54.8c-0.3,0-0.7-0.1-1-0.3c-0.9-0.5-1.2-1.7-0.7-2.6l8.6-14.8c0.5-0.9,1.7-1.2,2.6-0.7
				c0.9,0.5,1.2,1.7,0.7,2.6l-8.6,14.8C23.6,54.5,22.9,54.8,22.2,54.8z"/>
		</g>
		<g>
			<path class="st5" d="M64.1,54.9c-0.7,0-1.3-0.3-1.7-1L45.2,24.1c-0.5-0.9-0.2-2.1,0.7-2.6s2.1-0.2,2.6,0.7L65.7,52
				c0.5,0.9,0.2,2.1-0.7,2.6C64.7,54.8,64.4,54.9,64.1,54.9z"/>
		</g>
		<g>
			<path class="st6" d="M55.5,40c-0.7,0-1.3-0.3-1.7-1l-8.6-14.9c-0.5-0.9-0.2-2.1,0.7-2.6s2.1-0.2,2.6,0.7l8.6,14.9
				c0.5,0.9,0.2,2.1-0.7,2.6C56.1,39.9,55.8,40,55.5,40z"/>
		</g>
	</g>
	<g>
		<g>
			<path class="st7" d="M107.3,19c5.1,0,8.3,2.5,10.2,5.4l-4.4,2.4c-1.1-1.7-3.3-3.1-5.8-3.1c-4.5,0-7.7,3.4-7.7,8.1
				c0,4.7,3.3,8.1,7.7,8.1c2.3,0,4.3-0.9,5.3-1.9v-3h-6.6v-4.5h11.8v9.4c-2.5,2.8-6,4.7-10.5,4.7c-7.2,0-13.1-5-13.1-12.8
				C94.2,23.9,100.1,19,107.3,19z"/>
			<path class="st7" d="M121.9,26.2h4.7v2.4c1.3-1.6,3.5-2.8,5.7-2.8v4.6c-0.3-0.1-0.8-0.1-1.3-0.1c-1.6,0-3.6,0.9-4.4,2v11.8h-4.7
				V26.2z"/>
			<path class="st7" d="M146,42.2c-1.2,1.4-3.3,2.3-5.7,2.3c-2.8,0-6.2-1.9-6.2-5.9c0-4.2,3.4-5.7,6.2-5.7c2.4,0,4.5,0.7,5.7,2.2
				v-2.5c0-1.8-1.6-3-3.9-3c-1.9,0-3.7,0.7-5.2,2.1l-1.8-3.1c2.2-1.9,5-2.8,7.8-2.8c4.1,0,7.8,1.6,7.8,6.8v11.5H146V42.2z M146,37.5
				c-0.8-1-2.3-1.6-3.8-1.6c-1.9,0-3.4,1-3.4,2.7c0,1.7,1.5,2.6,3.4,2.6c1.5,0,3-0.5,3.8-1.6V37.5z"/>
			<path class="st7" d="M155.3,50.9V26.2h4.7v2.3c1.4-1.7,3.3-2.7,5.5-2.7c4.6,0,7.9,3.4,7.9,9.4c0,6-3.3,9.4-7.9,9.4
				c-2.1,0-4.1-0.9-5.5-2.7v9.1H155.3z M164.1,29.9c-1.5,0-3.3,0.9-4,2v6.3c0.8,1.1,2.5,2,4,2c2.7,0,4.5-2.1,4.5-5.2
				C168.6,32,166.8,29.9,164.1,29.9z"/>
			<path class="st7" d="M189.1,33.2c0-2.5-1.3-3.3-3.3-3.3c-1.8,0-3.3,1-4.1,2.1v12H177V19.4h4.7v9.1c1.1-1.4,3.4-2.8,6.3-2.8
				c3.9,0,5.8,2.1,5.8,5.6v12.7h-4.7V33.2z"/>
			<path class="st7" d="M219.9,40.5l1.8,2.1l-3.7,3l-2-2.3c-1.7,0.8-3.7,1.3-5.9,1.3c-7.4,0-12.9-5.3-12.9-12.8S202.8,19,210.2,19
				c7.5,0,12.9,5.3,12.9,12.8C223.2,35.2,222,38.2,219.9,40.5z M212.8,39.4l-2.8-3.3l3.7-3l2.8,3.3c0.8-1.3,1.3-2.9,1.3-4.7
				c0-4.6-3-8.1-7.5-8.1c-4.6,0-7.5,3.5-7.5,8.1c0,4.6,2.9,8.1,7.5,8.1C211.2,39.8,212.1,39.7,212.8,39.4z"/>
			<path class="st7" d="M226.9,19.4h5.3v20.1h10.4v4.6h-15.7V19.4z"/>
			<path class="st7" d="M244.9,33.1h8.9v4h-8.9V33.1z"/>
			<path class="st7" d="M257.3,19.4h17.5v4.5h-12.2v5.4h12v4.5h-12v5.7h12.2v4.6h-17.5V19.4z"/>
			<path class="st7" d="M290.8,41.8c-1.2,1.4-3.4,2.7-6.3,2.7c-3.9,0-5.8-2.1-5.8-5.6V26.2h4.7V37c0,2.5,1.3,3.3,3.3,3.3
				c1.8,0,3.3-1,4.1-2V26.2h4.7v17.9h-4.7V41.8z"/>
			<path class="st7" d="M300.2,26.2h4.7v2.4c1.3-1.6,3.5-2.8,5.7-2.8v4.6c-0.3-0.1-0.8-0.1-1.3-0.1c-1.6,0-3.6,0.9-4.4,2v11.8h-4.7
				V26.2z"/>
			<path class="st7" d="M312.4,35.1c0-5.1,3.6-9.4,9.4-9.4c5.9,0,9.5,4.3,9.5,9.4c0,5.1-3.6,9.4-9.5,9.4
				C315.9,44.5,312.4,40.2,312.4,35.1z M326.4,35.1c0-2.8-1.7-5.2-4.6-5.2s-4.6,2.4-4.6,5.2c0,2.8,1.6,5.2,4.6,5.2
				S326.4,37.9,326.4,35.1z"/>
			<path class="st7" d="M334.8,50.9V26.2h4.7v2.3c1.4-1.7,3.3-2.7,5.5-2.7c4.6,0,7.9,3.4,7.9,9.4c0,6-3.3,9.4-7.9,9.4
				c-2.1,0-4.1-0.9-5.5-2.7v9.1H334.8z M343.5,29.9c-1.5,0-3.3,0.9-4,2v6.3c0.8,1.1,2.5,2,4,2c2.7,0,4.5-2.1,4.5-5.2
				C348,32,346.2,29.9,343.5,29.9z"/>
			<path class="st7" d="M364.5,25.7c5.3,0,9,4,9,9.8v1h-13.3c0.3,2.3,2.1,4.1,5.1,4.1c1.7,0,3.6-0.7,4.8-1.8l2.1,3
				c-1.8,1.7-4.6,2.5-7.4,2.5c-5.4,0-9.5-3.7-9.5-9.4C355.3,29.9,359.1,25.7,364.5,25.7z M360.1,33.4h8.8c-0.1-1.7-1.3-4-4.4-4
				C361.6,29.5,360.3,31.7,360.1,33.4z"/>
		</g>
		<g>
			<path class="st7" d="M95.1,54.8h6.1c2.6,0,4.5,1.5,4.5,4.2c0,2.1-1.4,3.4-2.9,3.7c1.7,0.3,3.2,2.1,3.2,4c0,2.8-1.8,4.4-4.7,4.4
				h-6.2V54.8z M101.2,62.3c2.4,0,3.6-1.5,3.6-3.4c0-1.9-1.2-3.4-3.6-3.4h-5.4v6.8H101.2z M101.3,70.4c2.4,0,3.8-1.4,3.8-3.6
				c0-1.9-1.3-3.6-3.8-3.6h-5.5v7.3H101.3z"/>
			<path class="st7" d="M114.6,59c3.6,0,5.5,2.9,5.5,6.2v0.2h-10.2c0.1,2.9,2,5.3,5,5.3c1.7,0,3-0.6,4.1-1.8l0.4,0.5
				c-1.2,1.2-2.6,2-4.5,2c-3.4,0-5.8-2.6-5.8-6.2C109.1,61.7,111.5,59,114.6,59z M109.9,64.8h9.4c0-2.3-1.5-5.1-4.7-5.1
				C111.6,59.6,110,62.4,109.9,64.8z"/>
			<path class="st7" d="M123.7,59.3h0.7v2.2c1.1-1.4,2.3-2.4,4.1-2.4v0.9c-0.2,0-0.4,0-0.6,0c-1.2,0-2.9,1.2-3.5,2.3v8.9h-0.7V59.3z
				"/>
			<path class="st7" d="M131.1,54.8h0.7v16.3h-0.7V54.8z"/>
			<path class="st7" d="M135.7,56.5c0-0.4,0.3-0.7,0.7-0.7c0.4,0,0.7,0.3,0.7,0.7s-0.3,0.7-0.7,0.7
				C136.1,57.2,135.7,56.9,135.7,56.5z M136.1,59.3h0.7v11.8h-0.7V59.3z"/>
			<path class="st7" d="M149,62.8c0-2.5-1.2-3.2-3.1-3.2c-1.6,0-3.4,1.1-4.2,2.2v9.2H141V59.3h0.7v1.9c0.9-1.1,2.6-2.2,4.3-2.2
				c2.3,0,3.7,1.1,3.7,3.9v8.2H149V62.8z"/>
			<path class="st7" d="M153.2,73.5c0.8-0.6,1.3-1.5,1.3-2.3l-0.2,0c-0.5,0-0.8-0.4-0.8-0.8c0-0.4,0.3-0.8,0.8-0.8
				c0.5,0,1,0.5,1,1.3c0,1.2-0.7,2.4-1.5,3L153.2,73.5z"/>
			<path class="st7" d="M179.1,55.7l-6.4,15.4h-0.2l-6.4-15.4v15.4h-0.8V54.8h1.2l6,14.6l6-14.6h1.2v16.3h-0.8V55.7z"/>
			<path class="st7" d="M191.8,69.6c-1.1,1.2-2.4,1.7-4.1,1.7c-2.1,0-4.1-1.4-4.1-3.9s2-3.9,4.1-3.9c1.7,0,3,0.5,4.1,1.7v-2.7
				c0-1.9-1.5-2.9-3.3-2.9c-1.5,0-2.7,0.5-3.8,1.9l-0.6-0.5c1.1-1.3,2.4-2,4.4-2c2.3,0,4.1,1.2,4.1,3.6v8.5h-0.7V69.6z M191.8,66
				c-0.9-1.2-2.3-1.8-3.9-1.8c-2.2,0-3.5,1.4-3.5,3.3c0,1.8,1.4,3.3,3.5,3.3c1.5,0,3-0.6,3.9-1.8V66z"/>
			<path class="st7" d="M197,75.2c0.8,0,1.3-0.3,1.9-1.6l1.1-2.4l-5.1-11.9h0.9l4.6,11l4.6-11h0.9l-6.3,14.6c-0.6,1.3-1.4,2-2.6,2
				c-0.4,0-0.9-0.1-1.2-0.2L196,75C196.3,75.1,196.7,75.2,197,75.2z"/>
			<path class="st7" d="M214,70.4c5.2-4.3,9.5-8,9.5-11.4c0-2.6-2.1-3.7-4.1-3.7c-2.1,0-3.7,0.9-4.5,2.2l-0.6-0.5
				c1-1.5,2.9-2.5,5.2-2.5c2.1,0,4.8,1.2,4.8,4.4c0,3.8-4.3,7.4-9.1,11.4h9.1v0.7H214V70.4z"/>
			<path class="st7" d="M230.5,55.9l-2.6,2.8l-0.5-0.6l3.2-3.4h0.7v16.3h-0.8V55.9z"/>
			<path class="st7" d="M235.1,69c0.7,1,2,1.8,3.7,1.8c2.2,0,3.5-1.2,3.5-2.7c0-1.7-1.8-2.2-3.6-2.7c-2-0.5-4-1-4-3.2
				c0-1.7,1.5-3.1,4-3.1c2,0,3.3,0.8,4.1,1.8l-0.5,0.5c-0.7-1-1.9-1.6-3.5-1.6c-2.1,0-3.3,1.1-3.3,2.5c0,1.5,1.6,1.9,3.4,2.4
				c2,0.5,4.2,1.1,4.2,3.5c0,1.8-1.4,3.4-4.2,3.4c-1.9,0-3.2-0.5-4.3-1.9L235.1,69z"/>
			<path class="st7" d="M246.8,69v-9.1h-2v-0.7h2V56h0.7v3.2h2.4v0.7h-2.4V69c0,1,0.4,1.7,1.3,1.7c0.6,0,1.1-0.3,1.4-0.6l0.4,0.6
				c-0.5,0.4-1,0.7-1.8,0.7C247.4,71.4,246.8,70.5,246.8,69z"/>
			<path class="st7" d="M252.2,73.5c0.8-0.6,1.3-1.5,1.3-2.3l-0.2,0c-0.5,0-0.8-0.4-0.8-0.8c0-0.4,0.3-0.8,0.8-0.8
				c0.5,0,1,0.5,1,1.3c0,1.2-0.7,2.4-1.5,3L252.2,73.5z"/>
			<path class="st7" d="M263.6,70.4c5.2-4.3,9.5-8,9.5-11.4c0-2.6-2.1-3.7-4.1-3.7c-2.1,0-3.7,0.9-4.5,2.2l-0.6-0.5
				c1-1.5,2.9-2.5,5.2-2.5c2.1,0,4.8,1.2,4.8,4.4c0,3.8-4.3,7.4-9.1,11.4h9.1v0.7h-10.3V70.4z"/>
			<path class="st7" d="M283.7,54.5c4.3,0,5.8,4.6,5.8,8.4c0,3.8-1.5,8.4-5.8,8.4c-4.3,0-5.8-4.7-5.8-8.4
				C277.9,59.1,279.4,54.5,283.7,54.5z M283.7,55.3c-3.8,0-5,4.2-5,7.7c0,3.4,1.2,7.7,5,7.7c3.7,0,4.9-4.3,4.9-7.7
				C288.7,59.5,287.5,55.3,283.7,55.3z"/>
			<path class="st7" d="M294.9,55.9l-2.6,2.8l-0.5-0.6l3.2-3.4h0.7v16.3h-0.8V55.9z"/>
			<path class="st7" d="M308,55.5h-9.3v-0.7H309v0.5l-7.2,15.8h-0.9L308,55.5z"/>
		</g>
	</g>
</g>
</svg>
